G04 #@! TF.GenerationSoftware,KiCad,Pcbnew,(5.1.0-0)*
G04 #@! TF.CreationDate,2019-03-17T19:53:17-07:00*
G04 #@! TF.ProjectId,Jack Board,4a61636b-2042-46f6-9172-642e6b696361,rev?*
G04 #@! TF.SameCoordinates,Original*
G04 #@! TF.FileFunction,Legend,Top*
G04 #@! TF.FilePolarity,Positive*
%FSLAX46Y46*%
G04 Gerber Fmt 4.6, Leading zero omitted, Abs format (unit mm)*
G04 Created by KiCad (PCBNEW (5.1.0-0)) date 2019-03-17 19:53:17*
%MOMM*%
%LPD*%
G04 APERTURE LIST*
%ADD10C,0.120000*%
%ADD11C,0.150000*%
G04 APERTURE END LIST*
D10*
X199900000Y-121125000D02*
X199900000Y-120015000D01*
X200660000Y-121125000D02*
X199900000Y-121125000D01*
X201420000Y-119451529D02*
X201420000Y-118905000D01*
X201420000Y-121125000D02*
X201420000Y-120578471D01*
X201420000Y-118905000D02*
X203895000Y-118905000D01*
X201420000Y-121125000D02*
X203895000Y-121125000D01*
X203895000Y-119707470D02*
X203895000Y-118905000D01*
X203895000Y-121125000D02*
X203895000Y-120322530D01*
X199900000Y-114140000D02*
X199900000Y-113030000D01*
X200660000Y-114140000D02*
X199900000Y-114140000D01*
X201420000Y-112466529D02*
X201420000Y-111920000D01*
X201420000Y-114140000D02*
X201420000Y-113593471D01*
X201420000Y-111920000D02*
X202625000Y-111920000D01*
X201420000Y-114140000D02*
X202625000Y-114140000D01*
X202625000Y-112722470D02*
X202625000Y-111920000D01*
X202625000Y-114140000D02*
X202625000Y-113337530D01*
X174500000Y-121125000D02*
X174500000Y-120015000D01*
X175260000Y-121125000D02*
X174500000Y-121125000D01*
X176020000Y-119451529D02*
X176020000Y-118905000D01*
X176020000Y-121125000D02*
X176020000Y-120578471D01*
X176020000Y-118905000D02*
X178495000Y-118905000D01*
X176020000Y-121125000D02*
X178495000Y-121125000D01*
X178495000Y-119707470D02*
X178495000Y-118905000D01*
X178495000Y-121125000D02*
X178495000Y-120322530D01*
X174500000Y-114140000D02*
X174500000Y-113030000D01*
X175260000Y-114140000D02*
X174500000Y-114140000D01*
X176020000Y-112466529D02*
X176020000Y-111920000D01*
X176020000Y-114140000D02*
X176020000Y-113593471D01*
X176020000Y-111920000D02*
X177225000Y-111920000D01*
X176020000Y-114140000D02*
X177225000Y-114140000D01*
X177225000Y-112722470D02*
X177225000Y-111920000D01*
X177225000Y-114140000D02*
X177225000Y-113337530D01*
X149100000Y-121125000D02*
X149100000Y-120015000D01*
X149860000Y-121125000D02*
X149100000Y-121125000D01*
X150620000Y-119451529D02*
X150620000Y-118905000D01*
X150620000Y-121125000D02*
X150620000Y-120578471D01*
X150620000Y-118905000D02*
X153095000Y-118905000D01*
X150620000Y-121125000D02*
X153095000Y-121125000D01*
X153095000Y-119707470D02*
X153095000Y-118905000D01*
X153095000Y-121125000D02*
X153095000Y-120322530D01*
X149100000Y-114140000D02*
X149100000Y-113030000D01*
X149860000Y-114140000D02*
X149100000Y-114140000D01*
X150620000Y-112466529D02*
X150620000Y-111920000D01*
X150620000Y-114140000D02*
X150620000Y-113593471D01*
X150620000Y-111920000D02*
X151825000Y-111920000D01*
X150620000Y-114140000D02*
X151825000Y-114140000D01*
X151825000Y-112722470D02*
X151825000Y-111920000D01*
X151825000Y-114140000D02*
X151825000Y-113337530D01*
X123700000Y-121125000D02*
X123700000Y-120015000D01*
X124460000Y-121125000D02*
X123700000Y-121125000D01*
X125220000Y-119451529D02*
X125220000Y-118905000D01*
X125220000Y-121125000D02*
X125220000Y-120578471D01*
X125220000Y-118905000D02*
X127695000Y-118905000D01*
X125220000Y-121125000D02*
X127695000Y-121125000D01*
X127695000Y-119707470D02*
X127695000Y-118905000D01*
X127695000Y-121125000D02*
X127695000Y-120322530D01*
X123700000Y-114140000D02*
X123700000Y-113030000D01*
X124460000Y-114140000D02*
X123700000Y-114140000D01*
X125220000Y-112466529D02*
X125220000Y-111920000D01*
X125220000Y-114140000D02*
X125220000Y-113593471D01*
X125220000Y-111920000D02*
X126425000Y-111920000D01*
X125220000Y-114140000D02*
X126425000Y-114140000D01*
X126425000Y-112722470D02*
X126425000Y-111920000D01*
X126425000Y-114140000D02*
X126425000Y-113337530D01*
X98300000Y-120490000D02*
X98300000Y-119380000D01*
X99060000Y-120490000D02*
X98300000Y-120490000D01*
X99820000Y-118816529D02*
X99820000Y-118270000D01*
X99820000Y-120490000D02*
X99820000Y-119943471D01*
X99820000Y-118270000D02*
X102295000Y-118270000D01*
X99820000Y-120490000D02*
X102295000Y-120490000D01*
X102295000Y-119072470D02*
X102295000Y-118270000D01*
X102295000Y-120490000D02*
X102295000Y-119687530D01*
X98300000Y-114140000D02*
X98300000Y-113030000D01*
X99060000Y-114140000D02*
X98300000Y-114140000D01*
X99820000Y-112466529D02*
X99820000Y-111920000D01*
X99820000Y-114140000D02*
X99820000Y-113593471D01*
X99820000Y-111920000D02*
X101025000Y-111920000D01*
X99820000Y-114140000D02*
X101025000Y-114140000D01*
X101025000Y-112722470D02*
X101025000Y-111920000D01*
X101025000Y-114140000D02*
X101025000Y-113337530D01*
D11*
X197310476Y-119467380D02*
X197310476Y-120181666D01*
X197262857Y-120324523D01*
X197167619Y-120419761D01*
X197024761Y-120467380D01*
X196929523Y-120467380D01*
X198310476Y-120467380D02*
X197739047Y-120467380D01*
X198024761Y-120467380D02*
X198024761Y-119467380D01*
X197929523Y-119610238D01*
X197834285Y-119705476D01*
X197739047Y-119753095D01*
X198929523Y-119467380D02*
X199024761Y-119467380D01*
X199120000Y-119515000D01*
X199167619Y-119562619D01*
X199215238Y-119657857D01*
X199262857Y-119848333D01*
X199262857Y-120086428D01*
X199215238Y-120276904D01*
X199167619Y-120372142D01*
X199120000Y-120419761D01*
X199024761Y-120467380D01*
X198929523Y-120467380D01*
X198834285Y-120419761D01*
X198786666Y-120372142D01*
X198739047Y-120276904D01*
X198691428Y-120086428D01*
X198691428Y-119848333D01*
X198739047Y-119657857D01*
X198786666Y-119562619D01*
X198834285Y-119515000D01*
X198929523Y-119467380D01*
X177038095Y-109672380D02*
X177038095Y-108672380D01*
X177038095Y-109148571D02*
X177609523Y-109148571D01*
X177609523Y-109672380D02*
X177609523Y-108672380D01*
X178514285Y-109005714D02*
X178514285Y-109672380D01*
X178276190Y-108624761D02*
X178038095Y-109339047D01*
X178657142Y-109339047D01*
X184872380Y-103290476D02*
X184872380Y-103100000D01*
X184920000Y-103004761D01*
X185015238Y-102909523D01*
X185205714Y-102861904D01*
X185539047Y-102861904D01*
X185729523Y-102909523D01*
X185824761Y-103004761D01*
X185872380Y-103100000D01*
X185872380Y-103290476D01*
X185824761Y-103385714D01*
X185729523Y-103480952D01*
X185539047Y-103528571D01*
X185205714Y-103528571D01*
X185015238Y-103480952D01*
X184920000Y-103385714D01*
X184872380Y-103290476D01*
X185205714Y-102004761D02*
X185872380Y-102004761D01*
X185205714Y-102433333D02*
X185729523Y-102433333D01*
X185824761Y-102385714D01*
X185872380Y-102290476D01*
X185872380Y-102147619D01*
X185824761Y-102052380D01*
X185777142Y-102004761D01*
X185205714Y-101671428D02*
X185205714Y-101290476D01*
X184872380Y-101528571D02*
X185729523Y-101528571D01*
X185824761Y-101480952D01*
X185872380Y-101385714D01*
X185872380Y-101290476D01*
X184967619Y-100242857D02*
X184920000Y-100195238D01*
X184872380Y-100100000D01*
X184872380Y-99861904D01*
X184920000Y-99766666D01*
X184967619Y-99719047D01*
X185062857Y-99671428D01*
X185158095Y-99671428D01*
X185300952Y-99719047D01*
X185872380Y-100290476D01*
X185872380Y-99671428D01*
X151638095Y-109672380D02*
X151638095Y-108672380D01*
X151638095Y-109148571D02*
X152209523Y-109148571D01*
X152209523Y-109672380D02*
X152209523Y-108672380D01*
X152590476Y-108672380D02*
X153209523Y-108672380D01*
X152876190Y-109053333D01*
X153019047Y-109053333D01*
X153114285Y-109100952D01*
X153161904Y-109148571D01*
X153209523Y-109243809D01*
X153209523Y-109481904D01*
X153161904Y-109577142D01*
X153114285Y-109624761D01*
X153019047Y-109672380D01*
X152733333Y-109672380D01*
X152638095Y-109624761D01*
X152590476Y-109577142D01*
X160107380Y-103290476D02*
X160107380Y-103100000D01*
X160155000Y-103004761D01*
X160250238Y-102909523D01*
X160440714Y-102861904D01*
X160774047Y-102861904D01*
X160964523Y-102909523D01*
X161059761Y-103004761D01*
X161107380Y-103100000D01*
X161107380Y-103290476D01*
X161059761Y-103385714D01*
X160964523Y-103480952D01*
X160774047Y-103528571D01*
X160440714Y-103528571D01*
X160250238Y-103480952D01*
X160155000Y-103385714D01*
X160107380Y-103290476D01*
X160440714Y-102004761D02*
X161107380Y-102004761D01*
X160440714Y-102433333D02*
X160964523Y-102433333D01*
X161059761Y-102385714D01*
X161107380Y-102290476D01*
X161107380Y-102147619D01*
X161059761Y-102052380D01*
X161012142Y-102004761D01*
X160440714Y-101671428D02*
X160440714Y-101290476D01*
X160107380Y-101528571D02*
X160964523Y-101528571D01*
X161059761Y-101480952D01*
X161107380Y-101385714D01*
X161107380Y-101290476D01*
X161107380Y-99671428D02*
X161107380Y-100242857D01*
X161107380Y-99957142D02*
X160107380Y-99957142D01*
X160250238Y-100052380D01*
X160345476Y-100147619D01*
X160393095Y-100242857D01*
X126238095Y-109672380D02*
X126238095Y-108672380D01*
X126238095Y-109148571D02*
X126809523Y-109148571D01*
X126809523Y-109672380D02*
X126809523Y-108672380D01*
X127238095Y-108767619D02*
X127285714Y-108720000D01*
X127380952Y-108672380D01*
X127619047Y-108672380D01*
X127714285Y-108720000D01*
X127761904Y-108767619D01*
X127809523Y-108862857D01*
X127809523Y-108958095D01*
X127761904Y-109100952D01*
X127190476Y-109672380D01*
X127809523Y-109672380D01*
X134072380Y-103528571D02*
X134072380Y-102957142D01*
X135072380Y-103242857D02*
X134072380Y-103242857D01*
X134405714Y-102195238D02*
X135072380Y-102195238D01*
X134405714Y-102623809D02*
X134929523Y-102623809D01*
X135024761Y-102576190D01*
X135072380Y-102480952D01*
X135072380Y-102338095D01*
X135024761Y-102242857D01*
X134977142Y-102195238D01*
X134405714Y-101719047D02*
X135072380Y-101719047D01*
X134500952Y-101719047D02*
X134453333Y-101671428D01*
X134405714Y-101576190D01*
X134405714Y-101433333D01*
X134453333Y-101338095D01*
X134548571Y-101290476D01*
X135072380Y-101290476D01*
X135024761Y-100433333D02*
X135072380Y-100528571D01*
X135072380Y-100719047D01*
X135024761Y-100814285D01*
X134929523Y-100861904D01*
X134548571Y-100861904D01*
X134453333Y-100814285D01*
X134405714Y-100719047D01*
X134405714Y-100528571D01*
X134453333Y-100433333D01*
X134548571Y-100385714D01*
X134643809Y-100385714D01*
X134739047Y-100861904D01*
X135072380Y-99957142D02*
X134405714Y-99957142D01*
X134596190Y-99957142D02*
X134500952Y-99909523D01*
X134453333Y-99861904D01*
X134405714Y-99766666D01*
X134405714Y-99671428D01*
X100838095Y-109672380D02*
X100838095Y-108672380D01*
X100838095Y-109148571D02*
X101409523Y-109148571D01*
X101409523Y-109672380D02*
X101409523Y-108672380D01*
X102409523Y-109672380D02*
X101838095Y-109672380D01*
X102123809Y-109672380D02*
X102123809Y-108672380D01*
X102028571Y-108815238D01*
X101933333Y-108910476D01*
X101838095Y-108958095D01*
X109672380Y-103242857D02*
X108672380Y-103242857D01*
X109005714Y-102766666D02*
X109672380Y-102766666D01*
X109100952Y-102766666D02*
X109053333Y-102719047D01*
X109005714Y-102623809D01*
X109005714Y-102480952D01*
X109053333Y-102385714D01*
X109148571Y-102338095D01*
X109672380Y-102338095D01*
X109005714Y-101861904D02*
X110005714Y-101861904D01*
X109053333Y-101861904D02*
X109005714Y-101766666D01*
X109005714Y-101576190D01*
X109053333Y-101480952D01*
X109100952Y-101433333D01*
X109196190Y-101385714D01*
X109481904Y-101385714D01*
X109577142Y-101433333D01*
X109624761Y-101480952D01*
X109672380Y-101576190D01*
X109672380Y-101766666D01*
X109624761Y-101861904D01*
X109005714Y-100528571D02*
X109672380Y-100528571D01*
X109005714Y-100957142D02*
X109529523Y-100957142D01*
X109624761Y-100909523D01*
X109672380Y-100814285D01*
X109672380Y-100671428D01*
X109624761Y-100576190D01*
X109577142Y-100528571D01*
X109005714Y-100195238D02*
X109005714Y-99814285D01*
X108672380Y-100052380D02*
X109529523Y-100052380D01*
X109624761Y-100004761D01*
X109672380Y-99909523D01*
X109672380Y-99814285D01*
X197786666Y-112482380D02*
X197786666Y-113196666D01*
X197739047Y-113339523D01*
X197643809Y-113434761D01*
X197500952Y-113482380D01*
X197405714Y-113482380D01*
X198310476Y-113482380D02*
X198500952Y-113482380D01*
X198596190Y-113434761D01*
X198643809Y-113387142D01*
X198739047Y-113244285D01*
X198786666Y-113053809D01*
X198786666Y-112672857D01*
X198739047Y-112577619D01*
X198691428Y-112530000D01*
X198596190Y-112482380D01*
X198405714Y-112482380D01*
X198310476Y-112530000D01*
X198262857Y-112577619D01*
X198215238Y-112672857D01*
X198215238Y-112910952D01*
X198262857Y-113006190D01*
X198310476Y-113053809D01*
X198405714Y-113101428D01*
X198596190Y-113101428D01*
X198691428Y-113053809D01*
X198739047Y-113006190D01*
X198786666Y-112910952D01*
X202438095Y-109672380D02*
X202438095Y-108672380D01*
X202438095Y-109148571D02*
X203009523Y-109148571D01*
X203009523Y-109672380D02*
X203009523Y-108672380D01*
X203961904Y-108672380D02*
X203485714Y-108672380D01*
X203438095Y-109148571D01*
X203485714Y-109100952D01*
X203580952Y-109053333D01*
X203819047Y-109053333D01*
X203914285Y-109100952D01*
X203961904Y-109148571D01*
X204009523Y-109243809D01*
X204009523Y-109481904D01*
X203961904Y-109577142D01*
X203914285Y-109624761D01*
X203819047Y-109672380D01*
X203580952Y-109672380D01*
X203485714Y-109624761D01*
X203438095Y-109577142D01*
X194397380Y-103290476D02*
X194397380Y-103100000D01*
X194445000Y-103004761D01*
X194540238Y-102909523D01*
X194730714Y-102861904D01*
X195064047Y-102861904D01*
X195254523Y-102909523D01*
X195349761Y-103004761D01*
X195397380Y-103100000D01*
X195397380Y-103290476D01*
X195349761Y-103385714D01*
X195254523Y-103480952D01*
X195064047Y-103528571D01*
X194730714Y-103528571D01*
X194540238Y-103480952D01*
X194445000Y-103385714D01*
X194397380Y-103290476D01*
X194730714Y-102004761D02*
X195397380Y-102004761D01*
X194730714Y-102433333D02*
X195254523Y-102433333D01*
X195349761Y-102385714D01*
X195397380Y-102290476D01*
X195397380Y-102147619D01*
X195349761Y-102052380D01*
X195302142Y-102004761D01*
X194730714Y-101671428D02*
X194730714Y-101290476D01*
X194397380Y-101528571D02*
X195254523Y-101528571D01*
X195349761Y-101480952D01*
X195397380Y-101385714D01*
X195397380Y-101290476D01*
X194397380Y-100290476D02*
X194397380Y-99671428D01*
X194778333Y-100004761D01*
X194778333Y-99861904D01*
X194825952Y-99766666D01*
X194873571Y-99719047D01*
X194968809Y-99671428D01*
X195206904Y-99671428D01*
X195302142Y-99719047D01*
X195349761Y-99766666D01*
X195397380Y-99861904D01*
X195397380Y-100147619D01*
X195349761Y-100242857D01*
X195302142Y-100290476D01*
X172386666Y-119467380D02*
X172386666Y-120181666D01*
X172339047Y-120324523D01*
X172243809Y-120419761D01*
X172100952Y-120467380D01*
X172005714Y-120467380D01*
X173005714Y-119895952D02*
X172910476Y-119848333D01*
X172862857Y-119800714D01*
X172815238Y-119705476D01*
X172815238Y-119657857D01*
X172862857Y-119562619D01*
X172910476Y-119515000D01*
X173005714Y-119467380D01*
X173196190Y-119467380D01*
X173291428Y-119515000D01*
X173339047Y-119562619D01*
X173386666Y-119657857D01*
X173386666Y-119705476D01*
X173339047Y-119800714D01*
X173291428Y-119848333D01*
X173196190Y-119895952D01*
X173005714Y-119895952D01*
X172910476Y-119943571D01*
X172862857Y-119991190D01*
X172815238Y-120086428D01*
X172815238Y-120276904D01*
X172862857Y-120372142D01*
X172910476Y-120419761D01*
X173005714Y-120467380D01*
X173196190Y-120467380D01*
X173291428Y-120419761D01*
X173339047Y-120372142D01*
X173386666Y-120276904D01*
X173386666Y-120086428D01*
X173339047Y-119991190D01*
X173291428Y-119943571D01*
X173196190Y-119895952D01*
X172386666Y-112482380D02*
X172386666Y-113196666D01*
X172339047Y-113339523D01*
X172243809Y-113434761D01*
X172100952Y-113482380D01*
X172005714Y-113482380D01*
X172767619Y-112482380D02*
X173434285Y-112482380D01*
X173005714Y-113482380D01*
X146986666Y-119467380D02*
X146986666Y-120181666D01*
X146939047Y-120324523D01*
X146843809Y-120419761D01*
X146700952Y-120467380D01*
X146605714Y-120467380D01*
X147891428Y-119467380D02*
X147700952Y-119467380D01*
X147605714Y-119515000D01*
X147558095Y-119562619D01*
X147462857Y-119705476D01*
X147415238Y-119895952D01*
X147415238Y-120276904D01*
X147462857Y-120372142D01*
X147510476Y-120419761D01*
X147605714Y-120467380D01*
X147796190Y-120467380D01*
X147891428Y-120419761D01*
X147939047Y-120372142D01*
X147986666Y-120276904D01*
X147986666Y-120038809D01*
X147939047Y-119943571D01*
X147891428Y-119895952D01*
X147796190Y-119848333D01*
X147605714Y-119848333D01*
X147510476Y-119895952D01*
X147462857Y-119943571D01*
X147415238Y-120038809D01*
X146986666Y-112482380D02*
X146986666Y-113196666D01*
X146939047Y-113339523D01*
X146843809Y-113434761D01*
X146700952Y-113482380D01*
X146605714Y-113482380D01*
X147939047Y-112482380D02*
X147462857Y-112482380D01*
X147415238Y-112958571D01*
X147462857Y-112910952D01*
X147558095Y-112863333D01*
X147796190Y-112863333D01*
X147891428Y-112910952D01*
X147939047Y-112958571D01*
X147986666Y-113053809D01*
X147986666Y-113291904D01*
X147939047Y-113387142D01*
X147891428Y-113434761D01*
X147796190Y-113482380D01*
X147558095Y-113482380D01*
X147462857Y-113434761D01*
X147415238Y-113387142D01*
X121586666Y-119467380D02*
X121586666Y-120181666D01*
X121539047Y-120324523D01*
X121443809Y-120419761D01*
X121300952Y-120467380D01*
X121205714Y-120467380D01*
X122491428Y-119800714D02*
X122491428Y-120467380D01*
X122253333Y-119419761D02*
X122015238Y-120134047D01*
X122634285Y-120134047D01*
X121586666Y-112482380D02*
X121586666Y-113196666D01*
X121539047Y-113339523D01*
X121443809Y-113434761D01*
X121300952Y-113482380D01*
X121205714Y-113482380D01*
X121967619Y-112482380D02*
X122586666Y-112482380D01*
X122253333Y-112863333D01*
X122396190Y-112863333D01*
X122491428Y-112910952D01*
X122539047Y-112958571D01*
X122586666Y-113053809D01*
X122586666Y-113291904D01*
X122539047Y-113387142D01*
X122491428Y-113434761D01*
X122396190Y-113482380D01*
X122110476Y-113482380D01*
X122015238Y-113434761D01*
X121967619Y-113387142D01*
X96186666Y-118832380D02*
X96186666Y-119546666D01*
X96139047Y-119689523D01*
X96043809Y-119784761D01*
X95900952Y-119832380D01*
X95805714Y-119832380D01*
X96615238Y-118927619D02*
X96662857Y-118880000D01*
X96758095Y-118832380D01*
X96996190Y-118832380D01*
X97091428Y-118880000D01*
X97139047Y-118927619D01*
X97186666Y-119022857D01*
X97186666Y-119118095D01*
X97139047Y-119260952D01*
X96567619Y-119832380D01*
X97186666Y-119832380D01*
X96186666Y-112482380D02*
X96186666Y-113196666D01*
X96139047Y-113339523D01*
X96043809Y-113434761D01*
X95900952Y-113482380D01*
X95805714Y-113482380D01*
X97186666Y-113482380D02*
X96615238Y-113482380D01*
X96900952Y-113482380D02*
X96900952Y-112482380D01*
X96805714Y-112625238D01*
X96710476Y-112720476D01*
X96615238Y-112768095D01*
M02*
