G04 #@! TF.GenerationSoftware,KiCad,Pcbnew,(5.1.0-0)*
G04 #@! TF.CreationDate,2019-03-17T19:53:17-07:00*
G04 #@! TF.ProjectId,Jack Board,4a61636b-2042-46f6-9172-642e6b696361,rev?*
G04 #@! TF.SameCoordinates,Original*
G04 #@! TF.FileFunction,Soldermask,Top*
G04 #@! TF.FilePolarity,Negative*
%FSLAX46Y46*%
G04 Gerber Fmt 4.6, Leading zero omitted, Abs format (unit mm)*
G04 Created by KiCad (PCBNEW (5.1.0-0)) date 2019-03-17 19:53:17*
%MOMM*%
%LPD*%
G04 APERTURE LIST*
%ADD10C,0.100000*%
G04 APERTURE END LIST*
D10*
G36*
X201211000Y-119692265D02*
G01*
X201213402Y-119716651D01*
X201220515Y-119740100D01*
X201232066Y-119761711D01*
X201247611Y-119780653D01*
X201266553Y-119796198D01*
X201288164Y-119807749D01*
X201311613Y-119814862D01*
X201335999Y-119817264D01*
X201360385Y-119814862D01*
X201383834Y-119807749D01*
X201405445Y-119796198D01*
X201424387Y-119780653D01*
X201439932Y-119761711D01*
X201446233Y-119751198D01*
X201469644Y-119707400D01*
X201538499Y-119623499D01*
X201538576Y-119623436D01*
X201622400Y-119554643D01*
X201690945Y-119518005D01*
X201718121Y-119503479D01*
X201821985Y-119471973D01*
X201902933Y-119464000D01*
X201957067Y-119464000D01*
X202038015Y-119471973D01*
X202141879Y-119503479D01*
X202169055Y-119518005D01*
X202237600Y-119554643D01*
X202321501Y-119623499D01*
X202390357Y-119707400D01*
X202424619Y-119771501D01*
X202441521Y-119803121D01*
X202445388Y-119815869D01*
X202454760Y-119838496D01*
X202468374Y-119858870D01*
X202485701Y-119876197D01*
X202506075Y-119889811D01*
X202528714Y-119899188D01*
X202552747Y-119903969D01*
X202577251Y-119903969D01*
X202601285Y-119899189D01*
X202623924Y-119889812D01*
X202644298Y-119876198D01*
X202661625Y-119858871D01*
X202675239Y-119838497D01*
X202684612Y-119815869D01*
X202688479Y-119803121D01*
X202705381Y-119771501D01*
X202739643Y-119707400D01*
X202808499Y-119623499D01*
X202892400Y-119554643D01*
X202960945Y-119518005D01*
X202988121Y-119503479D01*
X203091985Y-119471973D01*
X203172933Y-119464000D01*
X203227067Y-119464000D01*
X203308015Y-119471973D01*
X203411879Y-119503479D01*
X203439055Y-119518005D01*
X203507600Y-119554643D01*
X203591501Y-119623499D01*
X203660357Y-119707400D01*
X203694619Y-119771501D01*
X203711521Y-119803121D01*
X203743027Y-119906985D01*
X203753666Y-120015000D01*
X203743027Y-120123015D01*
X203711521Y-120226879D01*
X203711191Y-120227496D01*
X203660357Y-120322600D01*
X203591501Y-120406501D01*
X203507600Y-120475357D01*
X203439055Y-120511995D01*
X203411879Y-120526521D01*
X203308015Y-120558027D01*
X203227067Y-120566000D01*
X203172933Y-120566000D01*
X203091985Y-120558027D01*
X202988121Y-120526521D01*
X202960945Y-120511995D01*
X202892400Y-120475357D01*
X202808499Y-120406501D01*
X202739643Y-120322600D01*
X202688809Y-120227496D01*
X202688479Y-120226879D01*
X202684612Y-120214131D01*
X202675240Y-120191504D01*
X202661626Y-120171130D01*
X202644299Y-120153803D01*
X202623925Y-120140189D01*
X202601286Y-120130812D01*
X202577253Y-120126031D01*
X202552749Y-120126031D01*
X202528715Y-120130811D01*
X202506076Y-120140188D01*
X202485702Y-120153802D01*
X202468375Y-120171129D01*
X202454761Y-120191503D01*
X202445388Y-120214131D01*
X202441521Y-120226879D01*
X202441191Y-120227496D01*
X202390357Y-120322600D01*
X202321501Y-120406501D01*
X202237600Y-120475357D01*
X202169055Y-120511995D01*
X202141879Y-120526521D01*
X202038015Y-120558027D01*
X201957067Y-120566000D01*
X201902933Y-120566000D01*
X201821985Y-120558027D01*
X201718121Y-120526521D01*
X201690945Y-120511995D01*
X201622400Y-120475357D01*
X201538499Y-120406501D01*
X201469645Y-120322601D01*
X201469644Y-120322600D01*
X201446236Y-120278807D01*
X201432625Y-120258437D01*
X201415298Y-120241110D01*
X201394924Y-120227496D01*
X201372285Y-120218119D01*
X201348252Y-120213338D01*
X201323748Y-120213338D01*
X201299714Y-120218118D01*
X201277076Y-120227495D01*
X201256701Y-120241109D01*
X201239374Y-120258436D01*
X201225760Y-120278810D01*
X201216383Y-120301449D01*
X201211602Y-120325482D01*
X201211000Y-120337735D01*
X201211000Y-120566000D01*
X200109000Y-120566000D01*
X200109000Y-119464000D01*
X201211000Y-119464000D01*
X201211000Y-119692265D01*
X201211000Y-119692265D01*
G37*
G36*
X150411000Y-119692265D02*
G01*
X150413402Y-119716651D01*
X150420515Y-119740100D01*
X150432066Y-119761711D01*
X150447611Y-119780653D01*
X150466553Y-119796198D01*
X150488164Y-119807749D01*
X150511613Y-119814862D01*
X150535999Y-119817264D01*
X150560385Y-119814862D01*
X150583834Y-119807749D01*
X150605445Y-119796198D01*
X150624387Y-119780653D01*
X150639932Y-119761711D01*
X150646233Y-119751198D01*
X150669644Y-119707400D01*
X150738499Y-119623499D01*
X150738576Y-119623436D01*
X150822400Y-119554643D01*
X150890945Y-119518005D01*
X150918121Y-119503479D01*
X151021985Y-119471973D01*
X151102933Y-119464000D01*
X151157067Y-119464000D01*
X151238015Y-119471973D01*
X151341879Y-119503479D01*
X151369055Y-119518005D01*
X151437600Y-119554643D01*
X151521501Y-119623499D01*
X151590357Y-119707400D01*
X151624619Y-119771501D01*
X151641521Y-119803121D01*
X151645388Y-119815869D01*
X151654760Y-119838496D01*
X151668374Y-119858870D01*
X151685701Y-119876197D01*
X151706075Y-119889811D01*
X151728714Y-119899188D01*
X151752747Y-119903969D01*
X151777251Y-119903969D01*
X151801285Y-119899189D01*
X151823924Y-119889812D01*
X151844298Y-119876198D01*
X151861625Y-119858871D01*
X151875239Y-119838497D01*
X151884612Y-119815869D01*
X151888479Y-119803121D01*
X151905381Y-119771501D01*
X151939643Y-119707400D01*
X152008499Y-119623499D01*
X152092400Y-119554643D01*
X152160945Y-119518005D01*
X152188121Y-119503479D01*
X152291985Y-119471973D01*
X152372933Y-119464000D01*
X152427067Y-119464000D01*
X152508015Y-119471973D01*
X152611879Y-119503479D01*
X152639055Y-119518005D01*
X152707600Y-119554643D01*
X152791501Y-119623499D01*
X152860357Y-119707400D01*
X152894619Y-119771501D01*
X152911521Y-119803121D01*
X152943027Y-119906985D01*
X152953666Y-120015000D01*
X152943027Y-120123015D01*
X152911521Y-120226879D01*
X152911191Y-120227496D01*
X152860357Y-120322600D01*
X152791501Y-120406501D01*
X152707600Y-120475357D01*
X152639055Y-120511995D01*
X152611879Y-120526521D01*
X152508015Y-120558027D01*
X152427067Y-120566000D01*
X152372933Y-120566000D01*
X152291985Y-120558027D01*
X152188121Y-120526521D01*
X152160945Y-120511995D01*
X152092400Y-120475357D01*
X152008499Y-120406501D01*
X151939643Y-120322600D01*
X151888809Y-120227496D01*
X151888479Y-120226879D01*
X151884612Y-120214131D01*
X151875240Y-120191504D01*
X151861626Y-120171130D01*
X151844299Y-120153803D01*
X151823925Y-120140189D01*
X151801286Y-120130812D01*
X151777253Y-120126031D01*
X151752749Y-120126031D01*
X151728715Y-120130811D01*
X151706076Y-120140188D01*
X151685702Y-120153802D01*
X151668375Y-120171129D01*
X151654761Y-120191503D01*
X151645388Y-120214131D01*
X151641521Y-120226879D01*
X151641191Y-120227496D01*
X151590357Y-120322600D01*
X151521501Y-120406501D01*
X151437600Y-120475357D01*
X151369055Y-120511995D01*
X151341879Y-120526521D01*
X151238015Y-120558027D01*
X151157067Y-120566000D01*
X151102933Y-120566000D01*
X151021985Y-120558027D01*
X150918121Y-120526521D01*
X150890945Y-120511995D01*
X150822400Y-120475357D01*
X150738499Y-120406501D01*
X150669645Y-120322601D01*
X150669644Y-120322600D01*
X150646236Y-120278807D01*
X150632625Y-120258437D01*
X150615298Y-120241110D01*
X150594924Y-120227496D01*
X150572285Y-120218119D01*
X150548252Y-120213338D01*
X150523748Y-120213338D01*
X150499714Y-120218118D01*
X150477076Y-120227495D01*
X150456701Y-120241109D01*
X150439374Y-120258436D01*
X150425760Y-120278810D01*
X150416383Y-120301449D01*
X150411602Y-120325482D01*
X150411000Y-120337735D01*
X150411000Y-120566000D01*
X149309000Y-120566000D01*
X149309000Y-119464000D01*
X150411000Y-119464000D01*
X150411000Y-119692265D01*
X150411000Y-119692265D01*
G37*
G36*
X175811000Y-119692265D02*
G01*
X175813402Y-119716651D01*
X175820515Y-119740100D01*
X175832066Y-119761711D01*
X175847611Y-119780653D01*
X175866553Y-119796198D01*
X175888164Y-119807749D01*
X175911613Y-119814862D01*
X175935999Y-119817264D01*
X175960385Y-119814862D01*
X175983834Y-119807749D01*
X176005445Y-119796198D01*
X176024387Y-119780653D01*
X176039932Y-119761711D01*
X176046233Y-119751198D01*
X176069644Y-119707400D01*
X176138499Y-119623499D01*
X176138576Y-119623436D01*
X176222400Y-119554643D01*
X176290945Y-119518005D01*
X176318121Y-119503479D01*
X176421985Y-119471973D01*
X176502933Y-119464000D01*
X176557067Y-119464000D01*
X176638015Y-119471973D01*
X176741879Y-119503479D01*
X176769055Y-119518005D01*
X176837600Y-119554643D01*
X176921501Y-119623499D01*
X176990357Y-119707400D01*
X177024619Y-119771501D01*
X177041521Y-119803121D01*
X177045388Y-119815869D01*
X177054760Y-119838496D01*
X177068374Y-119858870D01*
X177085701Y-119876197D01*
X177106075Y-119889811D01*
X177128714Y-119899188D01*
X177152747Y-119903969D01*
X177177251Y-119903969D01*
X177201285Y-119899189D01*
X177223924Y-119889812D01*
X177244298Y-119876198D01*
X177261625Y-119858871D01*
X177275239Y-119838497D01*
X177284612Y-119815869D01*
X177288479Y-119803121D01*
X177305381Y-119771501D01*
X177339643Y-119707400D01*
X177408499Y-119623499D01*
X177492400Y-119554643D01*
X177560945Y-119518005D01*
X177588121Y-119503479D01*
X177691985Y-119471973D01*
X177772933Y-119464000D01*
X177827067Y-119464000D01*
X177908015Y-119471973D01*
X178011879Y-119503479D01*
X178039055Y-119518005D01*
X178107600Y-119554643D01*
X178191501Y-119623499D01*
X178260357Y-119707400D01*
X178294619Y-119771501D01*
X178311521Y-119803121D01*
X178343027Y-119906985D01*
X178353666Y-120015000D01*
X178343027Y-120123015D01*
X178311521Y-120226879D01*
X178311191Y-120227496D01*
X178260357Y-120322600D01*
X178191501Y-120406501D01*
X178107600Y-120475357D01*
X178039055Y-120511995D01*
X178011879Y-120526521D01*
X177908015Y-120558027D01*
X177827067Y-120566000D01*
X177772933Y-120566000D01*
X177691985Y-120558027D01*
X177588121Y-120526521D01*
X177560945Y-120511995D01*
X177492400Y-120475357D01*
X177408499Y-120406501D01*
X177339643Y-120322600D01*
X177288809Y-120227496D01*
X177288479Y-120226879D01*
X177284612Y-120214131D01*
X177275240Y-120191504D01*
X177261626Y-120171130D01*
X177244299Y-120153803D01*
X177223925Y-120140189D01*
X177201286Y-120130812D01*
X177177253Y-120126031D01*
X177152749Y-120126031D01*
X177128715Y-120130811D01*
X177106076Y-120140188D01*
X177085702Y-120153802D01*
X177068375Y-120171129D01*
X177054761Y-120191503D01*
X177045388Y-120214131D01*
X177041521Y-120226879D01*
X177041191Y-120227496D01*
X176990357Y-120322600D01*
X176921501Y-120406501D01*
X176837600Y-120475357D01*
X176769055Y-120511995D01*
X176741879Y-120526521D01*
X176638015Y-120558027D01*
X176557067Y-120566000D01*
X176502933Y-120566000D01*
X176421985Y-120558027D01*
X176318121Y-120526521D01*
X176290945Y-120511995D01*
X176222400Y-120475357D01*
X176138499Y-120406501D01*
X176069645Y-120322601D01*
X176069644Y-120322600D01*
X176046236Y-120278807D01*
X176032625Y-120258437D01*
X176015298Y-120241110D01*
X175994924Y-120227496D01*
X175972285Y-120218119D01*
X175948252Y-120213338D01*
X175923748Y-120213338D01*
X175899714Y-120218118D01*
X175877076Y-120227495D01*
X175856701Y-120241109D01*
X175839374Y-120258436D01*
X175825760Y-120278810D01*
X175816383Y-120301449D01*
X175811602Y-120325482D01*
X175811000Y-120337735D01*
X175811000Y-120566000D01*
X174709000Y-120566000D01*
X174709000Y-119464000D01*
X175811000Y-119464000D01*
X175811000Y-119692265D01*
X175811000Y-119692265D01*
G37*
G36*
X125011000Y-119692265D02*
G01*
X125013402Y-119716651D01*
X125020515Y-119740100D01*
X125032066Y-119761711D01*
X125047611Y-119780653D01*
X125066553Y-119796198D01*
X125088164Y-119807749D01*
X125111613Y-119814862D01*
X125135999Y-119817264D01*
X125160385Y-119814862D01*
X125183834Y-119807749D01*
X125205445Y-119796198D01*
X125224387Y-119780653D01*
X125239932Y-119761711D01*
X125246233Y-119751198D01*
X125269644Y-119707400D01*
X125338499Y-119623499D01*
X125338576Y-119623436D01*
X125422400Y-119554643D01*
X125490945Y-119518005D01*
X125518121Y-119503479D01*
X125621985Y-119471973D01*
X125702933Y-119464000D01*
X125757067Y-119464000D01*
X125838015Y-119471973D01*
X125941879Y-119503479D01*
X125969055Y-119518005D01*
X126037600Y-119554643D01*
X126121501Y-119623499D01*
X126190357Y-119707400D01*
X126224619Y-119771501D01*
X126241521Y-119803121D01*
X126245388Y-119815869D01*
X126254760Y-119838496D01*
X126268374Y-119858870D01*
X126285701Y-119876197D01*
X126306075Y-119889811D01*
X126328714Y-119899188D01*
X126352747Y-119903969D01*
X126377251Y-119903969D01*
X126401285Y-119899189D01*
X126423924Y-119889812D01*
X126444298Y-119876198D01*
X126461625Y-119858871D01*
X126475239Y-119838497D01*
X126484612Y-119815869D01*
X126488479Y-119803121D01*
X126505381Y-119771501D01*
X126539643Y-119707400D01*
X126608499Y-119623499D01*
X126692400Y-119554643D01*
X126760945Y-119518005D01*
X126788121Y-119503479D01*
X126891985Y-119471973D01*
X126972933Y-119464000D01*
X127027067Y-119464000D01*
X127108015Y-119471973D01*
X127211879Y-119503479D01*
X127239055Y-119518005D01*
X127307600Y-119554643D01*
X127391501Y-119623499D01*
X127460357Y-119707400D01*
X127494619Y-119771501D01*
X127511521Y-119803121D01*
X127543027Y-119906985D01*
X127553666Y-120015000D01*
X127543027Y-120123015D01*
X127511521Y-120226879D01*
X127511191Y-120227496D01*
X127460357Y-120322600D01*
X127391501Y-120406501D01*
X127307600Y-120475357D01*
X127239055Y-120511995D01*
X127211879Y-120526521D01*
X127108015Y-120558027D01*
X127027067Y-120566000D01*
X126972933Y-120566000D01*
X126891985Y-120558027D01*
X126788121Y-120526521D01*
X126760945Y-120511995D01*
X126692400Y-120475357D01*
X126608499Y-120406501D01*
X126539643Y-120322600D01*
X126488809Y-120227496D01*
X126488479Y-120226879D01*
X126484612Y-120214131D01*
X126475240Y-120191504D01*
X126461626Y-120171130D01*
X126444299Y-120153803D01*
X126423925Y-120140189D01*
X126401286Y-120130812D01*
X126377253Y-120126031D01*
X126352749Y-120126031D01*
X126328715Y-120130811D01*
X126306076Y-120140188D01*
X126285702Y-120153802D01*
X126268375Y-120171129D01*
X126254761Y-120191503D01*
X126245388Y-120214131D01*
X126241521Y-120226879D01*
X126241191Y-120227496D01*
X126190357Y-120322600D01*
X126121501Y-120406501D01*
X126037600Y-120475357D01*
X125969055Y-120511995D01*
X125941879Y-120526521D01*
X125838015Y-120558027D01*
X125757067Y-120566000D01*
X125702933Y-120566000D01*
X125621985Y-120558027D01*
X125518121Y-120526521D01*
X125490945Y-120511995D01*
X125422400Y-120475357D01*
X125338499Y-120406501D01*
X125269645Y-120322601D01*
X125269644Y-120322600D01*
X125246236Y-120278807D01*
X125232625Y-120258437D01*
X125215298Y-120241110D01*
X125194924Y-120227496D01*
X125172285Y-120218119D01*
X125148252Y-120213338D01*
X125123748Y-120213338D01*
X125099714Y-120218118D01*
X125077076Y-120227495D01*
X125056701Y-120241109D01*
X125039374Y-120258436D01*
X125025760Y-120278810D01*
X125016383Y-120301449D01*
X125011602Y-120325482D01*
X125011000Y-120337735D01*
X125011000Y-120566000D01*
X123909000Y-120566000D01*
X123909000Y-119464000D01*
X125011000Y-119464000D01*
X125011000Y-119692265D01*
X125011000Y-119692265D01*
G37*
G36*
X99611000Y-119057265D02*
G01*
X99613402Y-119081651D01*
X99620515Y-119105100D01*
X99632066Y-119126711D01*
X99647611Y-119145653D01*
X99666553Y-119161198D01*
X99688164Y-119172749D01*
X99711613Y-119179862D01*
X99735999Y-119182264D01*
X99760385Y-119179862D01*
X99783834Y-119172749D01*
X99805445Y-119161198D01*
X99824387Y-119145653D01*
X99839932Y-119126711D01*
X99846233Y-119116198D01*
X99869644Y-119072400D01*
X99938499Y-118988499D01*
X100022400Y-118919643D01*
X100090945Y-118883005D01*
X100118121Y-118868479D01*
X100221985Y-118836973D01*
X100302933Y-118829000D01*
X100357067Y-118829000D01*
X100438015Y-118836973D01*
X100541879Y-118868479D01*
X100569055Y-118883005D01*
X100637600Y-118919643D01*
X100721501Y-118988499D01*
X100790357Y-119072400D01*
X100826995Y-119140945D01*
X100841521Y-119168121D01*
X100845388Y-119180869D01*
X100854760Y-119203496D01*
X100868374Y-119223870D01*
X100885701Y-119241197D01*
X100906075Y-119254811D01*
X100928714Y-119264188D01*
X100952747Y-119268969D01*
X100977251Y-119268969D01*
X101001285Y-119264189D01*
X101023924Y-119254812D01*
X101044298Y-119241198D01*
X101061625Y-119223871D01*
X101075239Y-119203497D01*
X101084612Y-119180869D01*
X101088479Y-119168121D01*
X101103005Y-119140945D01*
X101139643Y-119072400D01*
X101208499Y-118988499D01*
X101292400Y-118919643D01*
X101360945Y-118883005D01*
X101388121Y-118868479D01*
X101491985Y-118836973D01*
X101572933Y-118829000D01*
X101627067Y-118829000D01*
X101708015Y-118836973D01*
X101811879Y-118868479D01*
X101839055Y-118883005D01*
X101907600Y-118919643D01*
X101991501Y-118988499D01*
X102060357Y-119072400D01*
X102096995Y-119140945D01*
X102111521Y-119168121D01*
X102143027Y-119271985D01*
X102153666Y-119380000D01*
X102143027Y-119488015D01*
X102111521Y-119591879D01*
X102111191Y-119592496D01*
X102060357Y-119687600D01*
X101991501Y-119771501D01*
X101907600Y-119840357D01*
X101840548Y-119876197D01*
X101811879Y-119891521D01*
X101708015Y-119923027D01*
X101627067Y-119931000D01*
X101572933Y-119931000D01*
X101491985Y-119923027D01*
X101388121Y-119891521D01*
X101359452Y-119876197D01*
X101292400Y-119840357D01*
X101208499Y-119771501D01*
X101139643Y-119687600D01*
X101088809Y-119592496D01*
X101088479Y-119591879D01*
X101084612Y-119579131D01*
X101075240Y-119556504D01*
X101061626Y-119536130D01*
X101044299Y-119518803D01*
X101023925Y-119505189D01*
X101001286Y-119495812D01*
X100977253Y-119491031D01*
X100952749Y-119491031D01*
X100928715Y-119495811D01*
X100906076Y-119505188D01*
X100885702Y-119518802D01*
X100868375Y-119536129D01*
X100854761Y-119556503D01*
X100845388Y-119579131D01*
X100841521Y-119591879D01*
X100841191Y-119592496D01*
X100790357Y-119687600D01*
X100721501Y-119771501D01*
X100637600Y-119840357D01*
X100570548Y-119876197D01*
X100541879Y-119891521D01*
X100438015Y-119923027D01*
X100357067Y-119931000D01*
X100302933Y-119931000D01*
X100221985Y-119923027D01*
X100118121Y-119891521D01*
X100089452Y-119876197D01*
X100022400Y-119840357D01*
X99938499Y-119771501D01*
X99885893Y-119707400D01*
X99869644Y-119687600D01*
X99846236Y-119643807D01*
X99832625Y-119623437D01*
X99815298Y-119606110D01*
X99794924Y-119592496D01*
X99772285Y-119583119D01*
X99748252Y-119578338D01*
X99723748Y-119578338D01*
X99699714Y-119583118D01*
X99677076Y-119592495D01*
X99656701Y-119606109D01*
X99639374Y-119623436D01*
X99625760Y-119643810D01*
X99616383Y-119666449D01*
X99611602Y-119690482D01*
X99611000Y-119702735D01*
X99611000Y-119931000D01*
X98509000Y-119931000D01*
X98509000Y-118829000D01*
X99611000Y-118829000D01*
X99611000Y-119057265D01*
X99611000Y-119057265D01*
G37*
G36*
X99611000Y-112707265D02*
G01*
X99613402Y-112731651D01*
X99620515Y-112755100D01*
X99632066Y-112776711D01*
X99647611Y-112795653D01*
X99666553Y-112811198D01*
X99688164Y-112822749D01*
X99711613Y-112829862D01*
X99735999Y-112832264D01*
X99760385Y-112829862D01*
X99783834Y-112822749D01*
X99805445Y-112811198D01*
X99824387Y-112795653D01*
X99839932Y-112776711D01*
X99846233Y-112766198D01*
X99869644Y-112722400D01*
X99938499Y-112638499D01*
X100022400Y-112569643D01*
X100090945Y-112533005D01*
X100118121Y-112518479D01*
X100221985Y-112486973D01*
X100302933Y-112479000D01*
X100357067Y-112479000D01*
X100438015Y-112486973D01*
X100541879Y-112518479D01*
X100569055Y-112533005D01*
X100637600Y-112569643D01*
X100721501Y-112638499D01*
X100790357Y-112722400D01*
X100826995Y-112790945D01*
X100841521Y-112818121D01*
X100873027Y-112921985D01*
X100883666Y-113030000D01*
X100873027Y-113138015D01*
X100841521Y-113241879D01*
X100841191Y-113242496D01*
X100790357Y-113337600D01*
X100721501Y-113421501D01*
X100637600Y-113490357D01*
X100569055Y-113526995D01*
X100541879Y-113541521D01*
X100438015Y-113573027D01*
X100357067Y-113581000D01*
X100302933Y-113581000D01*
X100221985Y-113573027D01*
X100118121Y-113541521D01*
X100090945Y-113526995D01*
X100022400Y-113490357D01*
X99938499Y-113421501D01*
X99869645Y-113337601D01*
X99869644Y-113337600D01*
X99846236Y-113293807D01*
X99832625Y-113273437D01*
X99815298Y-113256110D01*
X99794924Y-113242496D01*
X99772285Y-113233119D01*
X99748252Y-113228338D01*
X99723748Y-113228338D01*
X99699714Y-113233118D01*
X99677076Y-113242495D01*
X99656701Y-113256109D01*
X99639374Y-113273436D01*
X99625760Y-113293810D01*
X99616383Y-113316449D01*
X99611602Y-113340482D01*
X99611000Y-113352735D01*
X99611000Y-113581000D01*
X98509000Y-113581000D01*
X98509000Y-112479000D01*
X99611000Y-112479000D01*
X99611000Y-112707265D01*
X99611000Y-112707265D01*
G37*
G36*
X175811000Y-112707265D02*
G01*
X175813402Y-112731651D01*
X175820515Y-112755100D01*
X175832066Y-112776711D01*
X175847611Y-112795653D01*
X175866553Y-112811198D01*
X175888164Y-112822749D01*
X175911613Y-112829862D01*
X175935999Y-112832264D01*
X175960385Y-112829862D01*
X175983834Y-112822749D01*
X176005445Y-112811198D01*
X176024387Y-112795653D01*
X176039932Y-112776711D01*
X176046233Y-112766198D01*
X176069644Y-112722400D01*
X176138499Y-112638499D01*
X176222400Y-112569643D01*
X176290945Y-112533005D01*
X176318121Y-112518479D01*
X176421985Y-112486973D01*
X176502933Y-112479000D01*
X176557067Y-112479000D01*
X176638015Y-112486973D01*
X176741879Y-112518479D01*
X176769055Y-112533005D01*
X176837600Y-112569643D01*
X176921501Y-112638499D01*
X176990357Y-112722400D01*
X177026995Y-112790945D01*
X177041521Y-112818121D01*
X177073027Y-112921985D01*
X177083666Y-113030000D01*
X177073027Y-113138015D01*
X177041521Y-113241879D01*
X177041191Y-113242496D01*
X176990357Y-113337600D01*
X176921501Y-113421501D01*
X176837600Y-113490357D01*
X176769055Y-113526995D01*
X176741879Y-113541521D01*
X176638015Y-113573027D01*
X176557067Y-113581000D01*
X176502933Y-113581000D01*
X176421985Y-113573027D01*
X176318121Y-113541521D01*
X176290945Y-113526995D01*
X176222400Y-113490357D01*
X176138499Y-113421501D01*
X176069645Y-113337601D01*
X176069644Y-113337600D01*
X176046236Y-113293807D01*
X176032625Y-113273437D01*
X176015298Y-113256110D01*
X175994924Y-113242496D01*
X175972285Y-113233119D01*
X175948252Y-113228338D01*
X175923748Y-113228338D01*
X175899714Y-113233118D01*
X175877076Y-113242495D01*
X175856701Y-113256109D01*
X175839374Y-113273436D01*
X175825760Y-113293810D01*
X175816383Y-113316449D01*
X175811602Y-113340482D01*
X175811000Y-113352735D01*
X175811000Y-113581000D01*
X174709000Y-113581000D01*
X174709000Y-112479000D01*
X175811000Y-112479000D01*
X175811000Y-112707265D01*
X175811000Y-112707265D01*
G37*
G36*
X201211000Y-112707265D02*
G01*
X201213402Y-112731651D01*
X201220515Y-112755100D01*
X201232066Y-112776711D01*
X201247611Y-112795653D01*
X201266553Y-112811198D01*
X201288164Y-112822749D01*
X201311613Y-112829862D01*
X201335999Y-112832264D01*
X201360385Y-112829862D01*
X201383834Y-112822749D01*
X201405445Y-112811198D01*
X201424387Y-112795653D01*
X201439932Y-112776711D01*
X201446233Y-112766198D01*
X201469644Y-112722400D01*
X201538499Y-112638499D01*
X201622400Y-112569643D01*
X201690945Y-112533005D01*
X201718121Y-112518479D01*
X201821985Y-112486973D01*
X201902933Y-112479000D01*
X201957067Y-112479000D01*
X202038015Y-112486973D01*
X202141879Y-112518479D01*
X202169055Y-112533005D01*
X202237600Y-112569643D01*
X202321501Y-112638499D01*
X202390357Y-112722400D01*
X202426995Y-112790945D01*
X202441521Y-112818121D01*
X202473027Y-112921985D01*
X202483666Y-113030000D01*
X202473027Y-113138015D01*
X202441521Y-113241879D01*
X202441191Y-113242496D01*
X202390357Y-113337600D01*
X202321501Y-113421501D01*
X202237600Y-113490357D01*
X202169055Y-113526995D01*
X202141879Y-113541521D01*
X202038015Y-113573027D01*
X201957067Y-113581000D01*
X201902933Y-113581000D01*
X201821985Y-113573027D01*
X201718121Y-113541521D01*
X201690945Y-113526995D01*
X201622400Y-113490357D01*
X201538499Y-113421501D01*
X201469645Y-113337601D01*
X201469644Y-113337600D01*
X201446236Y-113293807D01*
X201432625Y-113273437D01*
X201415298Y-113256110D01*
X201394924Y-113242496D01*
X201372285Y-113233119D01*
X201348252Y-113228338D01*
X201323748Y-113228338D01*
X201299714Y-113233118D01*
X201277076Y-113242495D01*
X201256701Y-113256109D01*
X201239374Y-113273436D01*
X201225760Y-113293810D01*
X201216383Y-113316449D01*
X201211602Y-113340482D01*
X201211000Y-113352735D01*
X201211000Y-113581000D01*
X200109000Y-113581000D01*
X200109000Y-112479000D01*
X201211000Y-112479000D01*
X201211000Y-112707265D01*
X201211000Y-112707265D01*
G37*
G36*
X125011000Y-112707265D02*
G01*
X125013402Y-112731651D01*
X125020515Y-112755100D01*
X125032066Y-112776711D01*
X125047611Y-112795653D01*
X125066553Y-112811198D01*
X125088164Y-112822749D01*
X125111613Y-112829862D01*
X125135999Y-112832264D01*
X125160385Y-112829862D01*
X125183834Y-112822749D01*
X125205445Y-112811198D01*
X125224387Y-112795653D01*
X125239932Y-112776711D01*
X125246233Y-112766198D01*
X125269644Y-112722400D01*
X125338499Y-112638499D01*
X125422400Y-112569643D01*
X125490945Y-112533005D01*
X125518121Y-112518479D01*
X125621985Y-112486973D01*
X125702933Y-112479000D01*
X125757067Y-112479000D01*
X125838015Y-112486973D01*
X125941879Y-112518479D01*
X125969055Y-112533005D01*
X126037600Y-112569643D01*
X126121501Y-112638499D01*
X126190357Y-112722400D01*
X126226995Y-112790945D01*
X126241521Y-112818121D01*
X126273027Y-112921985D01*
X126283666Y-113030000D01*
X126273027Y-113138015D01*
X126241521Y-113241879D01*
X126241191Y-113242496D01*
X126190357Y-113337600D01*
X126121501Y-113421501D01*
X126037600Y-113490357D01*
X125969055Y-113526995D01*
X125941879Y-113541521D01*
X125838015Y-113573027D01*
X125757067Y-113581000D01*
X125702933Y-113581000D01*
X125621985Y-113573027D01*
X125518121Y-113541521D01*
X125490945Y-113526995D01*
X125422400Y-113490357D01*
X125338499Y-113421501D01*
X125269645Y-113337601D01*
X125269644Y-113337600D01*
X125246236Y-113293807D01*
X125232625Y-113273437D01*
X125215298Y-113256110D01*
X125194924Y-113242496D01*
X125172285Y-113233119D01*
X125148252Y-113228338D01*
X125123748Y-113228338D01*
X125099714Y-113233118D01*
X125077076Y-113242495D01*
X125056701Y-113256109D01*
X125039374Y-113273436D01*
X125025760Y-113293810D01*
X125016383Y-113316449D01*
X125011602Y-113340482D01*
X125011000Y-113352735D01*
X125011000Y-113581000D01*
X123909000Y-113581000D01*
X123909000Y-112479000D01*
X125011000Y-112479000D01*
X125011000Y-112707265D01*
X125011000Y-112707265D01*
G37*
G36*
X150411000Y-112707265D02*
G01*
X150413402Y-112731651D01*
X150420515Y-112755100D01*
X150432066Y-112776711D01*
X150447611Y-112795653D01*
X150466553Y-112811198D01*
X150488164Y-112822749D01*
X150511613Y-112829862D01*
X150535999Y-112832264D01*
X150560385Y-112829862D01*
X150583834Y-112822749D01*
X150605445Y-112811198D01*
X150624387Y-112795653D01*
X150639932Y-112776711D01*
X150646233Y-112766198D01*
X150669644Y-112722400D01*
X150738499Y-112638499D01*
X150822400Y-112569643D01*
X150890945Y-112533005D01*
X150918121Y-112518479D01*
X151021985Y-112486973D01*
X151102933Y-112479000D01*
X151157067Y-112479000D01*
X151238015Y-112486973D01*
X151341879Y-112518479D01*
X151369055Y-112533005D01*
X151437600Y-112569643D01*
X151521501Y-112638499D01*
X151590357Y-112722400D01*
X151626995Y-112790945D01*
X151641521Y-112818121D01*
X151673027Y-112921985D01*
X151683666Y-113030000D01*
X151673027Y-113138015D01*
X151641521Y-113241879D01*
X151641191Y-113242496D01*
X151590357Y-113337600D01*
X151521501Y-113421501D01*
X151437600Y-113490357D01*
X151369055Y-113526995D01*
X151341879Y-113541521D01*
X151238015Y-113573027D01*
X151157067Y-113581000D01*
X151102933Y-113581000D01*
X151021985Y-113573027D01*
X150918121Y-113541521D01*
X150890945Y-113526995D01*
X150822400Y-113490357D01*
X150738499Y-113421501D01*
X150669645Y-113337601D01*
X150669644Y-113337600D01*
X150646236Y-113293807D01*
X150632625Y-113273437D01*
X150615298Y-113256110D01*
X150594924Y-113242496D01*
X150572285Y-113233119D01*
X150548252Y-113228338D01*
X150523748Y-113228338D01*
X150499714Y-113233118D01*
X150477076Y-113242495D01*
X150456701Y-113256109D01*
X150439374Y-113273436D01*
X150425760Y-113293810D01*
X150416383Y-113316449D01*
X150411602Y-113340482D01*
X150411000Y-113352735D01*
X150411000Y-113581000D01*
X149309000Y-113581000D01*
X149309000Y-112479000D01*
X150411000Y-112479000D01*
X150411000Y-112707265D01*
X150411000Y-112707265D01*
G37*
G36*
X204458527Y-95272954D02*
G01*
X205081687Y-95396908D01*
X206255695Y-95883198D01*
X207312273Y-96589181D01*
X208210819Y-97487727D01*
X208916802Y-98544305D01*
X209403092Y-99718313D01*
X209651000Y-100964632D01*
X209651000Y-102235368D01*
X209403092Y-103481687D01*
X208916802Y-104655695D01*
X208210819Y-105712273D01*
X207312273Y-106610819D01*
X206255695Y-107316802D01*
X205081687Y-107803092D01*
X204458527Y-107927046D01*
X203835369Y-108051000D01*
X202564631Y-108051000D01*
X201941473Y-107927046D01*
X201318313Y-107803092D01*
X200144305Y-107316802D01*
X199087727Y-106610819D01*
X198189181Y-105712273D01*
X197483198Y-104655695D01*
X196996908Y-103481687D01*
X196749000Y-102235368D01*
X196749000Y-100964632D01*
X196996908Y-99718313D01*
X197483198Y-98544305D01*
X198189181Y-97487727D01*
X199087727Y-96589181D01*
X200144305Y-95883198D01*
X201318313Y-95396908D01*
X201941473Y-95272954D01*
X202564631Y-95149000D01*
X203835369Y-95149000D01*
X204458527Y-95272954D01*
X204458527Y-95272954D01*
G37*
G36*
X102858527Y-95272954D02*
G01*
X103481687Y-95396908D01*
X104655695Y-95883198D01*
X105712273Y-96589181D01*
X106610819Y-97487727D01*
X107316802Y-98544305D01*
X107803092Y-99718313D01*
X108051000Y-100964632D01*
X108051000Y-102235368D01*
X107803092Y-103481687D01*
X107316802Y-104655695D01*
X106610819Y-105712273D01*
X105712273Y-106610819D01*
X104655695Y-107316802D01*
X103481687Y-107803092D01*
X102858527Y-107927046D01*
X102235369Y-108051000D01*
X100964631Y-108051000D01*
X100341473Y-107927046D01*
X99718313Y-107803092D01*
X98544305Y-107316802D01*
X97487727Y-106610819D01*
X96589181Y-105712273D01*
X95883198Y-104655695D01*
X95396908Y-103481687D01*
X95149000Y-102235368D01*
X95149000Y-100964632D01*
X95396908Y-99718313D01*
X95883198Y-98544305D01*
X96589181Y-97487727D01*
X97487727Y-96589181D01*
X98544305Y-95883198D01*
X99718313Y-95396908D01*
X100341473Y-95272954D01*
X100964631Y-95149000D01*
X102235369Y-95149000D01*
X102858527Y-95272954D01*
X102858527Y-95272954D01*
G37*
G36*
X128258527Y-95272954D02*
G01*
X128881687Y-95396908D01*
X130055695Y-95883198D01*
X131112273Y-96589181D01*
X132010819Y-97487727D01*
X132716802Y-98544305D01*
X133203092Y-99718313D01*
X133451000Y-100964632D01*
X133451000Y-102235368D01*
X133203092Y-103481687D01*
X132716802Y-104655695D01*
X132010819Y-105712273D01*
X131112273Y-106610819D01*
X130055695Y-107316802D01*
X128881687Y-107803092D01*
X128258527Y-107927046D01*
X127635369Y-108051000D01*
X126364631Y-108051000D01*
X125741473Y-107927046D01*
X125118313Y-107803092D01*
X123944305Y-107316802D01*
X122887727Y-106610819D01*
X121989181Y-105712273D01*
X121283198Y-104655695D01*
X120796908Y-103481687D01*
X120549000Y-102235368D01*
X120549000Y-100964632D01*
X120796908Y-99718313D01*
X121283198Y-98544305D01*
X121989181Y-97487727D01*
X122887727Y-96589181D01*
X123944305Y-95883198D01*
X125118313Y-95396908D01*
X125741473Y-95272954D01*
X126364631Y-95149000D01*
X127635369Y-95149000D01*
X128258527Y-95272954D01*
X128258527Y-95272954D01*
G37*
G36*
X153658527Y-95272954D02*
G01*
X154281687Y-95396908D01*
X155455695Y-95883198D01*
X156512273Y-96589181D01*
X157410819Y-97487727D01*
X158116802Y-98544305D01*
X158603092Y-99718313D01*
X158851000Y-100964632D01*
X158851000Y-102235368D01*
X158603092Y-103481687D01*
X158116802Y-104655695D01*
X157410819Y-105712273D01*
X156512273Y-106610819D01*
X155455695Y-107316802D01*
X154281687Y-107803092D01*
X153658527Y-107927046D01*
X153035369Y-108051000D01*
X151764631Y-108051000D01*
X151141473Y-107927046D01*
X150518313Y-107803092D01*
X149344305Y-107316802D01*
X148287727Y-106610819D01*
X147389181Y-105712273D01*
X146683198Y-104655695D01*
X146196908Y-103481687D01*
X145949000Y-102235368D01*
X145949000Y-100964632D01*
X146196908Y-99718313D01*
X146683198Y-98544305D01*
X147389181Y-97487727D01*
X148287727Y-96589181D01*
X149344305Y-95883198D01*
X150518313Y-95396908D01*
X151141473Y-95272954D01*
X151764631Y-95149000D01*
X153035369Y-95149000D01*
X153658527Y-95272954D01*
X153658527Y-95272954D01*
G37*
G36*
X179058527Y-95272954D02*
G01*
X179681687Y-95396908D01*
X180855695Y-95883198D01*
X181912273Y-96589181D01*
X182810819Y-97487727D01*
X183516802Y-98544305D01*
X184003092Y-99718313D01*
X184251000Y-100964632D01*
X184251000Y-102235368D01*
X184003092Y-103481687D01*
X183516802Y-104655695D01*
X182810819Y-105712273D01*
X181912273Y-106610819D01*
X180855695Y-107316802D01*
X179681687Y-107803092D01*
X179058527Y-107927046D01*
X178435369Y-108051000D01*
X177164631Y-108051000D01*
X176541473Y-107927046D01*
X175918313Y-107803092D01*
X174744305Y-107316802D01*
X173687727Y-106610819D01*
X172789181Y-105712273D01*
X172083198Y-104655695D01*
X171596908Y-103481687D01*
X171349000Y-102235368D01*
X171349000Y-100964632D01*
X171596908Y-99718313D01*
X172083198Y-98544305D01*
X172789181Y-97487727D01*
X173687727Y-96589181D01*
X174744305Y-95883198D01*
X175918313Y-95396908D01*
X176541473Y-95272954D01*
X177164631Y-95149000D01*
X178435369Y-95149000D01*
X179058527Y-95272954D01*
X179058527Y-95272954D01*
G37*
M02*
