G04 #@! TF.GenerationSoftware,KiCad,Pcbnew,(5.0.1-3-g963ef8bb5)*
G04 #@! TF.CreationDate,2019-03-03T19:22:14-08:00*
G04 #@! TF.ProjectId,Multi-out-Buffer,4D756C74692D6F75742D427566666572,rev?*
G04 #@! TF.SameCoordinates,Original*
G04 #@! TF.FileFunction,Soldermask,Bot*
G04 #@! TF.FilePolarity,Negative*
%FSLAX46Y46*%
G04 Gerber Fmt 4.6, Leading zero omitted, Abs format (unit mm)*
G04 Created by KiCad (PCBNEW (5.0.1-3-g963ef8bb5)) date Sunday, March 03, 2019 at 07:22:14 PM*
%MOMM*%
%LPD*%
G01*
G04 APERTURE LIST*
%ADD10C,0.100000*%
G04 APERTURE END LIST*
D10*
G36*
X226411904Y-138846979D02*
X226760054Y-138916230D01*
X227196826Y-139097147D01*
X227589911Y-139359798D01*
X227924202Y-139694089D01*
X228186853Y-140087174D01*
X228367770Y-140523946D01*
X228460000Y-140987621D01*
X228460000Y-141460379D01*
X228367770Y-141924054D01*
X228186853Y-142360826D01*
X227924202Y-142753911D01*
X227589911Y-143088202D01*
X227196826Y-143350853D01*
X226760054Y-143531770D01*
X226411904Y-143601021D01*
X226296381Y-143624000D01*
X225823619Y-143624000D01*
X225708096Y-143601021D01*
X225359946Y-143531770D01*
X224923174Y-143350853D01*
X224530089Y-143088202D01*
X224195798Y-142753911D01*
X223933147Y-142360826D01*
X223752230Y-141924054D01*
X223660000Y-141460379D01*
X223660000Y-140987621D01*
X223752230Y-140523946D01*
X223933147Y-140087174D01*
X224195798Y-139694089D01*
X224530089Y-139359798D01*
X224923174Y-139097147D01*
X225359946Y-138916230D01*
X225708096Y-138846979D01*
X225823619Y-138824000D01*
X226296381Y-138824000D01*
X226411904Y-138846979D01*
X226411904Y-138846979D01*
G37*
G36*
X129891904Y-138846979D02*
X130240054Y-138916230D01*
X130676826Y-139097147D01*
X131069911Y-139359798D01*
X131404202Y-139694089D01*
X131666853Y-140087174D01*
X131847770Y-140523946D01*
X131940000Y-140987621D01*
X131940000Y-141460379D01*
X131847770Y-141924054D01*
X131666853Y-142360826D01*
X131404202Y-142753911D01*
X131069911Y-143088202D01*
X130676826Y-143350853D01*
X130240054Y-143531770D01*
X129891904Y-143601021D01*
X129776381Y-143624000D01*
X129303619Y-143624000D01*
X129188096Y-143601021D01*
X128839946Y-143531770D01*
X128403174Y-143350853D01*
X128010089Y-143088202D01*
X127675798Y-142753911D01*
X127413147Y-142360826D01*
X127232230Y-141924054D01*
X127140000Y-141460379D01*
X127140000Y-140987621D01*
X127232230Y-140523946D01*
X127413147Y-140087174D01*
X127675798Y-139694089D01*
X128010089Y-139359798D01*
X128403174Y-139097147D01*
X128839946Y-138916230D01*
X129188096Y-138846979D01*
X129303619Y-138824000D01*
X129776381Y-138824000D01*
X129891904Y-138846979D01*
X129891904Y-138846979D01*
G37*
G36*
X136914521Y-141118586D02*
X137078309Y-141186429D01*
X137225720Y-141284926D01*
X137351074Y-141410280D01*
X137449571Y-141557691D01*
X137517414Y-141721479D01*
X137552000Y-141895356D01*
X137552000Y-142072644D01*
X137517414Y-142246521D01*
X137449571Y-142410309D01*
X137351074Y-142557720D01*
X137225720Y-142683074D01*
X137078309Y-142781571D01*
X136914521Y-142849414D01*
X136740644Y-142884000D01*
X136563356Y-142884000D01*
X136389479Y-142849414D01*
X136225691Y-142781571D01*
X136078280Y-142683074D01*
X135952926Y-142557720D01*
X135854429Y-142410309D01*
X135786586Y-142246521D01*
X135752000Y-142072644D01*
X135752000Y-141895356D01*
X135786586Y-141721479D01*
X135854429Y-141557691D01*
X135952926Y-141410280D01*
X136078280Y-141284926D01*
X136225691Y-141186429D01*
X136389479Y-141118586D01*
X136563356Y-141084000D01*
X136740644Y-141084000D01*
X136914521Y-141118586D01*
X136914521Y-141118586D01*
G37*
G36*
X139414521Y-141118586D02*
X139578309Y-141186429D01*
X139725720Y-141284926D01*
X139851074Y-141410280D01*
X139949571Y-141557691D01*
X140017414Y-141721479D01*
X140052000Y-141895356D01*
X140052000Y-142072644D01*
X140017414Y-142246521D01*
X139949571Y-142410309D01*
X139851074Y-142557720D01*
X139725720Y-142683074D01*
X139578309Y-142781571D01*
X139414521Y-142849414D01*
X139240644Y-142884000D01*
X139063356Y-142884000D01*
X138889479Y-142849414D01*
X138725691Y-142781571D01*
X138578280Y-142683074D01*
X138452926Y-142557720D01*
X138354429Y-142410309D01*
X138286586Y-142246521D01*
X138252000Y-142072644D01*
X138252000Y-141895356D01*
X138286586Y-141721479D01*
X138354429Y-141557691D01*
X138452926Y-141410280D01*
X138578280Y-141284926D01*
X138725691Y-141186429D01*
X138889479Y-141118586D01*
X139063356Y-141084000D01*
X139240644Y-141084000D01*
X139414521Y-141118586D01*
X139414521Y-141118586D01*
G37*
G36*
X141914521Y-141118586D02*
X142078309Y-141186429D01*
X142225720Y-141284926D01*
X142351074Y-141410280D01*
X142449571Y-141557691D01*
X142517414Y-141721479D01*
X142552000Y-141895356D01*
X142552000Y-142072644D01*
X142517414Y-142246521D01*
X142449571Y-142410309D01*
X142351074Y-142557720D01*
X142225720Y-142683074D01*
X142078309Y-142781571D01*
X141914521Y-142849414D01*
X141740644Y-142884000D01*
X141563356Y-142884000D01*
X141389479Y-142849414D01*
X141225691Y-142781571D01*
X141078280Y-142683074D01*
X140952926Y-142557720D01*
X140854429Y-142410309D01*
X140786586Y-142246521D01*
X140752000Y-142072644D01*
X140752000Y-141895356D01*
X140786586Y-141721479D01*
X140854429Y-141557691D01*
X140952926Y-141410280D01*
X141078280Y-141284926D01*
X141225691Y-141186429D01*
X141389479Y-141118586D01*
X141563356Y-141084000D01*
X141740644Y-141084000D01*
X141914521Y-141118586D01*
X141914521Y-141118586D01*
G37*
G36*
X197279870Y-142415870D02*
X193880130Y-142415870D01*
X193880130Y-139016130D01*
X197279870Y-139016130D01*
X197279870Y-142415870D01*
X197279870Y-142415870D01*
G37*
G36*
X185751629Y-139048793D02*
X185915834Y-139081455D01*
X186043973Y-139134532D01*
X186225189Y-139209594D01*
X186503607Y-139395627D01*
X186740373Y-139632393D01*
X186926406Y-139910811D01*
X187054545Y-140220167D01*
X187119870Y-140548576D01*
X187119870Y-140883424D01*
X187054545Y-141211833D01*
X186926406Y-141521189D01*
X186740373Y-141799607D01*
X186503607Y-142036373D01*
X186225189Y-142222406D01*
X186043973Y-142297468D01*
X185915834Y-142350545D01*
X185751628Y-142383208D01*
X185587424Y-142415870D01*
X185252576Y-142415870D01*
X185088372Y-142383208D01*
X184924166Y-142350545D01*
X184796027Y-142297468D01*
X184614811Y-142222406D01*
X184336393Y-142036373D01*
X184099627Y-141799607D01*
X183913594Y-141521189D01*
X183785455Y-141211833D01*
X183720130Y-140883424D01*
X183720130Y-140548576D01*
X183785455Y-140220167D01*
X183913594Y-139910811D01*
X184099627Y-139632393D01*
X184336393Y-139395627D01*
X184614811Y-139209594D01*
X184796027Y-139134532D01*
X184924166Y-139081455D01*
X185088371Y-139048793D01*
X185252576Y-139016130D01*
X185587424Y-139016130D01*
X185751629Y-139048793D01*
X185751629Y-139048793D01*
G37*
G36*
X181941629Y-139048793D02*
X182105834Y-139081455D01*
X182233973Y-139134532D01*
X182415189Y-139209594D01*
X182693607Y-139395627D01*
X182930373Y-139632393D01*
X183116406Y-139910811D01*
X183244545Y-140220167D01*
X183309870Y-140548576D01*
X183309870Y-140883424D01*
X183244545Y-141211833D01*
X183116406Y-141521189D01*
X182930373Y-141799607D01*
X182693607Y-142036373D01*
X182415189Y-142222406D01*
X182233973Y-142297468D01*
X182105834Y-142350545D01*
X181941628Y-142383208D01*
X181777424Y-142415870D01*
X181442576Y-142415870D01*
X181278372Y-142383208D01*
X181114166Y-142350545D01*
X180986027Y-142297468D01*
X180804811Y-142222406D01*
X180526393Y-142036373D01*
X180289627Y-141799607D01*
X180103594Y-141521189D01*
X179975455Y-141211833D01*
X179910130Y-140883424D01*
X179910130Y-140548576D01*
X179975455Y-140220167D01*
X180103594Y-139910811D01*
X180289627Y-139632393D01*
X180526393Y-139395627D01*
X180804811Y-139209594D01*
X180986027Y-139134532D01*
X181114166Y-139081455D01*
X181278371Y-139048793D01*
X181442576Y-139016130D01*
X181777424Y-139016130D01*
X181941629Y-139048793D01*
X181941629Y-139048793D01*
G37*
G36*
X179499870Y-142415870D02*
X176100130Y-142415870D01*
X176100130Y-139016130D01*
X179499870Y-139016130D01*
X179499870Y-142415870D01*
X179499870Y-142415870D01*
G37*
G36*
X172387870Y-142415870D02*
X168988130Y-142415870D01*
X168988130Y-139016130D01*
X172387870Y-139016130D01*
X172387870Y-142415870D01*
X172387870Y-142415870D01*
G37*
G36*
X167209629Y-139048793D02*
X167373834Y-139081455D01*
X167501973Y-139134532D01*
X167683189Y-139209594D01*
X167961607Y-139395627D01*
X168198373Y-139632393D01*
X168384406Y-139910811D01*
X168512545Y-140220167D01*
X168577870Y-140548576D01*
X168577870Y-140883424D01*
X168512545Y-141211833D01*
X168384406Y-141521189D01*
X168198373Y-141799607D01*
X167961607Y-142036373D01*
X167683189Y-142222406D01*
X167501973Y-142297468D01*
X167373834Y-142350545D01*
X167209628Y-142383208D01*
X167045424Y-142415870D01*
X166710576Y-142415870D01*
X166546372Y-142383208D01*
X166382166Y-142350545D01*
X166254027Y-142297468D01*
X166072811Y-142222406D01*
X165794393Y-142036373D01*
X165557627Y-141799607D01*
X165371594Y-141521189D01*
X165243455Y-141211833D01*
X165178130Y-140883424D01*
X165178130Y-140548576D01*
X165243455Y-140220167D01*
X165371594Y-139910811D01*
X165557627Y-139632393D01*
X165794393Y-139395627D01*
X166072811Y-139209594D01*
X166254027Y-139134532D01*
X166382166Y-139081455D01*
X166546371Y-139048793D01*
X166710576Y-139016130D01*
X167045424Y-139016130D01*
X167209629Y-139048793D01*
X167209629Y-139048793D01*
G37*
G36*
X163399629Y-139048793D02*
X163563834Y-139081455D01*
X163691973Y-139134532D01*
X163873189Y-139209594D01*
X164151607Y-139395627D01*
X164388373Y-139632393D01*
X164574406Y-139910811D01*
X164702545Y-140220167D01*
X164767870Y-140548576D01*
X164767870Y-140883424D01*
X164702545Y-141211833D01*
X164574406Y-141521189D01*
X164388373Y-141799607D01*
X164151607Y-142036373D01*
X163873189Y-142222406D01*
X163691973Y-142297468D01*
X163563834Y-142350545D01*
X163399628Y-142383208D01*
X163235424Y-142415870D01*
X162900576Y-142415870D01*
X162736372Y-142383208D01*
X162572166Y-142350545D01*
X162444027Y-142297468D01*
X162262811Y-142222406D01*
X161984393Y-142036373D01*
X161747627Y-141799607D01*
X161561594Y-141521189D01*
X161433455Y-141211833D01*
X161368130Y-140883424D01*
X161368130Y-140548576D01*
X161433455Y-140220167D01*
X161561594Y-139910811D01*
X161747627Y-139632393D01*
X161984393Y-139395627D01*
X162262811Y-139209594D01*
X162444027Y-139134532D01*
X162572166Y-139081455D01*
X162736371Y-139048793D01*
X162900576Y-139016130D01*
X163235424Y-139016130D01*
X163399629Y-139048793D01*
X163399629Y-139048793D01*
G37*
G36*
X156541629Y-139048793D02*
X156705834Y-139081455D01*
X156833973Y-139134532D01*
X157015189Y-139209594D01*
X157293607Y-139395627D01*
X157530373Y-139632393D01*
X157716406Y-139910811D01*
X157844545Y-140220167D01*
X157909870Y-140548576D01*
X157909870Y-140883424D01*
X157844545Y-141211833D01*
X157716406Y-141521189D01*
X157530373Y-141799607D01*
X157293607Y-142036373D01*
X157015189Y-142222406D01*
X156833973Y-142297468D01*
X156705834Y-142350545D01*
X156541628Y-142383208D01*
X156377424Y-142415870D01*
X156042576Y-142415870D01*
X155878372Y-142383208D01*
X155714166Y-142350545D01*
X155586027Y-142297468D01*
X155404811Y-142222406D01*
X155126393Y-142036373D01*
X154889627Y-141799607D01*
X154703594Y-141521189D01*
X154575455Y-141211833D01*
X154510130Y-140883424D01*
X154510130Y-140548576D01*
X154575455Y-140220167D01*
X154703594Y-139910811D01*
X154889627Y-139632393D01*
X155126393Y-139395627D01*
X155404811Y-139209594D01*
X155586027Y-139134532D01*
X155714166Y-139081455D01*
X155878371Y-139048793D01*
X156042576Y-139016130D01*
X156377424Y-139016130D01*
X156541629Y-139048793D01*
X156541629Y-139048793D01*
G37*
G36*
X152731629Y-139048793D02*
X152895834Y-139081455D01*
X153023973Y-139134532D01*
X153205189Y-139209594D01*
X153483607Y-139395627D01*
X153720373Y-139632393D01*
X153906406Y-139910811D01*
X154034545Y-140220167D01*
X154099870Y-140548576D01*
X154099870Y-140883424D01*
X154034545Y-141211833D01*
X153906406Y-141521189D01*
X153720373Y-141799607D01*
X153483607Y-142036373D01*
X153205189Y-142222406D01*
X153023973Y-142297468D01*
X152895834Y-142350545D01*
X152731628Y-142383208D01*
X152567424Y-142415870D01*
X152232576Y-142415870D01*
X152068372Y-142383208D01*
X151904166Y-142350545D01*
X151776027Y-142297468D01*
X151594811Y-142222406D01*
X151316393Y-142036373D01*
X151079627Y-141799607D01*
X150893594Y-141521189D01*
X150765455Y-141211833D01*
X150700130Y-140883424D01*
X150700130Y-140548576D01*
X150765455Y-140220167D01*
X150893594Y-139910811D01*
X151079627Y-139632393D01*
X151316393Y-139395627D01*
X151594811Y-139209594D01*
X151776027Y-139134532D01*
X151904166Y-139081455D01*
X152068371Y-139048793D01*
X152232576Y-139016130D01*
X152567424Y-139016130D01*
X152731629Y-139048793D01*
X152731629Y-139048793D01*
G37*
G36*
X150289870Y-142415870D02*
X146890130Y-142415870D01*
X146890130Y-139016130D01*
X150289870Y-139016130D01*
X150289870Y-142415870D01*
X150289870Y-142415870D01*
G37*
G36*
X215059870Y-142415870D02*
X211660130Y-142415870D01*
X211660130Y-139016130D01*
X215059870Y-139016130D01*
X215059870Y-142415870D01*
X215059870Y-142415870D01*
G37*
G36*
X199721629Y-139048793D02*
X199885834Y-139081455D01*
X200013973Y-139134532D01*
X200195189Y-139209594D01*
X200473607Y-139395627D01*
X200710373Y-139632393D01*
X200896406Y-139910811D01*
X201024545Y-140220167D01*
X201089870Y-140548576D01*
X201089870Y-140883424D01*
X201024545Y-141211833D01*
X200896406Y-141521189D01*
X200710373Y-141799607D01*
X200473607Y-142036373D01*
X200195189Y-142222406D01*
X200013973Y-142297468D01*
X199885834Y-142350545D01*
X199721628Y-142383208D01*
X199557424Y-142415870D01*
X199222576Y-142415870D01*
X199058372Y-142383208D01*
X198894166Y-142350545D01*
X198766027Y-142297468D01*
X198584811Y-142222406D01*
X198306393Y-142036373D01*
X198069627Y-141799607D01*
X197883594Y-141521189D01*
X197755455Y-141211833D01*
X197690130Y-140883424D01*
X197690130Y-140548576D01*
X197755455Y-140220167D01*
X197883594Y-139910811D01*
X198069627Y-139632393D01*
X198306393Y-139395627D01*
X198584811Y-139209594D01*
X198766027Y-139134532D01*
X198894166Y-139081455D01*
X199058371Y-139048793D01*
X199222576Y-139016130D01*
X199557424Y-139016130D01*
X199721629Y-139048793D01*
X199721629Y-139048793D01*
G37*
G36*
X203531629Y-139048793D02*
X203695834Y-139081455D01*
X203823973Y-139134532D01*
X204005189Y-139209594D01*
X204283607Y-139395627D01*
X204520373Y-139632393D01*
X204706406Y-139910811D01*
X204834545Y-140220167D01*
X204899870Y-140548576D01*
X204899870Y-140883424D01*
X204834545Y-141211833D01*
X204706406Y-141521189D01*
X204520373Y-141799607D01*
X204283607Y-142036373D01*
X204005189Y-142222406D01*
X203823973Y-142297468D01*
X203695834Y-142350545D01*
X203531628Y-142383208D01*
X203367424Y-142415870D01*
X203032576Y-142415870D01*
X202868372Y-142383208D01*
X202704166Y-142350545D01*
X202576027Y-142297468D01*
X202394811Y-142222406D01*
X202116393Y-142036373D01*
X201879627Y-141799607D01*
X201693594Y-141521189D01*
X201565455Y-141211833D01*
X201500130Y-140883424D01*
X201500130Y-140548576D01*
X201565455Y-140220167D01*
X201693594Y-139910811D01*
X201879627Y-139632393D01*
X202116393Y-139395627D01*
X202394811Y-139209594D01*
X202576027Y-139134532D01*
X202704166Y-139081455D01*
X202868371Y-139048793D01*
X203032576Y-139016130D01*
X203367424Y-139016130D01*
X203531629Y-139048793D01*
X203531629Y-139048793D01*
G37*
G36*
X217501629Y-139048793D02*
X217665834Y-139081455D01*
X217793973Y-139134532D01*
X217975189Y-139209594D01*
X218253607Y-139395627D01*
X218490373Y-139632393D01*
X218676406Y-139910811D01*
X218804545Y-140220167D01*
X218869870Y-140548576D01*
X218869870Y-140883424D01*
X218804545Y-141211833D01*
X218676406Y-141521189D01*
X218490373Y-141799607D01*
X218253607Y-142036373D01*
X217975189Y-142222406D01*
X217793973Y-142297468D01*
X217665834Y-142350545D01*
X217501628Y-142383208D01*
X217337424Y-142415870D01*
X217002576Y-142415870D01*
X216838372Y-142383208D01*
X216674166Y-142350545D01*
X216546027Y-142297468D01*
X216364811Y-142222406D01*
X216086393Y-142036373D01*
X215849627Y-141799607D01*
X215663594Y-141521189D01*
X215535455Y-141211833D01*
X215470130Y-140883424D01*
X215470130Y-140548576D01*
X215535455Y-140220167D01*
X215663594Y-139910811D01*
X215849627Y-139632393D01*
X216086393Y-139395627D01*
X216364811Y-139209594D01*
X216546027Y-139134532D01*
X216674166Y-139081455D01*
X216838371Y-139048793D01*
X217002576Y-139016130D01*
X217337424Y-139016130D01*
X217501629Y-139048793D01*
X217501629Y-139048793D01*
G37*
G36*
X221311629Y-139048793D02*
X221475834Y-139081455D01*
X221603973Y-139134532D01*
X221785189Y-139209594D01*
X222063607Y-139395627D01*
X222300373Y-139632393D01*
X222486406Y-139910811D01*
X222614545Y-140220167D01*
X222679870Y-140548576D01*
X222679870Y-140883424D01*
X222614545Y-141211833D01*
X222486406Y-141521189D01*
X222300373Y-141799607D01*
X222063607Y-142036373D01*
X221785189Y-142222406D01*
X221603973Y-142297468D01*
X221475834Y-142350545D01*
X221311628Y-142383208D01*
X221147424Y-142415870D01*
X220812576Y-142415870D01*
X220648372Y-142383208D01*
X220484166Y-142350545D01*
X220356027Y-142297468D01*
X220174811Y-142222406D01*
X219896393Y-142036373D01*
X219659627Y-141799607D01*
X219473594Y-141521189D01*
X219345455Y-141211833D01*
X219280130Y-140883424D01*
X219280130Y-140548576D01*
X219345455Y-140220167D01*
X219473594Y-139910811D01*
X219659627Y-139632393D01*
X219896393Y-139395627D01*
X220174811Y-139209594D01*
X220356027Y-139134532D01*
X220484166Y-139081455D01*
X220648371Y-139048793D01*
X220812576Y-139016130D01*
X221147424Y-139016130D01*
X221311629Y-139048793D01*
X221311629Y-139048793D01*
G37*
G36*
X137552000Y-139584000D02*
X135752000Y-139584000D01*
X135752000Y-137784000D01*
X137552000Y-137784000D01*
X137552000Y-139584000D01*
X137552000Y-139584000D01*
G37*
G36*
X141914521Y-137818586D02*
X142078309Y-137886429D01*
X142225720Y-137984926D01*
X142351074Y-138110280D01*
X142449571Y-138257691D01*
X142517414Y-138421479D01*
X142552000Y-138595356D01*
X142552000Y-138772644D01*
X142517414Y-138946521D01*
X142449571Y-139110309D01*
X142351074Y-139257720D01*
X142225720Y-139383074D01*
X142078309Y-139481571D01*
X141914521Y-139549414D01*
X141740644Y-139584000D01*
X141563356Y-139584000D01*
X141389479Y-139549414D01*
X141225691Y-139481571D01*
X141078280Y-139383074D01*
X140952926Y-139257720D01*
X140854429Y-139110309D01*
X140786586Y-138946521D01*
X140752000Y-138772644D01*
X140752000Y-138595356D01*
X140786586Y-138421479D01*
X140854429Y-138257691D01*
X140952926Y-138110280D01*
X141078280Y-137984926D01*
X141225691Y-137886429D01*
X141389479Y-137818586D01*
X141563356Y-137784000D01*
X141740644Y-137784000D01*
X141914521Y-137818586D01*
X141914521Y-137818586D01*
G37*
G36*
X139414521Y-137818586D02*
X139578309Y-137886429D01*
X139725720Y-137984926D01*
X139851074Y-138110280D01*
X139949571Y-138257691D01*
X140017414Y-138421479D01*
X140052000Y-138595356D01*
X140052000Y-138772644D01*
X140017414Y-138946521D01*
X139949571Y-139110309D01*
X139851074Y-139257720D01*
X139725720Y-139383074D01*
X139578309Y-139481571D01*
X139414521Y-139549414D01*
X139240644Y-139584000D01*
X139063356Y-139584000D01*
X138889479Y-139549414D01*
X138725691Y-139481571D01*
X138578280Y-139383074D01*
X138452926Y-139257720D01*
X138354429Y-139110309D01*
X138286586Y-138946521D01*
X138252000Y-138772644D01*
X138252000Y-138595356D01*
X138286586Y-138421479D01*
X138354429Y-138257691D01*
X138452926Y-138110280D01*
X138578280Y-137984926D01*
X138725691Y-137886429D01*
X138889479Y-137818586D01*
X139063356Y-137784000D01*
X139240644Y-137784000D01*
X139414521Y-137818586D01*
X139414521Y-137818586D01*
G37*
G36*
X195764000Y-135614877D02*
X195766402Y-135639263D01*
X195773515Y-135662712D01*
X195785066Y-135684323D01*
X195800612Y-135703265D01*
X195819554Y-135718811D01*
X195841165Y-135730362D01*
X195864614Y-135737475D01*
X195889000Y-135739877D01*
X195913386Y-135737475D01*
X195936835Y-135730362D01*
X195958446Y-135718811D01*
X195977388Y-135703265D01*
X195992934Y-135684323D01*
X196004485Y-135662712D01*
X196040573Y-135575588D01*
X196171901Y-135379042D01*
X196339042Y-135211901D01*
X196535588Y-135080573D01*
X196753974Y-134990115D01*
X196985809Y-134944000D01*
X197222191Y-134944000D01*
X197454026Y-134990115D01*
X197672412Y-135080573D01*
X197868958Y-135211901D01*
X198036099Y-135379042D01*
X198167427Y-135575588D01*
X198257885Y-135793974D01*
X198304000Y-136025809D01*
X198304000Y-136262191D01*
X198257885Y-136494026D01*
X198167427Y-136712412D01*
X198036099Y-136908958D01*
X197868958Y-137076099D01*
X197672412Y-137207427D01*
X197454026Y-137297885D01*
X197222191Y-137344000D01*
X196985809Y-137344000D01*
X196753974Y-137297885D01*
X196535588Y-137207427D01*
X196339042Y-137076099D01*
X196171901Y-136908958D01*
X196040573Y-136712412D01*
X196004485Y-136625288D01*
X195992934Y-136603677D01*
X195977388Y-136584735D01*
X195958446Y-136569189D01*
X195936835Y-136557638D01*
X195913386Y-136550525D01*
X195889000Y-136548123D01*
X195864614Y-136550525D01*
X195841165Y-136557638D01*
X195819554Y-136569189D01*
X195800612Y-136584735D01*
X195785066Y-136603677D01*
X195773515Y-136625288D01*
X195766402Y-136648737D01*
X195764000Y-136673123D01*
X195764000Y-137344000D01*
X193364000Y-137344000D01*
X193364000Y-134944000D01*
X195764000Y-134944000D01*
X195764000Y-135614877D01*
X195764000Y-135614877D01*
G37*
G36*
X187294026Y-134990115D02*
X187512412Y-135080573D01*
X187708958Y-135211901D01*
X187876099Y-135379042D01*
X188007427Y-135575588D01*
X188097885Y-135793974D01*
X188144000Y-136025809D01*
X188144000Y-136262191D01*
X188097885Y-136494026D01*
X188007427Y-136712412D01*
X187876099Y-136908958D01*
X187708958Y-137076099D01*
X187512412Y-137207427D01*
X187294026Y-137297885D01*
X187062191Y-137344000D01*
X186825809Y-137344000D01*
X186593974Y-137297885D01*
X186375588Y-137207427D01*
X186179042Y-137076099D01*
X186011901Y-136908958D01*
X185880573Y-136712412D01*
X185790115Y-136494026D01*
X185744000Y-136262191D01*
X185744000Y-136025809D01*
X185790115Y-135793974D01*
X185880573Y-135575588D01*
X186011901Y-135379042D01*
X186179042Y-135211901D01*
X186375588Y-135080573D01*
X186593974Y-134990115D01*
X186825809Y-134944000D01*
X187062191Y-134944000D01*
X187294026Y-134990115D01*
X187294026Y-134990115D01*
G37*
G36*
X177984000Y-135614877D02*
X177986402Y-135639263D01*
X177993515Y-135662712D01*
X178005066Y-135684323D01*
X178020612Y-135703265D01*
X178039554Y-135718811D01*
X178061165Y-135730362D01*
X178084614Y-135737475D01*
X178109000Y-135739877D01*
X178133386Y-135737475D01*
X178156835Y-135730362D01*
X178178446Y-135718811D01*
X178197388Y-135703265D01*
X178212934Y-135684323D01*
X178224485Y-135662712D01*
X178260573Y-135575588D01*
X178391901Y-135379042D01*
X178559042Y-135211901D01*
X178755588Y-135080573D01*
X178973974Y-134990115D01*
X179205809Y-134944000D01*
X179442191Y-134944000D01*
X179674026Y-134990115D01*
X179892412Y-135080573D01*
X180088958Y-135211901D01*
X180256099Y-135379042D01*
X180387427Y-135575588D01*
X180477885Y-135793974D01*
X180524000Y-136025809D01*
X180524000Y-136262191D01*
X180477885Y-136494026D01*
X180387427Y-136712412D01*
X180256099Y-136908958D01*
X180088958Y-137076099D01*
X179892412Y-137207427D01*
X179674026Y-137297885D01*
X179442191Y-137344000D01*
X179205809Y-137344000D01*
X178973974Y-137297885D01*
X178755588Y-137207427D01*
X178559042Y-137076099D01*
X178391901Y-136908958D01*
X178260573Y-136712412D01*
X178224485Y-136625288D01*
X178212934Y-136603677D01*
X178197388Y-136584735D01*
X178178446Y-136569189D01*
X178156835Y-136557638D01*
X178133386Y-136550525D01*
X178109000Y-136548123D01*
X178084614Y-136550525D01*
X178061165Y-136557638D01*
X178039554Y-136569189D01*
X178020612Y-136584735D01*
X178005066Y-136603677D01*
X177993515Y-136625288D01*
X177986402Y-136648737D01*
X177984000Y-136673123D01*
X177984000Y-137344000D01*
X175584000Y-137344000D01*
X175584000Y-134944000D01*
X177984000Y-134944000D01*
X177984000Y-135614877D01*
X177984000Y-135614877D01*
G37*
G36*
X222854026Y-134990115D02*
X223072412Y-135080573D01*
X223268958Y-135211901D01*
X223436099Y-135379042D01*
X223567427Y-135575588D01*
X223657885Y-135793974D01*
X223704000Y-136025809D01*
X223704000Y-136262191D01*
X223657885Y-136494026D01*
X223567427Y-136712412D01*
X223436099Y-136908958D01*
X223268958Y-137076099D01*
X223072412Y-137207427D01*
X222854026Y-137297885D01*
X222622191Y-137344000D01*
X222385809Y-137344000D01*
X222153974Y-137297885D01*
X221935588Y-137207427D01*
X221739042Y-137076099D01*
X221571901Y-136908958D01*
X221440573Y-136712412D01*
X221350115Y-136494026D01*
X221304000Y-136262191D01*
X221304000Y-136025809D01*
X221350115Y-135793974D01*
X221440573Y-135575588D01*
X221571901Y-135379042D01*
X221739042Y-135211901D01*
X221935588Y-135080573D01*
X222153974Y-134990115D01*
X222385809Y-134944000D01*
X222622191Y-134944000D01*
X222854026Y-134990115D01*
X222854026Y-134990115D01*
G37*
G36*
X213544000Y-135614877D02*
X213546402Y-135639263D01*
X213553515Y-135662712D01*
X213565066Y-135684323D01*
X213580612Y-135703265D01*
X213599554Y-135718811D01*
X213621165Y-135730362D01*
X213644614Y-135737475D01*
X213669000Y-135739877D01*
X213693386Y-135737475D01*
X213716835Y-135730362D01*
X213738446Y-135718811D01*
X213757388Y-135703265D01*
X213772934Y-135684323D01*
X213784485Y-135662712D01*
X213820573Y-135575588D01*
X213951901Y-135379042D01*
X214119042Y-135211901D01*
X214315588Y-135080573D01*
X214533974Y-134990115D01*
X214765809Y-134944000D01*
X215002191Y-134944000D01*
X215234026Y-134990115D01*
X215452412Y-135080573D01*
X215648958Y-135211901D01*
X215816099Y-135379042D01*
X215947427Y-135575588D01*
X216037885Y-135793974D01*
X216084000Y-136025809D01*
X216084000Y-136262191D01*
X216037885Y-136494026D01*
X215947427Y-136712412D01*
X215816099Y-136908958D01*
X215648958Y-137076099D01*
X215452412Y-137207427D01*
X215234026Y-137297885D01*
X215002191Y-137344000D01*
X214765809Y-137344000D01*
X214533974Y-137297885D01*
X214315588Y-137207427D01*
X214119042Y-137076099D01*
X213951901Y-136908958D01*
X213820573Y-136712412D01*
X213784485Y-136625288D01*
X213772934Y-136603677D01*
X213757388Y-136584735D01*
X213738446Y-136569189D01*
X213716835Y-136557638D01*
X213693386Y-136550525D01*
X213669000Y-136548123D01*
X213644614Y-136550525D01*
X213621165Y-136557638D01*
X213599554Y-136569189D01*
X213580612Y-136584735D01*
X213565066Y-136603677D01*
X213553515Y-136625288D01*
X213546402Y-136648737D01*
X213544000Y-136673123D01*
X213544000Y-137344000D01*
X211144000Y-137344000D01*
X211144000Y-134944000D01*
X213544000Y-134944000D01*
X213544000Y-135614877D01*
X213544000Y-135614877D01*
G37*
G36*
X205074026Y-134990115D02*
X205292412Y-135080573D01*
X205488958Y-135211901D01*
X205656099Y-135379042D01*
X205787427Y-135575588D01*
X205877885Y-135793974D01*
X205924000Y-136025809D01*
X205924000Y-136262191D01*
X205877885Y-136494026D01*
X205787427Y-136712412D01*
X205656099Y-136908958D01*
X205488958Y-137076099D01*
X205292412Y-137207427D01*
X205074026Y-137297885D01*
X204842191Y-137344000D01*
X204605809Y-137344000D01*
X204373974Y-137297885D01*
X204155588Y-137207427D01*
X203959042Y-137076099D01*
X203791901Y-136908958D01*
X203660573Y-136712412D01*
X203570115Y-136494026D01*
X203524000Y-136262191D01*
X203524000Y-136025809D01*
X203570115Y-135793974D01*
X203660573Y-135575588D01*
X203791901Y-135379042D01*
X203959042Y-135211901D01*
X204155588Y-135080573D01*
X204373974Y-134990115D01*
X204605809Y-134944000D01*
X204842191Y-134944000D01*
X205074026Y-134990115D01*
X205074026Y-134990115D01*
G37*
G36*
X167597888Y-135098470D02*
X167778274Y-135134350D01*
X167969362Y-135213502D01*
X168141336Y-135328411D01*
X168287589Y-135474664D01*
X168402498Y-135646638D01*
X168456522Y-135777062D01*
X168468066Y-135798659D01*
X168483612Y-135817601D01*
X168502554Y-135833147D01*
X168524165Y-135844698D01*
X168547614Y-135851811D01*
X168572000Y-135854213D01*
X168596386Y-135851811D01*
X168619836Y-135844698D01*
X168641446Y-135833147D01*
X168660388Y-135817601D01*
X168675934Y-135798659D01*
X168687478Y-135777062D01*
X168741502Y-135646638D01*
X168856411Y-135474664D01*
X169002664Y-135328411D01*
X169174638Y-135213502D01*
X169365726Y-135134350D01*
X169546112Y-135098470D01*
X169568583Y-135094000D01*
X169775417Y-135094000D01*
X169797888Y-135098470D01*
X169978274Y-135134350D01*
X170169362Y-135213502D01*
X170341336Y-135328411D01*
X170487589Y-135474664D01*
X170602498Y-135646638D01*
X170681650Y-135837726D01*
X170722000Y-136040584D01*
X170722000Y-136247416D01*
X170681650Y-136450274D01*
X170602498Y-136641362D01*
X170487589Y-136813336D01*
X170341336Y-136959589D01*
X170169362Y-137074498D01*
X169978274Y-137153650D01*
X169797888Y-137189530D01*
X169775417Y-137194000D01*
X169568583Y-137194000D01*
X169546112Y-137189530D01*
X169365726Y-137153650D01*
X169174638Y-137074498D01*
X169002664Y-136959589D01*
X168856411Y-136813336D01*
X168741502Y-136641362D01*
X168687478Y-136510938D01*
X168675934Y-136489341D01*
X168660388Y-136470399D01*
X168641446Y-136454853D01*
X168619835Y-136443302D01*
X168596386Y-136436189D01*
X168572000Y-136433787D01*
X168547614Y-136436189D01*
X168524164Y-136443302D01*
X168502554Y-136454853D01*
X168483612Y-136470399D01*
X168468066Y-136489341D01*
X168456522Y-136510938D01*
X168402498Y-136641362D01*
X168287589Y-136813336D01*
X168141336Y-136959589D01*
X167969362Y-137074498D01*
X167778274Y-137153650D01*
X167597888Y-137189530D01*
X167575417Y-137194000D01*
X167368583Y-137194000D01*
X167346112Y-137189530D01*
X167165726Y-137153650D01*
X166974638Y-137074498D01*
X166802664Y-136959589D01*
X166656411Y-136813336D01*
X166541502Y-136641362D01*
X166462350Y-136450274D01*
X166422000Y-136247416D01*
X166422000Y-136040584D01*
X166462350Y-135837726D01*
X166541502Y-135646638D01*
X166656411Y-135474664D01*
X166802664Y-135328411D01*
X166974638Y-135213502D01*
X167165726Y-135134350D01*
X167346112Y-135098470D01*
X167368583Y-135094000D01*
X167575417Y-135094000D01*
X167597888Y-135098470D01*
X167597888Y-135098470D01*
G37*
G36*
X165197888Y-135098470D02*
X165378274Y-135134350D01*
X165569362Y-135213502D01*
X165741336Y-135328411D01*
X165887589Y-135474664D01*
X166002498Y-135646638D01*
X166081650Y-135837726D01*
X166122000Y-136040584D01*
X166122000Y-136247416D01*
X166081650Y-136450274D01*
X166002498Y-136641362D01*
X165887589Y-136813336D01*
X165741336Y-136959589D01*
X165569362Y-137074498D01*
X165378274Y-137153650D01*
X165197888Y-137189530D01*
X165175417Y-137194000D01*
X164968583Y-137194000D01*
X164946112Y-137189530D01*
X164765726Y-137153650D01*
X164574638Y-137074498D01*
X164402664Y-136959589D01*
X164256411Y-136813336D01*
X164141502Y-136641362D01*
X164062350Y-136450274D01*
X164022000Y-136247416D01*
X164022000Y-136040584D01*
X164062350Y-135837726D01*
X164141502Y-135646638D01*
X164256411Y-135474664D01*
X164402664Y-135328411D01*
X164574638Y-135213502D01*
X164765726Y-135134350D01*
X164946112Y-135098470D01*
X164968583Y-135094000D01*
X165175417Y-135094000D01*
X165197888Y-135098470D01*
X165197888Y-135098470D01*
G37*
G36*
X163122000Y-137194000D02*
X161022000Y-137194000D01*
X161022000Y-135094000D01*
X163122000Y-135094000D01*
X163122000Y-137194000D01*
X163122000Y-137194000D01*
G37*
G36*
X149228000Y-133480000D02*
X146428000Y-133480000D01*
X146428000Y-130680000D01*
X149228000Y-130680000D01*
X149228000Y-133480000D01*
X149228000Y-133480000D01*
G37*
G36*
X156814026Y-130418115D02*
X157032412Y-130508573D01*
X157228958Y-130639901D01*
X157396099Y-130807042D01*
X157527427Y-131003588D01*
X157563515Y-131090712D01*
X157575066Y-131112323D01*
X157590612Y-131131265D01*
X157609554Y-131146811D01*
X157631165Y-131158362D01*
X157654614Y-131165475D01*
X157679000Y-131167877D01*
X157703386Y-131165475D01*
X157726835Y-131158362D01*
X157748446Y-131146811D01*
X157767388Y-131131265D01*
X157782934Y-131112323D01*
X157794485Y-131090712D01*
X157801598Y-131067263D01*
X157804000Y-131042877D01*
X157804000Y-130372000D01*
X160204000Y-130372000D01*
X160204000Y-132772000D01*
X157804000Y-132772000D01*
X157804000Y-132101123D01*
X157801598Y-132076737D01*
X157794485Y-132053288D01*
X157782934Y-132031677D01*
X157767388Y-132012735D01*
X157748446Y-131997189D01*
X157726835Y-131985638D01*
X157703386Y-131978525D01*
X157679000Y-131976123D01*
X157654614Y-131978525D01*
X157631165Y-131985638D01*
X157609554Y-131997189D01*
X157590612Y-132012735D01*
X157575066Y-132031677D01*
X157563515Y-132053288D01*
X157527427Y-132140412D01*
X157396099Y-132336958D01*
X157228958Y-132504099D01*
X157032412Y-132635427D01*
X156814026Y-132725885D01*
X156582191Y-132772000D01*
X156345809Y-132772000D01*
X156113974Y-132725885D01*
X155895588Y-132635427D01*
X155699042Y-132504099D01*
X155531901Y-132336958D01*
X155400573Y-132140412D01*
X155310115Y-131922026D01*
X155264000Y-131690191D01*
X155264000Y-131453809D01*
X155310115Y-131221974D01*
X155400573Y-131003588D01*
X155531901Y-130807042D01*
X155699042Y-130639901D01*
X155895588Y-130508573D01*
X156113974Y-130418115D01*
X156345809Y-130372000D01*
X156582191Y-130372000D01*
X156814026Y-130418115D01*
X156814026Y-130418115D01*
G37*
G36*
X212694026Y-129910115D02*
X212912412Y-130000573D01*
X213108958Y-130131901D01*
X213276099Y-130299042D01*
X213407427Y-130495588D01*
X213498515Y-130715495D01*
X213510066Y-130737106D01*
X213525611Y-130756048D01*
X213544554Y-130771594D01*
X213566164Y-130783145D01*
X213589613Y-130790258D01*
X213614000Y-130792660D01*
X213638386Y-130790258D01*
X213661835Y-130783145D01*
X213683446Y-130771594D01*
X213702388Y-130756049D01*
X213717934Y-130737106D01*
X213729485Y-130715495D01*
X213820573Y-130495588D01*
X213951901Y-130299042D01*
X214119042Y-130131901D01*
X214315588Y-130000573D01*
X214533974Y-129910115D01*
X214765809Y-129864000D01*
X215002191Y-129864000D01*
X215234026Y-129910115D01*
X215452412Y-130000573D01*
X215648958Y-130131901D01*
X215816099Y-130299042D01*
X215947427Y-130495588D01*
X216037885Y-130713974D01*
X216084000Y-130945809D01*
X216084000Y-131182191D01*
X216037885Y-131414026D01*
X215947427Y-131632412D01*
X215816099Y-131828958D01*
X215648958Y-131996099D01*
X215452412Y-132127427D01*
X215234026Y-132217885D01*
X215002191Y-132264000D01*
X214765809Y-132264000D01*
X214533974Y-132217885D01*
X214315588Y-132127427D01*
X214119042Y-131996099D01*
X213951901Y-131828958D01*
X213820573Y-131632412D01*
X213729485Y-131412505D01*
X213717934Y-131390894D01*
X213702389Y-131371952D01*
X213683446Y-131356406D01*
X213661836Y-131344855D01*
X213638387Y-131337742D01*
X213614000Y-131335340D01*
X213589614Y-131337742D01*
X213566165Y-131344855D01*
X213544554Y-131356406D01*
X213525612Y-131371951D01*
X213510066Y-131390894D01*
X213498515Y-131412505D01*
X213407427Y-131632412D01*
X213276099Y-131828958D01*
X213108958Y-131996099D01*
X212912412Y-132127427D01*
X212694026Y-132217885D01*
X212462191Y-132264000D01*
X212225809Y-132264000D01*
X211993974Y-132217885D01*
X211775588Y-132127427D01*
X211579042Y-131996099D01*
X211411901Y-131828958D01*
X211280573Y-131632412D01*
X211190115Y-131414026D01*
X211144000Y-131182191D01*
X211144000Y-130945809D01*
X211190115Y-130713974D01*
X211280573Y-130495588D01*
X211411901Y-130299042D01*
X211579042Y-130131901D01*
X211775588Y-130000573D01*
X211993974Y-129910115D01*
X212225809Y-129864000D01*
X212462191Y-129864000D01*
X212694026Y-129910115D01*
X212694026Y-129910115D01*
G37*
G36*
X194914026Y-129910115D02*
X195132412Y-130000573D01*
X195328958Y-130131901D01*
X195496099Y-130299042D01*
X195627427Y-130495588D01*
X195718515Y-130715495D01*
X195730066Y-130737106D01*
X195745611Y-130756048D01*
X195764554Y-130771594D01*
X195786164Y-130783145D01*
X195809613Y-130790258D01*
X195834000Y-130792660D01*
X195858386Y-130790258D01*
X195881835Y-130783145D01*
X195903446Y-130771594D01*
X195922388Y-130756049D01*
X195937934Y-130737106D01*
X195949485Y-130715495D01*
X196040573Y-130495588D01*
X196171901Y-130299042D01*
X196339042Y-130131901D01*
X196535588Y-130000573D01*
X196753974Y-129910115D01*
X196985809Y-129864000D01*
X197222191Y-129864000D01*
X197454026Y-129910115D01*
X197672412Y-130000573D01*
X197868958Y-130131901D01*
X198036099Y-130299042D01*
X198167427Y-130495588D01*
X198257885Y-130713974D01*
X198304000Y-130945809D01*
X198304000Y-131182191D01*
X198257885Y-131414026D01*
X198167427Y-131632412D01*
X198036099Y-131828958D01*
X197868958Y-131996099D01*
X197672412Y-132127427D01*
X197454026Y-132217885D01*
X197222191Y-132264000D01*
X196985809Y-132264000D01*
X196753974Y-132217885D01*
X196535588Y-132127427D01*
X196339042Y-131996099D01*
X196171901Y-131828958D01*
X196040573Y-131632412D01*
X195949485Y-131412505D01*
X195937934Y-131390894D01*
X195922389Y-131371952D01*
X195903446Y-131356406D01*
X195881836Y-131344855D01*
X195858387Y-131337742D01*
X195834000Y-131335340D01*
X195809614Y-131337742D01*
X195786165Y-131344855D01*
X195764554Y-131356406D01*
X195745612Y-131371951D01*
X195730066Y-131390894D01*
X195718515Y-131412505D01*
X195627427Y-131632412D01*
X195496099Y-131828958D01*
X195328958Y-131996099D01*
X195132412Y-132127427D01*
X194914026Y-132217885D01*
X194682191Y-132264000D01*
X194445809Y-132264000D01*
X194213974Y-132217885D01*
X193995588Y-132127427D01*
X193799042Y-131996099D01*
X193631901Y-131828958D01*
X193500573Y-131632412D01*
X193410115Y-131414026D01*
X193364000Y-131182191D01*
X193364000Y-130945809D01*
X193410115Y-130713974D01*
X193500573Y-130495588D01*
X193631901Y-130299042D01*
X193799042Y-130131901D01*
X193995588Y-130000573D01*
X194213974Y-129910115D01*
X194445809Y-129864000D01*
X194682191Y-129864000D01*
X194914026Y-129910115D01*
X194914026Y-129910115D01*
G37*
G36*
X222854026Y-129910115D02*
X223072412Y-130000573D01*
X223268958Y-130131901D01*
X223436099Y-130299042D01*
X223567427Y-130495588D01*
X223657885Y-130713974D01*
X223704000Y-130945809D01*
X223704000Y-131182191D01*
X223657885Y-131414026D01*
X223567427Y-131632412D01*
X223436099Y-131828958D01*
X223268958Y-131996099D01*
X223072412Y-132127427D01*
X222854026Y-132217885D01*
X222622191Y-132264000D01*
X222385809Y-132264000D01*
X222153974Y-132217885D01*
X221935588Y-132127427D01*
X221739042Y-131996099D01*
X221571901Y-131828958D01*
X221440573Y-131632412D01*
X221350115Y-131414026D01*
X221304000Y-131182191D01*
X221304000Y-130945809D01*
X221350115Y-130713974D01*
X221440573Y-130495588D01*
X221571901Y-130299042D01*
X221739042Y-130131901D01*
X221935588Y-130000573D01*
X222153974Y-129910115D01*
X222385809Y-129864000D01*
X222622191Y-129864000D01*
X222854026Y-129910115D01*
X222854026Y-129910115D01*
G37*
G36*
X177134026Y-129910115D02*
X177352412Y-130000573D01*
X177548958Y-130131901D01*
X177716099Y-130299042D01*
X177847427Y-130495588D01*
X177938515Y-130715495D01*
X177950066Y-130737106D01*
X177965611Y-130756048D01*
X177984554Y-130771594D01*
X178006164Y-130783145D01*
X178029613Y-130790258D01*
X178054000Y-130792660D01*
X178078386Y-130790258D01*
X178101835Y-130783145D01*
X178123446Y-130771594D01*
X178142388Y-130756049D01*
X178157934Y-130737106D01*
X178169485Y-130715495D01*
X178260573Y-130495588D01*
X178391901Y-130299042D01*
X178559042Y-130131901D01*
X178755588Y-130000573D01*
X178973974Y-129910115D01*
X179205809Y-129864000D01*
X179442191Y-129864000D01*
X179674026Y-129910115D01*
X179892412Y-130000573D01*
X180088958Y-130131901D01*
X180256099Y-130299042D01*
X180387427Y-130495588D01*
X180477885Y-130713974D01*
X180524000Y-130945809D01*
X180524000Y-131182191D01*
X180477885Y-131414026D01*
X180387427Y-131632412D01*
X180256099Y-131828958D01*
X180088958Y-131996099D01*
X179892412Y-132127427D01*
X179674026Y-132217885D01*
X179442191Y-132264000D01*
X179205809Y-132264000D01*
X178973974Y-132217885D01*
X178755588Y-132127427D01*
X178559042Y-131996099D01*
X178391901Y-131828958D01*
X178260573Y-131632412D01*
X178169485Y-131412505D01*
X178157934Y-131390894D01*
X178142389Y-131371952D01*
X178123446Y-131356406D01*
X178101836Y-131344855D01*
X178078387Y-131337742D01*
X178054000Y-131335340D01*
X178029614Y-131337742D01*
X178006165Y-131344855D01*
X177984554Y-131356406D01*
X177965612Y-131371951D01*
X177950066Y-131390894D01*
X177938515Y-131412505D01*
X177847427Y-131632412D01*
X177716099Y-131828958D01*
X177548958Y-131996099D01*
X177352412Y-132127427D01*
X177134026Y-132217885D01*
X176902191Y-132264000D01*
X176665809Y-132264000D01*
X176433974Y-132217885D01*
X176215588Y-132127427D01*
X176019042Y-131996099D01*
X175851901Y-131828958D01*
X175720573Y-131632412D01*
X175630115Y-131414026D01*
X175584000Y-131182191D01*
X175584000Y-130945809D01*
X175630115Y-130713974D01*
X175720573Y-130495588D01*
X175851901Y-130299042D01*
X176019042Y-130131901D01*
X176215588Y-130000573D01*
X176433974Y-129910115D01*
X176665809Y-129864000D01*
X176902191Y-129864000D01*
X177134026Y-129910115D01*
X177134026Y-129910115D01*
G37*
G36*
X205074026Y-129910115D02*
X205292412Y-130000573D01*
X205488958Y-130131901D01*
X205656099Y-130299042D01*
X205787427Y-130495588D01*
X205877885Y-130713974D01*
X205924000Y-130945809D01*
X205924000Y-131182191D01*
X205877885Y-131414026D01*
X205787427Y-131632412D01*
X205656099Y-131828958D01*
X205488958Y-131996099D01*
X205292412Y-132127427D01*
X205074026Y-132217885D01*
X204842191Y-132264000D01*
X204605809Y-132264000D01*
X204373974Y-132217885D01*
X204155588Y-132127427D01*
X203959042Y-131996099D01*
X203791901Y-131828958D01*
X203660573Y-131632412D01*
X203570115Y-131414026D01*
X203524000Y-131182191D01*
X203524000Y-130945809D01*
X203570115Y-130713974D01*
X203660573Y-130495588D01*
X203791901Y-130299042D01*
X203959042Y-130131901D01*
X204155588Y-130000573D01*
X204373974Y-129910115D01*
X204605809Y-129864000D01*
X204842191Y-129864000D01*
X205074026Y-129910115D01*
X205074026Y-129910115D01*
G37*
G36*
X187294026Y-129910115D02*
X187512412Y-130000573D01*
X187708958Y-130131901D01*
X187876099Y-130299042D01*
X188007427Y-130495588D01*
X188097885Y-130713974D01*
X188144000Y-130945809D01*
X188144000Y-131182191D01*
X188097885Y-131414026D01*
X188007427Y-131632412D01*
X187876099Y-131828958D01*
X187708958Y-131996099D01*
X187512412Y-132127427D01*
X187294026Y-132217885D01*
X187062191Y-132264000D01*
X186825809Y-132264000D01*
X186593974Y-132217885D01*
X186375588Y-132127427D01*
X186179042Y-131996099D01*
X186011901Y-131828958D01*
X185880573Y-131632412D01*
X185790115Y-131414026D01*
X185744000Y-131182191D01*
X185744000Y-130945809D01*
X185790115Y-130713974D01*
X185880573Y-130495588D01*
X186011901Y-130299042D01*
X186179042Y-130131901D01*
X186375588Y-130000573D01*
X186593974Y-129910115D01*
X186825809Y-129864000D01*
X187062191Y-129864000D01*
X187294026Y-129910115D01*
X187294026Y-129910115D01*
G37*
G36*
X162193163Y-130017530D02*
X162378274Y-130054350D01*
X162569362Y-130133502D01*
X162741336Y-130248411D01*
X162887589Y-130394664D01*
X163002498Y-130566638D01*
X163081650Y-130757726D01*
X163122000Y-130960584D01*
X163122000Y-131167416D01*
X163081650Y-131370274D01*
X163002498Y-131561362D01*
X162887589Y-131733336D01*
X162741336Y-131879589D01*
X162569362Y-131994498D01*
X162378274Y-132073650D01*
X162197888Y-132109530D01*
X162175417Y-132114000D01*
X161968583Y-132114000D01*
X161946112Y-132109530D01*
X161765726Y-132073650D01*
X161574638Y-131994498D01*
X161402664Y-131879589D01*
X161256411Y-131733336D01*
X161141502Y-131561362D01*
X161062350Y-131370274D01*
X161022000Y-131167416D01*
X161022000Y-130960584D01*
X161062350Y-130757726D01*
X161141502Y-130566638D01*
X161256411Y-130394664D01*
X161402664Y-130248411D01*
X161574638Y-130133502D01*
X161765726Y-130054350D01*
X161950837Y-130017530D01*
X161968583Y-130014000D01*
X162175417Y-130014000D01*
X162193163Y-130017530D01*
X162193163Y-130017530D01*
G37*
G36*
X165193163Y-130017530D02*
X165378274Y-130054350D01*
X165569362Y-130133502D01*
X165741336Y-130248411D01*
X165887589Y-130394664D01*
X166002498Y-130566638D01*
X166081650Y-130757726D01*
X166122000Y-130960584D01*
X166122000Y-131167416D01*
X166081650Y-131370274D01*
X166002498Y-131561362D01*
X165887589Y-131733336D01*
X165741336Y-131879589D01*
X165569362Y-131994498D01*
X165378274Y-132073650D01*
X165197888Y-132109530D01*
X165175417Y-132114000D01*
X164968583Y-132114000D01*
X164946112Y-132109530D01*
X164765726Y-132073650D01*
X164574638Y-131994498D01*
X164402664Y-131879589D01*
X164256411Y-131733336D01*
X164141502Y-131561362D01*
X164062350Y-131370274D01*
X164022000Y-131167416D01*
X164022000Y-130960584D01*
X164062350Y-130757726D01*
X164141502Y-130566638D01*
X164256411Y-130394664D01*
X164402664Y-130248411D01*
X164574638Y-130133502D01*
X164765726Y-130054350D01*
X164950837Y-130017530D01*
X164968583Y-130014000D01*
X165175417Y-130014000D01*
X165193163Y-130017530D01*
X165193163Y-130017530D01*
G37*
G36*
X167593163Y-130017530D02*
X167778274Y-130054350D01*
X167969362Y-130133502D01*
X168141336Y-130248411D01*
X168287589Y-130394664D01*
X168402498Y-130566638D01*
X168456522Y-130697062D01*
X168468066Y-130718659D01*
X168483612Y-130737601D01*
X168502554Y-130753147D01*
X168524165Y-130764698D01*
X168547614Y-130771811D01*
X168572000Y-130774213D01*
X168596386Y-130771811D01*
X168619836Y-130764698D01*
X168641446Y-130753147D01*
X168660388Y-130737601D01*
X168675934Y-130718659D01*
X168687478Y-130697062D01*
X168741502Y-130566638D01*
X168856411Y-130394664D01*
X169002664Y-130248411D01*
X169174638Y-130133502D01*
X169365726Y-130054350D01*
X169550837Y-130017530D01*
X169568583Y-130014000D01*
X169775417Y-130014000D01*
X169793163Y-130017530D01*
X169978274Y-130054350D01*
X170169362Y-130133502D01*
X170341336Y-130248411D01*
X170487589Y-130394664D01*
X170602498Y-130566638D01*
X170681650Y-130757726D01*
X170722000Y-130960584D01*
X170722000Y-131167416D01*
X170681650Y-131370274D01*
X170602498Y-131561362D01*
X170487589Y-131733336D01*
X170341336Y-131879589D01*
X170169362Y-131994498D01*
X169978274Y-132073650D01*
X169797888Y-132109530D01*
X169775417Y-132114000D01*
X169568583Y-132114000D01*
X169546112Y-132109530D01*
X169365726Y-132073650D01*
X169174638Y-131994498D01*
X169002664Y-131879589D01*
X168856411Y-131733336D01*
X168741502Y-131561362D01*
X168687478Y-131430938D01*
X168675934Y-131409341D01*
X168660388Y-131390399D01*
X168641446Y-131374853D01*
X168619835Y-131363302D01*
X168596386Y-131356189D01*
X168572000Y-131353787D01*
X168547614Y-131356189D01*
X168524164Y-131363302D01*
X168502554Y-131374853D01*
X168483612Y-131390399D01*
X168468066Y-131409341D01*
X168456522Y-131430938D01*
X168402498Y-131561362D01*
X168287589Y-131733336D01*
X168141336Y-131879589D01*
X167969362Y-131994498D01*
X167778274Y-132073650D01*
X167597888Y-132109530D01*
X167575417Y-132114000D01*
X167368583Y-132114000D01*
X167346112Y-132109530D01*
X167165726Y-132073650D01*
X166974638Y-131994498D01*
X166802664Y-131879589D01*
X166656411Y-131733336D01*
X166541502Y-131561362D01*
X166462350Y-131370274D01*
X166422000Y-131167416D01*
X166422000Y-130960584D01*
X166462350Y-130757726D01*
X166541502Y-130566638D01*
X166656411Y-130394664D01*
X166802664Y-130248411D01*
X166974638Y-130133502D01*
X167165726Y-130054350D01*
X167350837Y-130017530D01*
X167368583Y-130014000D01*
X167575417Y-130014000D01*
X167593163Y-130017530D01*
X167593163Y-130017530D01*
G37*
G36*
X153612030Y-128046469D02*
X153612033Y-128046470D01*
X153612034Y-128046470D01*
X153800535Y-128103651D01*
X153800537Y-128103652D01*
X153974260Y-128196509D01*
X154126528Y-128321472D01*
X154251491Y-128473740D01*
X154344348Y-128647463D01*
X154401531Y-128835970D01*
X154420838Y-129032000D01*
X154401531Y-129228030D01*
X154344348Y-129416537D01*
X154251491Y-129590260D01*
X154126528Y-129742528D01*
X153974260Y-129867491D01*
X153974258Y-129867492D01*
X153800535Y-129960349D01*
X153612034Y-130017530D01*
X153612033Y-130017530D01*
X153612030Y-130017531D01*
X153465124Y-130032000D01*
X153366876Y-130032000D01*
X153219970Y-130017531D01*
X153219967Y-130017530D01*
X153219966Y-130017530D01*
X153031465Y-129960349D01*
X152857742Y-129867492D01*
X152857740Y-129867491D01*
X152705472Y-129742528D01*
X152580509Y-129590260D01*
X152487652Y-129416537D01*
X152430469Y-129228030D01*
X152411162Y-129032000D01*
X152430469Y-128835970D01*
X152487652Y-128647463D01*
X152580509Y-128473740D01*
X152705472Y-128321472D01*
X152857740Y-128196509D01*
X153031463Y-128103652D01*
X153031465Y-128103651D01*
X153219966Y-128046470D01*
X153219967Y-128046470D01*
X153219970Y-128046469D01*
X153366876Y-128032000D01*
X153465124Y-128032000D01*
X153612030Y-128046469D01*
X153612030Y-128046469D01*
G37*
G36*
X129871628Y-124824792D02*
X130035834Y-124857455D01*
X130163973Y-124910532D01*
X130345189Y-124985594D01*
X130623607Y-125171627D01*
X130860373Y-125408393D01*
X131046406Y-125686811D01*
X131121468Y-125868027D01*
X131174545Y-125996166D01*
X131196683Y-126107463D01*
X131239870Y-126324576D01*
X131239870Y-126659424D01*
X131234180Y-126688030D01*
X131174545Y-126987834D01*
X131148688Y-127050258D01*
X131046406Y-127297189D01*
X130860373Y-127575607D01*
X130623607Y-127812373D01*
X130345189Y-127998406D01*
X130163973Y-128073468D01*
X130035834Y-128126545D01*
X129871628Y-128159208D01*
X129707424Y-128191870D01*
X129372576Y-128191870D01*
X129208372Y-128159208D01*
X129044166Y-128126545D01*
X128916027Y-128073468D01*
X128734811Y-127998406D01*
X128456393Y-127812373D01*
X128219627Y-127575607D01*
X128033594Y-127297189D01*
X127931312Y-127050258D01*
X127905455Y-126987834D01*
X127845820Y-126688030D01*
X127840130Y-126659424D01*
X127840130Y-126324576D01*
X127883317Y-126107463D01*
X127905455Y-125996166D01*
X127958532Y-125868027D01*
X128033594Y-125686811D01*
X128219627Y-125408393D01*
X128456393Y-125171627D01*
X128734811Y-124985594D01*
X128916027Y-124910532D01*
X129044166Y-124857455D01*
X129208372Y-124824792D01*
X129372576Y-124792130D01*
X129707424Y-124792130D01*
X129871628Y-124824792D01*
X129871628Y-124824792D01*
G37*
G36*
X219885770Y-126015372D02*
X220001689Y-126038429D01*
X220183678Y-126113811D01*
X220347463Y-126223249D01*
X220486751Y-126362537D01*
X220596189Y-126526322D01*
X220671571Y-126708311D01*
X220694628Y-126824230D01*
X220705033Y-126876535D01*
X220710000Y-126901509D01*
X220710000Y-127098491D01*
X220671571Y-127291689D01*
X220596189Y-127473678D01*
X220486751Y-127637463D01*
X220347463Y-127776751D01*
X220183678Y-127886189D01*
X220001689Y-127961571D01*
X219885770Y-127984628D01*
X219808493Y-128000000D01*
X219611507Y-128000000D01*
X219534230Y-127984628D01*
X219418311Y-127961571D01*
X219236322Y-127886189D01*
X219072537Y-127776751D01*
X218933249Y-127637463D01*
X218823811Y-127473678D01*
X218748429Y-127291689D01*
X218710000Y-127098491D01*
X218710000Y-126901509D01*
X218714968Y-126876535D01*
X218725372Y-126824230D01*
X218748429Y-126708311D01*
X218823811Y-126526322D01*
X218933249Y-126362537D01*
X219072537Y-126223249D01*
X219236322Y-126113811D01*
X219418311Y-126038429D01*
X219534230Y-126015372D01*
X219611507Y-126000000D01*
X219808493Y-126000000D01*
X219885770Y-126015372D01*
X219885770Y-126015372D01*
G37*
G36*
X166545770Y-126015372D02*
X166661689Y-126038429D01*
X166843678Y-126113811D01*
X167007463Y-126223249D01*
X167146751Y-126362537D01*
X167256189Y-126526322D01*
X167331571Y-126708311D01*
X167354628Y-126824230D01*
X167365033Y-126876535D01*
X167370000Y-126901509D01*
X167370000Y-127098491D01*
X167331571Y-127291689D01*
X167256189Y-127473678D01*
X167146751Y-127637463D01*
X167007463Y-127776751D01*
X166843678Y-127886189D01*
X166661689Y-127961571D01*
X166545770Y-127984628D01*
X166468493Y-128000000D01*
X166271507Y-128000000D01*
X166194230Y-127984628D01*
X166078311Y-127961571D01*
X165896322Y-127886189D01*
X165732537Y-127776751D01*
X165593249Y-127637463D01*
X165483811Y-127473678D01*
X165408429Y-127291689D01*
X165370000Y-127098491D01*
X165370000Y-126901509D01*
X165374968Y-126876535D01*
X165385372Y-126824230D01*
X165408429Y-126708311D01*
X165483811Y-126526322D01*
X165593249Y-126362537D01*
X165732537Y-126223249D01*
X165896322Y-126113811D01*
X166078311Y-126038429D01*
X166194230Y-126015372D01*
X166271507Y-126000000D01*
X166468493Y-126000000D01*
X166545770Y-126015372D01*
X166545770Y-126015372D01*
G37*
G36*
X158946030Y-126014469D02*
X158946033Y-126014470D01*
X158946034Y-126014470D01*
X159134535Y-126071651D01*
X159134537Y-126071652D01*
X159308260Y-126164509D01*
X159460528Y-126289472D01*
X159585491Y-126441740D01*
X159630701Y-126526322D01*
X159678349Y-126615465D01*
X159706513Y-126708311D01*
X159735531Y-126803970D01*
X159754838Y-127000000D01*
X159735531Y-127196030D01*
X159735530Y-127196033D01*
X159735530Y-127196034D01*
X159695653Y-127327492D01*
X159678348Y-127384537D01*
X159585491Y-127558260D01*
X159460528Y-127710528D01*
X159308260Y-127835491D01*
X159308258Y-127835492D01*
X159134535Y-127928349D01*
X158946034Y-127985530D01*
X158946033Y-127985530D01*
X158946030Y-127985531D01*
X158799124Y-128000000D01*
X158700876Y-128000000D01*
X158553970Y-127985531D01*
X158553967Y-127985530D01*
X158553966Y-127985530D01*
X158365465Y-127928349D01*
X158191742Y-127835492D01*
X158191740Y-127835491D01*
X158039472Y-127710528D01*
X157914509Y-127558260D01*
X157821652Y-127384537D01*
X157804348Y-127327492D01*
X157764470Y-127196034D01*
X157764470Y-127196033D01*
X157764469Y-127196030D01*
X157745162Y-127000000D01*
X157764469Y-126803970D01*
X157793487Y-126708311D01*
X157821651Y-126615465D01*
X157869299Y-126526322D01*
X157914509Y-126441740D01*
X158039472Y-126289472D01*
X158191740Y-126164509D01*
X158365463Y-126071652D01*
X158365465Y-126071651D01*
X158553966Y-126014470D01*
X158553967Y-126014470D01*
X158553970Y-126014469D01*
X158700876Y-126000000D01*
X158799124Y-126000000D01*
X158946030Y-126014469D01*
X158946030Y-126014469D01*
G37*
G36*
X176726030Y-126014469D02*
X176726033Y-126014470D01*
X176726034Y-126014470D01*
X176914535Y-126071651D01*
X176914537Y-126071652D01*
X177088260Y-126164509D01*
X177240528Y-126289472D01*
X177365491Y-126441740D01*
X177410701Y-126526322D01*
X177458349Y-126615465D01*
X177486513Y-126708311D01*
X177515531Y-126803970D01*
X177534838Y-127000000D01*
X177515531Y-127196030D01*
X177515530Y-127196033D01*
X177515530Y-127196034D01*
X177475653Y-127327492D01*
X177458348Y-127384537D01*
X177365491Y-127558260D01*
X177240528Y-127710528D01*
X177088260Y-127835491D01*
X177088258Y-127835492D01*
X176914535Y-127928349D01*
X176726034Y-127985530D01*
X176726033Y-127985530D01*
X176726030Y-127985531D01*
X176579124Y-128000000D01*
X176480876Y-128000000D01*
X176333970Y-127985531D01*
X176333967Y-127985530D01*
X176333966Y-127985530D01*
X176145465Y-127928349D01*
X175971742Y-127835492D01*
X175971740Y-127835491D01*
X175819472Y-127710528D01*
X175694509Y-127558260D01*
X175601652Y-127384537D01*
X175584348Y-127327492D01*
X175544470Y-127196034D01*
X175544470Y-127196033D01*
X175544469Y-127196030D01*
X175525162Y-127000000D01*
X175544469Y-126803970D01*
X175573487Y-126708311D01*
X175601651Y-126615465D01*
X175649299Y-126526322D01*
X175694509Y-126441740D01*
X175819472Y-126289472D01*
X175971740Y-126164509D01*
X176145463Y-126071652D01*
X176145465Y-126071651D01*
X176333966Y-126014470D01*
X176333967Y-126014470D01*
X176333970Y-126014469D01*
X176480876Y-126000000D01*
X176579124Y-126000000D01*
X176726030Y-126014469D01*
X176726030Y-126014469D01*
G37*
G36*
X184325770Y-126015372D02*
X184441689Y-126038429D01*
X184623678Y-126113811D01*
X184787463Y-126223249D01*
X184926751Y-126362537D01*
X185036189Y-126526322D01*
X185111571Y-126708311D01*
X185134628Y-126824230D01*
X185145033Y-126876535D01*
X185150000Y-126901509D01*
X185150000Y-127098491D01*
X185111571Y-127291689D01*
X185036189Y-127473678D01*
X184926751Y-127637463D01*
X184787463Y-127776751D01*
X184623678Y-127886189D01*
X184441689Y-127961571D01*
X184325770Y-127984628D01*
X184248493Y-128000000D01*
X184051507Y-128000000D01*
X183974230Y-127984628D01*
X183858311Y-127961571D01*
X183676322Y-127886189D01*
X183512537Y-127776751D01*
X183373249Y-127637463D01*
X183263811Y-127473678D01*
X183188429Y-127291689D01*
X183150000Y-127098491D01*
X183150000Y-126901509D01*
X183154968Y-126876535D01*
X183165372Y-126824230D01*
X183188429Y-126708311D01*
X183263811Y-126526322D01*
X183373249Y-126362537D01*
X183512537Y-126223249D01*
X183676322Y-126113811D01*
X183858311Y-126038429D01*
X183974230Y-126015372D01*
X184051507Y-126000000D01*
X184248493Y-126000000D01*
X184325770Y-126015372D01*
X184325770Y-126015372D01*
G37*
G36*
X212286030Y-126014469D02*
X212286033Y-126014470D01*
X212286034Y-126014470D01*
X212474535Y-126071651D01*
X212474537Y-126071652D01*
X212648260Y-126164509D01*
X212800528Y-126289472D01*
X212925491Y-126441740D01*
X212970701Y-126526322D01*
X213018349Y-126615465D01*
X213046513Y-126708311D01*
X213075531Y-126803970D01*
X213094838Y-127000000D01*
X213075531Y-127196030D01*
X213075530Y-127196033D01*
X213075530Y-127196034D01*
X213035653Y-127327492D01*
X213018348Y-127384537D01*
X212925491Y-127558260D01*
X212800528Y-127710528D01*
X212648260Y-127835491D01*
X212648258Y-127835492D01*
X212474535Y-127928349D01*
X212286034Y-127985530D01*
X212286033Y-127985530D01*
X212286030Y-127985531D01*
X212139124Y-128000000D01*
X212040876Y-128000000D01*
X211893970Y-127985531D01*
X211893967Y-127985530D01*
X211893966Y-127985530D01*
X211705465Y-127928349D01*
X211531742Y-127835492D01*
X211531740Y-127835491D01*
X211379472Y-127710528D01*
X211254509Y-127558260D01*
X211161652Y-127384537D01*
X211144348Y-127327492D01*
X211104470Y-127196034D01*
X211104470Y-127196033D01*
X211104469Y-127196030D01*
X211085162Y-127000000D01*
X211104469Y-126803970D01*
X211133487Y-126708311D01*
X211161651Y-126615465D01*
X211209299Y-126526322D01*
X211254509Y-126441740D01*
X211379472Y-126289472D01*
X211531740Y-126164509D01*
X211705463Y-126071652D01*
X211705465Y-126071651D01*
X211893966Y-126014470D01*
X211893967Y-126014470D01*
X211893970Y-126014469D01*
X212040876Y-126000000D01*
X212139124Y-126000000D01*
X212286030Y-126014469D01*
X212286030Y-126014469D01*
G37*
G36*
X202105770Y-126015372D02*
X202221689Y-126038429D01*
X202403678Y-126113811D01*
X202567463Y-126223249D01*
X202706751Y-126362537D01*
X202816189Y-126526322D01*
X202891571Y-126708311D01*
X202914628Y-126824230D01*
X202925033Y-126876535D01*
X202930000Y-126901509D01*
X202930000Y-127098491D01*
X202891571Y-127291689D01*
X202816189Y-127473678D01*
X202706751Y-127637463D01*
X202567463Y-127776751D01*
X202403678Y-127886189D01*
X202221689Y-127961571D01*
X202105770Y-127984628D01*
X202028493Y-128000000D01*
X201831507Y-128000000D01*
X201754230Y-127984628D01*
X201638311Y-127961571D01*
X201456322Y-127886189D01*
X201292537Y-127776751D01*
X201153249Y-127637463D01*
X201043811Y-127473678D01*
X200968429Y-127291689D01*
X200930000Y-127098491D01*
X200930000Y-126901509D01*
X200934968Y-126876535D01*
X200945372Y-126824230D01*
X200968429Y-126708311D01*
X201043811Y-126526322D01*
X201153249Y-126362537D01*
X201292537Y-126223249D01*
X201456322Y-126113811D01*
X201638311Y-126038429D01*
X201754230Y-126015372D01*
X201831507Y-126000000D01*
X202028493Y-126000000D01*
X202105770Y-126015372D01*
X202105770Y-126015372D01*
G37*
G36*
X194506030Y-126014469D02*
X194506033Y-126014470D01*
X194506034Y-126014470D01*
X194694535Y-126071651D01*
X194694537Y-126071652D01*
X194868260Y-126164509D01*
X195020528Y-126289472D01*
X195145491Y-126441740D01*
X195190701Y-126526322D01*
X195238349Y-126615465D01*
X195266513Y-126708311D01*
X195295531Y-126803970D01*
X195314838Y-127000000D01*
X195295531Y-127196030D01*
X195295530Y-127196033D01*
X195295530Y-127196034D01*
X195255653Y-127327492D01*
X195238348Y-127384537D01*
X195145491Y-127558260D01*
X195020528Y-127710528D01*
X194868260Y-127835491D01*
X194868258Y-127835492D01*
X194694535Y-127928349D01*
X194506034Y-127985530D01*
X194506033Y-127985530D01*
X194506030Y-127985531D01*
X194359124Y-128000000D01*
X194260876Y-128000000D01*
X194113970Y-127985531D01*
X194113967Y-127985530D01*
X194113966Y-127985530D01*
X193925465Y-127928349D01*
X193751742Y-127835492D01*
X193751740Y-127835491D01*
X193599472Y-127710528D01*
X193474509Y-127558260D01*
X193381652Y-127384537D01*
X193364348Y-127327492D01*
X193324470Y-127196034D01*
X193324470Y-127196033D01*
X193324469Y-127196030D01*
X193305162Y-127000000D01*
X193324469Y-126803970D01*
X193353487Y-126708311D01*
X193381651Y-126615465D01*
X193429299Y-126526322D01*
X193474509Y-126441740D01*
X193599472Y-126289472D01*
X193751740Y-126164509D01*
X193925463Y-126071652D01*
X193925465Y-126071651D01*
X194113966Y-126014470D01*
X194113967Y-126014470D01*
X194113970Y-126014469D01*
X194260876Y-126000000D01*
X194359124Y-126000000D01*
X194506030Y-126014469D01*
X194506030Y-126014469D01*
G37*
G36*
X205915770Y-125975372D02*
X206031689Y-125998429D01*
X206213678Y-126073811D01*
X206377463Y-126183249D01*
X206516751Y-126322537D01*
X206626189Y-126486322D01*
X206701571Y-126668311D01*
X206740000Y-126861509D01*
X206740000Y-127058491D01*
X206701571Y-127251689D01*
X206626189Y-127433678D01*
X206516751Y-127597463D01*
X206377463Y-127736751D01*
X206213678Y-127846189D01*
X206031689Y-127921571D01*
X205915770Y-127944628D01*
X205838493Y-127960000D01*
X205641507Y-127960000D01*
X205564230Y-127944628D01*
X205448311Y-127921571D01*
X205266322Y-127846189D01*
X205102537Y-127736751D01*
X204963249Y-127597463D01*
X204853811Y-127433678D01*
X204778429Y-127251689D01*
X204740000Y-127058491D01*
X204740000Y-126861509D01*
X204778429Y-126668311D01*
X204853811Y-126486322D01*
X204963249Y-126322537D01*
X205102537Y-126183249D01*
X205266322Y-126073811D01*
X205448311Y-125998429D01*
X205564230Y-125975372D01*
X205641507Y-125960000D01*
X205838493Y-125960000D01*
X205915770Y-125975372D01*
X205915770Y-125975372D01*
G37*
G36*
X188135770Y-125975372D02*
X188251689Y-125998429D01*
X188433678Y-126073811D01*
X188597463Y-126183249D01*
X188736751Y-126322537D01*
X188846189Y-126486322D01*
X188921571Y-126668311D01*
X188960000Y-126861509D01*
X188960000Y-127058491D01*
X188921571Y-127251689D01*
X188846189Y-127433678D01*
X188736751Y-127597463D01*
X188597463Y-127736751D01*
X188433678Y-127846189D01*
X188251689Y-127921571D01*
X188135770Y-127944628D01*
X188058493Y-127960000D01*
X187861507Y-127960000D01*
X187784230Y-127944628D01*
X187668311Y-127921571D01*
X187486322Y-127846189D01*
X187322537Y-127736751D01*
X187183249Y-127597463D01*
X187073811Y-127433678D01*
X186998429Y-127251689D01*
X186960000Y-127058491D01*
X186960000Y-126861509D01*
X186998429Y-126668311D01*
X187073811Y-126486322D01*
X187183249Y-126322537D01*
X187322537Y-126183249D01*
X187486322Y-126073811D01*
X187668311Y-125998429D01*
X187784230Y-125975372D01*
X187861507Y-125960000D01*
X188058493Y-125960000D01*
X188135770Y-125975372D01*
X188135770Y-125975372D01*
G37*
G36*
X171625770Y-125975372D02*
X171741689Y-125998429D01*
X171923678Y-126073811D01*
X172087463Y-126183249D01*
X172226751Y-126322537D01*
X172336189Y-126486322D01*
X172411571Y-126668311D01*
X172450000Y-126861509D01*
X172450000Y-127058491D01*
X172411571Y-127251689D01*
X172336189Y-127433678D01*
X172226751Y-127597463D01*
X172087463Y-127736751D01*
X171923678Y-127846189D01*
X171741689Y-127921571D01*
X171625770Y-127944628D01*
X171548493Y-127960000D01*
X171351507Y-127960000D01*
X171274230Y-127944628D01*
X171158311Y-127921571D01*
X170976322Y-127846189D01*
X170812537Y-127736751D01*
X170673249Y-127597463D01*
X170563811Y-127433678D01*
X170488429Y-127251689D01*
X170450000Y-127058491D01*
X170450000Y-126861509D01*
X170488429Y-126668311D01*
X170563811Y-126486322D01*
X170673249Y-126322537D01*
X170812537Y-126183249D01*
X170976322Y-126073811D01*
X171158311Y-125998429D01*
X171274230Y-125975372D01*
X171351507Y-125960000D01*
X171548493Y-125960000D01*
X171625770Y-125975372D01*
X171625770Y-125975372D01*
G37*
G36*
X223695770Y-125975372D02*
X223811689Y-125998429D01*
X223993678Y-126073811D01*
X224157463Y-126183249D01*
X224296751Y-126322537D01*
X224406189Y-126486322D01*
X224481571Y-126668311D01*
X224520000Y-126861509D01*
X224520000Y-127058491D01*
X224481571Y-127251689D01*
X224406189Y-127433678D01*
X224296751Y-127597463D01*
X224157463Y-127736751D01*
X223993678Y-127846189D01*
X223811689Y-127921571D01*
X223695770Y-127944628D01*
X223618493Y-127960000D01*
X223421507Y-127960000D01*
X223344230Y-127944628D01*
X223228311Y-127921571D01*
X223046322Y-127846189D01*
X222882537Y-127736751D01*
X222743249Y-127597463D01*
X222633811Y-127433678D01*
X222558429Y-127251689D01*
X222520000Y-127058491D01*
X222520000Y-126861509D01*
X222558429Y-126668311D01*
X222633811Y-126486322D01*
X222743249Y-126322537D01*
X222882537Y-126183249D01*
X223046322Y-126073811D01*
X223228311Y-125998429D01*
X223344230Y-125975372D01*
X223421507Y-125960000D01*
X223618493Y-125960000D01*
X223695770Y-125975372D01*
X223695770Y-125975372D01*
G37*
G36*
X135832030Y-125506469D02*
X135832033Y-125506470D01*
X135832034Y-125506470D01*
X136020535Y-125563651D01*
X136020537Y-125563652D01*
X136194260Y-125656509D01*
X136346528Y-125781472D01*
X136471491Y-125933740D01*
X136545206Y-126071651D01*
X136564349Y-126107465D01*
X136599473Y-126223253D01*
X136621531Y-126295970D01*
X136640838Y-126492000D01*
X136621531Y-126688030D01*
X136621530Y-126688033D01*
X136621530Y-126688034D01*
X136568908Y-126861507D01*
X136564348Y-126876537D01*
X136471491Y-127050260D01*
X136346528Y-127202528D01*
X136194260Y-127327491D01*
X136020537Y-127420348D01*
X136020535Y-127420349D01*
X135832034Y-127477530D01*
X135832033Y-127477530D01*
X135832030Y-127477531D01*
X135685124Y-127492000D01*
X135586876Y-127492000D01*
X135439970Y-127477531D01*
X135439967Y-127477530D01*
X135439966Y-127477530D01*
X135251465Y-127420349D01*
X135251463Y-127420348D01*
X135077740Y-127327491D01*
X134925472Y-127202528D01*
X134800509Y-127050260D01*
X134707652Y-126876537D01*
X134703093Y-126861507D01*
X134650470Y-126688034D01*
X134650470Y-126688033D01*
X134650469Y-126688030D01*
X134631162Y-126492000D01*
X134650469Y-126295970D01*
X134672527Y-126223253D01*
X134707651Y-126107465D01*
X134726794Y-126071651D01*
X134800509Y-125933740D01*
X134925472Y-125781472D01*
X135077740Y-125656509D01*
X135251463Y-125563652D01*
X135251465Y-125563651D01*
X135439966Y-125506470D01*
X135439967Y-125506470D01*
X135439970Y-125506469D01*
X135586876Y-125492000D01*
X135685124Y-125492000D01*
X135832030Y-125506469D01*
X135832030Y-125506469D01*
G37*
G36*
X172450000Y-125460000D02*
X170450000Y-125460000D01*
X170450000Y-123460000D01*
X172450000Y-123460000D01*
X172450000Y-125460000D01*
X172450000Y-125460000D01*
G37*
G36*
X188960000Y-125460000D02*
X186960000Y-125460000D01*
X186960000Y-123460000D01*
X188960000Y-123460000D01*
X188960000Y-125460000D01*
X188960000Y-125460000D01*
G37*
G36*
X206740000Y-125460000D02*
X204740000Y-125460000D01*
X204740000Y-123460000D01*
X206740000Y-123460000D01*
X206740000Y-125460000D01*
X206740000Y-125460000D01*
G37*
G36*
X224520000Y-125460000D02*
X222520000Y-125460000D01*
X222520000Y-123460000D01*
X224520000Y-123460000D01*
X224520000Y-125460000D01*
X224520000Y-125460000D01*
G37*
G36*
X129871628Y-121014792D02*
X130035834Y-121047455D01*
X130125287Y-121084508D01*
X130345189Y-121175594D01*
X130623607Y-121361627D01*
X130860373Y-121598393D01*
X131046406Y-121876811D01*
X131105092Y-122018493D01*
X131168041Y-122170463D01*
X131174545Y-122186167D01*
X131239870Y-122514576D01*
X131239870Y-122849424D01*
X131226878Y-122914739D01*
X131174545Y-123177834D01*
X131138221Y-123265528D01*
X131046406Y-123487189D01*
X130860373Y-123765607D01*
X130623607Y-124002373D01*
X130345189Y-124188406D01*
X130163973Y-124263468D01*
X130035834Y-124316545D01*
X129871629Y-124349207D01*
X129707424Y-124381870D01*
X129372576Y-124381870D01*
X129208371Y-124349207D01*
X129044166Y-124316545D01*
X128916027Y-124263468D01*
X128734811Y-124188406D01*
X128456393Y-124002373D01*
X128219627Y-123765607D01*
X128033594Y-123487189D01*
X127941779Y-123265528D01*
X127905455Y-123177834D01*
X127853122Y-122914739D01*
X127840130Y-122849424D01*
X127840130Y-122514576D01*
X127905455Y-122186167D01*
X127911960Y-122170463D01*
X127974908Y-122018493D01*
X128033594Y-121876811D01*
X128219627Y-121598393D01*
X128456393Y-121361627D01*
X128734811Y-121175594D01*
X128954713Y-121084508D01*
X129044166Y-121047455D01*
X129208372Y-121014792D01*
X129372576Y-120982130D01*
X129707424Y-120982130D01*
X129871628Y-121014792D01*
X129871628Y-121014792D01*
G37*
G36*
X184325770Y-121570372D02*
X184441689Y-121593429D01*
X184623678Y-121668811D01*
X184787463Y-121778249D01*
X184926751Y-121917537D01*
X185036189Y-122081322D01*
X185111571Y-122263311D01*
X185150000Y-122456509D01*
X185150000Y-122653491D01*
X185111571Y-122846689D01*
X185036189Y-123028678D01*
X184926751Y-123192463D01*
X184787463Y-123331751D01*
X184623678Y-123441189D01*
X184441689Y-123516571D01*
X184325770Y-123539628D01*
X184248493Y-123555000D01*
X184051507Y-123555000D01*
X183974230Y-123539628D01*
X183858311Y-123516571D01*
X183676322Y-123441189D01*
X183512537Y-123331751D01*
X183373249Y-123192463D01*
X183263811Y-123028678D01*
X183188429Y-122846689D01*
X183150000Y-122653491D01*
X183150000Y-122456509D01*
X183188429Y-122263311D01*
X183263811Y-122081322D01*
X183373249Y-121917537D01*
X183512537Y-121778249D01*
X183676322Y-121668811D01*
X183858311Y-121593429D01*
X183974230Y-121570372D01*
X184051507Y-121555000D01*
X184248493Y-121555000D01*
X184325770Y-121570372D01*
X184325770Y-121570372D01*
G37*
G36*
X176726030Y-121569469D02*
X176726033Y-121569470D01*
X176726034Y-121569470D01*
X176914535Y-121626651D01*
X176914537Y-121626652D01*
X177088260Y-121719509D01*
X177240528Y-121844472D01*
X177365491Y-121996740D01*
X177365492Y-121996742D01*
X177458349Y-122170465D01*
X177499019Y-122304537D01*
X177515531Y-122358970D01*
X177534838Y-122555000D01*
X177515531Y-122751030D01*
X177515530Y-122751033D01*
X177515530Y-122751034D01*
X177464275Y-122920000D01*
X177458348Y-122939537D01*
X177365491Y-123113260D01*
X177240528Y-123265528D01*
X177088260Y-123390491D01*
X177088258Y-123390492D01*
X176914535Y-123483349D01*
X176726034Y-123540530D01*
X176726033Y-123540530D01*
X176726030Y-123540531D01*
X176579124Y-123555000D01*
X176480876Y-123555000D01*
X176333970Y-123540531D01*
X176333967Y-123540530D01*
X176333966Y-123540530D01*
X176145465Y-123483349D01*
X175971742Y-123390492D01*
X175971740Y-123390491D01*
X175819472Y-123265528D01*
X175694509Y-123113260D01*
X175601652Y-122939537D01*
X175595726Y-122920000D01*
X175544470Y-122751034D01*
X175544470Y-122751033D01*
X175544469Y-122751030D01*
X175525162Y-122555000D01*
X175544469Y-122358970D01*
X175560981Y-122304537D01*
X175601651Y-122170465D01*
X175694508Y-121996742D01*
X175694509Y-121996740D01*
X175819472Y-121844472D01*
X175971740Y-121719509D01*
X176145463Y-121626652D01*
X176145465Y-121626651D01*
X176333966Y-121569470D01*
X176333967Y-121569470D01*
X176333970Y-121569469D01*
X176480876Y-121555000D01*
X176579124Y-121555000D01*
X176726030Y-121569469D01*
X176726030Y-121569469D01*
G37*
G36*
X148102448Y-120540257D02*
X148366349Y-120620310D01*
X148609562Y-120750310D01*
X148822739Y-120925261D01*
X148997690Y-121138438D01*
X149127690Y-121381651D01*
X149207743Y-121645552D01*
X149234774Y-121920000D01*
X149207743Y-122194448D01*
X149127690Y-122458349D01*
X148997690Y-122701562D01*
X148822739Y-122914739D01*
X148609562Y-123089690D01*
X148366349Y-123219690D01*
X148102448Y-123299743D01*
X147896777Y-123320000D01*
X147759223Y-123320000D01*
X147553552Y-123299743D01*
X147289651Y-123219690D01*
X147046438Y-123089690D01*
X146833261Y-122914739D01*
X146658310Y-122701562D01*
X146528310Y-122458349D01*
X146448257Y-122194448D01*
X146421226Y-121920000D01*
X146448257Y-121645552D01*
X146528310Y-121381651D01*
X146658310Y-121138438D01*
X146833261Y-120925261D01*
X147046438Y-120750310D01*
X147289651Y-120620310D01*
X147553552Y-120540257D01*
X147759223Y-120520000D01*
X147896777Y-120520000D01*
X148102448Y-120540257D01*
X148102448Y-120540257D01*
G37*
G36*
X219885770Y-120935372D02*
X220001689Y-120958429D01*
X220183678Y-121033811D01*
X220347463Y-121143249D01*
X220486751Y-121282537D01*
X220596189Y-121446322D01*
X220671571Y-121628311D01*
X220694628Y-121744230D01*
X220710000Y-121821507D01*
X220710000Y-122018493D01*
X220703839Y-122049466D01*
X220671571Y-122211689D01*
X220596189Y-122393678D01*
X220486751Y-122557463D01*
X220347463Y-122696751D01*
X220183678Y-122806189D01*
X220001689Y-122881571D01*
X219885770Y-122904628D01*
X219808493Y-122920000D01*
X219611507Y-122920000D01*
X219534230Y-122904628D01*
X219418311Y-122881571D01*
X219236322Y-122806189D01*
X219072537Y-122696751D01*
X218933249Y-122557463D01*
X218823811Y-122393678D01*
X218748429Y-122211689D01*
X218716161Y-122049466D01*
X218710000Y-122018493D01*
X218710000Y-121821507D01*
X218725372Y-121744230D01*
X218748429Y-121628311D01*
X218823811Y-121446322D01*
X218933249Y-121282537D01*
X219072537Y-121143249D01*
X219236322Y-121033811D01*
X219418311Y-120958429D01*
X219534230Y-120935372D01*
X219611507Y-120920000D01*
X219808493Y-120920000D01*
X219885770Y-120935372D01*
X219885770Y-120935372D01*
G37*
G36*
X202105770Y-120935372D02*
X202221689Y-120958429D01*
X202403678Y-121033811D01*
X202567463Y-121143249D01*
X202706751Y-121282537D01*
X202816189Y-121446322D01*
X202891571Y-121628311D01*
X202914628Y-121744230D01*
X202930000Y-121821507D01*
X202930000Y-122018493D01*
X202923839Y-122049466D01*
X202891571Y-122211689D01*
X202816189Y-122393678D01*
X202706751Y-122557463D01*
X202567463Y-122696751D01*
X202403678Y-122806189D01*
X202221689Y-122881571D01*
X202105770Y-122904628D01*
X202028493Y-122920000D01*
X201831507Y-122920000D01*
X201754230Y-122904628D01*
X201638311Y-122881571D01*
X201456322Y-122806189D01*
X201292537Y-122696751D01*
X201153249Y-122557463D01*
X201043811Y-122393678D01*
X200968429Y-122211689D01*
X200936161Y-122049466D01*
X200930000Y-122018493D01*
X200930000Y-121821507D01*
X200945372Y-121744230D01*
X200968429Y-121628311D01*
X201043811Y-121446322D01*
X201153249Y-121282537D01*
X201292537Y-121143249D01*
X201456322Y-121033811D01*
X201638311Y-120958429D01*
X201754230Y-120935372D01*
X201831507Y-120920000D01*
X202028493Y-120920000D01*
X202105770Y-120935372D01*
X202105770Y-120935372D01*
G37*
G36*
X212286030Y-120934469D02*
X212286033Y-120934470D01*
X212286034Y-120934470D01*
X212474535Y-120991651D01*
X212474537Y-120991652D01*
X212648260Y-121084509D01*
X212800528Y-121209472D01*
X212925491Y-121361740D01*
X212925492Y-121361742D01*
X213018349Y-121535465D01*
X213074178Y-121719509D01*
X213075531Y-121723970D01*
X213094838Y-121920000D01*
X213075531Y-122116030D01*
X213075530Y-122116033D01*
X213075530Y-122116034D01*
X213053472Y-122188751D01*
X213018348Y-122304537D01*
X212925491Y-122478260D01*
X212800528Y-122630528D01*
X212648260Y-122755491D01*
X212648258Y-122755492D01*
X212474535Y-122848349D01*
X212286034Y-122905530D01*
X212286033Y-122905530D01*
X212286030Y-122905531D01*
X212139124Y-122920000D01*
X212040876Y-122920000D01*
X211893970Y-122905531D01*
X211893967Y-122905530D01*
X211893966Y-122905530D01*
X211705465Y-122848349D01*
X211531742Y-122755492D01*
X211531740Y-122755491D01*
X211379472Y-122630528D01*
X211254509Y-122478260D01*
X211161652Y-122304537D01*
X211126529Y-122188751D01*
X211104470Y-122116034D01*
X211104470Y-122116033D01*
X211104469Y-122116030D01*
X211085162Y-121920000D01*
X211104469Y-121723970D01*
X211105822Y-121719509D01*
X211161651Y-121535465D01*
X211254508Y-121361742D01*
X211254509Y-121361740D01*
X211379472Y-121209472D01*
X211531740Y-121084509D01*
X211705463Y-120991652D01*
X211705465Y-120991651D01*
X211893966Y-120934470D01*
X211893967Y-120934470D01*
X211893970Y-120934469D01*
X212040876Y-120920000D01*
X212139124Y-120920000D01*
X212286030Y-120934469D01*
X212286030Y-120934469D01*
G37*
G36*
X166545770Y-120935372D02*
X166661689Y-120958429D01*
X166843678Y-121033811D01*
X167007463Y-121143249D01*
X167146751Y-121282537D01*
X167256189Y-121446322D01*
X167331571Y-121628311D01*
X167354628Y-121744230D01*
X167370000Y-121821507D01*
X167370000Y-122018493D01*
X167363839Y-122049466D01*
X167331571Y-122211689D01*
X167256189Y-122393678D01*
X167146751Y-122557463D01*
X167007463Y-122696751D01*
X166843678Y-122806189D01*
X166661689Y-122881571D01*
X166545770Y-122904628D01*
X166468493Y-122920000D01*
X166271507Y-122920000D01*
X166194230Y-122904628D01*
X166078311Y-122881571D01*
X165896322Y-122806189D01*
X165732537Y-122696751D01*
X165593249Y-122557463D01*
X165483811Y-122393678D01*
X165408429Y-122211689D01*
X165376161Y-122049466D01*
X165370000Y-122018493D01*
X165370000Y-121821507D01*
X165385372Y-121744230D01*
X165408429Y-121628311D01*
X165483811Y-121446322D01*
X165593249Y-121282537D01*
X165732537Y-121143249D01*
X165896322Y-121033811D01*
X166078311Y-120958429D01*
X166194230Y-120935372D01*
X166271507Y-120920000D01*
X166468493Y-120920000D01*
X166545770Y-120935372D01*
X166545770Y-120935372D01*
G37*
G36*
X158946030Y-120934469D02*
X158946033Y-120934470D01*
X158946034Y-120934470D01*
X159134535Y-120991651D01*
X159134537Y-120991652D01*
X159308260Y-121084509D01*
X159460528Y-121209472D01*
X159585491Y-121361740D01*
X159585492Y-121361742D01*
X159678349Y-121535465D01*
X159734178Y-121719509D01*
X159735531Y-121723970D01*
X159754838Y-121920000D01*
X159735531Y-122116030D01*
X159735530Y-122116033D01*
X159735530Y-122116034D01*
X159713472Y-122188751D01*
X159678348Y-122304537D01*
X159585491Y-122478260D01*
X159460528Y-122630528D01*
X159308260Y-122755491D01*
X159308258Y-122755492D01*
X159134535Y-122848349D01*
X158946034Y-122905530D01*
X158946033Y-122905530D01*
X158946030Y-122905531D01*
X158799124Y-122920000D01*
X158700876Y-122920000D01*
X158553970Y-122905531D01*
X158553967Y-122905530D01*
X158553966Y-122905530D01*
X158365465Y-122848349D01*
X158191742Y-122755492D01*
X158191740Y-122755491D01*
X158039472Y-122630528D01*
X157914509Y-122478260D01*
X157821652Y-122304537D01*
X157786529Y-122188751D01*
X157764470Y-122116034D01*
X157764470Y-122116033D01*
X157764469Y-122116030D01*
X157745162Y-121920000D01*
X157764469Y-121723970D01*
X157765822Y-121719509D01*
X157821651Y-121535465D01*
X157914508Y-121361742D01*
X157914509Y-121361740D01*
X158039472Y-121209472D01*
X158191740Y-121084509D01*
X158365463Y-120991652D01*
X158365465Y-120991651D01*
X158553966Y-120934470D01*
X158553967Y-120934470D01*
X158553970Y-120934469D01*
X158700876Y-120920000D01*
X158799124Y-120920000D01*
X158946030Y-120934469D01*
X158946030Y-120934469D01*
G37*
G36*
X194506030Y-120934469D02*
X194506033Y-120934470D01*
X194506034Y-120934470D01*
X194694535Y-120991651D01*
X194694537Y-120991652D01*
X194868260Y-121084509D01*
X195020528Y-121209472D01*
X195145491Y-121361740D01*
X195145492Y-121361742D01*
X195238349Y-121535465D01*
X195294178Y-121719509D01*
X195295531Y-121723970D01*
X195314838Y-121920000D01*
X195295531Y-122116030D01*
X195295530Y-122116033D01*
X195295530Y-122116034D01*
X195273472Y-122188751D01*
X195238348Y-122304537D01*
X195145491Y-122478260D01*
X195020528Y-122630528D01*
X194868260Y-122755491D01*
X194868258Y-122755492D01*
X194694535Y-122848349D01*
X194506034Y-122905530D01*
X194506033Y-122905530D01*
X194506030Y-122905531D01*
X194359124Y-122920000D01*
X194260876Y-122920000D01*
X194113970Y-122905531D01*
X194113967Y-122905530D01*
X194113966Y-122905530D01*
X193925465Y-122848349D01*
X193751742Y-122755492D01*
X193751740Y-122755491D01*
X193599472Y-122630528D01*
X193474509Y-122478260D01*
X193381652Y-122304537D01*
X193346529Y-122188751D01*
X193324470Y-122116034D01*
X193324470Y-122116033D01*
X193324469Y-122116030D01*
X193305162Y-121920000D01*
X193324469Y-121723970D01*
X193325822Y-121719509D01*
X193381651Y-121535465D01*
X193474508Y-121361742D01*
X193474509Y-121361740D01*
X193599472Y-121209472D01*
X193751740Y-121084509D01*
X193925463Y-120991652D01*
X193925465Y-120991651D01*
X194113966Y-120934470D01*
X194113967Y-120934470D01*
X194113970Y-120934469D01*
X194260876Y-120920000D01*
X194359124Y-120920000D01*
X194506030Y-120934469D01*
X194506030Y-120934469D01*
G37*
G36*
X153591770Y-120427372D02*
X153707689Y-120450429D01*
X153889678Y-120525811D01*
X154053463Y-120635249D01*
X154192751Y-120774537D01*
X154302189Y-120938322D01*
X154377571Y-121120311D01*
X154395306Y-121209472D01*
X154416000Y-121313507D01*
X154416000Y-121510493D01*
X154400628Y-121587770D01*
X154377571Y-121703689D01*
X154302189Y-121885678D01*
X154192751Y-122049463D01*
X154053463Y-122188751D01*
X153889678Y-122298189D01*
X153707689Y-122373571D01*
X153606618Y-122393675D01*
X153514493Y-122412000D01*
X153317507Y-122412000D01*
X153225382Y-122393675D01*
X153124311Y-122373571D01*
X152942322Y-122298189D01*
X152778537Y-122188751D01*
X152639249Y-122049463D01*
X152529811Y-121885678D01*
X152454429Y-121703689D01*
X152431372Y-121587770D01*
X152416000Y-121510493D01*
X152416000Y-121313507D01*
X152436694Y-121209472D01*
X152454429Y-121120311D01*
X152529811Y-120938322D01*
X152639249Y-120774537D01*
X152778537Y-120635249D01*
X152942322Y-120525811D01*
X153124311Y-120450429D01*
X153240230Y-120427372D01*
X153317507Y-120412000D01*
X153514493Y-120412000D01*
X153591770Y-120427372D01*
X153591770Y-120427372D01*
G37*
G36*
X131239870Y-120571870D02*
X127840130Y-120571870D01*
X127840130Y-117172130D01*
X131239870Y-117172130D01*
X131239870Y-120571870D01*
X131239870Y-120571870D01*
G37*
G36*
X135811770Y-117887372D02*
X135927689Y-117910429D01*
X136109678Y-117985811D01*
X136273463Y-118095249D01*
X136412751Y-118234537D01*
X136522189Y-118398322D01*
X136597571Y-118580311D01*
X136636000Y-118773509D01*
X136636000Y-118970491D01*
X136597571Y-119163689D01*
X136522189Y-119345678D01*
X136412751Y-119509463D01*
X136273463Y-119648751D01*
X136109678Y-119758189D01*
X135927689Y-119833571D01*
X135811770Y-119856628D01*
X135734493Y-119872000D01*
X135537507Y-119872000D01*
X135460230Y-119856628D01*
X135344311Y-119833571D01*
X135162322Y-119758189D01*
X134998537Y-119648751D01*
X134859249Y-119509463D01*
X134749811Y-119345678D01*
X134674429Y-119163689D01*
X134636000Y-118970491D01*
X134636000Y-118773509D01*
X134674429Y-118580311D01*
X134749811Y-118398322D01*
X134859249Y-118234537D01*
X134998537Y-118095249D01*
X135162322Y-117985811D01*
X135344311Y-117910429D01*
X135460230Y-117887372D01*
X135537507Y-117872000D01*
X135734493Y-117872000D01*
X135811770Y-117887372D01*
X135811770Y-117887372D01*
G37*
G36*
X140931770Y-117887372D02*
X141047689Y-117910429D01*
X141229678Y-117985811D01*
X141393463Y-118095249D01*
X141532751Y-118234537D01*
X141642189Y-118398322D01*
X141717571Y-118580311D01*
X141756000Y-118773509D01*
X141756000Y-118970491D01*
X141717571Y-119163689D01*
X141642189Y-119345678D01*
X141532751Y-119509463D01*
X141393463Y-119648751D01*
X141229678Y-119758189D01*
X141047689Y-119833571D01*
X140931770Y-119856628D01*
X140854493Y-119872000D01*
X140657507Y-119872000D01*
X140580230Y-119856628D01*
X140464311Y-119833571D01*
X140282322Y-119758189D01*
X140118537Y-119648751D01*
X139979249Y-119509463D01*
X139869811Y-119345678D01*
X139794429Y-119163689D01*
X139756000Y-118970491D01*
X139756000Y-118773509D01*
X139794429Y-118580311D01*
X139869811Y-118398322D01*
X139979249Y-118234537D01*
X140118537Y-118095249D01*
X140282322Y-117985811D01*
X140464311Y-117910429D01*
X140580230Y-117887372D01*
X140657507Y-117872000D01*
X140854493Y-117872000D01*
X140931770Y-117887372D01*
X140931770Y-117887372D01*
G37*
G36*
X143431770Y-117887372D02*
X143547689Y-117910429D01*
X143729678Y-117985811D01*
X143893463Y-118095249D01*
X144032751Y-118234537D01*
X144142189Y-118398322D01*
X144217571Y-118580311D01*
X144256000Y-118773509D01*
X144256000Y-118970491D01*
X144217571Y-119163689D01*
X144142189Y-119345678D01*
X144032751Y-119509463D01*
X143893463Y-119648751D01*
X143729678Y-119758189D01*
X143547689Y-119833571D01*
X143431770Y-119856628D01*
X143354493Y-119872000D01*
X143157507Y-119872000D01*
X143080230Y-119856628D01*
X142964311Y-119833571D01*
X142782322Y-119758189D01*
X142618537Y-119648751D01*
X142479249Y-119509463D01*
X142369811Y-119345678D01*
X142294429Y-119163689D01*
X142256000Y-118970491D01*
X142256000Y-118773509D01*
X142294429Y-118580311D01*
X142369811Y-118398322D01*
X142479249Y-118234537D01*
X142618537Y-118095249D01*
X142782322Y-117985811D01*
X142964311Y-117910429D01*
X143080230Y-117887372D01*
X143157507Y-117872000D01*
X143354493Y-117872000D01*
X143431770Y-117887372D01*
X143431770Y-117887372D01*
G37*
G36*
X227020000Y-119070000D02*
X225100000Y-119070000D01*
X225100000Y-117150000D01*
X227020000Y-117150000D01*
X227020000Y-119070000D01*
X227020000Y-119070000D01*
G37*
G36*
X171637287Y-117168446D02*
X171730022Y-117186892D01*
X171904731Y-117259259D01*
X172059872Y-117362921D01*
X172061967Y-117364321D01*
X172195679Y-117498033D01*
X172195681Y-117498036D01*
X172300741Y-117655269D01*
X172373108Y-117829978D01*
X172410000Y-118015448D01*
X172410000Y-118204552D01*
X172373108Y-118390022D01*
X172300741Y-118564731D01*
X172197079Y-118719872D01*
X172195679Y-118721967D01*
X172061967Y-118855679D01*
X172061964Y-118855681D01*
X171904731Y-118960741D01*
X171904730Y-118960742D01*
X171904729Y-118960742D01*
X171881188Y-118970493D01*
X171730022Y-119033108D01*
X171637287Y-119051554D01*
X171544553Y-119070000D01*
X171355447Y-119070000D01*
X171262713Y-119051554D01*
X171169978Y-119033108D01*
X171018812Y-118970493D01*
X170995271Y-118960742D01*
X170995270Y-118960742D01*
X170995269Y-118960741D01*
X170838036Y-118855681D01*
X170838033Y-118855679D01*
X170704321Y-118721967D01*
X170702921Y-118719872D01*
X170599259Y-118564731D01*
X170526892Y-118390022D01*
X170490000Y-118204552D01*
X170490000Y-118015448D01*
X170526892Y-117829978D01*
X170599259Y-117655269D01*
X170704319Y-117498036D01*
X170704321Y-117498033D01*
X170838033Y-117364321D01*
X170840128Y-117362921D01*
X170995269Y-117259259D01*
X171169978Y-117186892D01*
X171262713Y-117168446D01*
X171355447Y-117150000D01*
X171544553Y-117150000D01*
X171637287Y-117168446D01*
X171637287Y-117168446D01*
G37*
G36*
X223707287Y-117168446D02*
X223800022Y-117186892D01*
X223974731Y-117259259D01*
X224129872Y-117362921D01*
X224131967Y-117364321D01*
X224265679Y-117498033D01*
X224265681Y-117498036D01*
X224370741Y-117655269D01*
X224443108Y-117829978D01*
X224480000Y-118015448D01*
X224480000Y-118204552D01*
X224443108Y-118390022D01*
X224370741Y-118564731D01*
X224267078Y-118719873D01*
X224265679Y-118721967D01*
X224131967Y-118855679D01*
X224131964Y-118855681D01*
X223974731Y-118960741D01*
X223974730Y-118960742D01*
X223974729Y-118960742D01*
X223951188Y-118970493D01*
X223800022Y-119033108D01*
X223707287Y-119051554D01*
X223614553Y-119070000D01*
X223425447Y-119070000D01*
X223332713Y-119051554D01*
X223239978Y-119033108D01*
X223088812Y-118970493D01*
X223065271Y-118960742D01*
X223065270Y-118960742D01*
X223065269Y-118960741D01*
X222908036Y-118855681D01*
X222908033Y-118855679D01*
X222774321Y-118721967D01*
X222772921Y-118719872D01*
X222669259Y-118564731D01*
X222596892Y-118390022D01*
X222560000Y-118204552D01*
X222560000Y-118015448D01*
X222596892Y-117829978D01*
X222669259Y-117655269D01*
X222774319Y-117498036D01*
X222774321Y-117498033D01*
X222908033Y-117364321D01*
X222910128Y-117362921D01*
X223065269Y-117259259D01*
X223239978Y-117186892D01*
X223332713Y-117168446D01*
X223425447Y-117150000D01*
X223614553Y-117150000D01*
X223707287Y-117168446D01*
X223707287Y-117168446D01*
G37*
G36*
X221167287Y-117168446D02*
X221260022Y-117186892D01*
X221434731Y-117259259D01*
X221589872Y-117362921D01*
X221591967Y-117364321D01*
X221725679Y-117498033D01*
X221725681Y-117498036D01*
X221830741Y-117655269D01*
X221903108Y-117829978D01*
X221940000Y-118015448D01*
X221940000Y-118204552D01*
X221903108Y-118390022D01*
X221830741Y-118564731D01*
X221727078Y-118719873D01*
X221725679Y-118721967D01*
X221591967Y-118855679D01*
X221591964Y-118855681D01*
X221434731Y-118960741D01*
X221434730Y-118960742D01*
X221434729Y-118960742D01*
X221411188Y-118970493D01*
X221260022Y-119033108D01*
X221167287Y-119051554D01*
X221074553Y-119070000D01*
X220885447Y-119070000D01*
X220792713Y-119051554D01*
X220699978Y-119033108D01*
X220548812Y-118970493D01*
X220525271Y-118960742D01*
X220525270Y-118960742D01*
X220525269Y-118960741D01*
X220368036Y-118855681D01*
X220368033Y-118855679D01*
X220234321Y-118721967D01*
X220232921Y-118719872D01*
X220129259Y-118564731D01*
X220056892Y-118390022D01*
X220020000Y-118204552D01*
X220020000Y-118015448D01*
X220056892Y-117829978D01*
X220129259Y-117655269D01*
X220234319Y-117498036D01*
X220234321Y-117498033D01*
X220368033Y-117364321D01*
X220370128Y-117362921D01*
X220525269Y-117259259D01*
X220699978Y-117186892D01*
X220792713Y-117168446D01*
X220885447Y-117150000D01*
X221074553Y-117150000D01*
X221167287Y-117168446D01*
X221167287Y-117168446D01*
G37*
G36*
X169097287Y-117168446D02*
X169190022Y-117186892D01*
X169364731Y-117259259D01*
X169519872Y-117362921D01*
X169521967Y-117364321D01*
X169655679Y-117498033D01*
X169655681Y-117498036D01*
X169760741Y-117655269D01*
X169833108Y-117829978D01*
X169870000Y-118015448D01*
X169870000Y-118204552D01*
X169833108Y-118390022D01*
X169760741Y-118564731D01*
X169657079Y-118719872D01*
X169655679Y-118721967D01*
X169521967Y-118855679D01*
X169521964Y-118855681D01*
X169364731Y-118960741D01*
X169364730Y-118960742D01*
X169364729Y-118960742D01*
X169341188Y-118970493D01*
X169190022Y-119033108D01*
X169097287Y-119051554D01*
X169004553Y-119070000D01*
X168815447Y-119070000D01*
X168722713Y-119051554D01*
X168629978Y-119033108D01*
X168478812Y-118970493D01*
X168455271Y-118960742D01*
X168455270Y-118960742D01*
X168455269Y-118960741D01*
X168298036Y-118855681D01*
X168298033Y-118855679D01*
X168164321Y-118721967D01*
X168162921Y-118719872D01*
X168059259Y-118564731D01*
X167986892Y-118390022D01*
X167950000Y-118204552D01*
X167950000Y-118015448D01*
X167986892Y-117829978D01*
X168059259Y-117655269D01*
X168164319Y-117498036D01*
X168164321Y-117498033D01*
X168298033Y-117364321D01*
X168300128Y-117362921D01*
X168455269Y-117259259D01*
X168629978Y-117186892D01*
X168722713Y-117168446D01*
X168815447Y-117150000D01*
X169004553Y-117150000D01*
X169097287Y-117168446D01*
X169097287Y-117168446D01*
G37*
G36*
X209240000Y-119070000D02*
X207320000Y-119070000D01*
X207320000Y-117150000D01*
X209240000Y-117150000D01*
X209240000Y-119070000D01*
X209240000Y-119070000D01*
G37*
G36*
X174950000Y-119070000D02*
X173030000Y-119070000D01*
X173030000Y-117150000D01*
X174950000Y-117150000D01*
X174950000Y-119070000D01*
X174950000Y-119070000D01*
G37*
G36*
X191460000Y-119070000D02*
X189540000Y-119070000D01*
X189540000Y-117150000D01*
X191460000Y-117150000D01*
X191460000Y-119070000D01*
X191460000Y-119070000D01*
G37*
G36*
X185607287Y-117168446D02*
X185700022Y-117186892D01*
X185874731Y-117259259D01*
X186029872Y-117362921D01*
X186031967Y-117364321D01*
X186165679Y-117498033D01*
X186165681Y-117498036D01*
X186270741Y-117655269D01*
X186343108Y-117829978D01*
X186380000Y-118015448D01*
X186380000Y-118204552D01*
X186343108Y-118390022D01*
X186270741Y-118564731D01*
X186167079Y-118719872D01*
X186165679Y-118721967D01*
X186031967Y-118855679D01*
X186031964Y-118855681D01*
X185874731Y-118960741D01*
X185874730Y-118960742D01*
X185874729Y-118960742D01*
X185851188Y-118970493D01*
X185700022Y-119033108D01*
X185607287Y-119051554D01*
X185514553Y-119070000D01*
X185325447Y-119070000D01*
X185232713Y-119051554D01*
X185139978Y-119033108D01*
X184988812Y-118970493D01*
X184965271Y-118960742D01*
X184965270Y-118960742D01*
X184965269Y-118960741D01*
X184808036Y-118855681D01*
X184808033Y-118855679D01*
X184674321Y-118721967D01*
X184672921Y-118719872D01*
X184569259Y-118564731D01*
X184496892Y-118390022D01*
X184460000Y-118204552D01*
X184460000Y-118015448D01*
X184496892Y-117829978D01*
X184569259Y-117655269D01*
X184674319Y-117498036D01*
X184674321Y-117498033D01*
X184808033Y-117364321D01*
X184810128Y-117362921D01*
X184965269Y-117259259D01*
X185139978Y-117186892D01*
X185232713Y-117168446D01*
X185325447Y-117150000D01*
X185514553Y-117150000D01*
X185607287Y-117168446D01*
X185607287Y-117168446D01*
G37*
G36*
X188147287Y-117168446D02*
X188240022Y-117186892D01*
X188414731Y-117259259D01*
X188569872Y-117362921D01*
X188571967Y-117364321D01*
X188705679Y-117498033D01*
X188705681Y-117498036D01*
X188810741Y-117655269D01*
X188883108Y-117829978D01*
X188920000Y-118015448D01*
X188920000Y-118204552D01*
X188883108Y-118390022D01*
X188810741Y-118564731D01*
X188707079Y-118719872D01*
X188705679Y-118721967D01*
X188571967Y-118855679D01*
X188571964Y-118855681D01*
X188414731Y-118960741D01*
X188414730Y-118960742D01*
X188414729Y-118960742D01*
X188391188Y-118970493D01*
X188240022Y-119033108D01*
X188147287Y-119051554D01*
X188054553Y-119070000D01*
X187865447Y-119070000D01*
X187772713Y-119051554D01*
X187679978Y-119033108D01*
X187528812Y-118970493D01*
X187505271Y-118960742D01*
X187505270Y-118960742D01*
X187505269Y-118960741D01*
X187348036Y-118855681D01*
X187348033Y-118855679D01*
X187214321Y-118721967D01*
X187212921Y-118719872D01*
X187109259Y-118564731D01*
X187036892Y-118390022D01*
X187000000Y-118204552D01*
X187000000Y-118015448D01*
X187036892Y-117829978D01*
X187109259Y-117655269D01*
X187214319Y-117498036D01*
X187214321Y-117498033D01*
X187348033Y-117364321D01*
X187350128Y-117362921D01*
X187505269Y-117259259D01*
X187679978Y-117186892D01*
X187772713Y-117168446D01*
X187865447Y-117150000D01*
X188054553Y-117150000D01*
X188147287Y-117168446D01*
X188147287Y-117168446D01*
G37*
G36*
X205927287Y-117168446D02*
X206020022Y-117186892D01*
X206194731Y-117259259D01*
X206349872Y-117362921D01*
X206351967Y-117364321D01*
X206485679Y-117498033D01*
X206485681Y-117498036D01*
X206590741Y-117655269D01*
X206663108Y-117829978D01*
X206700000Y-118015448D01*
X206700000Y-118204552D01*
X206663108Y-118390022D01*
X206590741Y-118564731D01*
X206487078Y-118719873D01*
X206485679Y-118721967D01*
X206351967Y-118855679D01*
X206351964Y-118855681D01*
X206194731Y-118960741D01*
X206194730Y-118960742D01*
X206194729Y-118960742D01*
X206171188Y-118970493D01*
X206020022Y-119033108D01*
X205927287Y-119051554D01*
X205834553Y-119070000D01*
X205645447Y-119070000D01*
X205552713Y-119051554D01*
X205459978Y-119033108D01*
X205308812Y-118970493D01*
X205285271Y-118960742D01*
X205285270Y-118960742D01*
X205285269Y-118960741D01*
X205128036Y-118855681D01*
X205128033Y-118855679D01*
X204994321Y-118721967D01*
X204992921Y-118719872D01*
X204889259Y-118564731D01*
X204816892Y-118390022D01*
X204780000Y-118204552D01*
X204780000Y-118015448D01*
X204816892Y-117829978D01*
X204889259Y-117655269D01*
X204994319Y-117498036D01*
X204994321Y-117498033D01*
X205128033Y-117364321D01*
X205130128Y-117362921D01*
X205285269Y-117259259D01*
X205459978Y-117186892D01*
X205552713Y-117168446D01*
X205645447Y-117150000D01*
X205834553Y-117150000D01*
X205927287Y-117168446D01*
X205927287Y-117168446D01*
G37*
G36*
X203387287Y-117168446D02*
X203480022Y-117186892D01*
X203654731Y-117259259D01*
X203809872Y-117362921D01*
X203811967Y-117364321D01*
X203945679Y-117498033D01*
X203945681Y-117498036D01*
X204050741Y-117655269D01*
X204123108Y-117829978D01*
X204160000Y-118015448D01*
X204160000Y-118204552D01*
X204123108Y-118390022D01*
X204050741Y-118564731D01*
X203947078Y-118719873D01*
X203945679Y-118721967D01*
X203811967Y-118855679D01*
X203811964Y-118855681D01*
X203654731Y-118960741D01*
X203654730Y-118960742D01*
X203654729Y-118960742D01*
X203631188Y-118970493D01*
X203480022Y-119033108D01*
X203387287Y-119051554D01*
X203294553Y-119070000D01*
X203105447Y-119070000D01*
X203012713Y-119051554D01*
X202919978Y-119033108D01*
X202768812Y-118970493D01*
X202745271Y-118960742D01*
X202745270Y-118960742D01*
X202745269Y-118960741D01*
X202588036Y-118855681D01*
X202588033Y-118855679D01*
X202454321Y-118721967D01*
X202452921Y-118719872D01*
X202349259Y-118564731D01*
X202276892Y-118390022D01*
X202240000Y-118204552D01*
X202240000Y-118015448D01*
X202276892Y-117829978D01*
X202349259Y-117655269D01*
X202454319Y-117498036D01*
X202454321Y-117498033D01*
X202588033Y-117364321D01*
X202590128Y-117362921D01*
X202745269Y-117259259D01*
X202919978Y-117186892D01*
X203012713Y-117168446D01*
X203105447Y-117150000D01*
X203294553Y-117150000D01*
X203387287Y-117168446D01*
X203387287Y-117168446D01*
G37*
G36*
X158946030Y-115854469D02*
X158946033Y-115854470D01*
X158946034Y-115854470D01*
X159134535Y-115911651D01*
X159134537Y-115911652D01*
X159308260Y-116004509D01*
X159460528Y-116129472D01*
X159585491Y-116281740D01*
X159678348Y-116455463D01*
X159735531Y-116643970D01*
X159754838Y-116840000D01*
X159735531Y-117036030D01*
X159735530Y-117036033D01*
X159735530Y-117036034D01*
X159689768Y-117186892D01*
X159678348Y-117224537D01*
X159585491Y-117398260D01*
X159460528Y-117550528D01*
X159308260Y-117675491D01*
X159308258Y-117675492D01*
X159134535Y-117768349D01*
X158946034Y-117825530D01*
X158946033Y-117825530D01*
X158946030Y-117825531D01*
X158799124Y-117840000D01*
X158700876Y-117840000D01*
X158553970Y-117825531D01*
X158553967Y-117825530D01*
X158553966Y-117825530D01*
X158365465Y-117768349D01*
X158191742Y-117675492D01*
X158191740Y-117675491D01*
X158039472Y-117550528D01*
X157914509Y-117398260D01*
X157821652Y-117224537D01*
X157810233Y-117186892D01*
X157764470Y-117036034D01*
X157764470Y-117036033D01*
X157764469Y-117036030D01*
X157745162Y-116840000D01*
X157764469Y-116643970D01*
X157821652Y-116455463D01*
X157914509Y-116281740D01*
X158039472Y-116129472D01*
X158191740Y-116004509D01*
X158365463Y-115911652D01*
X158365465Y-115911651D01*
X158553966Y-115854470D01*
X158553967Y-115854470D01*
X158553970Y-115854469D01*
X158700876Y-115840000D01*
X158799124Y-115840000D01*
X158946030Y-115854469D01*
X158946030Y-115854469D01*
G37*
G36*
X166545770Y-115855372D02*
X166661689Y-115878429D01*
X166843678Y-115953811D01*
X167007463Y-116063249D01*
X167146751Y-116202537D01*
X167256189Y-116366322D01*
X167331571Y-116548311D01*
X167370000Y-116741509D01*
X167370000Y-116938491D01*
X167331571Y-117131689D01*
X167256189Y-117313678D01*
X167146751Y-117477463D01*
X167007463Y-117616751D01*
X166843678Y-117726189D01*
X166661689Y-117801571D01*
X166545770Y-117824628D01*
X166468493Y-117840000D01*
X166271507Y-117840000D01*
X166194230Y-117824628D01*
X166078311Y-117801571D01*
X165896322Y-117726189D01*
X165732537Y-117616751D01*
X165593249Y-117477463D01*
X165483811Y-117313678D01*
X165408429Y-117131689D01*
X165370000Y-116938491D01*
X165370000Y-116741509D01*
X165408429Y-116548311D01*
X165483811Y-116366322D01*
X165593249Y-116202537D01*
X165732537Y-116063249D01*
X165896322Y-115953811D01*
X166078311Y-115878429D01*
X166194230Y-115855372D01*
X166271507Y-115840000D01*
X166468493Y-115840000D01*
X166545770Y-115855372D01*
X166545770Y-115855372D01*
G37*
G36*
X176070770Y-112680372D02*
X176186689Y-112703429D01*
X176368678Y-112778811D01*
X176532463Y-112888249D01*
X176671751Y-113027537D01*
X176781189Y-113191322D01*
X176856571Y-113373311D01*
X176895000Y-113566509D01*
X176895000Y-113763491D01*
X176856571Y-113956689D01*
X176781189Y-114138678D01*
X176671751Y-114302463D01*
X176532463Y-114441751D01*
X176368678Y-114551189D01*
X176186689Y-114626571D01*
X176070770Y-114649628D01*
X175993493Y-114665000D01*
X175796507Y-114665000D01*
X175719230Y-114649628D01*
X175603311Y-114626571D01*
X175421322Y-114551189D01*
X175257537Y-114441751D01*
X175118249Y-114302463D01*
X175008811Y-114138678D01*
X174933429Y-113956689D01*
X174895000Y-113763491D01*
X174895000Y-113566509D01*
X174933429Y-113373311D01*
X175008811Y-113191322D01*
X175118249Y-113027537D01*
X175257537Y-112888249D01*
X175421322Y-112778811D01*
X175603311Y-112703429D01*
X175719230Y-112680372D01*
X175796507Y-112665000D01*
X175993493Y-112665000D01*
X176070770Y-112680372D01*
X176070770Y-112680372D01*
G37*
G36*
X183711030Y-112679469D02*
X183711033Y-112679470D01*
X183711034Y-112679470D01*
X183899535Y-112736651D01*
X183899537Y-112736652D01*
X184073260Y-112829509D01*
X184225528Y-112954472D01*
X184350491Y-113106740D01*
X184443348Y-113280463D01*
X184500531Y-113468970D01*
X184519838Y-113665000D01*
X184500531Y-113861030D01*
X184443348Y-114049537D01*
X184350491Y-114223260D01*
X184225528Y-114375528D01*
X184073260Y-114500491D01*
X184073258Y-114500492D01*
X183899535Y-114593349D01*
X183711034Y-114650530D01*
X183711033Y-114650530D01*
X183711030Y-114650531D01*
X183564124Y-114665000D01*
X183465876Y-114665000D01*
X183318970Y-114650531D01*
X183318967Y-114650530D01*
X183318966Y-114650530D01*
X183130465Y-114593349D01*
X182956742Y-114500492D01*
X182956740Y-114500491D01*
X182804472Y-114375528D01*
X182679509Y-114223260D01*
X182586652Y-114049537D01*
X182529469Y-113861030D01*
X182510162Y-113665000D01*
X182529469Y-113468970D01*
X182586652Y-113280463D01*
X182679509Y-113106740D01*
X182804472Y-112954472D01*
X182956740Y-112829509D01*
X183130463Y-112736652D01*
X183130465Y-112736651D01*
X183318966Y-112679470D01*
X183318967Y-112679470D01*
X183318970Y-112679469D01*
X183465876Y-112665000D01*
X183564124Y-112665000D01*
X183711030Y-112679469D01*
X183711030Y-112679469D01*
G37*
G36*
X129736030Y-111282469D02*
X129736033Y-111282470D01*
X129736034Y-111282470D01*
X129924535Y-111339651D01*
X129924537Y-111339652D01*
X130098260Y-111432509D01*
X130250528Y-111557472D01*
X130375491Y-111709740D01*
X130468348Y-111883463D01*
X130525531Y-112071970D01*
X130544838Y-112268000D01*
X130525531Y-112464030D01*
X130468348Y-112652537D01*
X130375491Y-112826260D01*
X130250528Y-112978528D01*
X130098260Y-113103491D01*
X130092178Y-113106742D01*
X129924535Y-113196349D01*
X129736034Y-113253530D01*
X129736033Y-113253530D01*
X129736030Y-113253531D01*
X129589124Y-113268000D01*
X129490876Y-113268000D01*
X129343970Y-113253531D01*
X129343967Y-113253530D01*
X129343966Y-113253530D01*
X129155465Y-113196349D01*
X128987822Y-113106742D01*
X128981740Y-113103491D01*
X128829472Y-112978528D01*
X128704509Y-112826260D01*
X128611652Y-112652537D01*
X128554469Y-112464030D01*
X128535162Y-112268000D01*
X128554469Y-112071970D01*
X128611652Y-111883463D01*
X128704509Y-111709740D01*
X128829472Y-111557472D01*
X128981740Y-111432509D01*
X129155463Y-111339652D01*
X129155465Y-111339651D01*
X129343966Y-111282470D01*
X129343967Y-111282470D01*
X129343970Y-111282469D01*
X129490876Y-111268000D01*
X129589124Y-111268000D01*
X129736030Y-111282469D01*
X129736030Y-111282469D01*
G37*
G36*
X137335770Y-111283372D02*
X137451689Y-111306429D01*
X137633678Y-111381811D01*
X137797463Y-111491249D01*
X137936751Y-111630537D01*
X138046189Y-111794322D01*
X138121571Y-111976311D01*
X138160000Y-112169509D01*
X138160000Y-112366491D01*
X138121571Y-112559689D01*
X138046189Y-112741678D01*
X137936751Y-112905463D01*
X137797463Y-113044751D01*
X137633678Y-113154189D01*
X137451689Y-113229571D01*
X137335770Y-113252628D01*
X137258493Y-113268000D01*
X137061507Y-113268000D01*
X136984230Y-113252628D01*
X136868311Y-113229571D01*
X136686322Y-113154189D01*
X136522537Y-113044751D01*
X136383249Y-112905463D01*
X136273811Y-112741678D01*
X136198429Y-112559689D01*
X136160000Y-112366491D01*
X136160000Y-112169509D01*
X136198429Y-111976311D01*
X136273811Y-111794322D01*
X136383249Y-111630537D01*
X136522537Y-111491249D01*
X136686322Y-111381811D01*
X136868311Y-111306429D01*
X136984230Y-111283372D01*
X137061507Y-111268000D01*
X137258493Y-111268000D01*
X137335770Y-111283372D01*
X137335770Y-111283372D01*
G37*
G36*
X224965770Y-109719372D02*
X225081689Y-109742429D01*
X225263678Y-109817811D01*
X225427463Y-109927249D01*
X225566751Y-110066537D01*
X225676189Y-110230322D01*
X225751571Y-110412311D01*
X225774628Y-110528230D01*
X225790000Y-110605507D01*
X225790000Y-110802493D01*
X225774628Y-110879770D01*
X225751571Y-110995689D01*
X225676189Y-111177678D01*
X225566751Y-111341463D01*
X225427463Y-111480751D01*
X225263678Y-111590189D01*
X225081689Y-111665571D01*
X224965770Y-111688628D01*
X224888493Y-111704000D01*
X224691507Y-111704000D01*
X224614230Y-111688628D01*
X224498311Y-111665571D01*
X224316322Y-111590189D01*
X224152537Y-111480751D01*
X224013249Y-111341463D01*
X223903811Y-111177678D01*
X223828429Y-110995689D01*
X223805372Y-110879770D01*
X223790000Y-110802493D01*
X223790000Y-110605507D01*
X223805372Y-110528230D01*
X223828429Y-110412311D01*
X223903811Y-110230322D01*
X224013249Y-110066537D01*
X224152537Y-109927249D01*
X224316322Y-109817811D01*
X224498311Y-109742429D01*
X224614230Y-109719372D01*
X224691507Y-109704000D01*
X224888493Y-109704000D01*
X224965770Y-109719372D01*
X224965770Y-109719372D01*
G37*
G36*
X219885770Y-108870372D02*
X220001689Y-108893429D01*
X220183678Y-108968811D01*
X220347463Y-109078249D01*
X220486751Y-109217537D01*
X220596189Y-109381322D01*
X220671571Y-109563311D01*
X220694628Y-109679230D01*
X220707200Y-109742429D01*
X220710000Y-109756509D01*
X220710000Y-109953491D01*
X220671571Y-110146689D01*
X220596189Y-110328678D01*
X220486751Y-110492463D01*
X220347463Y-110631751D01*
X220183678Y-110741189D01*
X220001689Y-110816571D01*
X219885770Y-110839628D01*
X219808493Y-110855000D01*
X219611507Y-110855000D01*
X219534230Y-110839628D01*
X219418311Y-110816571D01*
X219236322Y-110741189D01*
X219072537Y-110631751D01*
X218933249Y-110492463D01*
X218823811Y-110328678D01*
X218748429Y-110146689D01*
X218710000Y-109953491D01*
X218710000Y-109756509D01*
X218712801Y-109742429D01*
X218725372Y-109679230D01*
X218748429Y-109563311D01*
X218823811Y-109381322D01*
X218933249Y-109217537D01*
X219072537Y-109078249D01*
X219236322Y-108968811D01*
X219418311Y-108893429D01*
X219534230Y-108870372D01*
X219611507Y-108855000D01*
X219808493Y-108855000D01*
X219885770Y-108870372D01*
X219885770Y-108870372D01*
G37*
G36*
X212286030Y-108869469D02*
X212286033Y-108869470D01*
X212286034Y-108869470D01*
X212474535Y-108926651D01*
X212474537Y-108926652D01*
X212648260Y-109019509D01*
X212800528Y-109144472D01*
X212925491Y-109296740D01*
X212925492Y-109296742D01*
X213018349Y-109470465D01*
X213059019Y-109604537D01*
X213075531Y-109658970D01*
X213094838Y-109855000D01*
X213075531Y-110051030D01*
X213075530Y-110051033D01*
X213075530Y-110051034D01*
X213021143Y-110230325D01*
X213018348Y-110239537D01*
X212925491Y-110413260D01*
X212800528Y-110565528D01*
X212648260Y-110690491D01*
X212648258Y-110690492D01*
X212474535Y-110783349D01*
X212286034Y-110840530D01*
X212286033Y-110840530D01*
X212286030Y-110840531D01*
X212139124Y-110855000D01*
X212040876Y-110855000D01*
X211893970Y-110840531D01*
X211893967Y-110840530D01*
X211893966Y-110840530D01*
X211705465Y-110783349D01*
X211531742Y-110690492D01*
X211531740Y-110690491D01*
X211379472Y-110565528D01*
X211254509Y-110413260D01*
X211161652Y-110239537D01*
X211158858Y-110230325D01*
X211104470Y-110051034D01*
X211104470Y-110051033D01*
X211104469Y-110051030D01*
X211085162Y-109855000D01*
X211104469Y-109658970D01*
X211120981Y-109604537D01*
X211161651Y-109470465D01*
X211254508Y-109296742D01*
X211254509Y-109296740D01*
X211379472Y-109144472D01*
X211531740Y-109019509D01*
X211705463Y-108926652D01*
X211705465Y-108926651D01*
X211893966Y-108869470D01*
X211893967Y-108869470D01*
X211893970Y-108869469D01*
X212040876Y-108855000D01*
X212139124Y-108855000D01*
X212286030Y-108869469D01*
X212286030Y-108869469D01*
G37*
G36*
X202105770Y-108870372D02*
X202221689Y-108893429D01*
X202403678Y-108968811D01*
X202567463Y-109078249D01*
X202706751Y-109217537D01*
X202816189Y-109381322D01*
X202891571Y-109563311D01*
X202914628Y-109679230D01*
X202927200Y-109742429D01*
X202930000Y-109756509D01*
X202930000Y-109953491D01*
X202891571Y-110146689D01*
X202816189Y-110328678D01*
X202706751Y-110492463D01*
X202567463Y-110631751D01*
X202403678Y-110741189D01*
X202221689Y-110816571D01*
X202105770Y-110839628D01*
X202028493Y-110855000D01*
X201831507Y-110855000D01*
X201754230Y-110839628D01*
X201638311Y-110816571D01*
X201456322Y-110741189D01*
X201292537Y-110631751D01*
X201153249Y-110492463D01*
X201043811Y-110328678D01*
X200968429Y-110146689D01*
X200930000Y-109953491D01*
X200930000Y-109756509D01*
X200932801Y-109742429D01*
X200945372Y-109679230D01*
X200968429Y-109563311D01*
X201043811Y-109381322D01*
X201153249Y-109217537D01*
X201292537Y-109078249D01*
X201456322Y-108968811D01*
X201638311Y-108893429D01*
X201754230Y-108870372D01*
X201831507Y-108855000D01*
X202028493Y-108855000D01*
X202105770Y-108870372D01*
X202105770Y-108870372D01*
G37*
G36*
X194506030Y-108869469D02*
X194506033Y-108869470D01*
X194506034Y-108869470D01*
X194694535Y-108926651D01*
X194694537Y-108926652D01*
X194868260Y-109019509D01*
X195020528Y-109144472D01*
X195145491Y-109296740D01*
X195145492Y-109296742D01*
X195238349Y-109470465D01*
X195279019Y-109604537D01*
X195295531Y-109658970D01*
X195314838Y-109855000D01*
X195295531Y-110051030D01*
X195295530Y-110051033D01*
X195295530Y-110051034D01*
X195241143Y-110230325D01*
X195238348Y-110239537D01*
X195145491Y-110413260D01*
X195020528Y-110565528D01*
X194868260Y-110690491D01*
X194868258Y-110690492D01*
X194694535Y-110783349D01*
X194506034Y-110840530D01*
X194506033Y-110840530D01*
X194506030Y-110840531D01*
X194359124Y-110855000D01*
X194260876Y-110855000D01*
X194113970Y-110840531D01*
X194113967Y-110840530D01*
X194113966Y-110840530D01*
X193925465Y-110783349D01*
X193751742Y-110690492D01*
X193751740Y-110690491D01*
X193599472Y-110565528D01*
X193474509Y-110413260D01*
X193381652Y-110239537D01*
X193378858Y-110230325D01*
X193324470Y-110051034D01*
X193324470Y-110051033D01*
X193324469Y-110051030D01*
X193305162Y-109855000D01*
X193324469Y-109658970D01*
X193340981Y-109604537D01*
X193381651Y-109470465D01*
X193474508Y-109296742D01*
X193474509Y-109296740D01*
X193599472Y-109144472D01*
X193751740Y-109019509D01*
X193925463Y-108926652D01*
X193925465Y-108926651D01*
X194113966Y-108869470D01*
X194113967Y-108869470D01*
X194113970Y-108869469D01*
X194260876Y-108855000D01*
X194359124Y-108855000D01*
X194506030Y-108869469D01*
X194506030Y-108869469D01*
G37*
G36*
X184325770Y-108235372D02*
X184441689Y-108258429D01*
X184623678Y-108333811D01*
X184787463Y-108443249D01*
X184926751Y-108582537D01*
X185036189Y-108746322D01*
X185111571Y-108928311D01*
X185150000Y-109121509D01*
X185150000Y-109318491D01*
X185111571Y-109511689D01*
X185036189Y-109693678D01*
X184926751Y-109857463D01*
X184787463Y-109996751D01*
X184623678Y-110106189D01*
X184441689Y-110181571D01*
X184325770Y-110204628D01*
X184248493Y-110220000D01*
X184051507Y-110220000D01*
X183974230Y-110204628D01*
X183858311Y-110181571D01*
X183676322Y-110106189D01*
X183512537Y-109996751D01*
X183373249Y-109857463D01*
X183263811Y-109693678D01*
X183188429Y-109511689D01*
X183150000Y-109318491D01*
X183150000Y-109121509D01*
X183188429Y-108928311D01*
X183263811Y-108746322D01*
X183373249Y-108582537D01*
X183512537Y-108443249D01*
X183676322Y-108333811D01*
X183858311Y-108258429D01*
X183974230Y-108235372D01*
X184051507Y-108220000D01*
X184248493Y-108220000D01*
X184325770Y-108235372D01*
X184325770Y-108235372D01*
G37*
G36*
X164830000Y-110220000D02*
X162830000Y-110220000D01*
X162830000Y-108220000D01*
X164830000Y-108220000D01*
X164830000Y-110220000D01*
X164830000Y-110220000D01*
G37*
G36*
X161505770Y-108235372D02*
X161621689Y-108258429D01*
X161803678Y-108333811D01*
X161967463Y-108443249D01*
X162106751Y-108582537D01*
X162216189Y-108746322D01*
X162291571Y-108928311D01*
X162330000Y-109121509D01*
X162330000Y-109318491D01*
X162291571Y-109511689D01*
X162216189Y-109693678D01*
X162106751Y-109857463D01*
X161967463Y-109996751D01*
X161803678Y-110106189D01*
X161621689Y-110181571D01*
X161505770Y-110204628D01*
X161428493Y-110220000D01*
X161231507Y-110220000D01*
X161154230Y-110204628D01*
X161038311Y-110181571D01*
X160856322Y-110106189D01*
X160692537Y-109996751D01*
X160553249Y-109857463D01*
X160443811Y-109693678D01*
X160368429Y-109511689D01*
X160330000Y-109318491D01*
X160330000Y-109121509D01*
X160368429Y-108928311D01*
X160443811Y-108746322D01*
X160553249Y-108582537D01*
X160692537Y-108443249D01*
X160856322Y-108333811D01*
X161038311Y-108258429D01*
X161154230Y-108235372D01*
X161231507Y-108220000D01*
X161428493Y-108220000D01*
X161505770Y-108235372D01*
X161505770Y-108235372D01*
G37*
G36*
X176726030Y-108234469D02*
X176726033Y-108234470D01*
X176726034Y-108234470D01*
X176914535Y-108291651D01*
X176914537Y-108291652D01*
X177088260Y-108384509D01*
X177240528Y-108509472D01*
X177365491Y-108661740D01*
X177365492Y-108661742D01*
X177458349Y-108835465D01*
X177514178Y-109019509D01*
X177515531Y-109023970D01*
X177534838Y-109220000D01*
X177515531Y-109416030D01*
X177515530Y-109416033D01*
X177515530Y-109416034D01*
X177499019Y-109470465D01*
X177458348Y-109604537D01*
X177365491Y-109778260D01*
X177240528Y-109930528D01*
X177088260Y-110055491D01*
X177088258Y-110055492D01*
X176914535Y-110148349D01*
X176726034Y-110205530D01*
X176726033Y-110205530D01*
X176726030Y-110205531D01*
X176579124Y-110220000D01*
X176480876Y-110220000D01*
X176333970Y-110205531D01*
X176333967Y-110205530D01*
X176333966Y-110205530D01*
X176145465Y-110148349D01*
X175971742Y-110055492D01*
X175971740Y-110055491D01*
X175819472Y-109930528D01*
X175694509Y-109778260D01*
X175601652Y-109604537D01*
X175560982Y-109470465D01*
X175544470Y-109416034D01*
X175544470Y-109416033D01*
X175544469Y-109416030D01*
X175525162Y-109220000D01*
X175544469Y-109023970D01*
X175545822Y-109019509D01*
X175601651Y-108835465D01*
X175694508Y-108661742D01*
X175694509Y-108661740D01*
X175819472Y-108509472D01*
X175971740Y-108384509D01*
X176145463Y-108291652D01*
X176145465Y-108291651D01*
X176333966Y-108234470D01*
X176333967Y-108234470D01*
X176333970Y-108234469D01*
X176480876Y-108220000D01*
X176579124Y-108220000D01*
X176726030Y-108234469D01*
X176726030Y-108234469D01*
G37*
G36*
X225790000Y-109204000D02*
X223790000Y-109204000D01*
X223790000Y-107204000D01*
X225790000Y-107204000D01*
X225790000Y-109204000D01*
X225790000Y-109204000D01*
G37*
G36*
X189151770Y-105187372D02*
X189267689Y-105210429D01*
X189449678Y-105285811D01*
X189613463Y-105395249D01*
X189752751Y-105534537D01*
X189862189Y-105698322D01*
X189937571Y-105880311D01*
X189976000Y-106073509D01*
X189976000Y-106270491D01*
X189937571Y-106463689D01*
X189862189Y-106645678D01*
X189752751Y-106809463D01*
X189613463Y-106948751D01*
X189449678Y-107058189D01*
X189267689Y-107133571D01*
X189151770Y-107156628D01*
X189074493Y-107172000D01*
X188877507Y-107172000D01*
X188800230Y-107156628D01*
X188684311Y-107133571D01*
X188502322Y-107058189D01*
X188338537Y-106948751D01*
X188199249Y-106809463D01*
X188089811Y-106645678D01*
X188014429Y-106463689D01*
X187976000Y-106270491D01*
X187976000Y-106073509D01*
X188014429Y-105880311D01*
X188089811Y-105698322D01*
X188199249Y-105534537D01*
X188338537Y-105395249D01*
X188502322Y-105285811D01*
X188684311Y-105210429D01*
X188800230Y-105187372D01*
X188877507Y-105172000D01*
X189074493Y-105172000D01*
X189151770Y-105187372D01*
X189151770Y-105187372D01*
G37*
G36*
X206931770Y-105147372D02*
X207047689Y-105170429D01*
X207229678Y-105245811D01*
X207393463Y-105355249D01*
X207532751Y-105494537D01*
X207642189Y-105658322D01*
X207717571Y-105840311D01*
X207740628Y-105956230D01*
X207756000Y-106033507D01*
X207756000Y-106230493D01*
X207750400Y-106258644D01*
X207717571Y-106423689D01*
X207642189Y-106605678D01*
X207532751Y-106769463D01*
X207393463Y-106908751D01*
X207229678Y-107018189D01*
X207047689Y-107093571D01*
X206931770Y-107116628D01*
X206854493Y-107132000D01*
X206657507Y-107132000D01*
X206580230Y-107116628D01*
X206464311Y-107093571D01*
X206282322Y-107018189D01*
X206118537Y-106908751D01*
X205979249Y-106769463D01*
X205869811Y-106605678D01*
X205794429Y-106423689D01*
X205761600Y-106258644D01*
X205756000Y-106230493D01*
X205756000Y-106033507D01*
X205771372Y-105956230D01*
X205794429Y-105840311D01*
X205869811Y-105658322D01*
X205979249Y-105494537D01*
X206118537Y-105355249D01*
X206282322Y-105245811D01*
X206464311Y-105170429D01*
X206580230Y-105147372D01*
X206657507Y-105132000D01*
X206854493Y-105132000D01*
X206931770Y-105147372D01*
X206931770Y-105147372D01*
G37*
G36*
X178062521Y-105304586D02*
X178226309Y-105372429D01*
X178373720Y-105470926D01*
X178499074Y-105596280D01*
X178597571Y-105743691D01*
X178665414Y-105907479D01*
X178700000Y-106081356D01*
X178700000Y-106258644D01*
X178665414Y-106432521D01*
X178597571Y-106596309D01*
X178499074Y-106743720D01*
X178373720Y-106869074D01*
X178226309Y-106967571D01*
X178062521Y-107035414D01*
X177888644Y-107070000D01*
X177711356Y-107070000D01*
X177537479Y-107035414D01*
X177373691Y-106967571D01*
X177226280Y-106869074D01*
X177100926Y-106743720D01*
X177002429Y-106596309D01*
X176934586Y-106432521D01*
X176900000Y-106258644D01*
X176900000Y-106081356D01*
X176934586Y-105907479D01*
X177002429Y-105743691D01*
X177100926Y-105596280D01*
X177226280Y-105470926D01*
X177373691Y-105372429D01*
X177537479Y-105304586D01*
X177711356Y-105270000D01*
X177888644Y-105270000D01*
X178062521Y-105304586D01*
X178062521Y-105304586D01*
G37*
G36*
X198342521Y-105304586D02*
X198506309Y-105372429D01*
X198653720Y-105470926D01*
X198779074Y-105596280D01*
X198877571Y-105743691D01*
X198945414Y-105907479D01*
X198980000Y-106081356D01*
X198980000Y-106258644D01*
X198945414Y-106432521D01*
X198877571Y-106596309D01*
X198779074Y-106743720D01*
X198653720Y-106869074D01*
X198506309Y-106967571D01*
X198342521Y-107035414D01*
X198168644Y-107070000D01*
X197991356Y-107070000D01*
X197817479Y-107035414D01*
X197653691Y-106967571D01*
X197506280Y-106869074D01*
X197380926Y-106743720D01*
X197282429Y-106596309D01*
X197214586Y-106432521D01*
X197180000Y-106258644D01*
X197180000Y-106081356D01*
X197214586Y-105907479D01*
X197282429Y-105743691D01*
X197380926Y-105596280D01*
X197506280Y-105470926D01*
X197653691Y-105372429D01*
X197817479Y-105304586D01*
X197991356Y-105270000D01*
X198168644Y-105270000D01*
X198342521Y-105304586D01*
X198342521Y-105304586D01*
G37*
G36*
X180562521Y-105304586D02*
X180726309Y-105372429D01*
X180873720Y-105470926D01*
X180999074Y-105596280D01*
X181097571Y-105743691D01*
X181165414Y-105907479D01*
X181200000Y-106081356D01*
X181200000Y-106258644D01*
X181165414Y-106432521D01*
X181097571Y-106596309D01*
X180999074Y-106743720D01*
X180873720Y-106869074D01*
X180726309Y-106967571D01*
X180562521Y-107035414D01*
X180388644Y-107070000D01*
X180211356Y-107070000D01*
X180037479Y-107035414D01*
X179873691Y-106967571D01*
X179726280Y-106869074D01*
X179600926Y-106743720D01*
X179502429Y-106596309D01*
X179434586Y-106432521D01*
X179400000Y-106258644D01*
X179400000Y-106081356D01*
X179434586Y-105907479D01*
X179502429Y-105743691D01*
X179600926Y-105596280D01*
X179726280Y-105470926D01*
X179873691Y-105372429D01*
X180037479Y-105304586D01*
X180211356Y-105270000D01*
X180388644Y-105270000D01*
X180562521Y-105304586D01*
X180562521Y-105304586D01*
G37*
G36*
X195842521Y-105304586D02*
X196006309Y-105372429D01*
X196153720Y-105470926D01*
X196279074Y-105596280D01*
X196377571Y-105743691D01*
X196445414Y-105907479D01*
X196480000Y-106081356D01*
X196480000Y-106258644D01*
X196445414Y-106432521D01*
X196377571Y-106596309D01*
X196279074Y-106743720D01*
X196153720Y-106869074D01*
X196006309Y-106967571D01*
X195842521Y-107035414D01*
X195668644Y-107070000D01*
X195491356Y-107070000D01*
X195317479Y-107035414D01*
X195153691Y-106967571D01*
X195006280Y-106869074D01*
X194880926Y-106743720D01*
X194782429Y-106596309D01*
X194714586Y-106432521D01*
X194680000Y-106258644D01*
X194680000Y-106081356D01*
X194714586Y-105907479D01*
X194782429Y-105743691D01*
X194880926Y-105596280D01*
X195006280Y-105470926D01*
X195153691Y-105372429D01*
X195317479Y-105304586D01*
X195491356Y-105270000D01*
X195668644Y-105270000D01*
X195842521Y-105304586D01*
X195842521Y-105304586D01*
G37*
G36*
X200842521Y-105304586D02*
X201006309Y-105372429D01*
X201153720Y-105470926D01*
X201279074Y-105596280D01*
X201377571Y-105743691D01*
X201445414Y-105907479D01*
X201480000Y-106081356D01*
X201480000Y-106258644D01*
X201445414Y-106432521D01*
X201377571Y-106596309D01*
X201279074Y-106743720D01*
X201153720Y-106869074D01*
X201006309Y-106967571D01*
X200842521Y-107035414D01*
X200668644Y-107070000D01*
X200491356Y-107070000D01*
X200317479Y-107035414D01*
X200153691Y-106967571D01*
X200006280Y-106869074D01*
X199880926Y-106743720D01*
X199782429Y-106596309D01*
X199714586Y-106432521D01*
X199680000Y-106258644D01*
X199680000Y-106081356D01*
X199714586Y-105907479D01*
X199782429Y-105743691D01*
X199880926Y-105596280D01*
X200006280Y-105470926D01*
X200153691Y-105372429D01*
X200317479Y-105304586D01*
X200491356Y-105270000D01*
X200668644Y-105270000D01*
X200842521Y-105304586D01*
X200842521Y-105304586D01*
G37*
G36*
X218622521Y-105304586D02*
X218786309Y-105372429D01*
X218933720Y-105470926D01*
X219059074Y-105596280D01*
X219157571Y-105743691D01*
X219225414Y-105907479D01*
X219260000Y-106081356D01*
X219260000Y-106258644D01*
X219225414Y-106432521D01*
X219157571Y-106596309D01*
X219059074Y-106743720D01*
X218933720Y-106869074D01*
X218786309Y-106967571D01*
X218622521Y-107035414D01*
X218448644Y-107070000D01*
X218271356Y-107070000D01*
X218097479Y-107035414D01*
X217933691Y-106967571D01*
X217786280Y-106869074D01*
X217660926Y-106743720D01*
X217562429Y-106596309D01*
X217494586Y-106432521D01*
X217460000Y-106258644D01*
X217460000Y-106081356D01*
X217494586Y-105907479D01*
X217562429Y-105743691D01*
X217660926Y-105596280D01*
X217786280Y-105470926D01*
X217933691Y-105372429D01*
X218097479Y-105304586D01*
X218271356Y-105270000D01*
X218448644Y-105270000D01*
X218622521Y-105304586D01*
X218622521Y-105304586D01*
G37*
G36*
X216122521Y-105304586D02*
X216286309Y-105372429D01*
X216433720Y-105470926D01*
X216559074Y-105596280D01*
X216657571Y-105743691D01*
X216725414Y-105907479D01*
X216760000Y-106081356D01*
X216760000Y-106258644D01*
X216725414Y-106432521D01*
X216657571Y-106596309D01*
X216559074Y-106743720D01*
X216433720Y-106869074D01*
X216286309Y-106967571D01*
X216122521Y-107035414D01*
X215948644Y-107070000D01*
X215771356Y-107070000D01*
X215597479Y-107035414D01*
X215433691Y-106967571D01*
X215286280Y-106869074D01*
X215160926Y-106743720D01*
X215062429Y-106596309D01*
X214994586Y-106432521D01*
X214960000Y-106258644D01*
X214960000Y-106081356D01*
X214994586Y-105907479D01*
X215062429Y-105743691D01*
X215160926Y-105596280D01*
X215286280Y-105470926D01*
X215433691Y-105372429D01*
X215597479Y-105304586D01*
X215771356Y-105270000D01*
X215948644Y-105270000D01*
X216122521Y-105304586D01*
X216122521Y-105304586D01*
G37*
G36*
X213622521Y-105304586D02*
X213786309Y-105372429D01*
X213933720Y-105470926D01*
X214059074Y-105596280D01*
X214157571Y-105743691D01*
X214225414Y-105907479D01*
X214260000Y-106081356D01*
X214260000Y-106258644D01*
X214225414Y-106432521D01*
X214157571Y-106596309D01*
X214059074Y-106743720D01*
X213933720Y-106869074D01*
X213786309Y-106967571D01*
X213622521Y-107035414D01*
X213448644Y-107070000D01*
X213271356Y-107070000D01*
X213097479Y-107035414D01*
X212933691Y-106967571D01*
X212786280Y-106869074D01*
X212660926Y-106743720D01*
X212562429Y-106596309D01*
X212494586Y-106432521D01*
X212460000Y-106258644D01*
X212460000Y-106081356D01*
X212494586Y-105907479D01*
X212562429Y-105743691D01*
X212660926Y-105596280D01*
X212786280Y-105470926D01*
X212933691Y-105372429D01*
X213097479Y-105304586D01*
X213271356Y-105270000D01*
X213448644Y-105270000D01*
X213622521Y-105304586D01*
X213622521Y-105304586D01*
G37*
G36*
X183062521Y-105304586D02*
X183226309Y-105372429D01*
X183373720Y-105470926D01*
X183499074Y-105596280D01*
X183597571Y-105743691D01*
X183665414Y-105907479D01*
X183700000Y-106081356D01*
X183700000Y-106258644D01*
X183665414Y-106432521D01*
X183597571Y-106596309D01*
X183499074Y-106743720D01*
X183373720Y-106869074D01*
X183226309Y-106967571D01*
X183062521Y-107035414D01*
X182888644Y-107070000D01*
X182711356Y-107070000D01*
X182537479Y-107035414D01*
X182373691Y-106967571D01*
X182226280Y-106869074D01*
X182100926Y-106743720D01*
X182002429Y-106596309D01*
X181934586Y-106432521D01*
X181900000Y-106258644D01*
X181900000Y-106081356D01*
X181934586Y-105907479D01*
X182002429Y-105743691D01*
X182100926Y-105596280D01*
X182226280Y-105470926D01*
X182373691Y-105372429D01*
X182537479Y-105304586D01*
X182711356Y-105270000D01*
X182888644Y-105270000D01*
X183062521Y-105304586D01*
X183062521Y-105304586D01*
G37*
G36*
X226411904Y-101127979D02*
X226760054Y-101197230D01*
X227196826Y-101378147D01*
X227589911Y-101640798D01*
X227924202Y-101975089D01*
X228186853Y-102368174D01*
X228367770Y-102804946D01*
X228460000Y-103268621D01*
X228460000Y-103741379D01*
X228367770Y-104205054D01*
X228186853Y-104641826D01*
X227924202Y-105034911D01*
X227589911Y-105369202D01*
X227196826Y-105631853D01*
X226760054Y-105812770D01*
X226420500Y-105880311D01*
X226296381Y-105905000D01*
X225823619Y-105905000D01*
X225699500Y-105880311D01*
X225359946Y-105812770D01*
X224923174Y-105631853D01*
X224530089Y-105369202D01*
X224195798Y-105034911D01*
X223933147Y-104641826D01*
X223752230Y-104205054D01*
X223660000Y-103741379D01*
X223660000Y-103268621D01*
X223752230Y-102804946D01*
X223933147Y-102368174D01*
X224195798Y-101975089D01*
X224530089Y-101640798D01*
X224923174Y-101378147D01*
X225359946Y-101197230D01*
X225708096Y-101127979D01*
X225823619Y-101105000D01*
X226296381Y-101105000D01*
X226411904Y-101127979D01*
X226411904Y-101127979D01*
G37*
G36*
X129891904Y-101127979D02*
X130240054Y-101197230D01*
X130676826Y-101378147D01*
X131069911Y-101640798D01*
X131404202Y-101975089D01*
X131666853Y-102368174D01*
X131847770Y-102804946D01*
X131940000Y-103268621D01*
X131940000Y-103741379D01*
X131847770Y-104205054D01*
X131666853Y-104641826D01*
X131404202Y-105034911D01*
X131069911Y-105369202D01*
X130676826Y-105631853D01*
X130240054Y-105812770D01*
X129900500Y-105880311D01*
X129776381Y-105905000D01*
X129303619Y-105905000D01*
X129179500Y-105880311D01*
X128839946Y-105812770D01*
X128403174Y-105631853D01*
X128010089Y-105369202D01*
X127675798Y-105034911D01*
X127413147Y-104641826D01*
X127232230Y-104205054D01*
X127140000Y-103741379D01*
X127140000Y-103268621D01*
X127232230Y-102804946D01*
X127413147Y-102368174D01*
X127675798Y-101975089D01*
X128010089Y-101640798D01*
X128403174Y-101378147D01*
X128839946Y-101197230D01*
X129188096Y-101127979D01*
X129303619Y-101105000D01*
X129776381Y-101105000D01*
X129891904Y-101127979D01*
X129891904Y-101127979D01*
G37*
G36*
X164796628Y-101837792D02*
X164960834Y-101870455D01*
X165088973Y-101923532D01*
X165270189Y-101998594D01*
X165548607Y-102184627D01*
X165785373Y-102421393D01*
X165971406Y-102699811D01*
X166099545Y-103009167D01*
X166164870Y-103337576D01*
X166164870Y-103672424D01*
X166099545Y-104000833D01*
X165971406Y-104310189D01*
X165785373Y-104588607D01*
X165548607Y-104825373D01*
X165270189Y-105011406D01*
X165088973Y-105086468D01*
X164960834Y-105139545D01*
X164805570Y-105170429D01*
X164632424Y-105204870D01*
X164297576Y-105204870D01*
X164124430Y-105170429D01*
X163969166Y-105139545D01*
X163841027Y-105086468D01*
X163659811Y-105011406D01*
X163381393Y-104825373D01*
X163144627Y-104588607D01*
X162958594Y-104310189D01*
X162830455Y-104000833D01*
X162765130Y-103672424D01*
X162765130Y-103337576D01*
X162830455Y-103009167D01*
X162958594Y-102699811D01*
X163144627Y-102421393D01*
X163381393Y-102184627D01*
X163659811Y-101998594D01*
X163841027Y-101923532D01*
X163969166Y-101870455D01*
X164133372Y-101837792D01*
X164297576Y-101805130D01*
X164632424Y-101805130D01*
X164796628Y-101837792D01*
X164796628Y-101837792D01*
G37*
G36*
X162354870Y-105204870D02*
X158955130Y-105204870D01*
X158955130Y-101805130D01*
X162354870Y-101805130D01*
X162354870Y-105204870D01*
X162354870Y-105204870D01*
G37*
G36*
X189976000Y-104672000D02*
X187976000Y-104672000D01*
X187976000Y-102672000D01*
X189976000Y-102672000D01*
X189976000Y-104672000D01*
X189976000Y-104672000D01*
G37*
G36*
X207756000Y-104632000D02*
X205756000Y-104632000D01*
X205756000Y-102632000D01*
X207756000Y-102632000D01*
X207756000Y-104632000D01*
X207756000Y-104632000D01*
G37*
G36*
X200842521Y-102004586D02*
X201006309Y-102072429D01*
X201153720Y-102170926D01*
X201279074Y-102296280D01*
X201377571Y-102443691D01*
X201445414Y-102607479D01*
X201480000Y-102781356D01*
X201480000Y-102958644D01*
X201445414Y-103132521D01*
X201377571Y-103296309D01*
X201279074Y-103443720D01*
X201153720Y-103569074D01*
X201006309Y-103667571D01*
X200842521Y-103735414D01*
X200668644Y-103770000D01*
X200491356Y-103770000D01*
X200317479Y-103735414D01*
X200153691Y-103667571D01*
X200006280Y-103569074D01*
X199880926Y-103443720D01*
X199782429Y-103296309D01*
X199714586Y-103132521D01*
X199680000Y-102958644D01*
X199680000Y-102781356D01*
X199714586Y-102607479D01*
X199782429Y-102443691D01*
X199880926Y-102296280D01*
X200006280Y-102170926D01*
X200153691Y-102072429D01*
X200317479Y-102004586D01*
X200491356Y-101970000D01*
X200668644Y-101970000D01*
X200842521Y-102004586D01*
X200842521Y-102004586D01*
G37*
G36*
X178700000Y-103770000D02*
X176900000Y-103770000D01*
X176900000Y-101970000D01*
X178700000Y-101970000D01*
X178700000Y-103770000D01*
X178700000Y-103770000D01*
G37*
G36*
X198342521Y-102004586D02*
X198506309Y-102072429D01*
X198653720Y-102170926D01*
X198779074Y-102296280D01*
X198877571Y-102443691D01*
X198945414Y-102607479D01*
X198980000Y-102781356D01*
X198980000Y-102958644D01*
X198945414Y-103132521D01*
X198877571Y-103296309D01*
X198779074Y-103443720D01*
X198653720Y-103569074D01*
X198506309Y-103667571D01*
X198342521Y-103735414D01*
X198168644Y-103770000D01*
X197991356Y-103770000D01*
X197817479Y-103735414D01*
X197653691Y-103667571D01*
X197506280Y-103569074D01*
X197380926Y-103443720D01*
X197282429Y-103296309D01*
X197214586Y-103132521D01*
X197180000Y-102958644D01*
X197180000Y-102781356D01*
X197214586Y-102607479D01*
X197282429Y-102443691D01*
X197380926Y-102296280D01*
X197506280Y-102170926D01*
X197653691Y-102072429D01*
X197817479Y-102004586D01*
X197991356Y-101970000D01*
X198168644Y-101970000D01*
X198342521Y-102004586D01*
X198342521Y-102004586D01*
G37*
G36*
X214260000Y-103770000D02*
X212460000Y-103770000D01*
X212460000Y-101970000D01*
X214260000Y-101970000D01*
X214260000Y-103770000D01*
X214260000Y-103770000D01*
G37*
G36*
X180562521Y-102004586D02*
X180726309Y-102072429D01*
X180873720Y-102170926D01*
X180999074Y-102296280D01*
X181097571Y-102443691D01*
X181165414Y-102607479D01*
X181200000Y-102781356D01*
X181200000Y-102958644D01*
X181165414Y-103132521D01*
X181097571Y-103296309D01*
X180999074Y-103443720D01*
X180873720Y-103569074D01*
X180726309Y-103667571D01*
X180562521Y-103735414D01*
X180388644Y-103770000D01*
X180211356Y-103770000D01*
X180037479Y-103735414D01*
X179873691Y-103667571D01*
X179726280Y-103569074D01*
X179600926Y-103443720D01*
X179502429Y-103296309D01*
X179434586Y-103132521D01*
X179400000Y-102958644D01*
X179400000Y-102781356D01*
X179434586Y-102607479D01*
X179502429Y-102443691D01*
X179600926Y-102296280D01*
X179726280Y-102170926D01*
X179873691Y-102072429D01*
X180037479Y-102004586D01*
X180211356Y-101970000D01*
X180388644Y-101970000D01*
X180562521Y-102004586D01*
X180562521Y-102004586D01*
G37*
G36*
X183062521Y-102004586D02*
X183226309Y-102072429D01*
X183373720Y-102170926D01*
X183499074Y-102296280D01*
X183597571Y-102443691D01*
X183665414Y-102607479D01*
X183700000Y-102781356D01*
X183700000Y-102958644D01*
X183665414Y-103132521D01*
X183597571Y-103296309D01*
X183499074Y-103443720D01*
X183373720Y-103569074D01*
X183226309Y-103667571D01*
X183062521Y-103735414D01*
X182888644Y-103770000D01*
X182711356Y-103770000D01*
X182537479Y-103735414D01*
X182373691Y-103667571D01*
X182226280Y-103569074D01*
X182100926Y-103443720D01*
X182002429Y-103296309D01*
X181934586Y-103132521D01*
X181900000Y-102958644D01*
X181900000Y-102781356D01*
X181934586Y-102607479D01*
X182002429Y-102443691D01*
X182100926Y-102296280D01*
X182226280Y-102170926D01*
X182373691Y-102072429D01*
X182537479Y-102004586D01*
X182711356Y-101970000D01*
X182888644Y-101970000D01*
X183062521Y-102004586D01*
X183062521Y-102004586D01*
G37*
G36*
X196480000Y-103770000D02*
X194680000Y-103770000D01*
X194680000Y-101970000D01*
X196480000Y-101970000D01*
X196480000Y-103770000D01*
X196480000Y-103770000D01*
G37*
G36*
X216122521Y-102004586D02*
X216286309Y-102072429D01*
X216433720Y-102170926D01*
X216559074Y-102296280D01*
X216657571Y-102443691D01*
X216725414Y-102607479D01*
X216760000Y-102781356D01*
X216760000Y-102958644D01*
X216725414Y-103132521D01*
X216657571Y-103296309D01*
X216559074Y-103443720D01*
X216433720Y-103569074D01*
X216286309Y-103667571D01*
X216122521Y-103735414D01*
X215948644Y-103770000D01*
X215771356Y-103770000D01*
X215597479Y-103735414D01*
X215433691Y-103667571D01*
X215286280Y-103569074D01*
X215160926Y-103443720D01*
X215062429Y-103296309D01*
X214994586Y-103132521D01*
X214960000Y-102958644D01*
X214960000Y-102781356D01*
X214994586Y-102607479D01*
X215062429Y-102443691D01*
X215160926Y-102296280D01*
X215286280Y-102170926D01*
X215433691Y-102072429D01*
X215597479Y-102004586D01*
X215771356Y-101970000D01*
X215948644Y-101970000D01*
X216122521Y-102004586D01*
X216122521Y-102004586D01*
G37*
G36*
X218622521Y-102004586D02*
X218786309Y-102072429D01*
X218933720Y-102170926D01*
X219059074Y-102296280D01*
X219157571Y-102443691D01*
X219225414Y-102607479D01*
X219260000Y-102781356D01*
X219260000Y-102958644D01*
X219225414Y-103132521D01*
X219157571Y-103296309D01*
X219059074Y-103443720D01*
X218933720Y-103569074D01*
X218786309Y-103667571D01*
X218622521Y-103735414D01*
X218448644Y-103770000D01*
X218271356Y-103770000D01*
X218097479Y-103735414D01*
X217933691Y-103667571D01*
X217786280Y-103569074D01*
X217660926Y-103443720D01*
X217562429Y-103296309D01*
X217494586Y-103132521D01*
X217460000Y-102958644D01*
X217460000Y-102781356D01*
X217494586Y-102607479D01*
X217562429Y-102443691D01*
X217660926Y-102296280D01*
X217786280Y-102170926D01*
X217933691Y-102072429D01*
X218097479Y-102004586D01*
X218271356Y-101970000D01*
X218448644Y-101970000D01*
X218622521Y-102004586D01*
X218622521Y-102004586D01*
G37*
M02*
