G04 #@! TF.GenerationSoftware,KiCad,Pcbnew,(5.0.1-3-g963ef8bb5)*
G04 #@! TF.CreationDate,2019-03-03T19:22:14-08:00*
G04 #@! TF.ProjectId,Multi-out-Buffer,4D756C74692D6F75742D427566666572,rev?*
G04 #@! TF.SameCoordinates,Original*
G04 #@! TF.FileFunction,Copper,L1,Top,Signal*
G04 #@! TF.FilePolarity,Positive*
%FSLAX46Y46*%
G04 Gerber Fmt 4.6, Leading zero omitted, Abs format (unit mm)*
G04 Created by KiCad (PCBNEW (5.0.1-3-g963ef8bb5)) date Sunday, March 03, 2019 at 07:22:14 PM*
%MOMM*%
%LPD*%
G01*
G04 APERTURE LIST*
G04 #@! TA.AperFunction,ComponentPad*
%ADD10C,2.999740*%
G04 #@! TD*
G04 #@! TA.AperFunction,ComponentPad*
%ADD11R,2.999740X2.999740*%
G04 #@! TD*
G04 #@! TA.AperFunction,ComponentPad*
%ADD12C,4.400000*%
G04 #@! TD*
G04 #@! TA.AperFunction,ComponentPad*
%ADD13R,1.520000X1.520000*%
G04 #@! TD*
G04 #@! TA.AperFunction,ComponentPad*
%ADD14C,1.520000*%
G04 #@! TD*
G04 #@! TA.AperFunction,ComponentPad*
%ADD15R,1.400000X1.400000*%
G04 #@! TD*
G04 #@! TA.AperFunction,ComponentPad*
%ADD16C,1.400000*%
G04 #@! TD*
G04 #@! TA.AperFunction,ComponentPad*
%ADD17O,2.400000X2.400000*%
G04 #@! TD*
G04 #@! TA.AperFunction,ComponentPad*
%ADD18R,2.400000X2.400000*%
G04 #@! TD*
G04 #@! TA.AperFunction,ComponentPad*
%ADD19C,1.600000*%
G04 #@! TD*
G04 #@! TA.AperFunction,ComponentPad*
%ADD20R,1.600000X1.600000*%
G04 #@! TD*
G04 #@! TA.AperFunction,ComponentPad*
%ADD21O,1.600000X1.600000*%
G04 #@! TD*
G04 #@! TA.AperFunction,ComponentPad*
%ADD22C,1.700000*%
G04 #@! TD*
G04 #@! TA.AperFunction,ComponentPad*
%ADD23R,1.700000X1.700000*%
G04 #@! TD*
G04 #@! TA.AperFunction,ComponentPad*
%ADD24C,2.000000*%
G04 #@! TD*
G04 #@! TA.AperFunction,ComponentPad*
%ADD25R,2.000000X2.000000*%
G04 #@! TD*
G04 #@! TA.AperFunction,Conductor*
%ADD26C,0.750000*%
G04 #@! TD*
G04 #@! TA.AperFunction,Conductor*
%ADD27C,0.254000*%
G04 #@! TD*
G04 APERTURE END LIST*
D10*
G04 #@! TO.P,J5,3*
G04 #@! TO.N,GND*
X129540000Y-126492000D03*
G04 #@! TO.P,J5,2*
G04 #@! TO.N,Net-(C1-Pad2)*
X129540000Y-122682000D03*
D11*
G04 #@! TO.P,J5,1*
G04 #@! TO.N,Net-(J5-Pad1)*
X129540000Y-118872000D03*
G04 #@! TD*
D12*
G04 #@! TO.P,J9,1*
G04 #@! TO.N,N/C*
X226060000Y-141224000D03*
G04 #@! TD*
G04 #@! TO.P,J8,1*
G04 #@! TO.N,N/C*
X129540000Y-141224000D03*
G04 #@! TD*
D13*
G04 #@! TO.P,Q1,1*
G04 #@! TO.N,+9V*
X173990000Y-118110000D03*
D14*
G04 #@! TO.P,Q1,3*
G04 #@! TO.N,Net-(C1-Pad1)*
X168910000Y-118110000D03*
G04 #@! TO.P,Q1,2*
G04 #@! TO.N,Net-(C2-Pad1)*
X171450000Y-118110000D03*
G04 #@! TD*
D15*
G04 #@! TO.P,SW2,1*
G04 #@! TO.N,Net-(SW2-Pad1)*
X177800000Y-102870000D03*
D16*
G04 #@! TO.P,SW2,2*
G04 #@! TO.N,Net-(K2-Pad6)*
X180300000Y-102870000D03*
G04 #@! TO.P,SW2,3*
G04 #@! TO.N,Net-(C7-Pad1)*
X182800000Y-102870000D03*
G04 #@! TO.P,SW2,4*
G04 #@! TO.N,Net-(SW2-Pad1)*
X177800000Y-106170000D03*
G04 #@! TO.P,SW2,5*
G04 #@! TO.N,Net-(Q2-Pad3)*
X180300000Y-106170000D03*
G04 #@! TO.P,SW2,6*
G04 #@! TO.N,Net-(C7-Pad2)*
X182800000Y-106170000D03*
G04 #@! TD*
D13*
G04 #@! TO.P,Q3,1*
G04 #@! TO.N,+9V*
X208280000Y-118110000D03*
D14*
G04 #@! TO.P,Q3,3*
G04 #@! TO.N,Net-(Q3-Pad3)*
X203200000Y-118110000D03*
G04 #@! TO.P,Q3,2*
G04 #@! TO.N,Net-(C5-Pad1)*
X205740000Y-118110000D03*
G04 #@! TD*
G04 #@! TO.P,Q4,2*
G04 #@! TO.N,Net-(C4-Pad1)*
X223520000Y-118110000D03*
G04 #@! TO.P,Q4,3*
G04 #@! TO.N,Net-(Q4-Pad3)*
X220980000Y-118110000D03*
D13*
G04 #@! TO.P,Q4,1*
G04 #@! TO.N,+9V*
X226060000Y-118110000D03*
G04 #@! TD*
D14*
G04 #@! TO.P,Q2,2*
G04 #@! TO.N,Net-(C3-Pad1)*
X187960000Y-118110000D03*
G04 #@! TO.P,Q2,3*
G04 #@! TO.N,Net-(Q2-Pad3)*
X185420000Y-118110000D03*
D13*
G04 #@! TO.P,Q2,1*
G04 #@! TO.N,+9V*
X190500000Y-118110000D03*
G04 #@! TD*
D16*
G04 #@! TO.P,SW1,6*
G04 #@! TO.N,N/C*
X141652000Y-141984000D03*
G04 #@! TO.P,SW1,5*
X139152000Y-141984000D03*
G04 #@! TO.P,SW1,4*
X136652000Y-141984000D03*
G04 #@! TO.P,SW1,3*
G04 #@! TO.N,+9V*
X141652000Y-138684000D03*
G04 #@! TO.P,SW1,2*
G04 #@! TO.N,Net-(D2-Pad1)*
X139152000Y-138684000D03*
D15*
G04 #@! TO.P,SW1,1*
G04 #@! TO.N,Net-(SW1-Pad1)*
X136652000Y-138684000D03*
G04 #@! TD*
D17*
G04 #@! TO.P,D2,2*
G04 #@! TO.N,GND*
X147828000Y-121920000D03*
D18*
G04 #@! TO.P,D2,1*
G04 #@! TO.N,Net-(D2-Pad1)*
X147828000Y-132080000D03*
G04 #@! TD*
D19*
G04 #@! TO.P,C2,2*
G04 #@! TO.N,Net-(C2-Pad2)*
X171450000Y-126960000D03*
D20*
G04 #@! TO.P,C2,1*
G04 #@! TO.N,Net-(C2-Pad1)*
X171450000Y-124460000D03*
G04 #@! TD*
G04 #@! TO.P,C3,1*
G04 #@! TO.N,Net-(C3-Pad1)*
X187960000Y-124460000D03*
D19*
G04 #@! TO.P,C3,2*
G04 #@! TO.N,Net-(C3-Pad2)*
X187960000Y-126960000D03*
G04 #@! TD*
G04 #@! TO.P,C4,2*
G04 #@! TO.N,Net-(C4-Pad2)*
X223520000Y-126960000D03*
D20*
G04 #@! TO.P,C4,1*
G04 #@! TO.N,Net-(C4-Pad1)*
X223520000Y-124460000D03*
G04 #@! TD*
D19*
G04 #@! TO.P,C5,2*
G04 #@! TO.N,Net-(C5-Pad2)*
X205740000Y-126960000D03*
D20*
G04 #@! TO.P,C5,1*
G04 #@! TO.N,Net-(C5-Pad1)*
X205740000Y-124460000D03*
G04 #@! TD*
D11*
G04 #@! TO.P,J1,1*
G04 #@! TO.N,Net-(J1-Pad1)*
X170688000Y-140716000D03*
D10*
G04 #@! TO.P,J1,2*
G04 #@! TO.N,Net-(C2-Pad2)*
X166878000Y-140716000D03*
G04 #@! TO.P,J1,3*
G04 #@! TO.N,GND*
X163068000Y-140716000D03*
G04 #@! TD*
D11*
G04 #@! TO.P,J2,1*
G04 #@! TO.N,Net-(J2-Pad1)*
X177800000Y-140716000D03*
D10*
G04 #@! TO.P,J2,2*
G04 #@! TO.N,Net-(C3-Pad2)*
X181610000Y-140716000D03*
G04 #@! TO.P,J2,3*
G04 #@! TO.N,GND*
X185420000Y-140716000D03*
G04 #@! TD*
D11*
G04 #@! TO.P,J3,1*
G04 #@! TO.N,Net-(J3-Pad1)*
X195580000Y-140716000D03*
D10*
G04 #@! TO.P,J3,2*
G04 #@! TO.N,Net-(C5-Pad2)*
X199390000Y-140716000D03*
G04 #@! TO.P,J3,3*
G04 #@! TO.N,GND*
X203200000Y-140716000D03*
G04 #@! TD*
G04 #@! TO.P,J4,3*
G04 #@! TO.N,GND*
X220980000Y-140716000D03*
G04 #@! TO.P,J4,2*
G04 #@! TO.N,Net-(C4-Pad2)*
X217170000Y-140716000D03*
D11*
G04 #@! TO.P,J4,1*
G04 #@! TO.N,Net-(J4-Pad1)*
X213360000Y-140716000D03*
G04 #@! TD*
D10*
G04 #@! TO.P,J6,3*
G04 #@! TO.N,N/C*
X156210000Y-140716000D03*
G04 #@! TO.P,J6,2*
G04 #@! TO.N,Net-(D2-Pad1)*
X152400000Y-140716000D03*
D11*
G04 #@! TO.P,J6,1*
G04 #@! TO.N,+9V*
X148590000Y-140716000D03*
G04 #@! TD*
D21*
G04 #@! TO.P,R1,2*
G04 #@! TO.N,GND*
X135636000Y-126492000D03*
D19*
G04 #@! TO.P,R1,1*
G04 #@! TO.N,Net-(C1-Pad2)*
X135636000Y-118872000D03*
G04 #@! TD*
G04 #@! TO.P,R3,1*
G04 #@! TO.N,Net-(C1-Pad1)*
X175895000Y-113665000D03*
D21*
G04 #@! TO.P,R3,2*
G04 #@! TO.N,GND*
X183515000Y-113665000D03*
G04 #@! TD*
G04 #@! TO.P,R4,2*
G04 #@! TO.N,GND*
X158750000Y-121920000D03*
D19*
G04 #@! TO.P,R4,1*
G04 #@! TO.N,Net-(C2-Pad1)*
X166370000Y-121920000D03*
G04 #@! TD*
G04 #@! TO.P,R5,1*
G04 #@! TO.N,Net-(C2-Pad2)*
X166370000Y-127000000D03*
D21*
G04 #@! TO.P,R5,2*
G04 #@! TO.N,GND*
X158750000Y-127000000D03*
G04 #@! TD*
D19*
G04 #@! TO.P,R6,1*
G04 #@! TO.N,Net-(C3-Pad1)*
X184150000Y-122555000D03*
D21*
G04 #@! TO.P,R6,2*
G04 #@! TO.N,GND*
X176530000Y-122555000D03*
G04 #@! TD*
G04 #@! TO.P,R7,2*
G04 #@! TO.N,GND*
X176530000Y-127000000D03*
D19*
G04 #@! TO.P,R7,1*
G04 #@! TO.N,Net-(C3-Pad2)*
X184150000Y-127000000D03*
G04 #@! TD*
D21*
G04 #@! TO.P,R8,2*
G04 #@! TO.N,GND*
X212090000Y-121920000D03*
D19*
G04 #@! TO.P,R8,1*
G04 #@! TO.N,Net-(C4-Pad1)*
X219710000Y-121920000D03*
G04 #@! TD*
D21*
G04 #@! TO.P,R9,2*
G04 #@! TO.N,GND*
X194310000Y-121920000D03*
D19*
G04 #@! TO.P,R9,1*
G04 #@! TO.N,Net-(C5-Pad1)*
X201930000Y-121920000D03*
G04 #@! TD*
G04 #@! TO.P,R10,1*
G04 #@! TO.N,Net-(C4-Pad2)*
X219710000Y-127000000D03*
D21*
G04 #@! TO.P,R10,2*
G04 #@! TO.N,GND*
X212090000Y-127000000D03*
G04 #@! TD*
D19*
G04 #@! TO.P,R11,1*
G04 #@! TO.N,Net-(C5-Pad2)*
X201930000Y-127000000D03*
D21*
G04 #@! TO.P,R11,2*
G04 #@! TO.N,GND*
X194310000Y-127000000D03*
G04 #@! TD*
D19*
G04 #@! TO.P,R12,1*
G04 #@! TO.N,GND*
X137160000Y-112268000D03*
D21*
G04 #@! TO.P,R12,2*
G04 #@! TO.N,Net-(J5-Pad1)*
X129540000Y-112268000D03*
G04 #@! TD*
G04 #@! TO.P,R13,2*
G04 #@! TO.N,Net-(D1-Pad2)*
X153416000Y-129032000D03*
D19*
G04 #@! TO.P,R13,1*
G04 #@! TO.N,+9V*
X153416000Y-121412000D03*
G04 #@! TD*
G04 #@! TO.P,R2,1*
G04 #@! TO.N,+9V*
X166370000Y-116840000D03*
D21*
G04 #@! TO.P,R2,2*
G04 #@! TO.N,Net-(C1-Pad1)*
X158750000Y-116840000D03*
G04 #@! TD*
D11*
G04 #@! TO.P,J7,1*
G04 #@! TO.N,+9V*
X160655000Y-103505000D03*
D10*
G04 #@! TO.P,J7,2*
G04 #@! TO.N,GND*
X164465000Y-103505000D03*
G04 #@! TD*
D12*
G04 #@! TO.P,J8,1*
G04 #@! TO.N,N/C*
X129540000Y-103505000D03*
G04 #@! TD*
G04 #@! TO.P,J9,1*
G04 #@! TO.N,N/C*
X226060000Y-103505000D03*
G04 #@! TD*
D19*
G04 #@! TO.P,C6,2*
G04 #@! TO.N,+9V*
X161330000Y-109220000D03*
D20*
G04 #@! TO.P,C6,1*
G04 #@! TO.N,GND*
X163830000Y-109220000D03*
G04 #@! TD*
D19*
G04 #@! TO.P,R14,1*
G04 #@! TO.N,Net-(C7-Pad2)*
X184150000Y-109220000D03*
D21*
G04 #@! TO.P,R14,2*
G04 #@! TO.N,GND*
X176530000Y-109220000D03*
G04 #@! TD*
G04 #@! TO.P,R15,2*
G04 #@! TO.N,GND*
X212090000Y-109855000D03*
D19*
G04 #@! TO.P,R15,1*
G04 #@! TO.N,Net-(C8-Pad2)*
X219710000Y-109855000D03*
G04 #@! TD*
G04 #@! TO.P,R16,1*
G04 #@! TO.N,Net-(C9-Pad2)*
X201930000Y-109855000D03*
D21*
G04 #@! TO.P,R16,2*
G04 #@! TO.N,GND*
X194310000Y-109855000D03*
G04 #@! TD*
D15*
G04 #@! TO.P,SW3,1*
G04 #@! TO.N,Net-(SW3-Pad1)*
X195580000Y-102870000D03*
D16*
G04 #@! TO.P,SW3,2*
G04 #@! TO.N,Net-(K2-Pad6)*
X198080000Y-102870000D03*
G04 #@! TO.P,SW3,3*
G04 #@! TO.N,Net-(C9-Pad1)*
X200580000Y-102870000D03*
G04 #@! TO.P,SW3,4*
G04 #@! TO.N,Net-(SW3-Pad1)*
X195580000Y-106170000D03*
G04 #@! TO.P,SW3,5*
G04 #@! TO.N,Net-(Q3-Pad3)*
X198080000Y-106170000D03*
G04 #@! TO.P,SW3,6*
G04 #@! TO.N,Net-(C9-Pad2)*
X200580000Y-106170000D03*
G04 #@! TD*
G04 #@! TO.P,SW4,6*
G04 #@! TO.N,Net-(C8-Pad2)*
X218360000Y-106170000D03*
G04 #@! TO.P,SW4,5*
G04 #@! TO.N,Net-(Q4-Pad3)*
X215860000Y-106170000D03*
G04 #@! TO.P,SW4,4*
G04 #@! TO.N,Net-(SW4-Pad1)*
X213360000Y-106170000D03*
G04 #@! TO.P,SW4,3*
G04 #@! TO.N,Net-(C8-Pad1)*
X218360000Y-102870000D03*
G04 #@! TO.P,SW4,2*
G04 #@! TO.N,Net-(K2-Pad6)*
X215860000Y-102870000D03*
D15*
G04 #@! TO.P,SW4,1*
G04 #@! TO.N,Net-(SW4-Pad1)*
X213360000Y-102870000D03*
G04 #@! TD*
D19*
G04 #@! TO.P,C1,1*
G04 #@! TO.N,Net-(C1-Pad1)*
X143256000Y-118872000D03*
G04 #@! TO.P,C1,2*
G04 #@! TO.N,Net-(C1-Pad2)*
X140756000Y-118872000D03*
G04 #@! TD*
D22*
G04 #@! TO.P,K2,8*
G04 #@! TO.N,GND*
X162072000Y-131064000D03*
G04 #@! TO.P,K2,7*
G04 #@! TO.N,Net-(C1-Pad1)*
X165072000Y-131064000D03*
G04 #@! TO.P,K2,6*
G04 #@! TO.N,Net-(K2-Pad6)*
X167472000Y-131064000D03*
G04 #@! TO.P,K2,5*
G04 #@! TO.N,GND*
X169672000Y-131064000D03*
G04 #@! TO.P,K2,4*
G04 #@! TO.N,Net-(D1-Pad1)*
X169672000Y-136144000D03*
G04 #@! TO.P,K2,3*
G04 #@! TO.N,GND*
X167472000Y-136144000D03*
G04 #@! TO.P,K2,2*
G04 #@! TO.N,Net-(K2-Pad2)*
X165072000Y-136144000D03*
D23*
G04 #@! TO.P,K2,1*
G04 #@! TO.N,Net-(D2-Pad1)*
X162072000Y-136144000D03*
G04 #@! TD*
D20*
G04 #@! TO.P,C7,1*
G04 #@! TO.N,Net-(C7-Pad1)*
X188976000Y-103672000D03*
D19*
G04 #@! TO.P,C7,2*
G04 #@! TO.N,Net-(C7-Pad2)*
X188976000Y-106172000D03*
G04 #@! TD*
D20*
G04 #@! TO.P,C8,1*
G04 #@! TO.N,Net-(C8-Pad1)*
X224790000Y-108204000D03*
D19*
G04 #@! TO.P,C8,2*
G04 #@! TO.N,Net-(C8-Pad2)*
X224790000Y-110704000D03*
G04 #@! TD*
G04 #@! TO.P,C9,2*
G04 #@! TO.N,Net-(C9-Pad2)*
X206756000Y-106132000D03*
D20*
G04 #@! TO.P,C9,1*
G04 #@! TO.N,Net-(C9-Pad1)*
X206756000Y-103632000D03*
G04 #@! TD*
D24*
G04 #@! TO.P,K1,10*
G04 #@! TO.N,Net-(C3-Pad2)*
X176784000Y-131064000D03*
G04 #@! TO.P,K1,9*
G04 #@! TO.N,GND*
X179324000Y-131064000D03*
D25*
G04 #@! TO.P,K1,1*
G04 #@! TO.N,Net-(K1-Pad1)*
X176784000Y-136144000D03*
D24*
G04 #@! TO.P,K1,2*
G04 #@! TO.N,Net-(D2-Pad1)*
X179324000Y-136144000D03*
G04 #@! TO.P,K1,6*
G04 #@! TO.N,GND*
X186944000Y-131064000D03*
G04 #@! TO.P,K1,5*
X186944000Y-136144000D03*
G04 #@! TD*
G04 #@! TO.P,K3,10*
G04 #@! TO.N,Net-(C5-Pad2)*
X194564000Y-131064000D03*
G04 #@! TO.P,K3,9*
G04 #@! TO.N,GND*
X197104000Y-131064000D03*
D25*
G04 #@! TO.P,K3,1*
G04 #@! TO.N,Net-(K3-Pad1)*
X194564000Y-136144000D03*
D24*
G04 #@! TO.P,K3,2*
G04 #@! TO.N,Net-(D2-Pad1)*
X197104000Y-136144000D03*
G04 #@! TO.P,K3,6*
G04 #@! TO.N,GND*
X204724000Y-131064000D03*
G04 #@! TO.P,K3,5*
X204724000Y-136144000D03*
G04 #@! TD*
G04 #@! TO.P,K4,5*
G04 #@! TO.N,GND*
X222504000Y-136144000D03*
G04 #@! TO.P,K4,6*
X222504000Y-131064000D03*
G04 #@! TO.P,K4,2*
G04 #@! TO.N,Net-(D2-Pad1)*
X214884000Y-136144000D03*
D25*
G04 #@! TO.P,K4,1*
G04 #@! TO.N,Net-(K4-Pad1)*
X212344000Y-136144000D03*
D24*
G04 #@! TO.P,K4,9*
G04 #@! TO.N,GND*
X214884000Y-131064000D03*
G04 #@! TO.P,K4,10*
G04 #@! TO.N,Net-(C4-Pad2)*
X212344000Y-131064000D03*
G04 #@! TD*
G04 #@! TO.P,D1,2*
G04 #@! TO.N,Net-(D1-Pad2)*
X156464000Y-131572000D03*
D25*
G04 #@! TO.P,D1,1*
G04 #@! TO.N,Net-(D1-Pad1)*
X159004000Y-131572000D03*
G04 #@! TD*
D26*
G04 #@! TO.N,Net-(C1-Pad2)*
X140756000Y-118872000D02*
X135636000Y-118872000D01*
X133325869Y-121182131D02*
X134836001Y-119671999D01*
X131039869Y-121182131D02*
X133325869Y-121182131D01*
X134836001Y-119671999D02*
X135636000Y-118872000D01*
X129540000Y-122682000D02*
X131039869Y-121182131D01*
G04 #@! TO.N,Net-(C1-Pad1)*
X168150001Y-118869999D02*
X168910000Y-118110000D01*
X160779999Y-118869999D02*
X168150001Y-118869999D01*
X158750000Y-116840000D02*
X160779999Y-118869999D01*
X173355000Y-113665000D02*
X175895000Y-113665000D01*
X168910000Y-118110000D02*
X173355000Y-113665000D01*
G04 #@! TO.N,Net-(C2-Pad2)*
X171410000Y-127000000D02*
X171450000Y-126960000D01*
X166370000Y-127000000D02*
X171410000Y-127000000D01*
X166370000Y-140208000D02*
X166878000Y-140716000D01*
G04 #@! TO.N,Net-(C2-Pad1)*
X167640000Y-121920000D02*
X166370000Y-121920000D01*
X171450000Y-118110000D02*
X167640000Y-121920000D01*
X168910000Y-124460000D02*
X166370000Y-121920000D01*
X171450000Y-124460000D02*
X168910000Y-124460000D01*
G04 #@! TO.N,Net-(C3-Pad1)*
X187960000Y-118110000D02*
X187960000Y-124460000D01*
X186055000Y-124460000D02*
X184150000Y-122555000D01*
X187960000Y-124460000D02*
X186055000Y-124460000D01*
G04 #@! TO.N,Net-(C3-Pad2)*
X184190000Y-126960000D02*
X184150000Y-127000000D01*
X187960000Y-126960000D02*
X184190000Y-126960000D01*
X179433787Y-127000000D02*
X176784000Y-129649787D01*
X176784000Y-129649787D02*
X176784000Y-131064000D01*
X184150000Y-127000000D02*
X179433787Y-127000000D01*
G04 #@! TO.N,Net-(C4-Pad1)*
X223520000Y-118110000D02*
X219710000Y-121920000D01*
X220980000Y-121920000D02*
X223520000Y-124460000D01*
X219710000Y-121920000D02*
X220980000Y-121920000D01*
G04 #@! TO.N,Net-(C4-Pad2)*
X219750000Y-126960000D02*
X219710000Y-127000000D01*
X223520000Y-126960000D02*
X219750000Y-126960000D01*
X212344000Y-129649787D02*
X212344000Y-131064000D01*
X214993787Y-127000000D02*
X212344000Y-129649787D01*
X219710000Y-127000000D02*
X214993787Y-127000000D01*
G04 #@! TO.N,Net-(C5-Pad2)*
X201970000Y-126960000D02*
X201930000Y-127000000D01*
X205740000Y-126960000D02*
X201970000Y-126960000D01*
X194564000Y-129649787D02*
X194564000Y-131064000D01*
X197213787Y-127000000D02*
X194564000Y-129649787D01*
X201930000Y-127000000D02*
X197213787Y-127000000D01*
G04 #@! TO.N,Net-(C5-Pad1)*
X204470000Y-124460000D02*
X201930000Y-121920000D01*
X205740000Y-124460000D02*
X204470000Y-124460000D01*
X201930000Y-121920000D02*
X205740000Y-118110000D01*
G04 #@! TO.N,Net-(D1-Pad2)*
X153924000Y-129032000D02*
X156464000Y-131572000D01*
X153416000Y-129032000D02*
X153924000Y-129032000D01*
G04 #@! TO.N,Net-(D2-Pad1)*
X179324000Y-134729787D02*
X179324000Y-136144000D01*
X179013212Y-134418999D02*
X179324000Y-134729787D01*
X162197001Y-134418999D02*
X179013212Y-134418999D01*
X162072000Y-134544000D02*
X162197001Y-134418999D01*
X162072000Y-136144000D02*
X162072000Y-134544000D01*
X197104000Y-134729787D02*
X197104000Y-136144000D01*
X195978213Y-133604000D02*
X197104000Y-134729787D01*
X181864000Y-133604000D02*
X195978213Y-133604000D01*
X179324000Y-136144000D02*
X181864000Y-133604000D01*
X214884000Y-134729787D02*
X214884000Y-136144000D01*
X214423212Y-134268999D02*
X214884000Y-134729787D01*
X198979001Y-134268999D02*
X214423212Y-134268999D01*
X197104000Y-136144000D02*
X198979001Y-134268999D01*
X145756000Y-132080000D02*
X147828000Y-132080000D01*
X139152000Y-138684000D02*
X145756000Y-132080000D01*
X152400000Y-138594864D02*
X152400000Y-140716000D01*
X152400000Y-134702000D02*
X152400000Y-138594864D01*
X149778000Y-132080000D02*
X152400000Y-134702000D01*
X147828000Y-132080000D02*
X149778000Y-132080000D01*
X156972000Y-136144000D02*
X162072000Y-136144000D01*
X152400000Y-140716000D02*
X156972000Y-136144000D01*
G04 #@! TO.N,Net-(J5-Pad1)*
X129540000Y-118872000D02*
X129540000Y-112268000D01*
G04 #@! TO.N,Net-(C7-Pad2)*
X182800000Y-107870000D02*
X184150000Y-109220000D01*
X182800000Y-106170000D02*
X182800000Y-107870000D01*
X185928000Y-109220000D02*
X188976000Y-106172000D01*
X184150000Y-109220000D02*
X185928000Y-109220000D01*
G04 #@! TO.N,Net-(C7-Pad1)*
X183602000Y-103672000D02*
X184404000Y-103672000D01*
X182800000Y-102870000D02*
X183602000Y-103672000D01*
X184404000Y-103672000D02*
X188976000Y-103672000D01*
G04 #@! TO.N,Net-(C8-Pad1)*
X224576000Y-107990000D02*
X224790000Y-108204000D01*
X224790000Y-106654000D02*
X224790000Y-108204000D01*
X221006000Y-102870000D02*
X224790000Y-106654000D01*
X218360000Y-102870000D02*
X221006000Y-102870000D01*
G04 #@! TO.N,Net-(C9-Pad1)*
X200580000Y-102870000D02*
X201342000Y-103632000D01*
X201342000Y-103632000D02*
X206756000Y-103632000D01*
G04 #@! TO.N,Net-(C9-Pad2)*
X200580000Y-108505000D02*
X201930000Y-109855000D01*
X200580000Y-106170000D02*
X200580000Y-108505000D01*
X203033000Y-109855000D02*
X206756000Y-106132000D01*
X201930000Y-109855000D02*
X203033000Y-109855000D01*
G04 #@! TD*
D27*
G04 #@! TO.N,GND*
G36*
X158556973Y-101757365D02*
X158507690Y-102005130D01*
X158507690Y-105004870D01*
X158556973Y-105252635D01*
X158697321Y-105462679D01*
X158907365Y-105603027D01*
X159155130Y-105652310D01*
X162154870Y-105652310D01*
X162402635Y-105603027D01*
X162612679Y-105462679D01*
X162753027Y-105252635D01*
X162799523Y-105018877D01*
X163130728Y-105018877D01*
X163290495Y-105337632D01*
X164081217Y-105647595D01*
X164930366Y-105631367D01*
X165639505Y-105337632D01*
X165799272Y-105018877D01*
X164465000Y-103684605D01*
X163130728Y-105018877D01*
X162799523Y-105018877D01*
X162802310Y-105004870D01*
X162802310Y-104764684D01*
X162951123Y-104839272D01*
X164285395Y-103505000D01*
X164644605Y-103505000D01*
X165978877Y-104839272D01*
X166297632Y-104679505D01*
X166607595Y-103888783D01*
X166591367Y-103039634D01*
X166297632Y-102330495D01*
X165978877Y-102170728D01*
X164644605Y-103505000D01*
X164285395Y-103505000D01*
X162951123Y-102170728D01*
X162802310Y-102245316D01*
X162802310Y-102005130D01*
X162753027Y-101757365D01*
X162648212Y-101600500D01*
X163464000Y-101600500D01*
X163290495Y-101672368D01*
X163130728Y-101991123D01*
X164465000Y-103325395D01*
X165799272Y-101991123D01*
X165639505Y-101672368D01*
X165456168Y-101600500D01*
X176809347Y-101600500D01*
X176642191Y-101712191D01*
X176501843Y-101922235D01*
X176452560Y-102170000D01*
X176452560Y-103570000D01*
X176501843Y-103817765D01*
X176642191Y-104027809D01*
X176852235Y-104168157D01*
X177100000Y-104217440D01*
X178500000Y-104217440D01*
X178747765Y-104168157D01*
X178957809Y-104027809D01*
X179098157Y-103817765D01*
X179146634Y-103574051D01*
X179168242Y-103626217D01*
X179543783Y-104001758D01*
X180034452Y-104205000D01*
X180565548Y-104205000D01*
X181056217Y-104001758D01*
X181431758Y-103626217D01*
X181550000Y-103340756D01*
X181668242Y-103626217D01*
X182043783Y-104001758D01*
X182534452Y-104205000D01*
X182706645Y-104205000D01*
X182817482Y-104315837D01*
X182873831Y-104400169D01*
X183207918Y-104623399D01*
X183502524Y-104682000D01*
X183502528Y-104682000D01*
X183601999Y-104701786D01*
X183701470Y-104682000D01*
X187570331Y-104682000D01*
X187577843Y-104719765D01*
X187718191Y-104929809D01*
X187928235Y-105070157D01*
X188028503Y-105090101D01*
X187759466Y-105359138D01*
X187541000Y-105886561D01*
X187541000Y-106178644D01*
X185509645Y-108210000D01*
X185169396Y-108210000D01*
X184962862Y-108003466D01*
X184435439Y-107785000D01*
X184143355Y-107785000D01*
X183810000Y-107451645D01*
X183810000Y-107047975D01*
X183931758Y-106926217D01*
X184135000Y-106435548D01*
X184135000Y-105904452D01*
X183931758Y-105413783D01*
X183556217Y-105038242D01*
X183065548Y-104835000D01*
X182534452Y-104835000D01*
X182043783Y-105038242D01*
X181668242Y-105413783D01*
X181550000Y-105699244D01*
X181431758Y-105413783D01*
X181056217Y-105038242D01*
X180565548Y-104835000D01*
X180034452Y-104835000D01*
X179543783Y-105038242D01*
X179168242Y-105413783D01*
X179050000Y-105699244D01*
X178931758Y-105413783D01*
X178556217Y-105038242D01*
X178065548Y-104835000D01*
X177534452Y-104835000D01*
X177043783Y-105038242D01*
X176668242Y-105413783D01*
X176465000Y-105904452D01*
X176465000Y-106435548D01*
X176668242Y-106926217D01*
X177043783Y-107301758D01*
X177534452Y-107505000D01*
X178065548Y-107505000D01*
X178556217Y-107301758D01*
X178931758Y-106926217D01*
X179050000Y-106640756D01*
X179168242Y-106926217D01*
X179543783Y-107301758D01*
X180034452Y-107505000D01*
X180565548Y-107505000D01*
X181056217Y-107301758D01*
X181431758Y-106926217D01*
X181550000Y-106640756D01*
X181668242Y-106926217D01*
X181790001Y-107047976D01*
X181790001Y-107770525D01*
X181770214Y-107870000D01*
X181790001Y-107969476D01*
X181796762Y-108003466D01*
X181848602Y-108264082D01*
X182015482Y-108513837D01*
X182015485Y-108513840D01*
X182071832Y-108598169D01*
X182156161Y-108654516D01*
X182715000Y-109213355D01*
X182715000Y-109505439D01*
X182933466Y-110032862D01*
X183337138Y-110436534D01*
X183864561Y-110655000D01*
X184435439Y-110655000D01*
X184962862Y-110436534D01*
X185169396Y-110230000D01*
X185828529Y-110230000D01*
X185928000Y-110249786D01*
X186027471Y-110230000D01*
X186027476Y-110230000D01*
X186157990Y-110204039D01*
X192918096Y-110204039D01*
X193078959Y-110592423D01*
X193454866Y-111007389D01*
X193960959Y-111246914D01*
X194183000Y-111125629D01*
X194183000Y-109982000D01*
X194437000Y-109982000D01*
X194437000Y-111125629D01*
X194659041Y-111246914D01*
X195165134Y-111007389D01*
X195541041Y-110592423D01*
X195701904Y-110204039D01*
X195579915Y-109982000D01*
X194437000Y-109982000D01*
X194183000Y-109982000D01*
X193040085Y-109982000D01*
X192918096Y-110204039D01*
X186157990Y-110204039D01*
X186322082Y-110171399D01*
X186656169Y-109948169D01*
X186712518Y-109863837D01*
X187070394Y-109505961D01*
X192918096Y-109505961D01*
X193040085Y-109728000D01*
X194183000Y-109728000D01*
X194183000Y-108584371D01*
X194437000Y-108584371D01*
X194437000Y-109728000D01*
X195579915Y-109728000D01*
X195701904Y-109505961D01*
X195541041Y-109117577D01*
X195165134Y-108702611D01*
X194659041Y-108463086D01*
X194437000Y-108584371D01*
X194183000Y-108584371D01*
X193960959Y-108463086D01*
X193454866Y-108702611D01*
X193078959Y-109117577D01*
X192918096Y-109505961D01*
X187070394Y-109505961D01*
X188969356Y-107607000D01*
X189261439Y-107607000D01*
X189788862Y-107388534D01*
X190192534Y-106984862D01*
X190411000Y-106457439D01*
X190411000Y-105886561D01*
X190192534Y-105359138D01*
X189923497Y-105090101D01*
X190023765Y-105070157D01*
X190233809Y-104929809D01*
X190374157Y-104719765D01*
X190423440Y-104472000D01*
X190423440Y-102872000D01*
X190374157Y-102624235D01*
X190233809Y-102414191D01*
X190023765Y-102273843D01*
X189776000Y-102224560D01*
X188176000Y-102224560D01*
X187928235Y-102273843D01*
X187718191Y-102414191D01*
X187577843Y-102624235D01*
X187570331Y-102662000D01*
X184135000Y-102662000D01*
X184135000Y-102604452D01*
X183931758Y-102113783D01*
X183556217Y-101738242D01*
X183223679Y-101600500D01*
X194589347Y-101600500D01*
X194422191Y-101712191D01*
X194281843Y-101922235D01*
X194232560Y-102170000D01*
X194232560Y-103570000D01*
X194281843Y-103817765D01*
X194422191Y-104027809D01*
X194632235Y-104168157D01*
X194880000Y-104217440D01*
X196280000Y-104217440D01*
X196527765Y-104168157D01*
X196737809Y-104027809D01*
X196878157Y-103817765D01*
X196926634Y-103574051D01*
X196948242Y-103626217D01*
X197323783Y-104001758D01*
X197814452Y-104205000D01*
X198345548Y-104205000D01*
X198836217Y-104001758D01*
X199211758Y-103626217D01*
X199330000Y-103340756D01*
X199448242Y-103626217D01*
X199823783Y-104001758D01*
X200314452Y-104205000D01*
X200486644Y-104205000D01*
X200557484Y-104275840D01*
X200613831Y-104360169D01*
X200698160Y-104416516D01*
X200698162Y-104416518D01*
X200873105Y-104533411D01*
X200947918Y-104583399D01*
X201242524Y-104642000D01*
X201242529Y-104642000D01*
X201342000Y-104661786D01*
X201441471Y-104642000D01*
X205350331Y-104642000D01*
X205357843Y-104679765D01*
X205498191Y-104889809D01*
X205708235Y-105030157D01*
X205808503Y-105050101D01*
X205539466Y-105319138D01*
X205321000Y-105846561D01*
X205321000Y-106138645D01*
X202782021Y-108677625D01*
X202742862Y-108638466D01*
X202215439Y-108420000D01*
X201923355Y-108420000D01*
X201590000Y-108086645D01*
X201590000Y-107047975D01*
X201711758Y-106926217D01*
X201915000Y-106435548D01*
X201915000Y-105904452D01*
X201711758Y-105413783D01*
X201336217Y-105038242D01*
X200845548Y-104835000D01*
X200314452Y-104835000D01*
X199823783Y-105038242D01*
X199448242Y-105413783D01*
X199330000Y-105699244D01*
X199211758Y-105413783D01*
X198836217Y-105038242D01*
X198345548Y-104835000D01*
X197814452Y-104835000D01*
X197323783Y-105038242D01*
X196948242Y-105413783D01*
X196830000Y-105699244D01*
X196711758Y-105413783D01*
X196336217Y-105038242D01*
X195845548Y-104835000D01*
X195314452Y-104835000D01*
X194823783Y-105038242D01*
X194448242Y-105413783D01*
X194245000Y-105904452D01*
X194245000Y-106435548D01*
X194448242Y-106926217D01*
X194823783Y-107301758D01*
X195314452Y-107505000D01*
X195845548Y-107505000D01*
X196336217Y-107301758D01*
X196711758Y-106926217D01*
X196830000Y-106640756D01*
X196948242Y-106926217D01*
X197323783Y-107301758D01*
X197814452Y-107505000D01*
X198345548Y-107505000D01*
X198836217Y-107301758D01*
X199211758Y-106926217D01*
X199330000Y-106640756D01*
X199448242Y-106926217D01*
X199570000Y-107047975D01*
X199570001Y-108405525D01*
X199550214Y-108505000D01*
X199628602Y-108899082D01*
X199795482Y-109148837D01*
X199795485Y-109148840D01*
X199851832Y-109233169D01*
X199936161Y-109289516D01*
X200495000Y-109848355D01*
X200495000Y-110140439D01*
X200713466Y-110667862D01*
X201117138Y-111071534D01*
X201644561Y-111290000D01*
X202215439Y-111290000D01*
X202742862Y-111071534D01*
X202946764Y-110867632D01*
X203033000Y-110884786D01*
X203132471Y-110865000D01*
X203132476Y-110865000D01*
X203427082Y-110806399D01*
X203761169Y-110583169D01*
X203817518Y-110498837D01*
X204112316Y-110204039D01*
X210698096Y-110204039D01*
X210858959Y-110592423D01*
X211234866Y-111007389D01*
X211740959Y-111246914D01*
X211963000Y-111125629D01*
X211963000Y-109982000D01*
X212217000Y-109982000D01*
X212217000Y-111125629D01*
X212439041Y-111246914D01*
X212945134Y-111007389D01*
X213321041Y-110592423D01*
X213481904Y-110204039D01*
X213359915Y-109982000D01*
X212217000Y-109982000D01*
X211963000Y-109982000D01*
X210820085Y-109982000D01*
X210698096Y-110204039D01*
X204112316Y-110204039D01*
X204810394Y-109505961D01*
X210698096Y-109505961D01*
X210820085Y-109728000D01*
X211963000Y-109728000D01*
X211963000Y-108584371D01*
X212217000Y-108584371D01*
X212217000Y-109728000D01*
X213359915Y-109728000D01*
X213446961Y-109569561D01*
X218275000Y-109569561D01*
X218275000Y-110140439D01*
X218493466Y-110667862D01*
X218897138Y-111071534D01*
X219424561Y-111290000D01*
X219995439Y-111290000D01*
X220522862Y-111071534D01*
X220926534Y-110667862D01*
X221145000Y-110140439D01*
X221145000Y-109569561D01*
X220926534Y-109042138D01*
X220522862Y-108638466D01*
X219995439Y-108420000D01*
X219424561Y-108420000D01*
X218897138Y-108638466D01*
X218493466Y-109042138D01*
X218275000Y-109569561D01*
X213446961Y-109569561D01*
X213481904Y-109505961D01*
X213321041Y-109117577D01*
X212945134Y-108702611D01*
X212439041Y-108463086D01*
X212217000Y-108584371D01*
X211963000Y-108584371D01*
X211740959Y-108463086D01*
X211234866Y-108702611D01*
X210858959Y-109117577D01*
X210698096Y-109505961D01*
X204810394Y-109505961D01*
X206749355Y-107567000D01*
X207041439Y-107567000D01*
X207568862Y-107348534D01*
X207972534Y-106944862D01*
X208191000Y-106417439D01*
X208191000Y-105904452D01*
X212025000Y-105904452D01*
X212025000Y-106435548D01*
X212228242Y-106926217D01*
X212603783Y-107301758D01*
X213094452Y-107505000D01*
X213625548Y-107505000D01*
X214116217Y-107301758D01*
X214491758Y-106926217D01*
X214610000Y-106640756D01*
X214728242Y-106926217D01*
X215103783Y-107301758D01*
X215594452Y-107505000D01*
X216125548Y-107505000D01*
X216616217Y-107301758D01*
X216991758Y-106926217D01*
X217110000Y-106640756D01*
X217228242Y-106926217D01*
X217603783Y-107301758D01*
X218094452Y-107505000D01*
X218625548Y-107505000D01*
X219116217Y-107301758D01*
X219491758Y-106926217D01*
X219695000Y-106435548D01*
X219695000Y-105904452D01*
X219491758Y-105413783D01*
X219116217Y-105038242D01*
X218625548Y-104835000D01*
X218094452Y-104835000D01*
X217603783Y-105038242D01*
X217228242Y-105413783D01*
X217110000Y-105699244D01*
X216991758Y-105413783D01*
X216616217Y-105038242D01*
X216125548Y-104835000D01*
X215594452Y-104835000D01*
X215103783Y-105038242D01*
X214728242Y-105413783D01*
X214610000Y-105699244D01*
X214491758Y-105413783D01*
X214116217Y-105038242D01*
X213625548Y-104835000D01*
X213094452Y-104835000D01*
X212603783Y-105038242D01*
X212228242Y-105413783D01*
X212025000Y-105904452D01*
X208191000Y-105904452D01*
X208191000Y-105846561D01*
X207972534Y-105319138D01*
X207703497Y-105050101D01*
X207803765Y-105030157D01*
X208013809Y-104889809D01*
X208154157Y-104679765D01*
X208203440Y-104432000D01*
X208203440Y-102832000D01*
X208154157Y-102584235D01*
X208013809Y-102374191D01*
X207803765Y-102233843D01*
X207556000Y-102184560D01*
X205956000Y-102184560D01*
X205708235Y-102233843D01*
X205498191Y-102374191D01*
X205357843Y-102584235D01*
X205350331Y-102622000D01*
X201915000Y-102622000D01*
X201915000Y-102604452D01*
X201711758Y-102113783D01*
X201336217Y-101738242D01*
X201003679Y-101600500D01*
X212369347Y-101600500D01*
X212202191Y-101712191D01*
X212061843Y-101922235D01*
X212012560Y-102170000D01*
X212012560Y-103570000D01*
X212061843Y-103817765D01*
X212202191Y-104027809D01*
X212412235Y-104168157D01*
X212660000Y-104217440D01*
X214060000Y-104217440D01*
X214307765Y-104168157D01*
X214517809Y-104027809D01*
X214658157Y-103817765D01*
X214706634Y-103574051D01*
X214728242Y-103626217D01*
X215103783Y-104001758D01*
X215594452Y-104205000D01*
X216125548Y-104205000D01*
X216616217Y-104001758D01*
X216991758Y-103626217D01*
X217110000Y-103340756D01*
X217228242Y-103626217D01*
X217603783Y-104001758D01*
X218094452Y-104205000D01*
X218625548Y-104205000D01*
X219116217Y-104001758D01*
X219237975Y-103880000D01*
X220587645Y-103880000D01*
X223605112Y-106897467D01*
X223532191Y-106946191D01*
X223391843Y-107156235D01*
X223342560Y-107404000D01*
X223342560Y-109004000D01*
X223391843Y-109251765D01*
X223532191Y-109461809D01*
X223742235Y-109602157D01*
X223842503Y-109622101D01*
X223573466Y-109891138D01*
X223355000Y-110418561D01*
X223355000Y-110989439D01*
X223573466Y-111516862D01*
X223977138Y-111920534D01*
X224504561Y-112139000D01*
X225075439Y-112139000D01*
X225602862Y-111920534D01*
X226006534Y-111516862D01*
X226225000Y-110989439D01*
X226225000Y-110418561D01*
X226006534Y-109891138D01*
X225737497Y-109622101D01*
X225837765Y-109602157D01*
X226047809Y-109461809D01*
X226188157Y-109251765D01*
X226237440Y-109004000D01*
X226237440Y-107404000D01*
X226188157Y-107156235D01*
X226047809Y-106946191D01*
X225837765Y-106805843D01*
X225800000Y-106798331D01*
X225800000Y-106753470D01*
X225819786Y-106653999D01*
X225800000Y-106554528D01*
X225800000Y-106554524D01*
X225757328Y-106340000D01*
X226623917Y-106340000D01*
X227665899Y-105908397D01*
X227964501Y-105609795D01*
X227964501Y-109157409D01*
X227964500Y-139119204D01*
X227665899Y-138820603D01*
X226623917Y-138389000D01*
X225496083Y-138389000D01*
X224454101Y-138820603D01*
X223656603Y-139618101D01*
X223225000Y-140660083D01*
X223225000Y-141787917D01*
X223656603Y-142829899D01*
X223955204Y-143128500D01*
X142377455Y-143128500D01*
X142408217Y-143115758D01*
X142783758Y-142740217D01*
X142987000Y-142249548D01*
X142987000Y-141718452D01*
X142783758Y-141227783D01*
X142408217Y-140852242D01*
X141917548Y-140649000D01*
X141386452Y-140649000D01*
X140895783Y-140852242D01*
X140520242Y-141227783D01*
X140402000Y-141513244D01*
X140283758Y-141227783D01*
X139908217Y-140852242D01*
X139417548Y-140649000D01*
X138886452Y-140649000D01*
X138395783Y-140852242D01*
X138020242Y-141227783D01*
X137902000Y-141513244D01*
X137783758Y-141227783D01*
X137408217Y-140852242D01*
X136917548Y-140649000D01*
X136386452Y-140649000D01*
X135895783Y-140852242D01*
X135520242Y-141227783D01*
X135317000Y-141718452D01*
X135317000Y-142249548D01*
X135520242Y-142740217D01*
X135895783Y-143115758D01*
X135926545Y-143128500D01*
X131644796Y-143128500D01*
X131943397Y-142829899D01*
X132375000Y-141787917D01*
X132375000Y-140660083D01*
X131943397Y-139618101D01*
X131145899Y-138820603D01*
X130103917Y-138389000D01*
X128976083Y-138389000D01*
X127934101Y-138820603D01*
X127635500Y-139119204D01*
X127635500Y-137984000D01*
X135304560Y-137984000D01*
X135304560Y-139384000D01*
X135353843Y-139631765D01*
X135494191Y-139841809D01*
X135704235Y-139982157D01*
X135952000Y-140031440D01*
X137352000Y-140031440D01*
X137599765Y-139982157D01*
X137809809Y-139841809D01*
X137950157Y-139631765D01*
X137998634Y-139388051D01*
X138020242Y-139440217D01*
X138395783Y-139815758D01*
X138886452Y-140019000D01*
X139417548Y-140019000D01*
X139908217Y-139815758D01*
X140283758Y-139440217D01*
X140402000Y-139154756D01*
X140520242Y-139440217D01*
X140895783Y-139815758D01*
X141386452Y-140019000D01*
X141917548Y-140019000D01*
X142408217Y-139815758D01*
X142783758Y-139440217D01*
X142987000Y-138949548D01*
X142987000Y-138418452D01*
X142783758Y-137927783D01*
X142408217Y-137552242D01*
X141917548Y-137349000D01*
X141915355Y-137349000D01*
X145981190Y-133283165D01*
X146029843Y-133527765D01*
X146170191Y-133737809D01*
X146380235Y-133878157D01*
X146628000Y-133927440D01*
X149028000Y-133927440D01*
X149275765Y-133878157D01*
X149485809Y-133737809D01*
X149626157Y-133527765D01*
X149654569Y-133384925D01*
X151390000Y-135120356D01*
X151390001Y-138495384D01*
X151390000Y-138495389D01*
X151390000Y-138823588D01*
X151190693Y-138906144D01*
X150737310Y-139359527D01*
X150737310Y-139216130D01*
X150688027Y-138968365D01*
X150547679Y-138758321D01*
X150337635Y-138617973D01*
X150089870Y-138568690D01*
X147090130Y-138568690D01*
X146842365Y-138617973D01*
X146632321Y-138758321D01*
X146491973Y-138968365D01*
X146442690Y-139216130D01*
X146442690Y-142215870D01*
X146491973Y-142463635D01*
X146632321Y-142673679D01*
X146842365Y-142814027D01*
X147090130Y-142863310D01*
X150089870Y-142863310D01*
X150337635Y-142814027D01*
X150547679Y-142673679D01*
X150688027Y-142463635D01*
X150737310Y-142215870D01*
X150737310Y-142072473D01*
X151190693Y-142525856D01*
X151975348Y-142850870D01*
X152824652Y-142850870D01*
X153609307Y-142525856D01*
X154209856Y-141925307D01*
X154305000Y-141695609D01*
X154400144Y-141925307D01*
X155000693Y-142525856D01*
X155785348Y-142850870D01*
X156634652Y-142850870D01*
X157419307Y-142525856D01*
X157715286Y-142229877D01*
X161733728Y-142229877D01*
X161893495Y-142548632D01*
X162684217Y-142858595D01*
X163533366Y-142842367D01*
X164242505Y-142548632D01*
X164402272Y-142229877D01*
X163068000Y-140895605D01*
X161733728Y-142229877D01*
X157715286Y-142229877D01*
X158019856Y-141925307D01*
X158344870Y-141140652D01*
X158344870Y-140332217D01*
X160925405Y-140332217D01*
X160941633Y-141181366D01*
X161235368Y-141890505D01*
X161554123Y-142050272D01*
X162888395Y-140716000D01*
X163247605Y-140716000D01*
X164581877Y-142050272D01*
X164900632Y-141890505D01*
X164975071Y-141700609D01*
X165068144Y-141925307D01*
X165668693Y-142525856D01*
X166453348Y-142850870D01*
X167302652Y-142850870D01*
X168087307Y-142525856D01*
X168540690Y-142072473D01*
X168540690Y-142215870D01*
X168589973Y-142463635D01*
X168730321Y-142673679D01*
X168940365Y-142814027D01*
X169188130Y-142863310D01*
X172187870Y-142863310D01*
X172435635Y-142814027D01*
X172645679Y-142673679D01*
X172786027Y-142463635D01*
X172835310Y-142215870D01*
X172835310Y-139216130D01*
X175652690Y-139216130D01*
X175652690Y-142215870D01*
X175701973Y-142463635D01*
X175842321Y-142673679D01*
X176052365Y-142814027D01*
X176300130Y-142863310D01*
X179299870Y-142863310D01*
X179547635Y-142814027D01*
X179757679Y-142673679D01*
X179898027Y-142463635D01*
X179947310Y-142215870D01*
X179947310Y-142072473D01*
X180400693Y-142525856D01*
X181185348Y-142850870D01*
X182034652Y-142850870D01*
X182819307Y-142525856D01*
X183115286Y-142229877D01*
X184085728Y-142229877D01*
X184245495Y-142548632D01*
X185036217Y-142858595D01*
X185885366Y-142842367D01*
X186594505Y-142548632D01*
X186754272Y-142229877D01*
X185420000Y-140895605D01*
X184085728Y-142229877D01*
X183115286Y-142229877D01*
X183419856Y-141925307D01*
X183510820Y-141705701D01*
X183587368Y-141890505D01*
X183906123Y-142050272D01*
X185240395Y-140716000D01*
X185599605Y-140716000D01*
X186933877Y-142050272D01*
X187252632Y-141890505D01*
X187562595Y-141099783D01*
X187546367Y-140250634D01*
X187252632Y-139541495D01*
X186933877Y-139381728D01*
X185599605Y-140716000D01*
X185240395Y-140716000D01*
X183906123Y-139381728D01*
X183587368Y-139541495D01*
X183512929Y-139731391D01*
X183419856Y-139506693D01*
X183115286Y-139202123D01*
X184085728Y-139202123D01*
X185420000Y-140536395D01*
X186740265Y-139216130D01*
X193432690Y-139216130D01*
X193432690Y-142215870D01*
X193481973Y-142463635D01*
X193622321Y-142673679D01*
X193832365Y-142814027D01*
X194080130Y-142863310D01*
X197079870Y-142863310D01*
X197327635Y-142814027D01*
X197537679Y-142673679D01*
X197678027Y-142463635D01*
X197727310Y-142215870D01*
X197727310Y-142072473D01*
X198180693Y-142525856D01*
X198965348Y-142850870D01*
X199814652Y-142850870D01*
X200599307Y-142525856D01*
X200895286Y-142229877D01*
X201865728Y-142229877D01*
X202025495Y-142548632D01*
X202816217Y-142858595D01*
X203665366Y-142842367D01*
X204374505Y-142548632D01*
X204534272Y-142229877D01*
X203200000Y-140895605D01*
X201865728Y-142229877D01*
X200895286Y-142229877D01*
X201199856Y-141925307D01*
X201290820Y-141705701D01*
X201367368Y-141890505D01*
X201686123Y-142050272D01*
X203020395Y-140716000D01*
X203379605Y-140716000D01*
X204713877Y-142050272D01*
X205032632Y-141890505D01*
X205342595Y-141099783D01*
X205326367Y-140250634D01*
X205032632Y-139541495D01*
X204713877Y-139381728D01*
X203379605Y-140716000D01*
X203020395Y-140716000D01*
X201686123Y-139381728D01*
X201367368Y-139541495D01*
X201292929Y-139731391D01*
X201199856Y-139506693D01*
X200895286Y-139202123D01*
X201865728Y-139202123D01*
X203200000Y-140536395D01*
X204520265Y-139216130D01*
X211212690Y-139216130D01*
X211212690Y-142215870D01*
X211261973Y-142463635D01*
X211402321Y-142673679D01*
X211612365Y-142814027D01*
X211860130Y-142863310D01*
X214859870Y-142863310D01*
X215107635Y-142814027D01*
X215317679Y-142673679D01*
X215458027Y-142463635D01*
X215507310Y-142215870D01*
X215507310Y-142072473D01*
X215960693Y-142525856D01*
X216745348Y-142850870D01*
X217594652Y-142850870D01*
X218379307Y-142525856D01*
X218675286Y-142229877D01*
X219645728Y-142229877D01*
X219805495Y-142548632D01*
X220596217Y-142858595D01*
X221445366Y-142842367D01*
X222154505Y-142548632D01*
X222314272Y-142229877D01*
X220980000Y-140895605D01*
X219645728Y-142229877D01*
X218675286Y-142229877D01*
X218979856Y-141925307D01*
X219070820Y-141705701D01*
X219147368Y-141890505D01*
X219466123Y-142050272D01*
X220800395Y-140716000D01*
X221159605Y-140716000D01*
X222493877Y-142050272D01*
X222812632Y-141890505D01*
X223122595Y-141099783D01*
X223106367Y-140250634D01*
X222812632Y-139541495D01*
X222493877Y-139381728D01*
X221159605Y-140716000D01*
X220800395Y-140716000D01*
X219466123Y-139381728D01*
X219147368Y-139541495D01*
X219072929Y-139731391D01*
X218979856Y-139506693D01*
X218675286Y-139202123D01*
X219645728Y-139202123D01*
X220980000Y-140536395D01*
X222314272Y-139202123D01*
X222154505Y-138883368D01*
X221363783Y-138573405D01*
X220514634Y-138589633D01*
X219805495Y-138883368D01*
X219645728Y-139202123D01*
X218675286Y-139202123D01*
X218379307Y-138906144D01*
X217594652Y-138581130D01*
X216745348Y-138581130D01*
X215960693Y-138906144D01*
X215507310Y-139359527D01*
X215507310Y-139216130D01*
X215458027Y-138968365D01*
X215317679Y-138758321D01*
X215107635Y-138617973D01*
X214859870Y-138568690D01*
X211860130Y-138568690D01*
X211612365Y-138617973D01*
X211402321Y-138758321D01*
X211261973Y-138968365D01*
X211212690Y-139216130D01*
X204520265Y-139216130D01*
X204534272Y-139202123D01*
X204374505Y-138883368D01*
X203583783Y-138573405D01*
X202734634Y-138589633D01*
X202025495Y-138883368D01*
X201865728Y-139202123D01*
X200895286Y-139202123D01*
X200599307Y-138906144D01*
X199814652Y-138581130D01*
X198965348Y-138581130D01*
X198180693Y-138906144D01*
X197727310Y-139359527D01*
X197727310Y-139216130D01*
X197678027Y-138968365D01*
X197537679Y-138758321D01*
X197327635Y-138617973D01*
X197079870Y-138568690D01*
X194080130Y-138568690D01*
X193832365Y-138617973D01*
X193622321Y-138758321D01*
X193481973Y-138968365D01*
X193432690Y-139216130D01*
X186740265Y-139216130D01*
X186754272Y-139202123D01*
X186594505Y-138883368D01*
X185803783Y-138573405D01*
X184954634Y-138589633D01*
X184245495Y-138883368D01*
X184085728Y-139202123D01*
X183115286Y-139202123D01*
X182819307Y-138906144D01*
X182034652Y-138581130D01*
X181185348Y-138581130D01*
X180400693Y-138906144D01*
X179947310Y-139359527D01*
X179947310Y-139216130D01*
X179898027Y-138968365D01*
X179757679Y-138758321D01*
X179547635Y-138617973D01*
X179299870Y-138568690D01*
X176300130Y-138568690D01*
X176052365Y-138617973D01*
X175842321Y-138758321D01*
X175701973Y-138968365D01*
X175652690Y-139216130D01*
X172835310Y-139216130D01*
X172786027Y-138968365D01*
X172645679Y-138758321D01*
X172435635Y-138617973D01*
X172187870Y-138568690D01*
X169188130Y-138568690D01*
X168940365Y-138617973D01*
X168730321Y-138758321D01*
X168589973Y-138968365D01*
X168540690Y-139216130D01*
X168540690Y-139359527D01*
X168087307Y-138906144D01*
X167302652Y-138581130D01*
X166453348Y-138581130D01*
X165668693Y-138906144D01*
X165068144Y-139506693D01*
X164977180Y-139726299D01*
X164900632Y-139541495D01*
X164581877Y-139381728D01*
X163247605Y-140716000D01*
X162888395Y-140716000D01*
X161554123Y-139381728D01*
X161235368Y-139541495D01*
X160925405Y-140332217D01*
X158344870Y-140332217D01*
X158344870Y-140291348D01*
X158019856Y-139506693D01*
X157715286Y-139202123D01*
X161733728Y-139202123D01*
X163068000Y-140536395D01*
X164402272Y-139202123D01*
X164242505Y-138883368D01*
X163451783Y-138573405D01*
X162602634Y-138589633D01*
X161893495Y-138883368D01*
X161733728Y-139202123D01*
X157715286Y-139202123D01*
X157419307Y-138906144D01*
X156634652Y-138581130D01*
X155963225Y-138581130D01*
X157390355Y-137154000D01*
X160606386Y-137154000D01*
X160623843Y-137241765D01*
X160764191Y-137451809D01*
X160974235Y-137592157D01*
X161222000Y-137641440D01*
X162922000Y-137641440D01*
X163169765Y-137592157D01*
X163379809Y-137451809D01*
X163520157Y-137241765D01*
X163569440Y-136994000D01*
X163569440Y-135428999D01*
X163760811Y-135428999D01*
X163587000Y-135848615D01*
X163587000Y-136439385D01*
X163813078Y-136985185D01*
X164230815Y-137402922D01*
X164776615Y-137629000D01*
X165367385Y-137629000D01*
X165913185Y-137402922D01*
X166128149Y-137187958D01*
X166607647Y-137187958D01*
X166687920Y-137439259D01*
X167243279Y-137640718D01*
X167833458Y-137614315D01*
X168256080Y-137439259D01*
X168336353Y-137187958D01*
X167472000Y-136323605D01*
X166607647Y-137187958D01*
X166128149Y-137187958D01*
X166330922Y-136985185D01*
X166333795Y-136978248D01*
X166428042Y-137008353D01*
X167292395Y-136144000D01*
X167278253Y-136129858D01*
X167457858Y-135950253D01*
X167472000Y-135964395D01*
X167486143Y-135950253D01*
X167665748Y-136129858D01*
X167651605Y-136144000D01*
X168356713Y-136849108D01*
X168413078Y-136985185D01*
X168830815Y-137402922D01*
X169376615Y-137629000D01*
X169967385Y-137629000D01*
X170513185Y-137402922D01*
X170930922Y-136985185D01*
X171157000Y-136439385D01*
X171157000Y-135848615D01*
X170983189Y-135428999D01*
X175136560Y-135428999D01*
X175136560Y-137144000D01*
X175185843Y-137391765D01*
X175326191Y-137601809D01*
X175536235Y-137742157D01*
X175784000Y-137791440D01*
X177784000Y-137791440D01*
X178031765Y-137742157D01*
X178241809Y-137601809D01*
X178333038Y-137465277D01*
X178397847Y-137530086D01*
X178998778Y-137779000D01*
X179649222Y-137779000D01*
X180250153Y-137530086D01*
X180483707Y-137296532D01*
X185971073Y-137296532D01*
X186069736Y-137563387D01*
X186679461Y-137789908D01*
X187329460Y-137765856D01*
X187818264Y-137563387D01*
X187916927Y-137296532D01*
X186944000Y-136323605D01*
X185971073Y-137296532D01*
X180483707Y-137296532D01*
X180710086Y-137070153D01*
X180959000Y-136469222D01*
X180959000Y-135937355D01*
X181016894Y-135879461D01*
X185298092Y-135879461D01*
X185322144Y-136529460D01*
X185524613Y-137018264D01*
X185791468Y-137116927D01*
X186764395Y-136144000D01*
X187123605Y-136144000D01*
X188096532Y-137116927D01*
X188363387Y-137018264D01*
X188589908Y-136408539D01*
X188565856Y-135758540D01*
X188363387Y-135269736D01*
X188096532Y-135171073D01*
X187123605Y-136144000D01*
X186764395Y-136144000D01*
X185791468Y-135171073D01*
X185524613Y-135269736D01*
X185298092Y-135879461D01*
X181016894Y-135879461D01*
X182282356Y-134614000D01*
X186336780Y-134614000D01*
X186069736Y-134724613D01*
X185971073Y-134991468D01*
X186944000Y-135964395D01*
X187916927Y-134991468D01*
X187818264Y-134724613D01*
X187520528Y-134614000D01*
X193214232Y-134614000D01*
X193106191Y-134686191D01*
X192965843Y-134896235D01*
X192916560Y-135144000D01*
X192916560Y-137144000D01*
X192965843Y-137391765D01*
X193106191Y-137601809D01*
X193316235Y-137742157D01*
X193564000Y-137791440D01*
X195564000Y-137791440D01*
X195811765Y-137742157D01*
X196021809Y-137601809D01*
X196113038Y-137465277D01*
X196177847Y-137530086D01*
X196778778Y-137779000D01*
X197429222Y-137779000D01*
X198030153Y-137530086D01*
X198263707Y-137296532D01*
X203751073Y-137296532D01*
X203849736Y-137563387D01*
X204459461Y-137789908D01*
X205109460Y-137765856D01*
X205598264Y-137563387D01*
X205696927Y-137296532D01*
X204724000Y-136323605D01*
X203751073Y-137296532D01*
X198263707Y-137296532D01*
X198490086Y-137070153D01*
X198739000Y-136469222D01*
X198739000Y-135937355D01*
X199397357Y-135278999D01*
X203301172Y-135278999D01*
X203078092Y-135879461D01*
X203102144Y-136529460D01*
X203304613Y-137018264D01*
X203571468Y-137116927D01*
X204544395Y-136144000D01*
X204530253Y-136129858D01*
X204709858Y-135950253D01*
X204724000Y-135964395D01*
X204738143Y-135950253D01*
X204917748Y-136129858D01*
X204903605Y-136144000D01*
X205876532Y-137116927D01*
X206143387Y-137018264D01*
X206369908Y-136408539D01*
X206345856Y-135758540D01*
X206147224Y-135278999D01*
X210696560Y-135278999D01*
X210696560Y-137144000D01*
X210745843Y-137391765D01*
X210886191Y-137601809D01*
X211096235Y-137742157D01*
X211344000Y-137791440D01*
X213344000Y-137791440D01*
X213591765Y-137742157D01*
X213801809Y-137601809D01*
X213893038Y-137465277D01*
X213957847Y-137530086D01*
X214558778Y-137779000D01*
X215209222Y-137779000D01*
X215810153Y-137530086D01*
X216043707Y-137296532D01*
X221531073Y-137296532D01*
X221629736Y-137563387D01*
X222239461Y-137789908D01*
X222889460Y-137765856D01*
X223378264Y-137563387D01*
X223476927Y-137296532D01*
X222504000Y-136323605D01*
X221531073Y-137296532D01*
X216043707Y-137296532D01*
X216270086Y-137070153D01*
X216519000Y-136469222D01*
X216519000Y-135879461D01*
X220858092Y-135879461D01*
X220882144Y-136529460D01*
X221084613Y-137018264D01*
X221351468Y-137116927D01*
X222324395Y-136144000D01*
X222683605Y-136144000D01*
X223656532Y-137116927D01*
X223923387Y-137018264D01*
X224149908Y-136408539D01*
X224125856Y-135758540D01*
X223923387Y-135269736D01*
X223656532Y-135171073D01*
X222683605Y-136144000D01*
X222324395Y-136144000D01*
X221351468Y-135171073D01*
X221084613Y-135269736D01*
X220858092Y-135879461D01*
X216519000Y-135879461D01*
X216519000Y-135818778D01*
X216270086Y-135217847D01*
X216043707Y-134991468D01*
X221531073Y-134991468D01*
X222504000Y-135964395D01*
X223476927Y-134991468D01*
X223378264Y-134724613D01*
X222768539Y-134498092D01*
X222118540Y-134522144D01*
X221629736Y-134724613D01*
X221531073Y-134991468D01*
X216043707Y-134991468D01*
X215894000Y-134841761D01*
X215894000Y-134829258D01*
X215913786Y-134729787D01*
X215894000Y-134630316D01*
X215894000Y-134630311D01*
X215835399Y-134335705D01*
X215612169Y-134001618D01*
X215527838Y-133945270D01*
X215207730Y-133625162D01*
X215151381Y-133540830D01*
X214817294Y-133317600D01*
X214522688Y-133258999D01*
X214522683Y-133258999D01*
X214423212Y-133239213D01*
X214323741Y-133258999D01*
X199078472Y-133258999D01*
X198979001Y-133239213D01*
X198879530Y-133258999D01*
X198879525Y-133258999D01*
X198584919Y-133317600D01*
X198584917Y-133317601D01*
X198584918Y-133317601D01*
X198335163Y-133484481D01*
X198335161Y-133484483D01*
X198250832Y-133540830D01*
X198194485Y-133625159D01*
X197823691Y-133995953D01*
X197747838Y-133945270D01*
X196762731Y-132960163D01*
X196706382Y-132875831D01*
X196372295Y-132652601D01*
X196077689Y-132594000D01*
X196077684Y-132594000D01*
X195978213Y-132574214D01*
X195878742Y-132594000D01*
X195142714Y-132594000D01*
X195490153Y-132450086D01*
X195723707Y-132216532D01*
X196131073Y-132216532D01*
X196229736Y-132483387D01*
X196839461Y-132709908D01*
X197489460Y-132685856D01*
X197978264Y-132483387D01*
X198076927Y-132216532D01*
X203751073Y-132216532D01*
X203849736Y-132483387D01*
X204459461Y-132709908D01*
X205109460Y-132685856D01*
X205598264Y-132483387D01*
X205696927Y-132216532D01*
X204724000Y-131243605D01*
X203751073Y-132216532D01*
X198076927Y-132216532D01*
X197104000Y-131243605D01*
X196131073Y-132216532D01*
X195723707Y-132216532D01*
X195916311Y-132023928D01*
X195951468Y-132036927D01*
X196924395Y-131064000D01*
X197283605Y-131064000D01*
X198256532Y-132036927D01*
X198523387Y-131938264D01*
X198749908Y-131328539D01*
X198730331Y-130799461D01*
X203078092Y-130799461D01*
X203102144Y-131449460D01*
X203304613Y-131938264D01*
X203571468Y-132036927D01*
X204544395Y-131064000D01*
X204903605Y-131064000D01*
X205876532Y-132036927D01*
X206143387Y-131938264D01*
X206369908Y-131328539D01*
X206348085Y-130738778D01*
X210709000Y-130738778D01*
X210709000Y-131389222D01*
X210957914Y-131990153D01*
X211417847Y-132450086D01*
X212018778Y-132699000D01*
X212669222Y-132699000D01*
X213270153Y-132450086D01*
X213503707Y-132216532D01*
X213911073Y-132216532D01*
X214009736Y-132483387D01*
X214619461Y-132709908D01*
X215269460Y-132685856D01*
X215758264Y-132483387D01*
X215856927Y-132216532D01*
X221531073Y-132216532D01*
X221629736Y-132483387D01*
X222239461Y-132709908D01*
X222889460Y-132685856D01*
X223378264Y-132483387D01*
X223476927Y-132216532D01*
X222504000Y-131243605D01*
X221531073Y-132216532D01*
X215856927Y-132216532D01*
X214884000Y-131243605D01*
X213911073Y-132216532D01*
X213503707Y-132216532D01*
X213696311Y-132023928D01*
X213731468Y-132036927D01*
X214704395Y-131064000D01*
X215063605Y-131064000D01*
X216036532Y-132036927D01*
X216303387Y-131938264D01*
X216529908Y-131328539D01*
X216510331Y-130799461D01*
X220858092Y-130799461D01*
X220882144Y-131449460D01*
X221084613Y-131938264D01*
X221351468Y-132036927D01*
X222324395Y-131064000D01*
X222683605Y-131064000D01*
X223656532Y-132036927D01*
X223923387Y-131938264D01*
X224149908Y-131328539D01*
X224125856Y-130678540D01*
X223923387Y-130189736D01*
X223656532Y-130091073D01*
X222683605Y-131064000D01*
X222324395Y-131064000D01*
X221351468Y-130091073D01*
X221084613Y-130189736D01*
X220858092Y-130799461D01*
X216510331Y-130799461D01*
X216505856Y-130678540D01*
X216303387Y-130189736D01*
X216036532Y-130091073D01*
X215063605Y-131064000D01*
X214704395Y-131064000D01*
X213731468Y-130091073D01*
X213696311Y-130104072D01*
X213507191Y-129914952D01*
X213510675Y-129911468D01*
X213911073Y-129911468D01*
X214884000Y-130884395D01*
X215856927Y-129911468D01*
X221531073Y-129911468D01*
X222504000Y-130884395D01*
X223476927Y-129911468D01*
X223378264Y-129644613D01*
X222768539Y-129418092D01*
X222118540Y-129442144D01*
X221629736Y-129644613D01*
X221531073Y-129911468D01*
X215856927Y-129911468D01*
X215758264Y-129644613D01*
X215148539Y-129418092D01*
X214498540Y-129442144D01*
X214009736Y-129644613D01*
X213911073Y-129911468D01*
X213510675Y-129911468D01*
X215412143Y-128010000D01*
X218690604Y-128010000D01*
X218897138Y-128216534D01*
X219424561Y-128435000D01*
X219995439Y-128435000D01*
X220522862Y-128216534D01*
X220769396Y-127970000D01*
X222500604Y-127970000D01*
X222707138Y-128176534D01*
X223234561Y-128395000D01*
X223805439Y-128395000D01*
X224332862Y-128176534D01*
X224736534Y-127772862D01*
X224955000Y-127245439D01*
X224955000Y-126674561D01*
X224736534Y-126147138D01*
X224467497Y-125878101D01*
X224567765Y-125858157D01*
X224777809Y-125717809D01*
X224918157Y-125507765D01*
X224967440Y-125260000D01*
X224967440Y-123660000D01*
X224918157Y-123412235D01*
X224777809Y-123202191D01*
X224567765Y-123061843D01*
X224320000Y-123012560D01*
X223500916Y-123012560D01*
X221773355Y-121285000D01*
X223553356Y-119505000D01*
X223797483Y-119505000D01*
X224310204Y-119292624D01*
X224665877Y-118936951D01*
X224701843Y-119117765D01*
X224842191Y-119327809D01*
X225052235Y-119468157D01*
X225300000Y-119517440D01*
X226820000Y-119517440D01*
X227067765Y-119468157D01*
X227277809Y-119327809D01*
X227418157Y-119117765D01*
X227467440Y-118870000D01*
X227467440Y-117350000D01*
X227418157Y-117102235D01*
X227277809Y-116892191D01*
X227067765Y-116751843D01*
X226820000Y-116702560D01*
X225300000Y-116702560D01*
X225052235Y-116751843D01*
X224842191Y-116892191D01*
X224701843Y-117102235D01*
X224665877Y-117283049D01*
X224310204Y-116927376D01*
X223797483Y-116715000D01*
X223242517Y-116715000D01*
X222729796Y-116927376D01*
X222337376Y-117319796D01*
X222250000Y-117530740D01*
X222162624Y-117319796D01*
X221770204Y-116927376D01*
X221257483Y-116715000D01*
X220702517Y-116715000D01*
X220189796Y-116927376D01*
X219797376Y-117319796D01*
X219585000Y-117832517D01*
X219585000Y-118387483D01*
X219797376Y-118900204D01*
X220189796Y-119292624D01*
X220698365Y-119503280D01*
X219716645Y-120485000D01*
X219424561Y-120485000D01*
X218897138Y-120703466D01*
X218493466Y-121107138D01*
X218275000Y-121634561D01*
X218275000Y-122205439D01*
X218493466Y-122732862D01*
X218897138Y-123136534D01*
X219424561Y-123355000D01*
X219995439Y-123355000D01*
X220522862Y-123136534D01*
X220645520Y-123013876D01*
X222072560Y-124440916D01*
X222072560Y-125260000D01*
X222121843Y-125507765D01*
X222262191Y-125717809D01*
X222472235Y-125858157D01*
X222572503Y-125878101D01*
X222500604Y-125950000D01*
X220689396Y-125950000D01*
X220522862Y-125783466D01*
X219995439Y-125565000D01*
X219424561Y-125565000D01*
X218897138Y-125783466D01*
X218690604Y-125990000D01*
X215093258Y-125990000D01*
X214993787Y-125970214D01*
X214894316Y-125990000D01*
X214894311Y-125990000D01*
X214599705Y-126048601D01*
X214599703Y-126048602D01*
X214599704Y-126048602D01*
X214349949Y-126215482D01*
X214349947Y-126215484D01*
X214265618Y-126271831D01*
X214209271Y-126356160D01*
X213387756Y-127177675D01*
X213359915Y-127127000D01*
X212217000Y-127127000D01*
X212217000Y-128270629D01*
X212267318Y-128298114D01*
X211700163Y-128865269D01*
X211615831Y-128921618D01*
X211392601Y-129255706D01*
X211334000Y-129550312D01*
X211334000Y-129550316D01*
X211314214Y-129649787D01*
X211334000Y-129749258D01*
X211334000Y-129761761D01*
X210957914Y-130137847D01*
X210709000Y-130738778D01*
X206348085Y-130738778D01*
X206345856Y-130678540D01*
X206143387Y-130189736D01*
X205876532Y-130091073D01*
X204903605Y-131064000D01*
X204544395Y-131064000D01*
X203571468Y-130091073D01*
X203304613Y-130189736D01*
X203078092Y-130799461D01*
X198730331Y-130799461D01*
X198725856Y-130678540D01*
X198523387Y-130189736D01*
X198256532Y-130091073D01*
X197283605Y-131064000D01*
X196924395Y-131064000D01*
X195951468Y-130091073D01*
X195916311Y-130104072D01*
X195727191Y-129914952D01*
X195730675Y-129911468D01*
X196131073Y-129911468D01*
X197104000Y-130884395D01*
X198076927Y-129911468D01*
X203751073Y-129911468D01*
X204724000Y-130884395D01*
X205696927Y-129911468D01*
X205598264Y-129644613D01*
X204988539Y-129418092D01*
X204338540Y-129442144D01*
X203849736Y-129644613D01*
X203751073Y-129911468D01*
X198076927Y-129911468D01*
X197978264Y-129644613D01*
X197368539Y-129418092D01*
X196718540Y-129442144D01*
X196229736Y-129644613D01*
X196131073Y-129911468D01*
X195730675Y-129911468D01*
X197632143Y-128010000D01*
X200910604Y-128010000D01*
X201117138Y-128216534D01*
X201644561Y-128435000D01*
X202215439Y-128435000D01*
X202742862Y-128216534D01*
X202989396Y-127970000D01*
X204720604Y-127970000D01*
X204927138Y-128176534D01*
X205454561Y-128395000D01*
X206025439Y-128395000D01*
X206552862Y-128176534D01*
X206956534Y-127772862D01*
X207132087Y-127349039D01*
X210698096Y-127349039D01*
X210858959Y-127737423D01*
X211234866Y-128152389D01*
X211740959Y-128391914D01*
X211963000Y-128270629D01*
X211963000Y-127127000D01*
X210820085Y-127127000D01*
X210698096Y-127349039D01*
X207132087Y-127349039D01*
X207175000Y-127245439D01*
X207175000Y-126674561D01*
X207165225Y-126650961D01*
X210698096Y-126650961D01*
X210820085Y-126873000D01*
X211963000Y-126873000D01*
X211963000Y-125729371D01*
X212217000Y-125729371D01*
X212217000Y-126873000D01*
X213359915Y-126873000D01*
X213481904Y-126650961D01*
X213321041Y-126262577D01*
X212945134Y-125847611D01*
X212439041Y-125608086D01*
X212217000Y-125729371D01*
X211963000Y-125729371D01*
X211740959Y-125608086D01*
X211234866Y-125847611D01*
X210858959Y-126262577D01*
X210698096Y-126650961D01*
X207165225Y-126650961D01*
X206956534Y-126147138D01*
X206687497Y-125878101D01*
X206787765Y-125858157D01*
X206997809Y-125717809D01*
X207138157Y-125507765D01*
X207187440Y-125260000D01*
X207187440Y-123660000D01*
X207138157Y-123412235D01*
X206997809Y-123202191D01*
X206787765Y-123061843D01*
X206540000Y-123012560D01*
X204940000Y-123012560D01*
X204692235Y-123061843D01*
X204577118Y-123138762D01*
X203707395Y-122269039D01*
X210698096Y-122269039D01*
X210858959Y-122657423D01*
X211234866Y-123072389D01*
X211740959Y-123311914D01*
X211963000Y-123190629D01*
X211963000Y-122047000D01*
X212217000Y-122047000D01*
X212217000Y-123190629D01*
X212439041Y-123311914D01*
X212945134Y-123072389D01*
X213321041Y-122657423D01*
X213481904Y-122269039D01*
X213359915Y-122047000D01*
X212217000Y-122047000D01*
X211963000Y-122047000D01*
X210820085Y-122047000D01*
X210698096Y-122269039D01*
X203707395Y-122269039D01*
X203365000Y-121926645D01*
X203365000Y-121913355D01*
X203707394Y-121570961D01*
X210698096Y-121570961D01*
X210820085Y-121793000D01*
X211963000Y-121793000D01*
X211963000Y-120649371D01*
X212217000Y-120649371D01*
X212217000Y-121793000D01*
X213359915Y-121793000D01*
X213481904Y-121570961D01*
X213321041Y-121182577D01*
X212945134Y-120767611D01*
X212439041Y-120528086D01*
X212217000Y-120649371D01*
X211963000Y-120649371D01*
X211740959Y-120528086D01*
X211234866Y-120767611D01*
X210858959Y-121182577D01*
X210698096Y-121570961D01*
X203707394Y-121570961D01*
X205773356Y-119505000D01*
X206017483Y-119505000D01*
X206530204Y-119292624D01*
X206885877Y-118936951D01*
X206921843Y-119117765D01*
X207062191Y-119327809D01*
X207272235Y-119468157D01*
X207520000Y-119517440D01*
X209040000Y-119517440D01*
X209287765Y-119468157D01*
X209497809Y-119327809D01*
X209638157Y-119117765D01*
X209687440Y-118870000D01*
X209687440Y-117350000D01*
X209638157Y-117102235D01*
X209497809Y-116892191D01*
X209287765Y-116751843D01*
X209040000Y-116702560D01*
X207520000Y-116702560D01*
X207272235Y-116751843D01*
X207062191Y-116892191D01*
X206921843Y-117102235D01*
X206885877Y-117283049D01*
X206530204Y-116927376D01*
X206017483Y-116715000D01*
X205462517Y-116715000D01*
X204949796Y-116927376D01*
X204557376Y-117319796D01*
X204470000Y-117530740D01*
X204382624Y-117319796D01*
X203990204Y-116927376D01*
X203477483Y-116715000D01*
X202922517Y-116715000D01*
X202409796Y-116927376D01*
X202017376Y-117319796D01*
X201805000Y-117832517D01*
X201805000Y-118387483D01*
X202017376Y-118900204D01*
X202409796Y-119292624D01*
X202918365Y-119503280D01*
X201936645Y-120485000D01*
X201644561Y-120485000D01*
X201117138Y-120703466D01*
X200713466Y-121107138D01*
X200495000Y-121634561D01*
X200495000Y-122205439D01*
X200713466Y-122732862D01*
X201117138Y-123136534D01*
X201644561Y-123355000D01*
X201936645Y-123355000D01*
X203685484Y-125103840D01*
X203741831Y-125188169D01*
X203826160Y-125244516D01*
X203826161Y-125244517D01*
X203935381Y-125317495D01*
X204075918Y-125411399D01*
X204332840Y-125462504D01*
X204341843Y-125507765D01*
X204482191Y-125717809D01*
X204692235Y-125858157D01*
X204792503Y-125878101D01*
X204720604Y-125950000D01*
X202909396Y-125950000D01*
X202742862Y-125783466D01*
X202215439Y-125565000D01*
X201644561Y-125565000D01*
X201117138Y-125783466D01*
X200910604Y-125990000D01*
X197313258Y-125990000D01*
X197213787Y-125970214D01*
X197114316Y-125990000D01*
X197114311Y-125990000D01*
X196819705Y-126048601D01*
X196819703Y-126048602D01*
X196819704Y-126048602D01*
X196569949Y-126215482D01*
X196569947Y-126215484D01*
X196485618Y-126271831D01*
X196429271Y-126356160D01*
X195607756Y-127177675D01*
X195579915Y-127127000D01*
X194437000Y-127127000D01*
X194437000Y-128270629D01*
X194487318Y-128298114D01*
X193920163Y-128865269D01*
X193835831Y-128921618D01*
X193612601Y-129255706D01*
X193554000Y-129550312D01*
X193554000Y-129550316D01*
X193534214Y-129649787D01*
X193554000Y-129749258D01*
X193554000Y-129761761D01*
X193177914Y-130137847D01*
X192929000Y-130738778D01*
X192929000Y-131389222D01*
X193177914Y-131990153D01*
X193637847Y-132450086D01*
X193985286Y-132594000D01*
X187551220Y-132594000D01*
X187818264Y-132483387D01*
X187916927Y-132216532D01*
X186944000Y-131243605D01*
X185971073Y-132216532D01*
X186069736Y-132483387D01*
X186367472Y-132594000D01*
X181963470Y-132594000D01*
X181863999Y-132574214D01*
X181764528Y-132594000D01*
X181764524Y-132594000D01*
X181469918Y-132652601D01*
X181400477Y-132699000D01*
X181220161Y-132819483D01*
X181220160Y-132819484D01*
X181135831Y-132875831D01*
X181079484Y-132960160D01*
X180043691Y-133995953D01*
X179967838Y-133945270D01*
X179797730Y-133775162D01*
X179741381Y-133690830D01*
X179407294Y-133467600D01*
X179112688Y-133408999D01*
X179112683Y-133408999D01*
X179013212Y-133389213D01*
X178913741Y-133408999D01*
X162296471Y-133408999D01*
X162197000Y-133389213D01*
X162097530Y-133408999D01*
X162097525Y-133408999D01*
X161802919Y-133467600D01*
X161468832Y-133690830D01*
X161418763Y-133765764D01*
X161343832Y-133815831D01*
X161287485Y-133900160D01*
X161287482Y-133900163D01*
X161120602Y-134149918D01*
X161042214Y-134544000D01*
X161062001Y-134643475D01*
X161062001Y-134678385D01*
X160974235Y-134695843D01*
X160764191Y-134836191D01*
X160623843Y-135046235D01*
X160606386Y-135134000D01*
X157071470Y-135134000D01*
X156971999Y-135114214D01*
X156872528Y-135134000D01*
X156872524Y-135134000D01*
X156577918Y-135192601D01*
X156243831Y-135415831D01*
X156187482Y-135500163D01*
X153410000Y-138277645D01*
X153410000Y-134801471D01*
X153429786Y-134702000D01*
X153410000Y-134602529D01*
X153410000Y-134602524D01*
X153351399Y-134307918D01*
X153203085Y-134085950D01*
X153184518Y-134058162D01*
X153184516Y-134058160D01*
X153128169Y-133973831D01*
X153043841Y-133917485D01*
X150562518Y-131436163D01*
X150506169Y-131351831D01*
X150172082Y-131128601D01*
X149877476Y-131070000D01*
X149877471Y-131070000D01*
X149778000Y-131050214D01*
X149678529Y-131070000D01*
X149675440Y-131070000D01*
X149675440Y-130880000D01*
X149626157Y-130632235D01*
X149485809Y-130422191D01*
X149275765Y-130281843D01*
X149028000Y-130232560D01*
X146628000Y-130232560D01*
X146380235Y-130281843D01*
X146170191Y-130422191D01*
X146029843Y-130632235D01*
X145980560Y-130880000D01*
X145980560Y-131070000D01*
X145855470Y-131070000D01*
X145755999Y-131050214D01*
X145656528Y-131070000D01*
X145656524Y-131070000D01*
X145361918Y-131128601D01*
X145027831Y-131351831D01*
X144971482Y-131436163D01*
X139058645Y-137349000D01*
X138886452Y-137349000D01*
X138395783Y-137552242D01*
X138020242Y-137927783D01*
X137998634Y-137979949D01*
X137950157Y-137736235D01*
X137809809Y-137526191D01*
X137599765Y-137385843D01*
X137352000Y-137336560D01*
X135952000Y-137336560D01*
X135704235Y-137385843D01*
X135494191Y-137526191D01*
X135353843Y-137736235D01*
X135304560Y-137984000D01*
X127635500Y-137984000D01*
X127635500Y-129032000D01*
X151952887Y-129032000D01*
X152064260Y-129591909D01*
X152381423Y-130066577D01*
X152856091Y-130383740D01*
X153274667Y-130467000D01*
X153557333Y-130467000D01*
X153868708Y-130405064D01*
X154829000Y-131365356D01*
X154829000Y-131897222D01*
X155077914Y-132498153D01*
X155537847Y-132958086D01*
X156138778Y-133207000D01*
X156789222Y-133207000D01*
X157390153Y-132958086D01*
X157454962Y-132893277D01*
X157546191Y-133029809D01*
X157756235Y-133170157D01*
X158004000Y-133219440D01*
X160004000Y-133219440D01*
X160251765Y-133170157D01*
X160461809Y-133029809D01*
X160602157Y-132819765D01*
X160651440Y-132572000D01*
X160651440Y-132107958D01*
X161207647Y-132107958D01*
X161287920Y-132359259D01*
X161843279Y-132560718D01*
X162433458Y-132534315D01*
X162856080Y-132359259D01*
X162936353Y-132107958D01*
X162072000Y-131243605D01*
X161207647Y-132107958D01*
X160651440Y-132107958D01*
X160651440Y-131545577D01*
X160776741Y-131848080D01*
X161028042Y-131928353D01*
X161892395Y-131064000D01*
X162251605Y-131064000D01*
X163115958Y-131928353D01*
X163367259Y-131848080D01*
X163568718Y-131292721D01*
X163545271Y-130768615D01*
X163587000Y-130768615D01*
X163587000Y-131359385D01*
X163813078Y-131905185D01*
X164230815Y-132322922D01*
X164776615Y-132549000D01*
X165367385Y-132549000D01*
X165913185Y-132322922D01*
X166272000Y-131964107D01*
X166630815Y-132322922D01*
X167176615Y-132549000D01*
X167767385Y-132549000D01*
X168313185Y-132322922D01*
X168528149Y-132107958D01*
X168807647Y-132107958D01*
X168887920Y-132359259D01*
X169443279Y-132560718D01*
X170033458Y-132534315D01*
X170456080Y-132359259D01*
X170536353Y-132107958D01*
X169672000Y-131243605D01*
X168807647Y-132107958D01*
X168528149Y-132107958D01*
X168730922Y-131905185D01*
X168787287Y-131769108D01*
X169492395Y-131064000D01*
X169851605Y-131064000D01*
X170715958Y-131928353D01*
X170967259Y-131848080D01*
X171168718Y-131292721D01*
X171143937Y-130738778D01*
X175149000Y-130738778D01*
X175149000Y-131389222D01*
X175397914Y-131990153D01*
X175857847Y-132450086D01*
X176458778Y-132699000D01*
X177109222Y-132699000D01*
X177710153Y-132450086D01*
X177943707Y-132216532D01*
X178351073Y-132216532D01*
X178449736Y-132483387D01*
X179059461Y-132709908D01*
X179709460Y-132685856D01*
X180198264Y-132483387D01*
X180296927Y-132216532D01*
X179324000Y-131243605D01*
X178351073Y-132216532D01*
X177943707Y-132216532D01*
X178136311Y-132023928D01*
X178171468Y-132036927D01*
X179144395Y-131064000D01*
X179503605Y-131064000D01*
X180476532Y-132036927D01*
X180743387Y-131938264D01*
X180969908Y-131328539D01*
X180950331Y-130799461D01*
X185298092Y-130799461D01*
X185322144Y-131449460D01*
X185524613Y-131938264D01*
X185791468Y-132036927D01*
X186764395Y-131064000D01*
X187123605Y-131064000D01*
X188096532Y-132036927D01*
X188363387Y-131938264D01*
X188589908Y-131328539D01*
X188565856Y-130678540D01*
X188363387Y-130189736D01*
X188096532Y-130091073D01*
X187123605Y-131064000D01*
X186764395Y-131064000D01*
X185791468Y-130091073D01*
X185524613Y-130189736D01*
X185298092Y-130799461D01*
X180950331Y-130799461D01*
X180945856Y-130678540D01*
X180743387Y-130189736D01*
X180476532Y-130091073D01*
X179503605Y-131064000D01*
X179144395Y-131064000D01*
X178171468Y-130091073D01*
X178136311Y-130104072D01*
X177947191Y-129914952D01*
X177950675Y-129911468D01*
X178351073Y-129911468D01*
X179324000Y-130884395D01*
X180296927Y-129911468D01*
X185971073Y-129911468D01*
X186944000Y-130884395D01*
X187916927Y-129911468D01*
X187818264Y-129644613D01*
X187208539Y-129418092D01*
X186558540Y-129442144D01*
X186069736Y-129644613D01*
X185971073Y-129911468D01*
X180296927Y-129911468D01*
X180198264Y-129644613D01*
X179588539Y-129418092D01*
X178938540Y-129442144D01*
X178449736Y-129644613D01*
X178351073Y-129911468D01*
X177950675Y-129911468D01*
X179852143Y-128010000D01*
X183130604Y-128010000D01*
X183337138Y-128216534D01*
X183864561Y-128435000D01*
X184435439Y-128435000D01*
X184962862Y-128216534D01*
X185209396Y-127970000D01*
X186940604Y-127970000D01*
X187147138Y-128176534D01*
X187674561Y-128395000D01*
X188245439Y-128395000D01*
X188772862Y-128176534D01*
X189176534Y-127772862D01*
X189352087Y-127349039D01*
X192918096Y-127349039D01*
X193078959Y-127737423D01*
X193454866Y-128152389D01*
X193960959Y-128391914D01*
X194183000Y-128270629D01*
X194183000Y-127127000D01*
X193040085Y-127127000D01*
X192918096Y-127349039D01*
X189352087Y-127349039D01*
X189395000Y-127245439D01*
X189395000Y-126674561D01*
X189385225Y-126650961D01*
X192918096Y-126650961D01*
X193040085Y-126873000D01*
X194183000Y-126873000D01*
X194183000Y-125729371D01*
X194437000Y-125729371D01*
X194437000Y-126873000D01*
X195579915Y-126873000D01*
X195701904Y-126650961D01*
X195541041Y-126262577D01*
X195165134Y-125847611D01*
X194659041Y-125608086D01*
X194437000Y-125729371D01*
X194183000Y-125729371D01*
X193960959Y-125608086D01*
X193454866Y-125847611D01*
X193078959Y-126262577D01*
X192918096Y-126650961D01*
X189385225Y-126650961D01*
X189176534Y-126147138D01*
X188907497Y-125878101D01*
X189007765Y-125858157D01*
X189217809Y-125717809D01*
X189358157Y-125507765D01*
X189407440Y-125260000D01*
X189407440Y-123660000D01*
X189358157Y-123412235D01*
X189217809Y-123202191D01*
X189007765Y-123061843D01*
X188970000Y-123054331D01*
X188970000Y-122269039D01*
X192918096Y-122269039D01*
X193078959Y-122657423D01*
X193454866Y-123072389D01*
X193960959Y-123311914D01*
X194183000Y-123190629D01*
X194183000Y-122047000D01*
X194437000Y-122047000D01*
X194437000Y-123190629D01*
X194659041Y-123311914D01*
X195165134Y-123072389D01*
X195541041Y-122657423D01*
X195701904Y-122269039D01*
X195579915Y-122047000D01*
X194437000Y-122047000D01*
X194183000Y-122047000D01*
X193040085Y-122047000D01*
X192918096Y-122269039D01*
X188970000Y-122269039D01*
X188970000Y-121570961D01*
X192918096Y-121570961D01*
X193040085Y-121793000D01*
X194183000Y-121793000D01*
X194183000Y-120649371D01*
X194437000Y-120649371D01*
X194437000Y-121793000D01*
X195579915Y-121793000D01*
X195701904Y-121570961D01*
X195541041Y-121182577D01*
X195165134Y-120767611D01*
X194659041Y-120528086D01*
X194437000Y-120649371D01*
X194183000Y-120649371D01*
X193960959Y-120528086D01*
X193454866Y-120767611D01*
X193078959Y-121182577D01*
X192918096Y-121570961D01*
X188970000Y-121570961D01*
X188970000Y-119072828D01*
X189105877Y-118936951D01*
X189141843Y-119117765D01*
X189282191Y-119327809D01*
X189492235Y-119468157D01*
X189740000Y-119517440D01*
X191260000Y-119517440D01*
X191507765Y-119468157D01*
X191717809Y-119327809D01*
X191858157Y-119117765D01*
X191907440Y-118870000D01*
X191907440Y-117350000D01*
X191858157Y-117102235D01*
X191717809Y-116892191D01*
X191507765Y-116751843D01*
X191260000Y-116702560D01*
X189740000Y-116702560D01*
X189492235Y-116751843D01*
X189282191Y-116892191D01*
X189141843Y-117102235D01*
X189105877Y-117283049D01*
X188750204Y-116927376D01*
X188237483Y-116715000D01*
X187682517Y-116715000D01*
X187169796Y-116927376D01*
X186777376Y-117319796D01*
X186690000Y-117530740D01*
X186602624Y-117319796D01*
X186210204Y-116927376D01*
X185697483Y-116715000D01*
X185142517Y-116715000D01*
X184629796Y-116927376D01*
X184237376Y-117319796D01*
X184025000Y-117832517D01*
X184025000Y-118387483D01*
X184237376Y-118900204D01*
X184629796Y-119292624D01*
X185142517Y-119505000D01*
X185697483Y-119505000D01*
X186210204Y-119292624D01*
X186602624Y-118900204D01*
X186690000Y-118689260D01*
X186777376Y-118900204D01*
X186950000Y-119072828D01*
X186950001Y-123054331D01*
X186912235Y-123061843D01*
X186702191Y-123202191D01*
X186561843Y-123412235D01*
X186554331Y-123450000D01*
X186473356Y-123450000D01*
X185585000Y-122561645D01*
X185585000Y-122269561D01*
X185366534Y-121742138D01*
X184962862Y-121338466D01*
X184435439Y-121120000D01*
X183864561Y-121120000D01*
X183337138Y-121338466D01*
X182933466Y-121742138D01*
X182715000Y-122269561D01*
X182715000Y-122840439D01*
X182933466Y-123367862D01*
X183337138Y-123771534D01*
X183864561Y-123990000D01*
X184156645Y-123990000D01*
X185270484Y-125103840D01*
X185326831Y-125188169D01*
X185411160Y-125244516D01*
X185411162Y-125244518D01*
X185586105Y-125361411D01*
X185660918Y-125411399D01*
X185955524Y-125470000D01*
X185955529Y-125470000D01*
X186055000Y-125489786D01*
X186154471Y-125470000D01*
X186554331Y-125470000D01*
X186561843Y-125507765D01*
X186702191Y-125717809D01*
X186912235Y-125858157D01*
X187012503Y-125878101D01*
X186940604Y-125950000D01*
X185129396Y-125950000D01*
X184962862Y-125783466D01*
X184435439Y-125565000D01*
X183864561Y-125565000D01*
X183337138Y-125783466D01*
X183130604Y-125990000D01*
X179533258Y-125990000D01*
X179433787Y-125970214D01*
X179334316Y-125990000D01*
X179334311Y-125990000D01*
X179039705Y-126048601D01*
X179039703Y-126048602D01*
X179039704Y-126048602D01*
X178789949Y-126215482D01*
X178789947Y-126215484D01*
X178705618Y-126271831D01*
X178649271Y-126356160D01*
X177827756Y-127177675D01*
X177799915Y-127127000D01*
X176657000Y-127127000D01*
X176657000Y-128270629D01*
X176707318Y-128298114D01*
X176140163Y-128865269D01*
X176055831Y-128921618D01*
X175832601Y-129255706D01*
X175774000Y-129550312D01*
X175774000Y-129550316D01*
X175754214Y-129649787D01*
X175774000Y-129749258D01*
X175774000Y-129761761D01*
X175397914Y-130137847D01*
X175149000Y-130738778D01*
X171143937Y-130738778D01*
X171142315Y-130702542D01*
X170967259Y-130279920D01*
X170715958Y-130199647D01*
X169851605Y-131064000D01*
X169492395Y-131064000D01*
X168787287Y-130358892D01*
X168730922Y-130222815D01*
X168528149Y-130020042D01*
X168807647Y-130020042D01*
X169672000Y-130884395D01*
X170536353Y-130020042D01*
X170456080Y-129768741D01*
X169900721Y-129567282D01*
X169310542Y-129593685D01*
X168887920Y-129768741D01*
X168807647Y-130020042D01*
X168528149Y-130020042D01*
X168313185Y-129805078D01*
X167767385Y-129579000D01*
X167176615Y-129579000D01*
X166630815Y-129805078D01*
X166272000Y-130163893D01*
X165913185Y-129805078D01*
X165367385Y-129579000D01*
X164776615Y-129579000D01*
X164230815Y-129805078D01*
X163813078Y-130222815D01*
X163587000Y-130768615D01*
X163545271Y-130768615D01*
X163542315Y-130702542D01*
X163367259Y-130279920D01*
X163115958Y-130199647D01*
X162251605Y-131064000D01*
X161892395Y-131064000D01*
X161028042Y-130199647D01*
X160776741Y-130279920D01*
X160651440Y-130625335D01*
X160651440Y-130572000D01*
X160602157Y-130324235D01*
X160461809Y-130114191D01*
X160320907Y-130020042D01*
X161207647Y-130020042D01*
X162072000Y-130884395D01*
X162936353Y-130020042D01*
X162856080Y-129768741D01*
X162300721Y-129567282D01*
X161710542Y-129593685D01*
X161287920Y-129768741D01*
X161207647Y-130020042D01*
X160320907Y-130020042D01*
X160251765Y-129973843D01*
X160004000Y-129924560D01*
X158004000Y-129924560D01*
X157756235Y-129973843D01*
X157546191Y-130114191D01*
X157454962Y-130250723D01*
X157390153Y-130185914D01*
X156789222Y-129937000D01*
X156257356Y-129937000D01*
X154717990Y-128397635D01*
X154450577Y-127997423D01*
X153975909Y-127680260D01*
X153557333Y-127597000D01*
X153274667Y-127597000D01*
X152856091Y-127680260D01*
X152381423Y-127997423D01*
X152064260Y-128472091D01*
X151952887Y-129032000D01*
X127635500Y-129032000D01*
X127635500Y-128005877D01*
X128205728Y-128005877D01*
X128365495Y-128324632D01*
X129156217Y-128634595D01*
X130005366Y-128618367D01*
X130714505Y-128324632D01*
X130874272Y-128005877D01*
X129540000Y-126671605D01*
X128205728Y-128005877D01*
X127635500Y-128005877D01*
X127635500Y-127493000D01*
X127707368Y-127666505D01*
X128026123Y-127826272D01*
X129360395Y-126492000D01*
X129719605Y-126492000D01*
X131053877Y-127826272D01*
X131372632Y-127666505D01*
X131682595Y-126875783D01*
X131681932Y-126841041D01*
X134244086Y-126841041D01*
X134483611Y-127347134D01*
X134898577Y-127723041D01*
X135286961Y-127883904D01*
X135509000Y-127761915D01*
X135509000Y-126619000D01*
X135763000Y-126619000D01*
X135763000Y-127761915D01*
X135985039Y-127883904D01*
X136373423Y-127723041D01*
X136786286Y-127349039D01*
X157358096Y-127349039D01*
X157518959Y-127737423D01*
X157894866Y-128152389D01*
X158400959Y-128391914D01*
X158623000Y-128270629D01*
X158623000Y-127127000D01*
X158877000Y-127127000D01*
X158877000Y-128270629D01*
X159099041Y-128391914D01*
X159605134Y-128152389D01*
X159981041Y-127737423D01*
X160141904Y-127349039D01*
X160019915Y-127127000D01*
X158877000Y-127127000D01*
X158623000Y-127127000D01*
X157480085Y-127127000D01*
X157358096Y-127349039D01*
X136786286Y-127349039D01*
X136788389Y-127347134D01*
X137027914Y-126841041D01*
X136924087Y-126650961D01*
X157358096Y-126650961D01*
X157480085Y-126873000D01*
X158623000Y-126873000D01*
X158623000Y-125729371D01*
X158877000Y-125729371D01*
X158877000Y-126873000D01*
X160019915Y-126873000D01*
X160141904Y-126650961D01*
X159981041Y-126262577D01*
X159605134Y-125847611D01*
X159099041Y-125608086D01*
X158877000Y-125729371D01*
X158623000Y-125729371D01*
X158400959Y-125608086D01*
X157894866Y-125847611D01*
X157518959Y-126262577D01*
X157358096Y-126650961D01*
X136924087Y-126650961D01*
X136906629Y-126619000D01*
X135763000Y-126619000D01*
X135509000Y-126619000D01*
X134365371Y-126619000D01*
X134244086Y-126841041D01*
X131681932Y-126841041D01*
X131668591Y-126142959D01*
X134244086Y-126142959D01*
X134365371Y-126365000D01*
X135509000Y-126365000D01*
X135509000Y-125222085D01*
X135763000Y-125222085D01*
X135763000Y-126365000D01*
X136906629Y-126365000D01*
X137027914Y-126142959D01*
X136788389Y-125636866D01*
X136373423Y-125260959D01*
X135985039Y-125100096D01*
X135763000Y-125222085D01*
X135509000Y-125222085D01*
X135286961Y-125100096D01*
X134898577Y-125260959D01*
X134483611Y-125636866D01*
X134244086Y-126142959D01*
X131668591Y-126142959D01*
X131666367Y-126026634D01*
X131372632Y-125317495D01*
X131053877Y-125157728D01*
X129719605Y-126492000D01*
X129360395Y-126492000D01*
X128026123Y-125157728D01*
X127707368Y-125317495D01*
X127635500Y-125500832D01*
X127635500Y-123662816D01*
X127730144Y-123891307D01*
X128330693Y-124491856D01*
X128550299Y-124582820D01*
X128365495Y-124659368D01*
X128205728Y-124978123D01*
X129540000Y-126312395D01*
X130874272Y-124978123D01*
X130714505Y-124659368D01*
X130524609Y-124584929D01*
X130749307Y-124491856D01*
X131349856Y-123891307D01*
X131674870Y-123106652D01*
X131674870Y-122331807D01*
X146039797Y-122331807D01*
X146333508Y-122984776D01*
X146854742Y-123475642D01*
X147416195Y-123708195D01*
X147701000Y-123591432D01*
X147701000Y-122047000D01*
X147955000Y-122047000D01*
X147955000Y-123591432D01*
X148239805Y-123708195D01*
X148801258Y-123475642D01*
X149322492Y-122984776D01*
X149616203Y-122331807D01*
X149499858Y-122047000D01*
X147955000Y-122047000D01*
X147701000Y-122047000D01*
X146156142Y-122047000D01*
X146039797Y-122331807D01*
X131674870Y-122331807D01*
X131674870Y-122257348D01*
X131647856Y-122192131D01*
X133226398Y-122192131D01*
X133325869Y-122211917D01*
X133425340Y-122192131D01*
X133425345Y-122192131D01*
X133719951Y-122133530D01*
X134054038Y-121910300D01*
X134110387Y-121825968D01*
X134428162Y-121508193D01*
X146039797Y-121508193D01*
X146156142Y-121793000D01*
X147701000Y-121793000D01*
X147701000Y-120248568D01*
X147955000Y-120248568D01*
X147955000Y-121793000D01*
X149499858Y-121793000D01*
X149616203Y-121508193D01*
X149444542Y-121126561D01*
X151981000Y-121126561D01*
X151981000Y-121697439D01*
X152199466Y-122224862D01*
X152603138Y-122628534D01*
X153130561Y-122847000D01*
X153701439Y-122847000D01*
X154228862Y-122628534D01*
X154588357Y-122269039D01*
X157358096Y-122269039D01*
X157518959Y-122657423D01*
X157894866Y-123072389D01*
X158400959Y-123311914D01*
X158623000Y-123190629D01*
X158623000Y-122047000D01*
X158877000Y-122047000D01*
X158877000Y-123190629D01*
X159099041Y-123311914D01*
X159605134Y-123072389D01*
X159981041Y-122657423D01*
X160141904Y-122269039D01*
X160019915Y-122047000D01*
X158877000Y-122047000D01*
X158623000Y-122047000D01*
X157480085Y-122047000D01*
X157358096Y-122269039D01*
X154588357Y-122269039D01*
X154632534Y-122224862D01*
X154851000Y-121697439D01*
X154851000Y-121570961D01*
X157358096Y-121570961D01*
X157480085Y-121793000D01*
X158623000Y-121793000D01*
X158623000Y-120649371D01*
X158877000Y-120649371D01*
X158877000Y-121793000D01*
X160019915Y-121793000D01*
X160141904Y-121570961D01*
X159981041Y-121182577D01*
X159605134Y-120767611D01*
X159099041Y-120528086D01*
X158877000Y-120649371D01*
X158623000Y-120649371D01*
X158400959Y-120528086D01*
X157894866Y-120767611D01*
X157518959Y-121182577D01*
X157358096Y-121570961D01*
X154851000Y-121570961D01*
X154851000Y-121126561D01*
X154632534Y-120599138D01*
X154228862Y-120195466D01*
X153701439Y-119977000D01*
X153130561Y-119977000D01*
X152603138Y-120195466D01*
X152199466Y-120599138D01*
X151981000Y-121126561D01*
X149444542Y-121126561D01*
X149322492Y-120855224D01*
X148801258Y-120364358D01*
X148239805Y-120131805D01*
X147955000Y-120248568D01*
X147701000Y-120248568D01*
X147416195Y-120131805D01*
X146854742Y-120364358D01*
X146333508Y-120855224D01*
X146039797Y-121508193D01*
X134428162Y-121508193D01*
X135629355Y-120307000D01*
X135921439Y-120307000D01*
X136448862Y-120088534D01*
X136655396Y-119882000D01*
X139736604Y-119882000D01*
X139943138Y-120088534D01*
X140470561Y-120307000D01*
X141041439Y-120307000D01*
X141568862Y-120088534D01*
X141972534Y-119684862D01*
X142006000Y-119604068D01*
X142039466Y-119684862D01*
X142443138Y-120088534D01*
X142970561Y-120307000D01*
X143541439Y-120307000D01*
X144068862Y-120088534D01*
X144472534Y-119684862D01*
X144691000Y-119157439D01*
X144691000Y-118586561D01*
X144472534Y-118059138D01*
X144068862Y-117655466D01*
X143541439Y-117437000D01*
X142970561Y-117437000D01*
X142443138Y-117655466D01*
X142039466Y-118059138D01*
X142006000Y-118139932D01*
X141972534Y-118059138D01*
X141568862Y-117655466D01*
X141041439Y-117437000D01*
X140470561Y-117437000D01*
X139943138Y-117655466D01*
X139736604Y-117862000D01*
X136655396Y-117862000D01*
X136448862Y-117655466D01*
X135921439Y-117437000D01*
X135350561Y-117437000D01*
X134823138Y-117655466D01*
X134419466Y-118059138D01*
X134201000Y-118586561D01*
X134201000Y-118878645D01*
X132907514Y-120172131D01*
X131687310Y-120172131D01*
X131687310Y-117372130D01*
X131638027Y-117124365D01*
X131497679Y-116914321D01*
X131386451Y-116840000D01*
X157286887Y-116840000D01*
X157398260Y-117399909D01*
X157715423Y-117874577D01*
X158190091Y-118191740D01*
X158608667Y-118275000D01*
X158756645Y-118275000D01*
X159995481Y-119513836D01*
X160051830Y-119598168D01*
X160385917Y-119821398D01*
X160680523Y-119879999D01*
X160680527Y-119879999D01*
X160779998Y-119899785D01*
X160879469Y-119879999D01*
X168050530Y-119879999D01*
X168150001Y-119899785D01*
X168249472Y-119879999D01*
X168249477Y-119879999D01*
X168252184Y-119879461D01*
X167305520Y-120826124D01*
X167182862Y-120703466D01*
X166655439Y-120485000D01*
X166084561Y-120485000D01*
X165557138Y-120703466D01*
X165153466Y-121107138D01*
X164935000Y-121634561D01*
X164935000Y-122205439D01*
X165153466Y-122732862D01*
X165557138Y-123136534D01*
X166084561Y-123355000D01*
X166376645Y-123355000D01*
X168125484Y-125103840D01*
X168181831Y-125188169D01*
X168266160Y-125244516D01*
X168266161Y-125244517D01*
X168375381Y-125317495D01*
X168515918Y-125411399D01*
X168810524Y-125470000D01*
X168810528Y-125470000D01*
X168909999Y-125489786D01*
X169009470Y-125470000D01*
X170044331Y-125470000D01*
X170051843Y-125507765D01*
X170192191Y-125717809D01*
X170402235Y-125858157D01*
X170502503Y-125878101D01*
X170390604Y-125990000D01*
X167389396Y-125990000D01*
X167182862Y-125783466D01*
X166655439Y-125565000D01*
X166084561Y-125565000D01*
X165557138Y-125783466D01*
X165153466Y-126187138D01*
X164935000Y-126714561D01*
X164935000Y-127285439D01*
X165153466Y-127812862D01*
X165557138Y-128216534D01*
X166084561Y-128435000D01*
X166655439Y-128435000D01*
X167182862Y-128216534D01*
X167389396Y-128010000D01*
X170470604Y-128010000D01*
X170637138Y-128176534D01*
X171164561Y-128395000D01*
X171735439Y-128395000D01*
X172262862Y-128176534D01*
X172666534Y-127772862D01*
X172842087Y-127349039D01*
X175138096Y-127349039D01*
X175298959Y-127737423D01*
X175674866Y-128152389D01*
X176180959Y-128391914D01*
X176403000Y-128270629D01*
X176403000Y-127127000D01*
X175260085Y-127127000D01*
X175138096Y-127349039D01*
X172842087Y-127349039D01*
X172885000Y-127245439D01*
X172885000Y-126674561D01*
X172875225Y-126650961D01*
X175138096Y-126650961D01*
X175260085Y-126873000D01*
X176403000Y-126873000D01*
X176403000Y-125729371D01*
X176657000Y-125729371D01*
X176657000Y-126873000D01*
X177799915Y-126873000D01*
X177921904Y-126650961D01*
X177761041Y-126262577D01*
X177385134Y-125847611D01*
X176879041Y-125608086D01*
X176657000Y-125729371D01*
X176403000Y-125729371D01*
X176180959Y-125608086D01*
X175674866Y-125847611D01*
X175298959Y-126262577D01*
X175138096Y-126650961D01*
X172875225Y-126650961D01*
X172666534Y-126147138D01*
X172397497Y-125878101D01*
X172497765Y-125858157D01*
X172707809Y-125717809D01*
X172848157Y-125507765D01*
X172897440Y-125260000D01*
X172897440Y-123660000D01*
X172848157Y-123412235D01*
X172707809Y-123202191D01*
X172497765Y-123061843D01*
X172250000Y-123012560D01*
X170650000Y-123012560D01*
X170402235Y-123061843D01*
X170192191Y-123202191D01*
X170051843Y-123412235D01*
X170044331Y-123450000D01*
X169328356Y-123450000D01*
X168782395Y-122904039D01*
X175138096Y-122904039D01*
X175298959Y-123292423D01*
X175674866Y-123707389D01*
X176180959Y-123946914D01*
X176403000Y-123825629D01*
X176403000Y-122682000D01*
X176657000Y-122682000D01*
X176657000Y-123825629D01*
X176879041Y-123946914D01*
X177385134Y-123707389D01*
X177761041Y-123292423D01*
X177921904Y-122904039D01*
X177799915Y-122682000D01*
X176657000Y-122682000D01*
X176403000Y-122682000D01*
X175260085Y-122682000D01*
X175138096Y-122904039D01*
X168782395Y-122904039D01*
X168433355Y-122555000D01*
X168782394Y-122205961D01*
X175138096Y-122205961D01*
X175260085Y-122428000D01*
X176403000Y-122428000D01*
X176403000Y-121284371D01*
X176657000Y-121284371D01*
X176657000Y-122428000D01*
X177799915Y-122428000D01*
X177921904Y-122205961D01*
X177761041Y-121817577D01*
X177385134Y-121402611D01*
X176879041Y-121163086D01*
X176657000Y-121284371D01*
X176403000Y-121284371D01*
X176180959Y-121163086D01*
X175674866Y-121402611D01*
X175298959Y-121817577D01*
X175138096Y-122205961D01*
X168782394Y-122205961D01*
X171483356Y-119505000D01*
X171727483Y-119505000D01*
X172240204Y-119292624D01*
X172595877Y-118936951D01*
X172631843Y-119117765D01*
X172772191Y-119327809D01*
X172982235Y-119468157D01*
X173230000Y-119517440D01*
X174750000Y-119517440D01*
X174997765Y-119468157D01*
X175207809Y-119327809D01*
X175348157Y-119117765D01*
X175397440Y-118870000D01*
X175397440Y-117350000D01*
X175348157Y-117102235D01*
X175207809Y-116892191D01*
X174997765Y-116751843D01*
X174750000Y-116702560D01*
X173230000Y-116702560D01*
X172982235Y-116751843D01*
X172772191Y-116892191D01*
X172631843Y-117102235D01*
X172595877Y-117283049D01*
X172240204Y-116927376D01*
X171731635Y-116716720D01*
X173773355Y-114675000D01*
X174875604Y-114675000D01*
X175082138Y-114881534D01*
X175609561Y-115100000D01*
X176180439Y-115100000D01*
X176707862Y-114881534D01*
X177111534Y-114477862D01*
X177303655Y-114014039D01*
X182123096Y-114014039D01*
X182283959Y-114402423D01*
X182659866Y-114817389D01*
X183165959Y-115056914D01*
X183388000Y-114935629D01*
X183388000Y-113792000D01*
X183642000Y-113792000D01*
X183642000Y-114935629D01*
X183864041Y-115056914D01*
X184370134Y-114817389D01*
X184746041Y-114402423D01*
X184906904Y-114014039D01*
X184784915Y-113792000D01*
X183642000Y-113792000D01*
X183388000Y-113792000D01*
X182245085Y-113792000D01*
X182123096Y-114014039D01*
X177303655Y-114014039D01*
X177330000Y-113950439D01*
X177330000Y-113379561D01*
X177303656Y-113315961D01*
X182123096Y-113315961D01*
X182245085Y-113538000D01*
X183388000Y-113538000D01*
X183388000Y-112394371D01*
X183642000Y-112394371D01*
X183642000Y-113538000D01*
X184784915Y-113538000D01*
X184906904Y-113315961D01*
X184746041Y-112927577D01*
X184370134Y-112512611D01*
X183864041Y-112273086D01*
X183642000Y-112394371D01*
X183388000Y-112394371D01*
X183165959Y-112273086D01*
X182659866Y-112512611D01*
X182283959Y-112927577D01*
X182123096Y-113315961D01*
X177303656Y-113315961D01*
X177111534Y-112852138D01*
X176707862Y-112448466D01*
X176180439Y-112230000D01*
X175609561Y-112230000D01*
X175082138Y-112448466D01*
X174875604Y-112655000D01*
X173454470Y-112655000D01*
X173354999Y-112635214D01*
X173255528Y-112655000D01*
X173255524Y-112655000D01*
X172960918Y-112713601D01*
X172626831Y-112936831D01*
X172570482Y-113021163D01*
X168876645Y-116715000D01*
X168632517Y-116715000D01*
X168119796Y-116927376D01*
X167727376Y-117319796D01*
X167515000Y-117832517D01*
X167515000Y-117859999D01*
X167379397Y-117859999D01*
X167586534Y-117652862D01*
X167805000Y-117125439D01*
X167805000Y-116554561D01*
X167586534Y-116027138D01*
X167182862Y-115623466D01*
X166655439Y-115405000D01*
X166084561Y-115405000D01*
X165557138Y-115623466D01*
X165153466Y-116027138D01*
X164935000Y-116554561D01*
X164935000Y-117125439D01*
X165153466Y-117652862D01*
X165360603Y-117859999D01*
X161198354Y-117859999D01*
X160207346Y-116868991D01*
X160213113Y-116840000D01*
X160101740Y-116280091D01*
X159784577Y-115805423D01*
X159309909Y-115488260D01*
X158891333Y-115405000D01*
X158608667Y-115405000D01*
X158190091Y-115488260D01*
X157715423Y-115805423D01*
X157398260Y-116280091D01*
X157286887Y-116840000D01*
X131386451Y-116840000D01*
X131287635Y-116773973D01*
X131039870Y-116724690D01*
X130550000Y-116724690D01*
X130550000Y-113318999D01*
X130574577Y-113302577D01*
X130592505Y-113275745D01*
X136331861Y-113275745D01*
X136405995Y-113521864D01*
X136943223Y-113714965D01*
X137513454Y-113687778D01*
X137914005Y-113521864D01*
X137988139Y-113275745D01*
X137160000Y-112447605D01*
X136331861Y-113275745D01*
X130592505Y-113275745D01*
X130891740Y-112827909D01*
X131003113Y-112268000D01*
X130959994Y-112051223D01*
X135713035Y-112051223D01*
X135740222Y-112621454D01*
X135906136Y-113022005D01*
X136152255Y-113096139D01*
X136980395Y-112268000D01*
X137339605Y-112268000D01*
X138167745Y-113096139D01*
X138413864Y-113022005D01*
X138606965Y-112484777D01*
X138579778Y-111914546D01*
X138413864Y-111513995D01*
X138167745Y-111439861D01*
X137339605Y-112268000D01*
X136980395Y-112268000D01*
X136152255Y-111439861D01*
X135906136Y-111513995D01*
X135713035Y-112051223D01*
X130959994Y-112051223D01*
X130891740Y-111708091D01*
X130592506Y-111260255D01*
X136331861Y-111260255D01*
X137160000Y-112088395D01*
X137988139Y-111260255D01*
X137914005Y-111014136D01*
X137376777Y-110821035D01*
X136806546Y-110848222D01*
X136405995Y-111014136D01*
X136331861Y-111260255D01*
X130592506Y-111260255D01*
X130574577Y-111233423D01*
X130099909Y-110916260D01*
X129681333Y-110833000D01*
X129398667Y-110833000D01*
X128980091Y-110916260D01*
X128505423Y-111233423D01*
X128188260Y-111708091D01*
X128076887Y-112268000D01*
X128188260Y-112827909D01*
X128505423Y-113302577D01*
X128530001Y-113318999D01*
X128530000Y-116724690D01*
X128040130Y-116724690D01*
X127792365Y-116773973D01*
X127635500Y-116878788D01*
X127635500Y-108934561D01*
X159895000Y-108934561D01*
X159895000Y-109505439D01*
X160113466Y-110032862D01*
X160517138Y-110436534D01*
X161044561Y-110655000D01*
X161615439Y-110655000D01*
X162142862Y-110436534D01*
X162406155Y-110173241D01*
X162491673Y-110379699D01*
X162670302Y-110558327D01*
X162903691Y-110655000D01*
X163544250Y-110655000D01*
X163703000Y-110496250D01*
X163703000Y-109347000D01*
X163957000Y-109347000D01*
X163957000Y-110496250D01*
X164115750Y-110655000D01*
X164756309Y-110655000D01*
X164989698Y-110558327D01*
X165168327Y-110379699D01*
X165265000Y-110146310D01*
X165265000Y-109569039D01*
X175138096Y-109569039D01*
X175298959Y-109957423D01*
X175674866Y-110372389D01*
X176180959Y-110611914D01*
X176403000Y-110490629D01*
X176403000Y-109347000D01*
X176657000Y-109347000D01*
X176657000Y-110490629D01*
X176879041Y-110611914D01*
X177385134Y-110372389D01*
X177761041Y-109957423D01*
X177921904Y-109569039D01*
X177799915Y-109347000D01*
X176657000Y-109347000D01*
X176403000Y-109347000D01*
X175260085Y-109347000D01*
X175138096Y-109569039D01*
X165265000Y-109569039D01*
X165265000Y-109505750D01*
X165106250Y-109347000D01*
X163957000Y-109347000D01*
X163703000Y-109347000D01*
X163683000Y-109347000D01*
X163683000Y-109093000D01*
X163703000Y-109093000D01*
X163703000Y-107943750D01*
X163957000Y-107943750D01*
X163957000Y-109093000D01*
X165106250Y-109093000D01*
X165265000Y-108934250D01*
X165265000Y-108870961D01*
X175138096Y-108870961D01*
X175260085Y-109093000D01*
X176403000Y-109093000D01*
X176403000Y-107949371D01*
X176657000Y-107949371D01*
X176657000Y-109093000D01*
X177799915Y-109093000D01*
X177921904Y-108870961D01*
X177761041Y-108482577D01*
X177385134Y-108067611D01*
X176879041Y-107828086D01*
X176657000Y-107949371D01*
X176403000Y-107949371D01*
X176180959Y-107828086D01*
X175674866Y-108067611D01*
X175298959Y-108482577D01*
X175138096Y-108870961D01*
X165265000Y-108870961D01*
X165265000Y-108293690D01*
X165168327Y-108060301D01*
X164989698Y-107881673D01*
X164756309Y-107785000D01*
X164115750Y-107785000D01*
X163957000Y-107943750D01*
X163703000Y-107943750D01*
X163544250Y-107785000D01*
X162903691Y-107785000D01*
X162670302Y-107881673D01*
X162491673Y-108060301D01*
X162406155Y-108266759D01*
X162142862Y-108003466D01*
X161615439Y-107785000D01*
X161044561Y-107785000D01*
X160517138Y-108003466D01*
X160113466Y-108407138D01*
X159895000Y-108934561D01*
X127635500Y-108934561D01*
X127635500Y-105609796D01*
X127934101Y-105908397D01*
X128976083Y-106340000D01*
X130103917Y-106340000D01*
X131145899Y-105908397D01*
X131943397Y-105110899D01*
X132375000Y-104068917D01*
X132375000Y-102941083D01*
X131943397Y-101899101D01*
X131644796Y-101600500D01*
X158661788Y-101600500D01*
X158556973Y-101757365D01*
X158556973Y-101757365D01*
G37*
X158556973Y-101757365D02*
X158507690Y-102005130D01*
X158507690Y-105004870D01*
X158556973Y-105252635D01*
X158697321Y-105462679D01*
X158907365Y-105603027D01*
X159155130Y-105652310D01*
X162154870Y-105652310D01*
X162402635Y-105603027D01*
X162612679Y-105462679D01*
X162753027Y-105252635D01*
X162799523Y-105018877D01*
X163130728Y-105018877D01*
X163290495Y-105337632D01*
X164081217Y-105647595D01*
X164930366Y-105631367D01*
X165639505Y-105337632D01*
X165799272Y-105018877D01*
X164465000Y-103684605D01*
X163130728Y-105018877D01*
X162799523Y-105018877D01*
X162802310Y-105004870D01*
X162802310Y-104764684D01*
X162951123Y-104839272D01*
X164285395Y-103505000D01*
X164644605Y-103505000D01*
X165978877Y-104839272D01*
X166297632Y-104679505D01*
X166607595Y-103888783D01*
X166591367Y-103039634D01*
X166297632Y-102330495D01*
X165978877Y-102170728D01*
X164644605Y-103505000D01*
X164285395Y-103505000D01*
X162951123Y-102170728D01*
X162802310Y-102245316D01*
X162802310Y-102005130D01*
X162753027Y-101757365D01*
X162648212Y-101600500D01*
X163464000Y-101600500D01*
X163290495Y-101672368D01*
X163130728Y-101991123D01*
X164465000Y-103325395D01*
X165799272Y-101991123D01*
X165639505Y-101672368D01*
X165456168Y-101600500D01*
X176809347Y-101600500D01*
X176642191Y-101712191D01*
X176501843Y-101922235D01*
X176452560Y-102170000D01*
X176452560Y-103570000D01*
X176501843Y-103817765D01*
X176642191Y-104027809D01*
X176852235Y-104168157D01*
X177100000Y-104217440D01*
X178500000Y-104217440D01*
X178747765Y-104168157D01*
X178957809Y-104027809D01*
X179098157Y-103817765D01*
X179146634Y-103574051D01*
X179168242Y-103626217D01*
X179543783Y-104001758D01*
X180034452Y-104205000D01*
X180565548Y-104205000D01*
X181056217Y-104001758D01*
X181431758Y-103626217D01*
X181550000Y-103340756D01*
X181668242Y-103626217D01*
X182043783Y-104001758D01*
X182534452Y-104205000D01*
X182706645Y-104205000D01*
X182817482Y-104315837D01*
X182873831Y-104400169D01*
X183207918Y-104623399D01*
X183502524Y-104682000D01*
X183502528Y-104682000D01*
X183601999Y-104701786D01*
X183701470Y-104682000D01*
X187570331Y-104682000D01*
X187577843Y-104719765D01*
X187718191Y-104929809D01*
X187928235Y-105070157D01*
X188028503Y-105090101D01*
X187759466Y-105359138D01*
X187541000Y-105886561D01*
X187541000Y-106178644D01*
X185509645Y-108210000D01*
X185169396Y-108210000D01*
X184962862Y-108003466D01*
X184435439Y-107785000D01*
X184143355Y-107785000D01*
X183810000Y-107451645D01*
X183810000Y-107047975D01*
X183931758Y-106926217D01*
X184135000Y-106435548D01*
X184135000Y-105904452D01*
X183931758Y-105413783D01*
X183556217Y-105038242D01*
X183065548Y-104835000D01*
X182534452Y-104835000D01*
X182043783Y-105038242D01*
X181668242Y-105413783D01*
X181550000Y-105699244D01*
X181431758Y-105413783D01*
X181056217Y-105038242D01*
X180565548Y-104835000D01*
X180034452Y-104835000D01*
X179543783Y-105038242D01*
X179168242Y-105413783D01*
X179050000Y-105699244D01*
X178931758Y-105413783D01*
X178556217Y-105038242D01*
X178065548Y-104835000D01*
X177534452Y-104835000D01*
X177043783Y-105038242D01*
X176668242Y-105413783D01*
X176465000Y-105904452D01*
X176465000Y-106435548D01*
X176668242Y-106926217D01*
X177043783Y-107301758D01*
X177534452Y-107505000D01*
X178065548Y-107505000D01*
X178556217Y-107301758D01*
X178931758Y-106926217D01*
X179050000Y-106640756D01*
X179168242Y-106926217D01*
X179543783Y-107301758D01*
X180034452Y-107505000D01*
X180565548Y-107505000D01*
X181056217Y-107301758D01*
X181431758Y-106926217D01*
X181550000Y-106640756D01*
X181668242Y-106926217D01*
X181790001Y-107047976D01*
X181790001Y-107770525D01*
X181770214Y-107870000D01*
X181790001Y-107969476D01*
X181796762Y-108003466D01*
X181848602Y-108264082D01*
X182015482Y-108513837D01*
X182015485Y-108513840D01*
X182071832Y-108598169D01*
X182156161Y-108654516D01*
X182715000Y-109213355D01*
X182715000Y-109505439D01*
X182933466Y-110032862D01*
X183337138Y-110436534D01*
X183864561Y-110655000D01*
X184435439Y-110655000D01*
X184962862Y-110436534D01*
X185169396Y-110230000D01*
X185828529Y-110230000D01*
X185928000Y-110249786D01*
X186027471Y-110230000D01*
X186027476Y-110230000D01*
X186157990Y-110204039D01*
X192918096Y-110204039D01*
X193078959Y-110592423D01*
X193454866Y-111007389D01*
X193960959Y-111246914D01*
X194183000Y-111125629D01*
X194183000Y-109982000D01*
X194437000Y-109982000D01*
X194437000Y-111125629D01*
X194659041Y-111246914D01*
X195165134Y-111007389D01*
X195541041Y-110592423D01*
X195701904Y-110204039D01*
X195579915Y-109982000D01*
X194437000Y-109982000D01*
X194183000Y-109982000D01*
X193040085Y-109982000D01*
X192918096Y-110204039D01*
X186157990Y-110204039D01*
X186322082Y-110171399D01*
X186656169Y-109948169D01*
X186712518Y-109863837D01*
X187070394Y-109505961D01*
X192918096Y-109505961D01*
X193040085Y-109728000D01*
X194183000Y-109728000D01*
X194183000Y-108584371D01*
X194437000Y-108584371D01*
X194437000Y-109728000D01*
X195579915Y-109728000D01*
X195701904Y-109505961D01*
X195541041Y-109117577D01*
X195165134Y-108702611D01*
X194659041Y-108463086D01*
X194437000Y-108584371D01*
X194183000Y-108584371D01*
X193960959Y-108463086D01*
X193454866Y-108702611D01*
X193078959Y-109117577D01*
X192918096Y-109505961D01*
X187070394Y-109505961D01*
X188969356Y-107607000D01*
X189261439Y-107607000D01*
X189788862Y-107388534D01*
X190192534Y-106984862D01*
X190411000Y-106457439D01*
X190411000Y-105886561D01*
X190192534Y-105359138D01*
X189923497Y-105090101D01*
X190023765Y-105070157D01*
X190233809Y-104929809D01*
X190374157Y-104719765D01*
X190423440Y-104472000D01*
X190423440Y-102872000D01*
X190374157Y-102624235D01*
X190233809Y-102414191D01*
X190023765Y-102273843D01*
X189776000Y-102224560D01*
X188176000Y-102224560D01*
X187928235Y-102273843D01*
X187718191Y-102414191D01*
X187577843Y-102624235D01*
X187570331Y-102662000D01*
X184135000Y-102662000D01*
X184135000Y-102604452D01*
X183931758Y-102113783D01*
X183556217Y-101738242D01*
X183223679Y-101600500D01*
X194589347Y-101600500D01*
X194422191Y-101712191D01*
X194281843Y-101922235D01*
X194232560Y-102170000D01*
X194232560Y-103570000D01*
X194281843Y-103817765D01*
X194422191Y-104027809D01*
X194632235Y-104168157D01*
X194880000Y-104217440D01*
X196280000Y-104217440D01*
X196527765Y-104168157D01*
X196737809Y-104027809D01*
X196878157Y-103817765D01*
X196926634Y-103574051D01*
X196948242Y-103626217D01*
X197323783Y-104001758D01*
X197814452Y-104205000D01*
X198345548Y-104205000D01*
X198836217Y-104001758D01*
X199211758Y-103626217D01*
X199330000Y-103340756D01*
X199448242Y-103626217D01*
X199823783Y-104001758D01*
X200314452Y-104205000D01*
X200486644Y-104205000D01*
X200557484Y-104275840D01*
X200613831Y-104360169D01*
X200698160Y-104416516D01*
X200698162Y-104416518D01*
X200873105Y-104533411D01*
X200947918Y-104583399D01*
X201242524Y-104642000D01*
X201242529Y-104642000D01*
X201342000Y-104661786D01*
X201441471Y-104642000D01*
X205350331Y-104642000D01*
X205357843Y-104679765D01*
X205498191Y-104889809D01*
X205708235Y-105030157D01*
X205808503Y-105050101D01*
X205539466Y-105319138D01*
X205321000Y-105846561D01*
X205321000Y-106138645D01*
X202782021Y-108677625D01*
X202742862Y-108638466D01*
X202215439Y-108420000D01*
X201923355Y-108420000D01*
X201590000Y-108086645D01*
X201590000Y-107047975D01*
X201711758Y-106926217D01*
X201915000Y-106435548D01*
X201915000Y-105904452D01*
X201711758Y-105413783D01*
X201336217Y-105038242D01*
X200845548Y-104835000D01*
X200314452Y-104835000D01*
X199823783Y-105038242D01*
X199448242Y-105413783D01*
X199330000Y-105699244D01*
X199211758Y-105413783D01*
X198836217Y-105038242D01*
X198345548Y-104835000D01*
X197814452Y-104835000D01*
X197323783Y-105038242D01*
X196948242Y-105413783D01*
X196830000Y-105699244D01*
X196711758Y-105413783D01*
X196336217Y-105038242D01*
X195845548Y-104835000D01*
X195314452Y-104835000D01*
X194823783Y-105038242D01*
X194448242Y-105413783D01*
X194245000Y-105904452D01*
X194245000Y-106435548D01*
X194448242Y-106926217D01*
X194823783Y-107301758D01*
X195314452Y-107505000D01*
X195845548Y-107505000D01*
X196336217Y-107301758D01*
X196711758Y-106926217D01*
X196830000Y-106640756D01*
X196948242Y-106926217D01*
X197323783Y-107301758D01*
X197814452Y-107505000D01*
X198345548Y-107505000D01*
X198836217Y-107301758D01*
X199211758Y-106926217D01*
X199330000Y-106640756D01*
X199448242Y-106926217D01*
X199570000Y-107047975D01*
X199570001Y-108405525D01*
X199550214Y-108505000D01*
X199628602Y-108899082D01*
X199795482Y-109148837D01*
X199795485Y-109148840D01*
X199851832Y-109233169D01*
X199936161Y-109289516D01*
X200495000Y-109848355D01*
X200495000Y-110140439D01*
X200713466Y-110667862D01*
X201117138Y-111071534D01*
X201644561Y-111290000D01*
X202215439Y-111290000D01*
X202742862Y-111071534D01*
X202946764Y-110867632D01*
X203033000Y-110884786D01*
X203132471Y-110865000D01*
X203132476Y-110865000D01*
X203427082Y-110806399D01*
X203761169Y-110583169D01*
X203817518Y-110498837D01*
X204112316Y-110204039D01*
X210698096Y-110204039D01*
X210858959Y-110592423D01*
X211234866Y-111007389D01*
X211740959Y-111246914D01*
X211963000Y-111125629D01*
X211963000Y-109982000D01*
X212217000Y-109982000D01*
X212217000Y-111125629D01*
X212439041Y-111246914D01*
X212945134Y-111007389D01*
X213321041Y-110592423D01*
X213481904Y-110204039D01*
X213359915Y-109982000D01*
X212217000Y-109982000D01*
X211963000Y-109982000D01*
X210820085Y-109982000D01*
X210698096Y-110204039D01*
X204112316Y-110204039D01*
X204810394Y-109505961D01*
X210698096Y-109505961D01*
X210820085Y-109728000D01*
X211963000Y-109728000D01*
X211963000Y-108584371D01*
X212217000Y-108584371D01*
X212217000Y-109728000D01*
X213359915Y-109728000D01*
X213446961Y-109569561D01*
X218275000Y-109569561D01*
X218275000Y-110140439D01*
X218493466Y-110667862D01*
X218897138Y-111071534D01*
X219424561Y-111290000D01*
X219995439Y-111290000D01*
X220522862Y-111071534D01*
X220926534Y-110667862D01*
X221145000Y-110140439D01*
X221145000Y-109569561D01*
X220926534Y-109042138D01*
X220522862Y-108638466D01*
X219995439Y-108420000D01*
X219424561Y-108420000D01*
X218897138Y-108638466D01*
X218493466Y-109042138D01*
X218275000Y-109569561D01*
X213446961Y-109569561D01*
X213481904Y-109505961D01*
X213321041Y-109117577D01*
X212945134Y-108702611D01*
X212439041Y-108463086D01*
X212217000Y-108584371D01*
X211963000Y-108584371D01*
X211740959Y-108463086D01*
X211234866Y-108702611D01*
X210858959Y-109117577D01*
X210698096Y-109505961D01*
X204810394Y-109505961D01*
X206749355Y-107567000D01*
X207041439Y-107567000D01*
X207568862Y-107348534D01*
X207972534Y-106944862D01*
X208191000Y-106417439D01*
X208191000Y-105904452D01*
X212025000Y-105904452D01*
X212025000Y-106435548D01*
X212228242Y-106926217D01*
X212603783Y-107301758D01*
X213094452Y-107505000D01*
X213625548Y-107505000D01*
X214116217Y-107301758D01*
X214491758Y-106926217D01*
X214610000Y-106640756D01*
X214728242Y-106926217D01*
X215103783Y-107301758D01*
X215594452Y-107505000D01*
X216125548Y-107505000D01*
X216616217Y-107301758D01*
X216991758Y-106926217D01*
X217110000Y-106640756D01*
X217228242Y-106926217D01*
X217603783Y-107301758D01*
X218094452Y-107505000D01*
X218625548Y-107505000D01*
X219116217Y-107301758D01*
X219491758Y-106926217D01*
X219695000Y-106435548D01*
X219695000Y-105904452D01*
X219491758Y-105413783D01*
X219116217Y-105038242D01*
X218625548Y-104835000D01*
X218094452Y-104835000D01*
X217603783Y-105038242D01*
X217228242Y-105413783D01*
X217110000Y-105699244D01*
X216991758Y-105413783D01*
X216616217Y-105038242D01*
X216125548Y-104835000D01*
X215594452Y-104835000D01*
X215103783Y-105038242D01*
X214728242Y-105413783D01*
X214610000Y-105699244D01*
X214491758Y-105413783D01*
X214116217Y-105038242D01*
X213625548Y-104835000D01*
X213094452Y-104835000D01*
X212603783Y-105038242D01*
X212228242Y-105413783D01*
X212025000Y-105904452D01*
X208191000Y-105904452D01*
X208191000Y-105846561D01*
X207972534Y-105319138D01*
X207703497Y-105050101D01*
X207803765Y-105030157D01*
X208013809Y-104889809D01*
X208154157Y-104679765D01*
X208203440Y-104432000D01*
X208203440Y-102832000D01*
X208154157Y-102584235D01*
X208013809Y-102374191D01*
X207803765Y-102233843D01*
X207556000Y-102184560D01*
X205956000Y-102184560D01*
X205708235Y-102233843D01*
X205498191Y-102374191D01*
X205357843Y-102584235D01*
X205350331Y-102622000D01*
X201915000Y-102622000D01*
X201915000Y-102604452D01*
X201711758Y-102113783D01*
X201336217Y-101738242D01*
X201003679Y-101600500D01*
X212369347Y-101600500D01*
X212202191Y-101712191D01*
X212061843Y-101922235D01*
X212012560Y-102170000D01*
X212012560Y-103570000D01*
X212061843Y-103817765D01*
X212202191Y-104027809D01*
X212412235Y-104168157D01*
X212660000Y-104217440D01*
X214060000Y-104217440D01*
X214307765Y-104168157D01*
X214517809Y-104027809D01*
X214658157Y-103817765D01*
X214706634Y-103574051D01*
X214728242Y-103626217D01*
X215103783Y-104001758D01*
X215594452Y-104205000D01*
X216125548Y-104205000D01*
X216616217Y-104001758D01*
X216991758Y-103626217D01*
X217110000Y-103340756D01*
X217228242Y-103626217D01*
X217603783Y-104001758D01*
X218094452Y-104205000D01*
X218625548Y-104205000D01*
X219116217Y-104001758D01*
X219237975Y-103880000D01*
X220587645Y-103880000D01*
X223605112Y-106897467D01*
X223532191Y-106946191D01*
X223391843Y-107156235D01*
X223342560Y-107404000D01*
X223342560Y-109004000D01*
X223391843Y-109251765D01*
X223532191Y-109461809D01*
X223742235Y-109602157D01*
X223842503Y-109622101D01*
X223573466Y-109891138D01*
X223355000Y-110418561D01*
X223355000Y-110989439D01*
X223573466Y-111516862D01*
X223977138Y-111920534D01*
X224504561Y-112139000D01*
X225075439Y-112139000D01*
X225602862Y-111920534D01*
X226006534Y-111516862D01*
X226225000Y-110989439D01*
X226225000Y-110418561D01*
X226006534Y-109891138D01*
X225737497Y-109622101D01*
X225837765Y-109602157D01*
X226047809Y-109461809D01*
X226188157Y-109251765D01*
X226237440Y-109004000D01*
X226237440Y-107404000D01*
X226188157Y-107156235D01*
X226047809Y-106946191D01*
X225837765Y-106805843D01*
X225800000Y-106798331D01*
X225800000Y-106753470D01*
X225819786Y-106653999D01*
X225800000Y-106554528D01*
X225800000Y-106554524D01*
X225757328Y-106340000D01*
X226623917Y-106340000D01*
X227665899Y-105908397D01*
X227964501Y-105609795D01*
X227964501Y-109157409D01*
X227964500Y-139119204D01*
X227665899Y-138820603D01*
X226623917Y-138389000D01*
X225496083Y-138389000D01*
X224454101Y-138820603D01*
X223656603Y-139618101D01*
X223225000Y-140660083D01*
X223225000Y-141787917D01*
X223656603Y-142829899D01*
X223955204Y-143128500D01*
X142377455Y-143128500D01*
X142408217Y-143115758D01*
X142783758Y-142740217D01*
X142987000Y-142249548D01*
X142987000Y-141718452D01*
X142783758Y-141227783D01*
X142408217Y-140852242D01*
X141917548Y-140649000D01*
X141386452Y-140649000D01*
X140895783Y-140852242D01*
X140520242Y-141227783D01*
X140402000Y-141513244D01*
X140283758Y-141227783D01*
X139908217Y-140852242D01*
X139417548Y-140649000D01*
X138886452Y-140649000D01*
X138395783Y-140852242D01*
X138020242Y-141227783D01*
X137902000Y-141513244D01*
X137783758Y-141227783D01*
X137408217Y-140852242D01*
X136917548Y-140649000D01*
X136386452Y-140649000D01*
X135895783Y-140852242D01*
X135520242Y-141227783D01*
X135317000Y-141718452D01*
X135317000Y-142249548D01*
X135520242Y-142740217D01*
X135895783Y-143115758D01*
X135926545Y-143128500D01*
X131644796Y-143128500D01*
X131943397Y-142829899D01*
X132375000Y-141787917D01*
X132375000Y-140660083D01*
X131943397Y-139618101D01*
X131145899Y-138820603D01*
X130103917Y-138389000D01*
X128976083Y-138389000D01*
X127934101Y-138820603D01*
X127635500Y-139119204D01*
X127635500Y-137984000D01*
X135304560Y-137984000D01*
X135304560Y-139384000D01*
X135353843Y-139631765D01*
X135494191Y-139841809D01*
X135704235Y-139982157D01*
X135952000Y-140031440D01*
X137352000Y-140031440D01*
X137599765Y-139982157D01*
X137809809Y-139841809D01*
X137950157Y-139631765D01*
X137998634Y-139388051D01*
X138020242Y-139440217D01*
X138395783Y-139815758D01*
X138886452Y-140019000D01*
X139417548Y-140019000D01*
X139908217Y-139815758D01*
X140283758Y-139440217D01*
X140402000Y-139154756D01*
X140520242Y-139440217D01*
X140895783Y-139815758D01*
X141386452Y-140019000D01*
X141917548Y-140019000D01*
X142408217Y-139815758D01*
X142783758Y-139440217D01*
X142987000Y-138949548D01*
X142987000Y-138418452D01*
X142783758Y-137927783D01*
X142408217Y-137552242D01*
X141917548Y-137349000D01*
X141915355Y-137349000D01*
X145981190Y-133283165D01*
X146029843Y-133527765D01*
X146170191Y-133737809D01*
X146380235Y-133878157D01*
X146628000Y-133927440D01*
X149028000Y-133927440D01*
X149275765Y-133878157D01*
X149485809Y-133737809D01*
X149626157Y-133527765D01*
X149654569Y-133384925D01*
X151390000Y-135120356D01*
X151390001Y-138495384D01*
X151390000Y-138495389D01*
X151390000Y-138823588D01*
X151190693Y-138906144D01*
X150737310Y-139359527D01*
X150737310Y-139216130D01*
X150688027Y-138968365D01*
X150547679Y-138758321D01*
X150337635Y-138617973D01*
X150089870Y-138568690D01*
X147090130Y-138568690D01*
X146842365Y-138617973D01*
X146632321Y-138758321D01*
X146491973Y-138968365D01*
X146442690Y-139216130D01*
X146442690Y-142215870D01*
X146491973Y-142463635D01*
X146632321Y-142673679D01*
X146842365Y-142814027D01*
X147090130Y-142863310D01*
X150089870Y-142863310D01*
X150337635Y-142814027D01*
X150547679Y-142673679D01*
X150688027Y-142463635D01*
X150737310Y-142215870D01*
X150737310Y-142072473D01*
X151190693Y-142525856D01*
X151975348Y-142850870D01*
X152824652Y-142850870D01*
X153609307Y-142525856D01*
X154209856Y-141925307D01*
X154305000Y-141695609D01*
X154400144Y-141925307D01*
X155000693Y-142525856D01*
X155785348Y-142850870D01*
X156634652Y-142850870D01*
X157419307Y-142525856D01*
X157715286Y-142229877D01*
X161733728Y-142229877D01*
X161893495Y-142548632D01*
X162684217Y-142858595D01*
X163533366Y-142842367D01*
X164242505Y-142548632D01*
X164402272Y-142229877D01*
X163068000Y-140895605D01*
X161733728Y-142229877D01*
X157715286Y-142229877D01*
X158019856Y-141925307D01*
X158344870Y-141140652D01*
X158344870Y-140332217D01*
X160925405Y-140332217D01*
X160941633Y-141181366D01*
X161235368Y-141890505D01*
X161554123Y-142050272D01*
X162888395Y-140716000D01*
X163247605Y-140716000D01*
X164581877Y-142050272D01*
X164900632Y-141890505D01*
X164975071Y-141700609D01*
X165068144Y-141925307D01*
X165668693Y-142525856D01*
X166453348Y-142850870D01*
X167302652Y-142850870D01*
X168087307Y-142525856D01*
X168540690Y-142072473D01*
X168540690Y-142215870D01*
X168589973Y-142463635D01*
X168730321Y-142673679D01*
X168940365Y-142814027D01*
X169188130Y-142863310D01*
X172187870Y-142863310D01*
X172435635Y-142814027D01*
X172645679Y-142673679D01*
X172786027Y-142463635D01*
X172835310Y-142215870D01*
X172835310Y-139216130D01*
X175652690Y-139216130D01*
X175652690Y-142215870D01*
X175701973Y-142463635D01*
X175842321Y-142673679D01*
X176052365Y-142814027D01*
X176300130Y-142863310D01*
X179299870Y-142863310D01*
X179547635Y-142814027D01*
X179757679Y-142673679D01*
X179898027Y-142463635D01*
X179947310Y-142215870D01*
X179947310Y-142072473D01*
X180400693Y-142525856D01*
X181185348Y-142850870D01*
X182034652Y-142850870D01*
X182819307Y-142525856D01*
X183115286Y-142229877D01*
X184085728Y-142229877D01*
X184245495Y-142548632D01*
X185036217Y-142858595D01*
X185885366Y-142842367D01*
X186594505Y-142548632D01*
X186754272Y-142229877D01*
X185420000Y-140895605D01*
X184085728Y-142229877D01*
X183115286Y-142229877D01*
X183419856Y-141925307D01*
X183510820Y-141705701D01*
X183587368Y-141890505D01*
X183906123Y-142050272D01*
X185240395Y-140716000D01*
X185599605Y-140716000D01*
X186933877Y-142050272D01*
X187252632Y-141890505D01*
X187562595Y-141099783D01*
X187546367Y-140250634D01*
X187252632Y-139541495D01*
X186933877Y-139381728D01*
X185599605Y-140716000D01*
X185240395Y-140716000D01*
X183906123Y-139381728D01*
X183587368Y-139541495D01*
X183512929Y-139731391D01*
X183419856Y-139506693D01*
X183115286Y-139202123D01*
X184085728Y-139202123D01*
X185420000Y-140536395D01*
X186740265Y-139216130D01*
X193432690Y-139216130D01*
X193432690Y-142215870D01*
X193481973Y-142463635D01*
X193622321Y-142673679D01*
X193832365Y-142814027D01*
X194080130Y-142863310D01*
X197079870Y-142863310D01*
X197327635Y-142814027D01*
X197537679Y-142673679D01*
X197678027Y-142463635D01*
X197727310Y-142215870D01*
X197727310Y-142072473D01*
X198180693Y-142525856D01*
X198965348Y-142850870D01*
X199814652Y-142850870D01*
X200599307Y-142525856D01*
X200895286Y-142229877D01*
X201865728Y-142229877D01*
X202025495Y-142548632D01*
X202816217Y-142858595D01*
X203665366Y-142842367D01*
X204374505Y-142548632D01*
X204534272Y-142229877D01*
X203200000Y-140895605D01*
X201865728Y-142229877D01*
X200895286Y-142229877D01*
X201199856Y-141925307D01*
X201290820Y-141705701D01*
X201367368Y-141890505D01*
X201686123Y-142050272D01*
X203020395Y-140716000D01*
X203379605Y-140716000D01*
X204713877Y-142050272D01*
X205032632Y-141890505D01*
X205342595Y-141099783D01*
X205326367Y-140250634D01*
X205032632Y-139541495D01*
X204713877Y-139381728D01*
X203379605Y-140716000D01*
X203020395Y-140716000D01*
X201686123Y-139381728D01*
X201367368Y-139541495D01*
X201292929Y-139731391D01*
X201199856Y-139506693D01*
X200895286Y-139202123D01*
X201865728Y-139202123D01*
X203200000Y-140536395D01*
X204520265Y-139216130D01*
X211212690Y-139216130D01*
X211212690Y-142215870D01*
X211261973Y-142463635D01*
X211402321Y-142673679D01*
X211612365Y-142814027D01*
X211860130Y-142863310D01*
X214859870Y-142863310D01*
X215107635Y-142814027D01*
X215317679Y-142673679D01*
X215458027Y-142463635D01*
X215507310Y-142215870D01*
X215507310Y-142072473D01*
X215960693Y-142525856D01*
X216745348Y-142850870D01*
X217594652Y-142850870D01*
X218379307Y-142525856D01*
X218675286Y-142229877D01*
X219645728Y-142229877D01*
X219805495Y-142548632D01*
X220596217Y-142858595D01*
X221445366Y-142842367D01*
X222154505Y-142548632D01*
X222314272Y-142229877D01*
X220980000Y-140895605D01*
X219645728Y-142229877D01*
X218675286Y-142229877D01*
X218979856Y-141925307D01*
X219070820Y-141705701D01*
X219147368Y-141890505D01*
X219466123Y-142050272D01*
X220800395Y-140716000D01*
X221159605Y-140716000D01*
X222493877Y-142050272D01*
X222812632Y-141890505D01*
X223122595Y-141099783D01*
X223106367Y-140250634D01*
X222812632Y-139541495D01*
X222493877Y-139381728D01*
X221159605Y-140716000D01*
X220800395Y-140716000D01*
X219466123Y-139381728D01*
X219147368Y-139541495D01*
X219072929Y-139731391D01*
X218979856Y-139506693D01*
X218675286Y-139202123D01*
X219645728Y-139202123D01*
X220980000Y-140536395D01*
X222314272Y-139202123D01*
X222154505Y-138883368D01*
X221363783Y-138573405D01*
X220514634Y-138589633D01*
X219805495Y-138883368D01*
X219645728Y-139202123D01*
X218675286Y-139202123D01*
X218379307Y-138906144D01*
X217594652Y-138581130D01*
X216745348Y-138581130D01*
X215960693Y-138906144D01*
X215507310Y-139359527D01*
X215507310Y-139216130D01*
X215458027Y-138968365D01*
X215317679Y-138758321D01*
X215107635Y-138617973D01*
X214859870Y-138568690D01*
X211860130Y-138568690D01*
X211612365Y-138617973D01*
X211402321Y-138758321D01*
X211261973Y-138968365D01*
X211212690Y-139216130D01*
X204520265Y-139216130D01*
X204534272Y-139202123D01*
X204374505Y-138883368D01*
X203583783Y-138573405D01*
X202734634Y-138589633D01*
X202025495Y-138883368D01*
X201865728Y-139202123D01*
X200895286Y-139202123D01*
X200599307Y-138906144D01*
X199814652Y-138581130D01*
X198965348Y-138581130D01*
X198180693Y-138906144D01*
X197727310Y-139359527D01*
X197727310Y-139216130D01*
X197678027Y-138968365D01*
X197537679Y-138758321D01*
X197327635Y-138617973D01*
X197079870Y-138568690D01*
X194080130Y-138568690D01*
X193832365Y-138617973D01*
X193622321Y-138758321D01*
X193481973Y-138968365D01*
X193432690Y-139216130D01*
X186740265Y-139216130D01*
X186754272Y-139202123D01*
X186594505Y-138883368D01*
X185803783Y-138573405D01*
X184954634Y-138589633D01*
X184245495Y-138883368D01*
X184085728Y-139202123D01*
X183115286Y-139202123D01*
X182819307Y-138906144D01*
X182034652Y-138581130D01*
X181185348Y-138581130D01*
X180400693Y-138906144D01*
X179947310Y-139359527D01*
X179947310Y-139216130D01*
X179898027Y-138968365D01*
X179757679Y-138758321D01*
X179547635Y-138617973D01*
X179299870Y-138568690D01*
X176300130Y-138568690D01*
X176052365Y-138617973D01*
X175842321Y-138758321D01*
X175701973Y-138968365D01*
X175652690Y-139216130D01*
X172835310Y-139216130D01*
X172786027Y-138968365D01*
X172645679Y-138758321D01*
X172435635Y-138617973D01*
X172187870Y-138568690D01*
X169188130Y-138568690D01*
X168940365Y-138617973D01*
X168730321Y-138758321D01*
X168589973Y-138968365D01*
X168540690Y-139216130D01*
X168540690Y-139359527D01*
X168087307Y-138906144D01*
X167302652Y-138581130D01*
X166453348Y-138581130D01*
X165668693Y-138906144D01*
X165068144Y-139506693D01*
X164977180Y-139726299D01*
X164900632Y-139541495D01*
X164581877Y-139381728D01*
X163247605Y-140716000D01*
X162888395Y-140716000D01*
X161554123Y-139381728D01*
X161235368Y-139541495D01*
X160925405Y-140332217D01*
X158344870Y-140332217D01*
X158344870Y-140291348D01*
X158019856Y-139506693D01*
X157715286Y-139202123D01*
X161733728Y-139202123D01*
X163068000Y-140536395D01*
X164402272Y-139202123D01*
X164242505Y-138883368D01*
X163451783Y-138573405D01*
X162602634Y-138589633D01*
X161893495Y-138883368D01*
X161733728Y-139202123D01*
X157715286Y-139202123D01*
X157419307Y-138906144D01*
X156634652Y-138581130D01*
X155963225Y-138581130D01*
X157390355Y-137154000D01*
X160606386Y-137154000D01*
X160623843Y-137241765D01*
X160764191Y-137451809D01*
X160974235Y-137592157D01*
X161222000Y-137641440D01*
X162922000Y-137641440D01*
X163169765Y-137592157D01*
X163379809Y-137451809D01*
X163520157Y-137241765D01*
X163569440Y-136994000D01*
X163569440Y-135428999D01*
X163760811Y-135428999D01*
X163587000Y-135848615D01*
X163587000Y-136439385D01*
X163813078Y-136985185D01*
X164230815Y-137402922D01*
X164776615Y-137629000D01*
X165367385Y-137629000D01*
X165913185Y-137402922D01*
X166128149Y-137187958D01*
X166607647Y-137187958D01*
X166687920Y-137439259D01*
X167243279Y-137640718D01*
X167833458Y-137614315D01*
X168256080Y-137439259D01*
X168336353Y-137187958D01*
X167472000Y-136323605D01*
X166607647Y-137187958D01*
X166128149Y-137187958D01*
X166330922Y-136985185D01*
X166333795Y-136978248D01*
X166428042Y-137008353D01*
X167292395Y-136144000D01*
X167278253Y-136129858D01*
X167457858Y-135950253D01*
X167472000Y-135964395D01*
X167486143Y-135950253D01*
X167665748Y-136129858D01*
X167651605Y-136144000D01*
X168356713Y-136849108D01*
X168413078Y-136985185D01*
X168830815Y-137402922D01*
X169376615Y-137629000D01*
X169967385Y-137629000D01*
X170513185Y-137402922D01*
X170930922Y-136985185D01*
X171157000Y-136439385D01*
X171157000Y-135848615D01*
X170983189Y-135428999D01*
X175136560Y-135428999D01*
X175136560Y-137144000D01*
X175185843Y-137391765D01*
X175326191Y-137601809D01*
X175536235Y-137742157D01*
X175784000Y-137791440D01*
X177784000Y-137791440D01*
X178031765Y-137742157D01*
X178241809Y-137601809D01*
X178333038Y-137465277D01*
X178397847Y-137530086D01*
X178998778Y-137779000D01*
X179649222Y-137779000D01*
X180250153Y-137530086D01*
X180483707Y-137296532D01*
X185971073Y-137296532D01*
X186069736Y-137563387D01*
X186679461Y-137789908D01*
X187329460Y-137765856D01*
X187818264Y-137563387D01*
X187916927Y-137296532D01*
X186944000Y-136323605D01*
X185971073Y-137296532D01*
X180483707Y-137296532D01*
X180710086Y-137070153D01*
X180959000Y-136469222D01*
X180959000Y-135937355D01*
X181016894Y-135879461D01*
X185298092Y-135879461D01*
X185322144Y-136529460D01*
X185524613Y-137018264D01*
X185791468Y-137116927D01*
X186764395Y-136144000D01*
X187123605Y-136144000D01*
X188096532Y-137116927D01*
X188363387Y-137018264D01*
X188589908Y-136408539D01*
X188565856Y-135758540D01*
X188363387Y-135269736D01*
X188096532Y-135171073D01*
X187123605Y-136144000D01*
X186764395Y-136144000D01*
X185791468Y-135171073D01*
X185524613Y-135269736D01*
X185298092Y-135879461D01*
X181016894Y-135879461D01*
X182282356Y-134614000D01*
X186336780Y-134614000D01*
X186069736Y-134724613D01*
X185971073Y-134991468D01*
X186944000Y-135964395D01*
X187916927Y-134991468D01*
X187818264Y-134724613D01*
X187520528Y-134614000D01*
X193214232Y-134614000D01*
X193106191Y-134686191D01*
X192965843Y-134896235D01*
X192916560Y-135144000D01*
X192916560Y-137144000D01*
X192965843Y-137391765D01*
X193106191Y-137601809D01*
X193316235Y-137742157D01*
X193564000Y-137791440D01*
X195564000Y-137791440D01*
X195811765Y-137742157D01*
X196021809Y-137601809D01*
X196113038Y-137465277D01*
X196177847Y-137530086D01*
X196778778Y-137779000D01*
X197429222Y-137779000D01*
X198030153Y-137530086D01*
X198263707Y-137296532D01*
X203751073Y-137296532D01*
X203849736Y-137563387D01*
X204459461Y-137789908D01*
X205109460Y-137765856D01*
X205598264Y-137563387D01*
X205696927Y-137296532D01*
X204724000Y-136323605D01*
X203751073Y-137296532D01*
X198263707Y-137296532D01*
X198490086Y-137070153D01*
X198739000Y-136469222D01*
X198739000Y-135937355D01*
X199397357Y-135278999D01*
X203301172Y-135278999D01*
X203078092Y-135879461D01*
X203102144Y-136529460D01*
X203304613Y-137018264D01*
X203571468Y-137116927D01*
X204544395Y-136144000D01*
X204530253Y-136129858D01*
X204709858Y-135950253D01*
X204724000Y-135964395D01*
X204738143Y-135950253D01*
X204917748Y-136129858D01*
X204903605Y-136144000D01*
X205876532Y-137116927D01*
X206143387Y-137018264D01*
X206369908Y-136408539D01*
X206345856Y-135758540D01*
X206147224Y-135278999D01*
X210696560Y-135278999D01*
X210696560Y-137144000D01*
X210745843Y-137391765D01*
X210886191Y-137601809D01*
X211096235Y-137742157D01*
X211344000Y-137791440D01*
X213344000Y-137791440D01*
X213591765Y-137742157D01*
X213801809Y-137601809D01*
X213893038Y-137465277D01*
X213957847Y-137530086D01*
X214558778Y-137779000D01*
X215209222Y-137779000D01*
X215810153Y-137530086D01*
X216043707Y-137296532D01*
X221531073Y-137296532D01*
X221629736Y-137563387D01*
X222239461Y-137789908D01*
X222889460Y-137765856D01*
X223378264Y-137563387D01*
X223476927Y-137296532D01*
X222504000Y-136323605D01*
X221531073Y-137296532D01*
X216043707Y-137296532D01*
X216270086Y-137070153D01*
X216519000Y-136469222D01*
X216519000Y-135879461D01*
X220858092Y-135879461D01*
X220882144Y-136529460D01*
X221084613Y-137018264D01*
X221351468Y-137116927D01*
X222324395Y-136144000D01*
X222683605Y-136144000D01*
X223656532Y-137116927D01*
X223923387Y-137018264D01*
X224149908Y-136408539D01*
X224125856Y-135758540D01*
X223923387Y-135269736D01*
X223656532Y-135171073D01*
X222683605Y-136144000D01*
X222324395Y-136144000D01*
X221351468Y-135171073D01*
X221084613Y-135269736D01*
X220858092Y-135879461D01*
X216519000Y-135879461D01*
X216519000Y-135818778D01*
X216270086Y-135217847D01*
X216043707Y-134991468D01*
X221531073Y-134991468D01*
X222504000Y-135964395D01*
X223476927Y-134991468D01*
X223378264Y-134724613D01*
X222768539Y-134498092D01*
X222118540Y-134522144D01*
X221629736Y-134724613D01*
X221531073Y-134991468D01*
X216043707Y-134991468D01*
X215894000Y-134841761D01*
X215894000Y-134829258D01*
X215913786Y-134729787D01*
X215894000Y-134630316D01*
X215894000Y-134630311D01*
X215835399Y-134335705D01*
X215612169Y-134001618D01*
X215527838Y-133945270D01*
X215207730Y-133625162D01*
X215151381Y-133540830D01*
X214817294Y-133317600D01*
X214522688Y-133258999D01*
X214522683Y-133258999D01*
X214423212Y-133239213D01*
X214323741Y-133258999D01*
X199078472Y-133258999D01*
X198979001Y-133239213D01*
X198879530Y-133258999D01*
X198879525Y-133258999D01*
X198584919Y-133317600D01*
X198584917Y-133317601D01*
X198584918Y-133317601D01*
X198335163Y-133484481D01*
X198335161Y-133484483D01*
X198250832Y-133540830D01*
X198194485Y-133625159D01*
X197823691Y-133995953D01*
X197747838Y-133945270D01*
X196762731Y-132960163D01*
X196706382Y-132875831D01*
X196372295Y-132652601D01*
X196077689Y-132594000D01*
X196077684Y-132594000D01*
X195978213Y-132574214D01*
X195878742Y-132594000D01*
X195142714Y-132594000D01*
X195490153Y-132450086D01*
X195723707Y-132216532D01*
X196131073Y-132216532D01*
X196229736Y-132483387D01*
X196839461Y-132709908D01*
X197489460Y-132685856D01*
X197978264Y-132483387D01*
X198076927Y-132216532D01*
X203751073Y-132216532D01*
X203849736Y-132483387D01*
X204459461Y-132709908D01*
X205109460Y-132685856D01*
X205598264Y-132483387D01*
X205696927Y-132216532D01*
X204724000Y-131243605D01*
X203751073Y-132216532D01*
X198076927Y-132216532D01*
X197104000Y-131243605D01*
X196131073Y-132216532D01*
X195723707Y-132216532D01*
X195916311Y-132023928D01*
X195951468Y-132036927D01*
X196924395Y-131064000D01*
X197283605Y-131064000D01*
X198256532Y-132036927D01*
X198523387Y-131938264D01*
X198749908Y-131328539D01*
X198730331Y-130799461D01*
X203078092Y-130799461D01*
X203102144Y-131449460D01*
X203304613Y-131938264D01*
X203571468Y-132036927D01*
X204544395Y-131064000D01*
X204903605Y-131064000D01*
X205876532Y-132036927D01*
X206143387Y-131938264D01*
X206369908Y-131328539D01*
X206348085Y-130738778D01*
X210709000Y-130738778D01*
X210709000Y-131389222D01*
X210957914Y-131990153D01*
X211417847Y-132450086D01*
X212018778Y-132699000D01*
X212669222Y-132699000D01*
X213270153Y-132450086D01*
X213503707Y-132216532D01*
X213911073Y-132216532D01*
X214009736Y-132483387D01*
X214619461Y-132709908D01*
X215269460Y-132685856D01*
X215758264Y-132483387D01*
X215856927Y-132216532D01*
X221531073Y-132216532D01*
X221629736Y-132483387D01*
X222239461Y-132709908D01*
X222889460Y-132685856D01*
X223378264Y-132483387D01*
X223476927Y-132216532D01*
X222504000Y-131243605D01*
X221531073Y-132216532D01*
X215856927Y-132216532D01*
X214884000Y-131243605D01*
X213911073Y-132216532D01*
X213503707Y-132216532D01*
X213696311Y-132023928D01*
X213731468Y-132036927D01*
X214704395Y-131064000D01*
X215063605Y-131064000D01*
X216036532Y-132036927D01*
X216303387Y-131938264D01*
X216529908Y-131328539D01*
X216510331Y-130799461D01*
X220858092Y-130799461D01*
X220882144Y-131449460D01*
X221084613Y-131938264D01*
X221351468Y-132036927D01*
X222324395Y-131064000D01*
X222683605Y-131064000D01*
X223656532Y-132036927D01*
X223923387Y-131938264D01*
X224149908Y-131328539D01*
X224125856Y-130678540D01*
X223923387Y-130189736D01*
X223656532Y-130091073D01*
X222683605Y-131064000D01*
X222324395Y-131064000D01*
X221351468Y-130091073D01*
X221084613Y-130189736D01*
X220858092Y-130799461D01*
X216510331Y-130799461D01*
X216505856Y-130678540D01*
X216303387Y-130189736D01*
X216036532Y-130091073D01*
X215063605Y-131064000D01*
X214704395Y-131064000D01*
X213731468Y-130091073D01*
X213696311Y-130104072D01*
X213507191Y-129914952D01*
X213510675Y-129911468D01*
X213911073Y-129911468D01*
X214884000Y-130884395D01*
X215856927Y-129911468D01*
X221531073Y-129911468D01*
X222504000Y-130884395D01*
X223476927Y-129911468D01*
X223378264Y-129644613D01*
X222768539Y-129418092D01*
X222118540Y-129442144D01*
X221629736Y-129644613D01*
X221531073Y-129911468D01*
X215856927Y-129911468D01*
X215758264Y-129644613D01*
X215148539Y-129418092D01*
X214498540Y-129442144D01*
X214009736Y-129644613D01*
X213911073Y-129911468D01*
X213510675Y-129911468D01*
X215412143Y-128010000D01*
X218690604Y-128010000D01*
X218897138Y-128216534D01*
X219424561Y-128435000D01*
X219995439Y-128435000D01*
X220522862Y-128216534D01*
X220769396Y-127970000D01*
X222500604Y-127970000D01*
X222707138Y-128176534D01*
X223234561Y-128395000D01*
X223805439Y-128395000D01*
X224332862Y-128176534D01*
X224736534Y-127772862D01*
X224955000Y-127245439D01*
X224955000Y-126674561D01*
X224736534Y-126147138D01*
X224467497Y-125878101D01*
X224567765Y-125858157D01*
X224777809Y-125717809D01*
X224918157Y-125507765D01*
X224967440Y-125260000D01*
X224967440Y-123660000D01*
X224918157Y-123412235D01*
X224777809Y-123202191D01*
X224567765Y-123061843D01*
X224320000Y-123012560D01*
X223500916Y-123012560D01*
X221773355Y-121285000D01*
X223553356Y-119505000D01*
X223797483Y-119505000D01*
X224310204Y-119292624D01*
X224665877Y-118936951D01*
X224701843Y-119117765D01*
X224842191Y-119327809D01*
X225052235Y-119468157D01*
X225300000Y-119517440D01*
X226820000Y-119517440D01*
X227067765Y-119468157D01*
X227277809Y-119327809D01*
X227418157Y-119117765D01*
X227467440Y-118870000D01*
X227467440Y-117350000D01*
X227418157Y-117102235D01*
X227277809Y-116892191D01*
X227067765Y-116751843D01*
X226820000Y-116702560D01*
X225300000Y-116702560D01*
X225052235Y-116751843D01*
X224842191Y-116892191D01*
X224701843Y-117102235D01*
X224665877Y-117283049D01*
X224310204Y-116927376D01*
X223797483Y-116715000D01*
X223242517Y-116715000D01*
X222729796Y-116927376D01*
X222337376Y-117319796D01*
X222250000Y-117530740D01*
X222162624Y-117319796D01*
X221770204Y-116927376D01*
X221257483Y-116715000D01*
X220702517Y-116715000D01*
X220189796Y-116927376D01*
X219797376Y-117319796D01*
X219585000Y-117832517D01*
X219585000Y-118387483D01*
X219797376Y-118900204D01*
X220189796Y-119292624D01*
X220698365Y-119503280D01*
X219716645Y-120485000D01*
X219424561Y-120485000D01*
X218897138Y-120703466D01*
X218493466Y-121107138D01*
X218275000Y-121634561D01*
X218275000Y-122205439D01*
X218493466Y-122732862D01*
X218897138Y-123136534D01*
X219424561Y-123355000D01*
X219995439Y-123355000D01*
X220522862Y-123136534D01*
X220645520Y-123013876D01*
X222072560Y-124440916D01*
X222072560Y-125260000D01*
X222121843Y-125507765D01*
X222262191Y-125717809D01*
X222472235Y-125858157D01*
X222572503Y-125878101D01*
X222500604Y-125950000D01*
X220689396Y-125950000D01*
X220522862Y-125783466D01*
X219995439Y-125565000D01*
X219424561Y-125565000D01*
X218897138Y-125783466D01*
X218690604Y-125990000D01*
X215093258Y-125990000D01*
X214993787Y-125970214D01*
X214894316Y-125990000D01*
X214894311Y-125990000D01*
X214599705Y-126048601D01*
X214599703Y-126048602D01*
X214599704Y-126048602D01*
X214349949Y-126215482D01*
X214349947Y-126215484D01*
X214265618Y-126271831D01*
X214209271Y-126356160D01*
X213387756Y-127177675D01*
X213359915Y-127127000D01*
X212217000Y-127127000D01*
X212217000Y-128270629D01*
X212267318Y-128298114D01*
X211700163Y-128865269D01*
X211615831Y-128921618D01*
X211392601Y-129255706D01*
X211334000Y-129550312D01*
X211334000Y-129550316D01*
X211314214Y-129649787D01*
X211334000Y-129749258D01*
X211334000Y-129761761D01*
X210957914Y-130137847D01*
X210709000Y-130738778D01*
X206348085Y-130738778D01*
X206345856Y-130678540D01*
X206143387Y-130189736D01*
X205876532Y-130091073D01*
X204903605Y-131064000D01*
X204544395Y-131064000D01*
X203571468Y-130091073D01*
X203304613Y-130189736D01*
X203078092Y-130799461D01*
X198730331Y-130799461D01*
X198725856Y-130678540D01*
X198523387Y-130189736D01*
X198256532Y-130091073D01*
X197283605Y-131064000D01*
X196924395Y-131064000D01*
X195951468Y-130091073D01*
X195916311Y-130104072D01*
X195727191Y-129914952D01*
X195730675Y-129911468D01*
X196131073Y-129911468D01*
X197104000Y-130884395D01*
X198076927Y-129911468D01*
X203751073Y-129911468D01*
X204724000Y-130884395D01*
X205696927Y-129911468D01*
X205598264Y-129644613D01*
X204988539Y-129418092D01*
X204338540Y-129442144D01*
X203849736Y-129644613D01*
X203751073Y-129911468D01*
X198076927Y-129911468D01*
X197978264Y-129644613D01*
X197368539Y-129418092D01*
X196718540Y-129442144D01*
X196229736Y-129644613D01*
X196131073Y-129911468D01*
X195730675Y-129911468D01*
X197632143Y-128010000D01*
X200910604Y-128010000D01*
X201117138Y-128216534D01*
X201644561Y-128435000D01*
X202215439Y-128435000D01*
X202742862Y-128216534D01*
X202989396Y-127970000D01*
X204720604Y-127970000D01*
X204927138Y-128176534D01*
X205454561Y-128395000D01*
X206025439Y-128395000D01*
X206552862Y-128176534D01*
X206956534Y-127772862D01*
X207132087Y-127349039D01*
X210698096Y-127349039D01*
X210858959Y-127737423D01*
X211234866Y-128152389D01*
X211740959Y-128391914D01*
X211963000Y-128270629D01*
X211963000Y-127127000D01*
X210820085Y-127127000D01*
X210698096Y-127349039D01*
X207132087Y-127349039D01*
X207175000Y-127245439D01*
X207175000Y-126674561D01*
X207165225Y-126650961D01*
X210698096Y-126650961D01*
X210820085Y-126873000D01*
X211963000Y-126873000D01*
X211963000Y-125729371D01*
X212217000Y-125729371D01*
X212217000Y-126873000D01*
X213359915Y-126873000D01*
X213481904Y-126650961D01*
X213321041Y-126262577D01*
X212945134Y-125847611D01*
X212439041Y-125608086D01*
X212217000Y-125729371D01*
X211963000Y-125729371D01*
X211740959Y-125608086D01*
X211234866Y-125847611D01*
X210858959Y-126262577D01*
X210698096Y-126650961D01*
X207165225Y-126650961D01*
X206956534Y-126147138D01*
X206687497Y-125878101D01*
X206787765Y-125858157D01*
X206997809Y-125717809D01*
X207138157Y-125507765D01*
X207187440Y-125260000D01*
X207187440Y-123660000D01*
X207138157Y-123412235D01*
X206997809Y-123202191D01*
X206787765Y-123061843D01*
X206540000Y-123012560D01*
X204940000Y-123012560D01*
X204692235Y-123061843D01*
X204577118Y-123138762D01*
X203707395Y-122269039D01*
X210698096Y-122269039D01*
X210858959Y-122657423D01*
X211234866Y-123072389D01*
X211740959Y-123311914D01*
X211963000Y-123190629D01*
X211963000Y-122047000D01*
X212217000Y-122047000D01*
X212217000Y-123190629D01*
X212439041Y-123311914D01*
X212945134Y-123072389D01*
X213321041Y-122657423D01*
X213481904Y-122269039D01*
X213359915Y-122047000D01*
X212217000Y-122047000D01*
X211963000Y-122047000D01*
X210820085Y-122047000D01*
X210698096Y-122269039D01*
X203707395Y-122269039D01*
X203365000Y-121926645D01*
X203365000Y-121913355D01*
X203707394Y-121570961D01*
X210698096Y-121570961D01*
X210820085Y-121793000D01*
X211963000Y-121793000D01*
X211963000Y-120649371D01*
X212217000Y-120649371D01*
X212217000Y-121793000D01*
X213359915Y-121793000D01*
X213481904Y-121570961D01*
X213321041Y-121182577D01*
X212945134Y-120767611D01*
X212439041Y-120528086D01*
X212217000Y-120649371D01*
X211963000Y-120649371D01*
X211740959Y-120528086D01*
X211234866Y-120767611D01*
X210858959Y-121182577D01*
X210698096Y-121570961D01*
X203707394Y-121570961D01*
X205773356Y-119505000D01*
X206017483Y-119505000D01*
X206530204Y-119292624D01*
X206885877Y-118936951D01*
X206921843Y-119117765D01*
X207062191Y-119327809D01*
X207272235Y-119468157D01*
X207520000Y-119517440D01*
X209040000Y-119517440D01*
X209287765Y-119468157D01*
X209497809Y-119327809D01*
X209638157Y-119117765D01*
X209687440Y-118870000D01*
X209687440Y-117350000D01*
X209638157Y-117102235D01*
X209497809Y-116892191D01*
X209287765Y-116751843D01*
X209040000Y-116702560D01*
X207520000Y-116702560D01*
X207272235Y-116751843D01*
X207062191Y-116892191D01*
X206921843Y-117102235D01*
X206885877Y-117283049D01*
X206530204Y-116927376D01*
X206017483Y-116715000D01*
X205462517Y-116715000D01*
X204949796Y-116927376D01*
X204557376Y-117319796D01*
X204470000Y-117530740D01*
X204382624Y-117319796D01*
X203990204Y-116927376D01*
X203477483Y-116715000D01*
X202922517Y-116715000D01*
X202409796Y-116927376D01*
X202017376Y-117319796D01*
X201805000Y-117832517D01*
X201805000Y-118387483D01*
X202017376Y-118900204D01*
X202409796Y-119292624D01*
X202918365Y-119503280D01*
X201936645Y-120485000D01*
X201644561Y-120485000D01*
X201117138Y-120703466D01*
X200713466Y-121107138D01*
X200495000Y-121634561D01*
X200495000Y-122205439D01*
X200713466Y-122732862D01*
X201117138Y-123136534D01*
X201644561Y-123355000D01*
X201936645Y-123355000D01*
X203685484Y-125103840D01*
X203741831Y-125188169D01*
X203826160Y-125244516D01*
X203826161Y-125244517D01*
X203935381Y-125317495D01*
X204075918Y-125411399D01*
X204332840Y-125462504D01*
X204341843Y-125507765D01*
X204482191Y-125717809D01*
X204692235Y-125858157D01*
X204792503Y-125878101D01*
X204720604Y-125950000D01*
X202909396Y-125950000D01*
X202742862Y-125783466D01*
X202215439Y-125565000D01*
X201644561Y-125565000D01*
X201117138Y-125783466D01*
X200910604Y-125990000D01*
X197313258Y-125990000D01*
X197213787Y-125970214D01*
X197114316Y-125990000D01*
X197114311Y-125990000D01*
X196819705Y-126048601D01*
X196819703Y-126048602D01*
X196819704Y-126048602D01*
X196569949Y-126215482D01*
X196569947Y-126215484D01*
X196485618Y-126271831D01*
X196429271Y-126356160D01*
X195607756Y-127177675D01*
X195579915Y-127127000D01*
X194437000Y-127127000D01*
X194437000Y-128270629D01*
X194487318Y-128298114D01*
X193920163Y-128865269D01*
X193835831Y-128921618D01*
X193612601Y-129255706D01*
X193554000Y-129550312D01*
X193554000Y-129550316D01*
X193534214Y-129649787D01*
X193554000Y-129749258D01*
X193554000Y-129761761D01*
X193177914Y-130137847D01*
X192929000Y-130738778D01*
X192929000Y-131389222D01*
X193177914Y-131990153D01*
X193637847Y-132450086D01*
X193985286Y-132594000D01*
X187551220Y-132594000D01*
X187818264Y-132483387D01*
X187916927Y-132216532D01*
X186944000Y-131243605D01*
X185971073Y-132216532D01*
X186069736Y-132483387D01*
X186367472Y-132594000D01*
X181963470Y-132594000D01*
X181863999Y-132574214D01*
X181764528Y-132594000D01*
X181764524Y-132594000D01*
X181469918Y-132652601D01*
X181400477Y-132699000D01*
X181220161Y-132819483D01*
X181220160Y-132819484D01*
X181135831Y-132875831D01*
X181079484Y-132960160D01*
X180043691Y-133995953D01*
X179967838Y-133945270D01*
X179797730Y-133775162D01*
X179741381Y-133690830D01*
X179407294Y-133467600D01*
X179112688Y-133408999D01*
X179112683Y-133408999D01*
X179013212Y-133389213D01*
X178913741Y-133408999D01*
X162296471Y-133408999D01*
X162197000Y-133389213D01*
X162097530Y-133408999D01*
X162097525Y-133408999D01*
X161802919Y-133467600D01*
X161468832Y-133690830D01*
X161418763Y-133765764D01*
X161343832Y-133815831D01*
X161287485Y-133900160D01*
X161287482Y-133900163D01*
X161120602Y-134149918D01*
X161042214Y-134544000D01*
X161062001Y-134643475D01*
X161062001Y-134678385D01*
X160974235Y-134695843D01*
X160764191Y-134836191D01*
X160623843Y-135046235D01*
X160606386Y-135134000D01*
X157071470Y-135134000D01*
X156971999Y-135114214D01*
X156872528Y-135134000D01*
X156872524Y-135134000D01*
X156577918Y-135192601D01*
X156243831Y-135415831D01*
X156187482Y-135500163D01*
X153410000Y-138277645D01*
X153410000Y-134801471D01*
X153429786Y-134702000D01*
X153410000Y-134602529D01*
X153410000Y-134602524D01*
X153351399Y-134307918D01*
X153203085Y-134085950D01*
X153184518Y-134058162D01*
X153184516Y-134058160D01*
X153128169Y-133973831D01*
X153043841Y-133917485D01*
X150562518Y-131436163D01*
X150506169Y-131351831D01*
X150172082Y-131128601D01*
X149877476Y-131070000D01*
X149877471Y-131070000D01*
X149778000Y-131050214D01*
X149678529Y-131070000D01*
X149675440Y-131070000D01*
X149675440Y-130880000D01*
X149626157Y-130632235D01*
X149485809Y-130422191D01*
X149275765Y-130281843D01*
X149028000Y-130232560D01*
X146628000Y-130232560D01*
X146380235Y-130281843D01*
X146170191Y-130422191D01*
X146029843Y-130632235D01*
X145980560Y-130880000D01*
X145980560Y-131070000D01*
X145855470Y-131070000D01*
X145755999Y-131050214D01*
X145656528Y-131070000D01*
X145656524Y-131070000D01*
X145361918Y-131128601D01*
X145027831Y-131351831D01*
X144971482Y-131436163D01*
X139058645Y-137349000D01*
X138886452Y-137349000D01*
X138395783Y-137552242D01*
X138020242Y-137927783D01*
X137998634Y-137979949D01*
X137950157Y-137736235D01*
X137809809Y-137526191D01*
X137599765Y-137385843D01*
X137352000Y-137336560D01*
X135952000Y-137336560D01*
X135704235Y-137385843D01*
X135494191Y-137526191D01*
X135353843Y-137736235D01*
X135304560Y-137984000D01*
X127635500Y-137984000D01*
X127635500Y-129032000D01*
X151952887Y-129032000D01*
X152064260Y-129591909D01*
X152381423Y-130066577D01*
X152856091Y-130383740D01*
X153274667Y-130467000D01*
X153557333Y-130467000D01*
X153868708Y-130405064D01*
X154829000Y-131365356D01*
X154829000Y-131897222D01*
X155077914Y-132498153D01*
X155537847Y-132958086D01*
X156138778Y-133207000D01*
X156789222Y-133207000D01*
X157390153Y-132958086D01*
X157454962Y-132893277D01*
X157546191Y-133029809D01*
X157756235Y-133170157D01*
X158004000Y-133219440D01*
X160004000Y-133219440D01*
X160251765Y-133170157D01*
X160461809Y-133029809D01*
X160602157Y-132819765D01*
X160651440Y-132572000D01*
X160651440Y-132107958D01*
X161207647Y-132107958D01*
X161287920Y-132359259D01*
X161843279Y-132560718D01*
X162433458Y-132534315D01*
X162856080Y-132359259D01*
X162936353Y-132107958D01*
X162072000Y-131243605D01*
X161207647Y-132107958D01*
X160651440Y-132107958D01*
X160651440Y-131545577D01*
X160776741Y-131848080D01*
X161028042Y-131928353D01*
X161892395Y-131064000D01*
X162251605Y-131064000D01*
X163115958Y-131928353D01*
X163367259Y-131848080D01*
X163568718Y-131292721D01*
X163545271Y-130768615D01*
X163587000Y-130768615D01*
X163587000Y-131359385D01*
X163813078Y-131905185D01*
X164230815Y-132322922D01*
X164776615Y-132549000D01*
X165367385Y-132549000D01*
X165913185Y-132322922D01*
X166272000Y-131964107D01*
X166630815Y-132322922D01*
X167176615Y-132549000D01*
X167767385Y-132549000D01*
X168313185Y-132322922D01*
X168528149Y-132107958D01*
X168807647Y-132107958D01*
X168887920Y-132359259D01*
X169443279Y-132560718D01*
X170033458Y-132534315D01*
X170456080Y-132359259D01*
X170536353Y-132107958D01*
X169672000Y-131243605D01*
X168807647Y-132107958D01*
X168528149Y-132107958D01*
X168730922Y-131905185D01*
X168787287Y-131769108D01*
X169492395Y-131064000D01*
X169851605Y-131064000D01*
X170715958Y-131928353D01*
X170967259Y-131848080D01*
X171168718Y-131292721D01*
X171143937Y-130738778D01*
X175149000Y-130738778D01*
X175149000Y-131389222D01*
X175397914Y-131990153D01*
X175857847Y-132450086D01*
X176458778Y-132699000D01*
X177109222Y-132699000D01*
X177710153Y-132450086D01*
X177943707Y-132216532D01*
X178351073Y-132216532D01*
X178449736Y-132483387D01*
X179059461Y-132709908D01*
X179709460Y-132685856D01*
X180198264Y-132483387D01*
X180296927Y-132216532D01*
X179324000Y-131243605D01*
X178351073Y-132216532D01*
X177943707Y-132216532D01*
X178136311Y-132023928D01*
X178171468Y-132036927D01*
X179144395Y-131064000D01*
X179503605Y-131064000D01*
X180476532Y-132036927D01*
X180743387Y-131938264D01*
X180969908Y-131328539D01*
X180950331Y-130799461D01*
X185298092Y-130799461D01*
X185322144Y-131449460D01*
X185524613Y-131938264D01*
X185791468Y-132036927D01*
X186764395Y-131064000D01*
X187123605Y-131064000D01*
X188096532Y-132036927D01*
X188363387Y-131938264D01*
X188589908Y-131328539D01*
X188565856Y-130678540D01*
X188363387Y-130189736D01*
X188096532Y-130091073D01*
X187123605Y-131064000D01*
X186764395Y-131064000D01*
X185791468Y-130091073D01*
X185524613Y-130189736D01*
X185298092Y-130799461D01*
X180950331Y-130799461D01*
X180945856Y-130678540D01*
X180743387Y-130189736D01*
X180476532Y-130091073D01*
X179503605Y-131064000D01*
X179144395Y-131064000D01*
X178171468Y-130091073D01*
X178136311Y-130104072D01*
X177947191Y-129914952D01*
X177950675Y-129911468D01*
X178351073Y-129911468D01*
X179324000Y-130884395D01*
X180296927Y-129911468D01*
X185971073Y-129911468D01*
X186944000Y-130884395D01*
X187916927Y-129911468D01*
X187818264Y-129644613D01*
X187208539Y-129418092D01*
X186558540Y-129442144D01*
X186069736Y-129644613D01*
X185971073Y-129911468D01*
X180296927Y-129911468D01*
X180198264Y-129644613D01*
X179588539Y-129418092D01*
X178938540Y-129442144D01*
X178449736Y-129644613D01*
X178351073Y-129911468D01*
X177950675Y-129911468D01*
X179852143Y-128010000D01*
X183130604Y-128010000D01*
X183337138Y-128216534D01*
X183864561Y-128435000D01*
X184435439Y-128435000D01*
X184962862Y-128216534D01*
X185209396Y-127970000D01*
X186940604Y-127970000D01*
X187147138Y-128176534D01*
X187674561Y-128395000D01*
X188245439Y-128395000D01*
X188772862Y-128176534D01*
X189176534Y-127772862D01*
X189352087Y-127349039D01*
X192918096Y-127349039D01*
X193078959Y-127737423D01*
X193454866Y-128152389D01*
X193960959Y-128391914D01*
X194183000Y-128270629D01*
X194183000Y-127127000D01*
X193040085Y-127127000D01*
X192918096Y-127349039D01*
X189352087Y-127349039D01*
X189395000Y-127245439D01*
X189395000Y-126674561D01*
X189385225Y-126650961D01*
X192918096Y-126650961D01*
X193040085Y-126873000D01*
X194183000Y-126873000D01*
X194183000Y-125729371D01*
X194437000Y-125729371D01*
X194437000Y-126873000D01*
X195579915Y-126873000D01*
X195701904Y-126650961D01*
X195541041Y-126262577D01*
X195165134Y-125847611D01*
X194659041Y-125608086D01*
X194437000Y-125729371D01*
X194183000Y-125729371D01*
X193960959Y-125608086D01*
X193454866Y-125847611D01*
X193078959Y-126262577D01*
X192918096Y-126650961D01*
X189385225Y-126650961D01*
X189176534Y-126147138D01*
X188907497Y-125878101D01*
X189007765Y-125858157D01*
X189217809Y-125717809D01*
X189358157Y-125507765D01*
X189407440Y-125260000D01*
X189407440Y-123660000D01*
X189358157Y-123412235D01*
X189217809Y-123202191D01*
X189007765Y-123061843D01*
X188970000Y-123054331D01*
X188970000Y-122269039D01*
X192918096Y-122269039D01*
X193078959Y-122657423D01*
X193454866Y-123072389D01*
X193960959Y-123311914D01*
X194183000Y-123190629D01*
X194183000Y-122047000D01*
X194437000Y-122047000D01*
X194437000Y-123190629D01*
X194659041Y-123311914D01*
X195165134Y-123072389D01*
X195541041Y-122657423D01*
X195701904Y-122269039D01*
X195579915Y-122047000D01*
X194437000Y-122047000D01*
X194183000Y-122047000D01*
X193040085Y-122047000D01*
X192918096Y-122269039D01*
X188970000Y-122269039D01*
X188970000Y-121570961D01*
X192918096Y-121570961D01*
X193040085Y-121793000D01*
X194183000Y-121793000D01*
X194183000Y-120649371D01*
X194437000Y-120649371D01*
X194437000Y-121793000D01*
X195579915Y-121793000D01*
X195701904Y-121570961D01*
X195541041Y-121182577D01*
X195165134Y-120767611D01*
X194659041Y-120528086D01*
X194437000Y-120649371D01*
X194183000Y-120649371D01*
X193960959Y-120528086D01*
X193454866Y-120767611D01*
X193078959Y-121182577D01*
X192918096Y-121570961D01*
X188970000Y-121570961D01*
X188970000Y-119072828D01*
X189105877Y-118936951D01*
X189141843Y-119117765D01*
X189282191Y-119327809D01*
X189492235Y-119468157D01*
X189740000Y-119517440D01*
X191260000Y-119517440D01*
X191507765Y-119468157D01*
X191717809Y-119327809D01*
X191858157Y-119117765D01*
X191907440Y-118870000D01*
X191907440Y-117350000D01*
X191858157Y-117102235D01*
X191717809Y-116892191D01*
X191507765Y-116751843D01*
X191260000Y-116702560D01*
X189740000Y-116702560D01*
X189492235Y-116751843D01*
X189282191Y-116892191D01*
X189141843Y-117102235D01*
X189105877Y-117283049D01*
X188750204Y-116927376D01*
X188237483Y-116715000D01*
X187682517Y-116715000D01*
X187169796Y-116927376D01*
X186777376Y-117319796D01*
X186690000Y-117530740D01*
X186602624Y-117319796D01*
X186210204Y-116927376D01*
X185697483Y-116715000D01*
X185142517Y-116715000D01*
X184629796Y-116927376D01*
X184237376Y-117319796D01*
X184025000Y-117832517D01*
X184025000Y-118387483D01*
X184237376Y-118900204D01*
X184629796Y-119292624D01*
X185142517Y-119505000D01*
X185697483Y-119505000D01*
X186210204Y-119292624D01*
X186602624Y-118900204D01*
X186690000Y-118689260D01*
X186777376Y-118900204D01*
X186950000Y-119072828D01*
X186950001Y-123054331D01*
X186912235Y-123061843D01*
X186702191Y-123202191D01*
X186561843Y-123412235D01*
X186554331Y-123450000D01*
X186473356Y-123450000D01*
X185585000Y-122561645D01*
X185585000Y-122269561D01*
X185366534Y-121742138D01*
X184962862Y-121338466D01*
X184435439Y-121120000D01*
X183864561Y-121120000D01*
X183337138Y-121338466D01*
X182933466Y-121742138D01*
X182715000Y-122269561D01*
X182715000Y-122840439D01*
X182933466Y-123367862D01*
X183337138Y-123771534D01*
X183864561Y-123990000D01*
X184156645Y-123990000D01*
X185270484Y-125103840D01*
X185326831Y-125188169D01*
X185411160Y-125244516D01*
X185411162Y-125244518D01*
X185586105Y-125361411D01*
X185660918Y-125411399D01*
X185955524Y-125470000D01*
X185955529Y-125470000D01*
X186055000Y-125489786D01*
X186154471Y-125470000D01*
X186554331Y-125470000D01*
X186561843Y-125507765D01*
X186702191Y-125717809D01*
X186912235Y-125858157D01*
X187012503Y-125878101D01*
X186940604Y-125950000D01*
X185129396Y-125950000D01*
X184962862Y-125783466D01*
X184435439Y-125565000D01*
X183864561Y-125565000D01*
X183337138Y-125783466D01*
X183130604Y-125990000D01*
X179533258Y-125990000D01*
X179433787Y-125970214D01*
X179334316Y-125990000D01*
X179334311Y-125990000D01*
X179039705Y-126048601D01*
X179039703Y-126048602D01*
X179039704Y-126048602D01*
X178789949Y-126215482D01*
X178789947Y-126215484D01*
X178705618Y-126271831D01*
X178649271Y-126356160D01*
X177827756Y-127177675D01*
X177799915Y-127127000D01*
X176657000Y-127127000D01*
X176657000Y-128270629D01*
X176707318Y-128298114D01*
X176140163Y-128865269D01*
X176055831Y-128921618D01*
X175832601Y-129255706D01*
X175774000Y-129550312D01*
X175774000Y-129550316D01*
X175754214Y-129649787D01*
X175774000Y-129749258D01*
X175774000Y-129761761D01*
X175397914Y-130137847D01*
X175149000Y-130738778D01*
X171143937Y-130738778D01*
X171142315Y-130702542D01*
X170967259Y-130279920D01*
X170715958Y-130199647D01*
X169851605Y-131064000D01*
X169492395Y-131064000D01*
X168787287Y-130358892D01*
X168730922Y-130222815D01*
X168528149Y-130020042D01*
X168807647Y-130020042D01*
X169672000Y-130884395D01*
X170536353Y-130020042D01*
X170456080Y-129768741D01*
X169900721Y-129567282D01*
X169310542Y-129593685D01*
X168887920Y-129768741D01*
X168807647Y-130020042D01*
X168528149Y-130020042D01*
X168313185Y-129805078D01*
X167767385Y-129579000D01*
X167176615Y-129579000D01*
X166630815Y-129805078D01*
X166272000Y-130163893D01*
X165913185Y-129805078D01*
X165367385Y-129579000D01*
X164776615Y-129579000D01*
X164230815Y-129805078D01*
X163813078Y-130222815D01*
X163587000Y-130768615D01*
X163545271Y-130768615D01*
X163542315Y-130702542D01*
X163367259Y-130279920D01*
X163115958Y-130199647D01*
X162251605Y-131064000D01*
X161892395Y-131064000D01*
X161028042Y-130199647D01*
X160776741Y-130279920D01*
X160651440Y-130625335D01*
X160651440Y-130572000D01*
X160602157Y-130324235D01*
X160461809Y-130114191D01*
X160320907Y-130020042D01*
X161207647Y-130020042D01*
X162072000Y-130884395D01*
X162936353Y-130020042D01*
X162856080Y-129768741D01*
X162300721Y-129567282D01*
X161710542Y-129593685D01*
X161287920Y-129768741D01*
X161207647Y-130020042D01*
X160320907Y-130020042D01*
X160251765Y-129973843D01*
X160004000Y-129924560D01*
X158004000Y-129924560D01*
X157756235Y-129973843D01*
X157546191Y-130114191D01*
X157454962Y-130250723D01*
X157390153Y-130185914D01*
X156789222Y-129937000D01*
X156257356Y-129937000D01*
X154717990Y-128397635D01*
X154450577Y-127997423D01*
X153975909Y-127680260D01*
X153557333Y-127597000D01*
X153274667Y-127597000D01*
X152856091Y-127680260D01*
X152381423Y-127997423D01*
X152064260Y-128472091D01*
X151952887Y-129032000D01*
X127635500Y-129032000D01*
X127635500Y-128005877D01*
X128205728Y-128005877D01*
X128365495Y-128324632D01*
X129156217Y-128634595D01*
X130005366Y-128618367D01*
X130714505Y-128324632D01*
X130874272Y-128005877D01*
X129540000Y-126671605D01*
X128205728Y-128005877D01*
X127635500Y-128005877D01*
X127635500Y-127493000D01*
X127707368Y-127666505D01*
X128026123Y-127826272D01*
X129360395Y-126492000D01*
X129719605Y-126492000D01*
X131053877Y-127826272D01*
X131372632Y-127666505D01*
X131682595Y-126875783D01*
X131681932Y-126841041D01*
X134244086Y-126841041D01*
X134483611Y-127347134D01*
X134898577Y-127723041D01*
X135286961Y-127883904D01*
X135509000Y-127761915D01*
X135509000Y-126619000D01*
X135763000Y-126619000D01*
X135763000Y-127761915D01*
X135985039Y-127883904D01*
X136373423Y-127723041D01*
X136786286Y-127349039D01*
X157358096Y-127349039D01*
X157518959Y-127737423D01*
X157894866Y-128152389D01*
X158400959Y-128391914D01*
X158623000Y-128270629D01*
X158623000Y-127127000D01*
X158877000Y-127127000D01*
X158877000Y-128270629D01*
X159099041Y-128391914D01*
X159605134Y-128152389D01*
X159981041Y-127737423D01*
X160141904Y-127349039D01*
X160019915Y-127127000D01*
X158877000Y-127127000D01*
X158623000Y-127127000D01*
X157480085Y-127127000D01*
X157358096Y-127349039D01*
X136786286Y-127349039D01*
X136788389Y-127347134D01*
X137027914Y-126841041D01*
X136924087Y-126650961D01*
X157358096Y-126650961D01*
X157480085Y-126873000D01*
X158623000Y-126873000D01*
X158623000Y-125729371D01*
X158877000Y-125729371D01*
X158877000Y-126873000D01*
X160019915Y-126873000D01*
X160141904Y-126650961D01*
X159981041Y-126262577D01*
X159605134Y-125847611D01*
X159099041Y-125608086D01*
X158877000Y-125729371D01*
X158623000Y-125729371D01*
X158400959Y-125608086D01*
X157894866Y-125847611D01*
X157518959Y-126262577D01*
X157358096Y-126650961D01*
X136924087Y-126650961D01*
X136906629Y-126619000D01*
X135763000Y-126619000D01*
X135509000Y-126619000D01*
X134365371Y-126619000D01*
X134244086Y-126841041D01*
X131681932Y-126841041D01*
X131668591Y-126142959D01*
X134244086Y-126142959D01*
X134365371Y-126365000D01*
X135509000Y-126365000D01*
X135509000Y-125222085D01*
X135763000Y-125222085D01*
X135763000Y-126365000D01*
X136906629Y-126365000D01*
X137027914Y-126142959D01*
X136788389Y-125636866D01*
X136373423Y-125260959D01*
X135985039Y-125100096D01*
X135763000Y-125222085D01*
X135509000Y-125222085D01*
X135286961Y-125100096D01*
X134898577Y-125260959D01*
X134483611Y-125636866D01*
X134244086Y-126142959D01*
X131668591Y-126142959D01*
X131666367Y-126026634D01*
X131372632Y-125317495D01*
X131053877Y-125157728D01*
X129719605Y-126492000D01*
X129360395Y-126492000D01*
X128026123Y-125157728D01*
X127707368Y-125317495D01*
X127635500Y-125500832D01*
X127635500Y-123662816D01*
X127730144Y-123891307D01*
X128330693Y-124491856D01*
X128550299Y-124582820D01*
X128365495Y-124659368D01*
X128205728Y-124978123D01*
X129540000Y-126312395D01*
X130874272Y-124978123D01*
X130714505Y-124659368D01*
X130524609Y-124584929D01*
X130749307Y-124491856D01*
X131349856Y-123891307D01*
X131674870Y-123106652D01*
X131674870Y-122331807D01*
X146039797Y-122331807D01*
X146333508Y-122984776D01*
X146854742Y-123475642D01*
X147416195Y-123708195D01*
X147701000Y-123591432D01*
X147701000Y-122047000D01*
X147955000Y-122047000D01*
X147955000Y-123591432D01*
X148239805Y-123708195D01*
X148801258Y-123475642D01*
X149322492Y-122984776D01*
X149616203Y-122331807D01*
X149499858Y-122047000D01*
X147955000Y-122047000D01*
X147701000Y-122047000D01*
X146156142Y-122047000D01*
X146039797Y-122331807D01*
X131674870Y-122331807D01*
X131674870Y-122257348D01*
X131647856Y-122192131D01*
X133226398Y-122192131D01*
X133325869Y-122211917D01*
X133425340Y-122192131D01*
X133425345Y-122192131D01*
X133719951Y-122133530D01*
X134054038Y-121910300D01*
X134110387Y-121825968D01*
X134428162Y-121508193D01*
X146039797Y-121508193D01*
X146156142Y-121793000D01*
X147701000Y-121793000D01*
X147701000Y-120248568D01*
X147955000Y-120248568D01*
X147955000Y-121793000D01*
X149499858Y-121793000D01*
X149616203Y-121508193D01*
X149444542Y-121126561D01*
X151981000Y-121126561D01*
X151981000Y-121697439D01*
X152199466Y-122224862D01*
X152603138Y-122628534D01*
X153130561Y-122847000D01*
X153701439Y-122847000D01*
X154228862Y-122628534D01*
X154588357Y-122269039D01*
X157358096Y-122269039D01*
X157518959Y-122657423D01*
X157894866Y-123072389D01*
X158400959Y-123311914D01*
X158623000Y-123190629D01*
X158623000Y-122047000D01*
X158877000Y-122047000D01*
X158877000Y-123190629D01*
X159099041Y-123311914D01*
X159605134Y-123072389D01*
X159981041Y-122657423D01*
X160141904Y-122269039D01*
X160019915Y-122047000D01*
X158877000Y-122047000D01*
X158623000Y-122047000D01*
X157480085Y-122047000D01*
X157358096Y-122269039D01*
X154588357Y-122269039D01*
X154632534Y-122224862D01*
X154851000Y-121697439D01*
X154851000Y-121570961D01*
X157358096Y-121570961D01*
X157480085Y-121793000D01*
X158623000Y-121793000D01*
X158623000Y-120649371D01*
X158877000Y-120649371D01*
X158877000Y-121793000D01*
X160019915Y-121793000D01*
X160141904Y-121570961D01*
X159981041Y-121182577D01*
X159605134Y-120767611D01*
X159099041Y-120528086D01*
X158877000Y-120649371D01*
X158623000Y-120649371D01*
X158400959Y-120528086D01*
X157894866Y-120767611D01*
X157518959Y-121182577D01*
X157358096Y-121570961D01*
X154851000Y-121570961D01*
X154851000Y-121126561D01*
X154632534Y-120599138D01*
X154228862Y-120195466D01*
X153701439Y-119977000D01*
X153130561Y-119977000D01*
X152603138Y-120195466D01*
X152199466Y-120599138D01*
X151981000Y-121126561D01*
X149444542Y-121126561D01*
X149322492Y-120855224D01*
X148801258Y-120364358D01*
X148239805Y-120131805D01*
X147955000Y-120248568D01*
X147701000Y-120248568D01*
X147416195Y-120131805D01*
X146854742Y-120364358D01*
X146333508Y-120855224D01*
X146039797Y-121508193D01*
X134428162Y-121508193D01*
X135629355Y-120307000D01*
X135921439Y-120307000D01*
X136448862Y-120088534D01*
X136655396Y-119882000D01*
X139736604Y-119882000D01*
X139943138Y-120088534D01*
X140470561Y-120307000D01*
X141041439Y-120307000D01*
X141568862Y-120088534D01*
X141972534Y-119684862D01*
X142006000Y-119604068D01*
X142039466Y-119684862D01*
X142443138Y-120088534D01*
X142970561Y-120307000D01*
X143541439Y-120307000D01*
X144068862Y-120088534D01*
X144472534Y-119684862D01*
X144691000Y-119157439D01*
X144691000Y-118586561D01*
X144472534Y-118059138D01*
X144068862Y-117655466D01*
X143541439Y-117437000D01*
X142970561Y-117437000D01*
X142443138Y-117655466D01*
X142039466Y-118059138D01*
X142006000Y-118139932D01*
X141972534Y-118059138D01*
X141568862Y-117655466D01*
X141041439Y-117437000D01*
X140470561Y-117437000D01*
X139943138Y-117655466D01*
X139736604Y-117862000D01*
X136655396Y-117862000D01*
X136448862Y-117655466D01*
X135921439Y-117437000D01*
X135350561Y-117437000D01*
X134823138Y-117655466D01*
X134419466Y-118059138D01*
X134201000Y-118586561D01*
X134201000Y-118878645D01*
X132907514Y-120172131D01*
X131687310Y-120172131D01*
X131687310Y-117372130D01*
X131638027Y-117124365D01*
X131497679Y-116914321D01*
X131386451Y-116840000D01*
X157286887Y-116840000D01*
X157398260Y-117399909D01*
X157715423Y-117874577D01*
X158190091Y-118191740D01*
X158608667Y-118275000D01*
X158756645Y-118275000D01*
X159995481Y-119513836D01*
X160051830Y-119598168D01*
X160385917Y-119821398D01*
X160680523Y-119879999D01*
X160680527Y-119879999D01*
X160779998Y-119899785D01*
X160879469Y-119879999D01*
X168050530Y-119879999D01*
X168150001Y-119899785D01*
X168249472Y-119879999D01*
X168249477Y-119879999D01*
X168252184Y-119879461D01*
X167305520Y-120826124D01*
X167182862Y-120703466D01*
X166655439Y-120485000D01*
X166084561Y-120485000D01*
X165557138Y-120703466D01*
X165153466Y-121107138D01*
X164935000Y-121634561D01*
X164935000Y-122205439D01*
X165153466Y-122732862D01*
X165557138Y-123136534D01*
X166084561Y-123355000D01*
X166376645Y-123355000D01*
X168125484Y-125103840D01*
X168181831Y-125188169D01*
X168266160Y-125244516D01*
X168266161Y-125244517D01*
X168375381Y-125317495D01*
X168515918Y-125411399D01*
X168810524Y-125470000D01*
X168810528Y-125470000D01*
X168909999Y-125489786D01*
X169009470Y-125470000D01*
X170044331Y-125470000D01*
X170051843Y-125507765D01*
X170192191Y-125717809D01*
X170402235Y-125858157D01*
X170502503Y-125878101D01*
X170390604Y-125990000D01*
X167389396Y-125990000D01*
X167182862Y-125783466D01*
X166655439Y-125565000D01*
X166084561Y-125565000D01*
X165557138Y-125783466D01*
X165153466Y-126187138D01*
X164935000Y-126714561D01*
X164935000Y-127285439D01*
X165153466Y-127812862D01*
X165557138Y-128216534D01*
X166084561Y-128435000D01*
X166655439Y-128435000D01*
X167182862Y-128216534D01*
X167389396Y-128010000D01*
X170470604Y-128010000D01*
X170637138Y-128176534D01*
X171164561Y-128395000D01*
X171735439Y-128395000D01*
X172262862Y-128176534D01*
X172666534Y-127772862D01*
X172842087Y-127349039D01*
X175138096Y-127349039D01*
X175298959Y-127737423D01*
X175674866Y-128152389D01*
X176180959Y-128391914D01*
X176403000Y-128270629D01*
X176403000Y-127127000D01*
X175260085Y-127127000D01*
X175138096Y-127349039D01*
X172842087Y-127349039D01*
X172885000Y-127245439D01*
X172885000Y-126674561D01*
X172875225Y-126650961D01*
X175138096Y-126650961D01*
X175260085Y-126873000D01*
X176403000Y-126873000D01*
X176403000Y-125729371D01*
X176657000Y-125729371D01*
X176657000Y-126873000D01*
X177799915Y-126873000D01*
X177921904Y-126650961D01*
X177761041Y-126262577D01*
X177385134Y-125847611D01*
X176879041Y-125608086D01*
X176657000Y-125729371D01*
X176403000Y-125729371D01*
X176180959Y-125608086D01*
X175674866Y-125847611D01*
X175298959Y-126262577D01*
X175138096Y-126650961D01*
X172875225Y-126650961D01*
X172666534Y-126147138D01*
X172397497Y-125878101D01*
X172497765Y-125858157D01*
X172707809Y-125717809D01*
X172848157Y-125507765D01*
X172897440Y-125260000D01*
X172897440Y-123660000D01*
X172848157Y-123412235D01*
X172707809Y-123202191D01*
X172497765Y-123061843D01*
X172250000Y-123012560D01*
X170650000Y-123012560D01*
X170402235Y-123061843D01*
X170192191Y-123202191D01*
X170051843Y-123412235D01*
X170044331Y-123450000D01*
X169328356Y-123450000D01*
X168782395Y-122904039D01*
X175138096Y-122904039D01*
X175298959Y-123292423D01*
X175674866Y-123707389D01*
X176180959Y-123946914D01*
X176403000Y-123825629D01*
X176403000Y-122682000D01*
X176657000Y-122682000D01*
X176657000Y-123825629D01*
X176879041Y-123946914D01*
X177385134Y-123707389D01*
X177761041Y-123292423D01*
X177921904Y-122904039D01*
X177799915Y-122682000D01*
X176657000Y-122682000D01*
X176403000Y-122682000D01*
X175260085Y-122682000D01*
X175138096Y-122904039D01*
X168782395Y-122904039D01*
X168433355Y-122555000D01*
X168782394Y-122205961D01*
X175138096Y-122205961D01*
X175260085Y-122428000D01*
X176403000Y-122428000D01*
X176403000Y-121284371D01*
X176657000Y-121284371D01*
X176657000Y-122428000D01*
X177799915Y-122428000D01*
X177921904Y-122205961D01*
X177761041Y-121817577D01*
X177385134Y-121402611D01*
X176879041Y-121163086D01*
X176657000Y-121284371D01*
X176403000Y-121284371D01*
X176180959Y-121163086D01*
X175674866Y-121402611D01*
X175298959Y-121817577D01*
X175138096Y-122205961D01*
X168782394Y-122205961D01*
X171483356Y-119505000D01*
X171727483Y-119505000D01*
X172240204Y-119292624D01*
X172595877Y-118936951D01*
X172631843Y-119117765D01*
X172772191Y-119327809D01*
X172982235Y-119468157D01*
X173230000Y-119517440D01*
X174750000Y-119517440D01*
X174997765Y-119468157D01*
X175207809Y-119327809D01*
X175348157Y-119117765D01*
X175397440Y-118870000D01*
X175397440Y-117350000D01*
X175348157Y-117102235D01*
X175207809Y-116892191D01*
X174997765Y-116751843D01*
X174750000Y-116702560D01*
X173230000Y-116702560D01*
X172982235Y-116751843D01*
X172772191Y-116892191D01*
X172631843Y-117102235D01*
X172595877Y-117283049D01*
X172240204Y-116927376D01*
X171731635Y-116716720D01*
X173773355Y-114675000D01*
X174875604Y-114675000D01*
X175082138Y-114881534D01*
X175609561Y-115100000D01*
X176180439Y-115100000D01*
X176707862Y-114881534D01*
X177111534Y-114477862D01*
X177303655Y-114014039D01*
X182123096Y-114014039D01*
X182283959Y-114402423D01*
X182659866Y-114817389D01*
X183165959Y-115056914D01*
X183388000Y-114935629D01*
X183388000Y-113792000D01*
X183642000Y-113792000D01*
X183642000Y-114935629D01*
X183864041Y-115056914D01*
X184370134Y-114817389D01*
X184746041Y-114402423D01*
X184906904Y-114014039D01*
X184784915Y-113792000D01*
X183642000Y-113792000D01*
X183388000Y-113792000D01*
X182245085Y-113792000D01*
X182123096Y-114014039D01*
X177303655Y-114014039D01*
X177330000Y-113950439D01*
X177330000Y-113379561D01*
X177303656Y-113315961D01*
X182123096Y-113315961D01*
X182245085Y-113538000D01*
X183388000Y-113538000D01*
X183388000Y-112394371D01*
X183642000Y-112394371D01*
X183642000Y-113538000D01*
X184784915Y-113538000D01*
X184906904Y-113315961D01*
X184746041Y-112927577D01*
X184370134Y-112512611D01*
X183864041Y-112273086D01*
X183642000Y-112394371D01*
X183388000Y-112394371D01*
X183165959Y-112273086D01*
X182659866Y-112512611D01*
X182283959Y-112927577D01*
X182123096Y-113315961D01*
X177303656Y-113315961D01*
X177111534Y-112852138D01*
X176707862Y-112448466D01*
X176180439Y-112230000D01*
X175609561Y-112230000D01*
X175082138Y-112448466D01*
X174875604Y-112655000D01*
X173454470Y-112655000D01*
X173354999Y-112635214D01*
X173255528Y-112655000D01*
X173255524Y-112655000D01*
X172960918Y-112713601D01*
X172626831Y-112936831D01*
X172570482Y-113021163D01*
X168876645Y-116715000D01*
X168632517Y-116715000D01*
X168119796Y-116927376D01*
X167727376Y-117319796D01*
X167515000Y-117832517D01*
X167515000Y-117859999D01*
X167379397Y-117859999D01*
X167586534Y-117652862D01*
X167805000Y-117125439D01*
X167805000Y-116554561D01*
X167586534Y-116027138D01*
X167182862Y-115623466D01*
X166655439Y-115405000D01*
X166084561Y-115405000D01*
X165557138Y-115623466D01*
X165153466Y-116027138D01*
X164935000Y-116554561D01*
X164935000Y-117125439D01*
X165153466Y-117652862D01*
X165360603Y-117859999D01*
X161198354Y-117859999D01*
X160207346Y-116868991D01*
X160213113Y-116840000D01*
X160101740Y-116280091D01*
X159784577Y-115805423D01*
X159309909Y-115488260D01*
X158891333Y-115405000D01*
X158608667Y-115405000D01*
X158190091Y-115488260D01*
X157715423Y-115805423D01*
X157398260Y-116280091D01*
X157286887Y-116840000D01*
X131386451Y-116840000D01*
X131287635Y-116773973D01*
X131039870Y-116724690D01*
X130550000Y-116724690D01*
X130550000Y-113318999D01*
X130574577Y-113302577D01*
X130592505Y-113275745D01*
X136331861Y-113275745D01*
X136405995Y-113521864D01*
X136943223Y-113714965D01*
X137513454Y-113687778D01*
X137914005Y-113521864D01*
X137988139Y-113275745D01*
X137160000Y-112447605D01*
X136331861Y-113275745D01*
X130592505Y-113275745D01*
X130891740Y-112827909D01*
X131003113Y-112268000D01*
X130959994Y-112051223D01*
X135713035Y-112051223D01*
X135740222Y-112621454D01*
X135906136Y-113022005D01*
X136152255Y-113096139D01*
X136980395Y-112268000D01*
X137339605Y-112268000D01*
X138167745Y-113096139D01*
X138413864Y-113022005D01*
X138606965Y-112484777D01*
X138579778Y-111914546D01*
X138413864Y-111513995D01*
X138167745Y-111439861D01*
X137339605Y-112268000D01*
X136980395Y-112268000D01*
X136152255Y-111439861D01*
X135906136Y-111513995D01*
X135713035Y-112051223D01*
X130959994Y-112051223D01*
X130891740Y-111708091D01*
X130592506Y-111260255D01*
X136331861Y-111260255D01*
X137160000Y-112088395D01*
X137988139Y-111260255D01*
X137914005Y-111014136D01*
X137376777Y-110821035D01*
X136806546Y-110848222D01*
X136405995Y-111014136D01*
X136331861Y-111260255D01*
X130592506Y-111260255D01*
X130574577Y-111233423D01*
X130099909Y-110916260D01*
X129681333Y-110833000D01*
X129398667Y-110833000D01*
X128980091Y-110916260D01*
X128505423Y-111233423D01*
X128188260Y-111708091D01*
X128076887Y-112268000D01*
X128188260Y-112827909D01*
X128505423Y-113302577D01*
X128530001Y-113318999D01*
X128530000Y-116724690D01*
X128040130Y-116724690D01*
X127792365Y-116773973D01*
X127635500Y-116878788D01*
X127635500Y-108934561D01*
X159895000Y-108934561D01*
X159895000Y-109505439D01*
X160113466Y-110032862D01*
X160517138Y-110436534D01*
X161044561Y-110655000D01*
X161615439Y-110655000D01*
X162142862Y-110436534D01*
X162406155Y-110173241D01*
X162491673Y-110379699D01*
X162670302Y-110558327D01*
X162903691Y-110655000D01*
X163544250Y-110655000D01*
X163703000Y-110496250D01*
X163703000Y-109347000D01*
X163957000Y-109347000D01*
X163957000Y-110496250D01*
X164115750Y-110655000D01*
X164756309Y-110655000D01*
X164989698Y-110558327D01*
X165168327Y-110379699D01*
X165265000Y-110146310D01*
X165265000Y-109569039D01*
X175138096Y-109569039D01*
X175298959Y-109957423D01*
X175674866Y-110372389D01*
X176180959Y-110611914D01*
X176403000Y-110490629D01*
X176403000Y-109347000D01*
X176657000Y-109347000D01*
X176657000Y-110490629D01*
X176879041Y-110611914D01*
X177385134Y-110372389D01*
X177761041Y-109957423D01*
X177921904Y-109569039D01*
X177799915Y-109347000D01*
X176657000Y-109347000D01*
X176403000Y-109347000D01*
X175260085Y-109347000D01*
X175138096Y-109569039D01*
X165265000Y-109569039D01*
X165265000Y-109505750D01*
X165106250Y-109347000D01*
X163957000Y-109347000D01*
X163703000Y-109347000D01*
X163683000Y-109347000D01*
X163683000Y-109093000D01*
X163703000Y-109093000D01*
X163703000Y-107943750D01*
X163957000Y-107943750D01*
X163957000Y-109093000D01*
X165106250Y-109093000D01*
X165265000Y-108934250D01*
X165265000Y-108870961D01*
X175138096Y-108870961D01*
X175260085Y-109093000D01*
X176403000Y-109093000D01*
X176403000Y-107949371D01*
X176657000Y-107949371D01*
X176657000Y-109093000D01*
X177799915Y-109093000D01*
X177921904Y-108870961D01*
X177761041Y-108482577D01*
X177385134Y-108067611D01*
X176879041Y-107828086D01*
X176657000Y-107949371D01*
X176403000Y-107949371D01*
X176180959Y-107828086D01*
X175674866Y-108067611D01*
X175298959Y-108482577D01*
X175138096Y-108870961D01*
X165265000Y-108870961D01*
X165265000Y-108293690D01*
X165168327Y-108060301D01*
X164989698Y-107881673D01*
X164756309Y-107785000D01*
X164115750Y-107785000D01*
X163957000Y-107943750D01*
X163703000Y-107943750D01*
X163544250Y-107785000D01*
X162903691Y-107785000D01*
X162670302Y-107881673D01*
X162491673Y-108060301D01*
X162406155Y-108266759D01*
X162142862Y-108003466D01*
X161615439Y-107785000D01*
X161044561Y-107785000D01*
X160517138Y-108003466D01*
X160113466Y-108407138D01*
X159895000Y-108934561D01*
X127635500Y-108934561D01*
X127635500Y-105609796D01*
X127934101Y-105908397D01*
X128976083Y-106340000D01*
X130103917Y-106340000D01*
X131145899Y-105908397D01*
X131943397Y-105110899D01*
X132375000Y-104068917D01*
X132375000Y-102941083D01*
X131943397Y-101899101D01*
X131644796Y-101600500D01*
X158661788Y-101600500D01*
X158556973Y-101757365D01*
G04 #@! TD*
M02*
