G04 #@! TF.GenerationSoftware,KiCad,Pcbnew,(5.0.1-3-g963ef8bb5)*
G04 #@! TF.CreationDate,2019-03-03T19:22:14-08:00*
G04 #@! TF.ProjectId,Multi-out-Buffer,4D756C74692D6F75742D427566666572,rev?*
G04 #@! TF.SameCoordinates,Original*
G04 #@! TF.FileFunction,Other,Fab,Top*
%FSLAX46Y46*%
G04 Gerber Fmt 4.6, Leading zero omitted, Abs format (unit mm)*
G04 Created by KiCad (PCBNEW (5.0.1-3-g963ef8bb5)) date Sunday, March 03, 2019 at 07:22:14 PM*
%MOMM*%
%LPD*%
G01*
G04 APERTURE LIST*
%ADD10C,0.100000*%
%ADD11C,0.120000*%
%ADD12C,0.150000*%
%ADD13C,0.090000*%
G04 APERTURE END LIST*
D10*
G04 #@! TO.C,Q1*
X173203625Y-116356375D02*
G75*
G02X171450000Y-120590000I-1753625J-1753625D01*
G01*
X169696375Y-116356375D02*
G75*
G03X171450000Y-120590000I1753625J-1753625D01*
G01*
X173190000Y-116360000D02*
X169690000Y-116360000D01*
G04 #@! TO.C,SW2*
X176800000Y-102520000D02*
X175800000Y-103520000D01*
X175800000Y-106520000D02*
X175800000Y-103520000D01*
X184800000Y-106520000D02*
X175800000Y-106520000D01*
X184800000Y-102520000D02*
X184800000Y-106520000D01*
X176800000Y-102520000D02*
X184800000Y-102520000D01*
G04 #@! TO.C,Q3*
X207493625Y-116356375D02*
G75*
G02X205740000Y-120590000I-1753625J-1753625D01*
G01*
X203986375Y-116356375D02*
G75*
G03X205740000Y-120590000I1753625J-1753625D01*
G01*
X207480000Y-116360000D02*
X203980000Y-116360000D01*
G04 #@! TO.C,Q4*
X225260000Y-116360000D02*
X221760000Y-116360000D01*
X221766375Y-116356375D02*
G75*
G03X223520000Y-120590000I1753625J-1753625D01*
G01*
X225273625Y-116356375D02*
G75*
G02X223520000Y-120590000I-1753625J-1753625D01*
G01*
G04 #@! TO.C,Q2*
X189700000Y-116360000D02*
X186200000Y-116360000D01*
X186206375Y-116356375D02*
G75*
G03X187960000Y-120590000I1753625J-1753625D01*
G01*
X189713625Y-116356375D02*
G75*
G02X187960000Y-120590000I-1753625J-1753625D01*
G01*
G04 #@! TO.C,SW1*
X135652000Y-138334000D02*
X143652000Y-138334000D01*
X143652000Y-138334000D02*
X143652000Y-142334000D01*
X143652000Y-142334000D02*
X134652000Y-142334000D01*
X134652000Y-142334000D02*
X134652000Y-139334000D01*
X135652000Y-138334000D02*
X134652000Y-139334000D01*
G04 #@! TO.C,D2*
X146028000Y-129660000D02*
X149628000Y-129660000D01*
X147828000Y-121920000D02*
X147828000Y-123200000D01*
X147828000Y-132080000D02*
X147828000Y-130800000D01*
X146028000Y-123200000D02*
X146028000Y-130800000D01*
X149628000Y-123200000D02*
X146028000Y-123200000D01*
X149628000Y-130800000D02*
X149628000Y-123200000D01*
X146028000Y-130800000D02*
X149628000Y-130800000D01*
G04 #@! TO.C,C2*
X172100000Y-122860000D02*
X170800000Y-122860000D01*
X171450000Y-122260000D02*
X171450000Y-123460000D01*
X173950000Y-125710000D02*
G75*
G03X173950000Y-125710000I-2500000J0D01*
G01*
G04 #@! TO.C,C3*
X190460000Y-125710000D02*
G75*
G03X190460000Y-125710000I-2500000J0D01*
G01*
X187960000Y-122260000D02*
X187960000Y-123460000D01*
X188610000Y-122860000D02*
X187310000Y-122860000D01*
G04 #@! TO.C,C4*
X224170000Y-122860000D02*
X222870000Y-122860000D01*
X223520000Y-122260000D02*
X223520000Y-123460000D01*
X226020000Y-125710000D02*
G75*
G03X226020000Y-125710000I-2500000J0D01*
G01*
G04 #@! TO.C,C5*
X206390000Y-122860000D02*
X205090000Y-122860000D01*
X205740000Y-122260000D02*
X205740000Y-123460000D01*
X208240000Y-125710000D02*
G75*
G03X208240000Y-125710000I-2500000J0D01*
G01*
G04 #@! TO.C,R1*
X135636000Y-126492000D02*
X135636000Y-125832000D01*
X135636000Y-118872000D02*
X135636000Y-119532000D01*
X136886000Y-125832000D02*
X136886000Y-119532000D01*
X134386000Y-125832000D02*
X136886000Y-125832000D01*
X134386000Y-119532000D02*
X134386000Y-125832000D01*
X136886000Y-119532000D02*
X134386000Y-119532000D01*
G04 #@! TO.C,R3*
X176555000Y-112415000D02*
X176555000Y-114915000D01*
X176555000Y-114915000D02*
X182855000Y-114915000D01*
X182855000Y-114915000D02*
X182855000Y-112415000D01*
X182855000Y-112415000D02*
X176555000Y-112415000D01*
X175895000Y-113665000D02*
X176555000Y-113665000D01*
X183515000Y-113665000D02*
X182855000Y-113665000D01*
G04 #@! TO.C,R4*
X158750000Y-121920000D02*
X159410000Y-121920000D01*
X166370000Y-121920000D02*
X165710000Y-121920000D01*
X159410000Y-123170000D02*
X165710000Y-123170000D01*
X159410000Y-120670000D02*
X159410000Y-123170000D01*
X165710000Y-120670000D02*
X159410000Y-120670000D01*
X165710000Y-123170000D02*
X165710000Y-120670000D01*
G04 #@! TO.C,R5*
X165710000Y-128250000D02*
X165710000Y-125750000D01*
X165710000Y-125750000D02*
X159410000Y-125750000D01*
X159410000Y-125750000D02*
X159410000Y-128250000D01*
X159410000Y-128250000D02*
X165710000Y-128250000D01*
X166370000Y-127000000D02*
X165710000Y-127000000D01*
X158750000Y-127000000D02*
X159410000Y-127000000D01*
G04 #@! TO.C,R6*
X183490000Y-123805000D02*
X183490000Y-121305000D01*
X183490000Y-121305000D02*
X177190000Y-121305000D01*
X177190000Y-121305000D02*
X177190000Y-123805000D01*
X177190000Y-123805000D02*
X183490000Y-123805000D01*
X184150000Y-122555000D02*
X183490000Y-122555000D01*
X176530000Y-122555000D02*
X177190000Y-122555000D01*
G04 #@! TO.C,R7*
X176530000Y-127000000D02*
X177190000Y-127000000D01*
X184150000Y-127000000D02*
X183490000Y-127000000D01*
X177190000Y-128250000D02*
X183490000Y-128250000D01*
X177190000Y-125750000D02*
X177190000Y-128250000D01*
X183490000Y-125750000D02*
X177190000Y-125750000D01*
X183490000Y-128250000D02*
X183490000Y-125750000D01*
G04 #@! TO.C,R8*
X212090000Y-121920000D02*
X212750000Y-121920000D01*
X219710000Y-121920000D02*
X219050000Y-121920000D01*
X212750000Y-123170000D02*
X219050000Y-123170000D01*
X212750000Y-120670000D02*
X212750000Y-123170000D01*
X219050000Y-120670000D02*
X212750000Y-120670000D01*
X219050000Y-123170000D02*
X219050000Y-120670000D01*
G04 #@! TO.C,R9*
X194310000Y-121920000D02*
X194970000Y-121920000D01*
X201930000Y-121920000D02*
X201270000Y-121920000D01*
X194970000Y-123170000D02*
X201270000Y-123170000D01*
X194970000Y-120670000D02*
X194970000Y-123170000D01*
X201270000Y-120670000D02*
X194970000Y-120670000D01*
X201270000Y-123170000D02*
X201270000Y-120670000D01*
G04 #@! TO.C,R10*
X219050000Y-128250000D02*
X219050000Y-125750000D01*
X219050000Y-125750000D02*
X212750000Y-125750000D01*
X212750000Y-125750000D02*
X212750000Y-128250000D01*
X212750000Y-128250000D02*
X219050000Y-128250000D01*
X219710000Y-127000000D02*
X219050000Y-127000000D01*
X212090000Y-127000000D02*
X212750000Y-127000000D01*
G04 #@! TO.C,R11*
X201270000Y-128250000D02*
X201270000Y-125750000D01*
X201270000Y-125750000D02*
X194970000Y-125750000D01*
X194970000Y-125750000D02*
X194970000Y-128250000D01*
X194970000Y-128250000D02*
X201270000Y-128250000D01*
X201930000Y-127000000D02*
X201270000Y-127000000D01*
X194310000Y-127000000D02*
X194970000Y-127000000D01*
G04 #@! TO.C,R12*
X136500000Y-113518000D02*
X136500000Y-111018000D01*
X136500000Y-111018000D02*
X130200000Y-111018000D01*
X130200000Y-111018000D02*
X130200000Y-113518000D01*
X130200000Y-113518000D02*
X136500000Y-113518000D01*
X137160000Y-112268000D02*
X136500000Y-112268000D01*
X129540000Y-112268000D02*
X130200000Y-112268000D01*
G04 #@! TO.C,R13*
X153416000Y-129032000D02*
X153416000Y-128372000D01*
X153416000Y-121412000D02*
X153416000Y-122072000D01*
X154666000Y-128372000D02*
X154666000Y-122072000D01*
X152166000Y-128372000D02*
X154666000Y-128372000D01*
X152166000Y-122072000D02*
X152166000Y-128372000D01*
X154666000Y-122072000D02*
X152166000Y-122072000D01*
G04 #@! TO.C,R2*
X165710000Y-118090000D02*
X165710000Y-115590000D01*
X165710000Y-115590000D02*
X159410000Y-115590000D01*
X159410000Y-115590000D02*
X159410000Y-118090000D01*
X159410000Y-118090000D02*
X165710000Y-118090000D01*
X166370000Y-116840000D02*
X165710000Y-116840000D01*
X158750000Y-116840000D02*
X159410000Y-116840000D01*
G04 #@! TO.C,C6*
X164463605Y-110557500D02*
X164463605Y-110057500D01*
X164713605Y-110307500D02*
X164213605Y-110307500D01*
X165080000Y-109220000D02*
G75*
G03X165080000Y-109220000I-2500000J0D01*
G01*
G04 #@! TO.C,R14*
X183490000Y-110470000D02*
X183490000Y-107970000D01*
X183490000Y-107970000D02*
X177190000Y-107970000D01*
X177190000Y-107970000D02*
X177190000Y-110470000D01*
X177190000Y-110470000D02*
X183490000Y-110470000D01*
X184150000Y-109220000D02*
X183490000Y-109220000D01*
X176530000Y-109220000D02*
X177190000Y-109220000D01*
G04 #@! TO.C,R15*
X212090000Y-109855000D02*
X212750000Y-109855000D01*
X219710000Y-109855000D02*
X219050000Y-109855000D01*
X212750000Y-111105000D02*
X219050000Y-111105000D01*
X212750000Y-108605000D02*
X212750000Y-111105000D01*
X219050000Y-108605000D02*
X212750000Y-108605000D01*
X219050000Y-111105000D02*
X219050000Y-108605000D01*
G04 #@! TO.C,R16*
X201270000Y-111105000D02*
X201270000Y-108605000D01*
X201270000Y-108605000D02*
X194970000Y-108605000D01*
X194970000Y-108605000D02*
X194970000Y-111105000D01*
X194970000Y-111105000D02*
X201270000Y-111105000D01*
X201930000Y-109855000D02*
X201270000Y-109855000D01*
X194310000Y-109855000D02*
X194970000Y-109855000D01*
G04 #@! TO.C,SW3*
X194580000Y-102520000D02*
X193580000Y-103520000D01*
X193580000Y-106520000D02*
X193580000Y-103520000D01*
X202580000Y-106520000D02*
X193580000Y-106520000D01*
X202580000Y-102520000D02*
X202580000Y-106520000D01*
X194580000Y-102520000D02*
X202580000Y-102520000D01*
G04 #@! TO.C,SW4*
X212360000Y-102520000D02*
X220360000Y-102520000D01*
X220360000Y-102520000D02*
X220360000Y-106520000D01*
X220360000Y-106520000D02*
X211360000Y-106520000D01*
X211360000Y-106520000D02*
X211360000Y-103520000D01*
X212360000Y-102520000D02*
X211360000Y-103520000D01*
G04 #@! TO.C,C1*
X143506000Y-119872000D02*
X143506000Y-117872000D01*
X143506000Y-117872000D02*
X140506000Y-117872000D01*
X140506000Y-117872000D02*
X140506000Y-119872000D01*
X140506000Y-119872000D02*
X143506000Y-119872000D01*
D11*
G04 #@! TO.C,K2*
X161872000Y-136844000D02*
X160872000Y-135844000D01*
X170872000Y-136844000D02*
X161872000Y-136844000D01*
X170872000Y-130344000D02*
X170872000Y-136844000D01*
X160872000Y-130344000D02*
X170872000Y-130344000D01*
X160872000Y-135844000D02*
X160872000Y-130344000D01*
D10*
G04 #@! TO.C,C7*
X191476000Y-104922000D02*
G75*
G03X191476000Y-104922000I-2500000J0D01*
G01*
X190063500Y-102788395D02*
X190063500Y-103288395D01*
X190313500Y-103038395D02*
X189813500Y-103038395D01*
G04 #@! TO.C,C8*
X227290000Y-109454000D02*
G75*
G03X227290000Y-109454000I-2500000J0D01*
G01*
X225877500Y-107320395D02*
X225877500Y-107820395D01*
X226127500Y-107570395D02*
X225627500Y-107570395D01*
G04 #@! TO.C,C9*
X208093500Y-102998395D02*
X207593500Y-102998395D01*
X207843500Y-102748395D02*
X207843500Y-103248395D01*
X209256000Y-104882000D02*
G75*
G03X209256000Y-104882000I-2500000J0D01*
G01*
D11*
G04 #@! TO.C,K1*
X176684000Y-137344000D02*
X175684000Y-136244000D01*
X187984000Y-137344000D02*
X176684000Y-137344000D01*
X187984000Y-129944000D02*
X187984000Y-137344000D01*
X175684000Y-129944000D02*
X187984000Y-129944000D01*
X175684000Y-136244000D02*
X175684000Y-129944000D01*
G04 #@! TO.C,K3*
X194464000Y-137344000D02*
X193464000Y-136244000D01*
X205764000Y-137344000D02*
X194464000Y-137344000D01*
X205764000Y-129944000D02*
X205764000Y-137344000D01*
X193464000Y-129944000D02*
X205764000Y-129944000D01*
X193464000Y-136244000D02*
X193464000Y-129944000D01*
G04 #@! TO.C,K4*
X211244000Y-136244000D02*
X211244000Y-129944000D01*
X211244000Y-129944000D02*
X223544000Y-129944000D01*
X223544000Y-129944000D02*
X223544000Y-137344000D01*
X223544000Y-137344000D02*
X212244000Y-137344000D01*
X212244000Y-137344000D02*
X211244000Y-136244000D01*
D10*
G04 #@! TO.C,D1*
X156234000Y-132872000D02*
X156234000Y-130272000D01*
X156234000Y-130272000D02*
G75*
G02X156234000Y-132872000I1500000J-1300000D01*
G01*
G04 #@! TD*
G04 #@! TO.C,J5*
D12*
X127420952Y-116784380D02*
X127420952Y-115784380D01*
X127897142Y-116117714D02*
X127897142Y-116784380D01*
X127897142Y-116212952D02*
X127944761Y-116165333D01*
X128040000Y-116117714D01*
X128182857Y-116117714D01*
X128278095Y-116165333D01*
X128325714Y-116260571D01*
X128325714Y-116784380D01*
X128801904Y-116117714D02*
X128801904Y-117117714D01*
X128801904Y-116165333D02*
X128897142Y-116117714D01*
X129087619Y-116117714D01*
X129182857Y-116165333D01*
X129230476Y-116212952D01*
X129278095Y-116308190D01*
X129278095Y-116593904D01*
X129230476Y-116689142D01*
X129182857Y-116736761D01*
X129087619Y-116784380D01*
X128897142Y-116784380D01*
X128801904Y-116736761D01*
X130135238Y-116117714D02*
X130135238Y-116784380D01*
X129706666Y-116117714D02*
X129706666Y-116641523D01*
X129754285Y-116736761D01*
X129849523Y-116784380D01*
X129992380Y-116784380D01*
X130087619Y-116736761D01*
X130135238Y-116689142D01*
X130468571Y-116117714D02*
X130849523Y-116117714D01*
X130611428Y-115784380D02*
X130611428Y-116641523D01*
X130659047Y-116736761D01*
X130754285Y-116784380D01*
X130849523Y-116784380D01*
X131706666Y-116784380D02*
X131135238Y-116784380D01*
X131420952Y-116784380D02*
X131420952Y-115784380D01*
X131325714Y-115927238D01*
X131230476Y-116022476D01*
X131135238Y-116070095D01*
X130262380Y-123015333D02*
X130976666Y-123015333D01*
X131119523Y-123062952D01*
X131214761Y-123158190D01*
X131262380Y-123301047D01*
X131262380Y-123396285D01*
X130262380Y-122062952D02*
X130262380Y-122539142D01*
X130738571Y-122586761D01*
X130690952Y-122539142D01*
X130643333Y-122443904D01*
X130643333Y-122205809D01*
X130690952Y-122110571D01*
X130738571Y-122062952D01*
X130833809Y-122015333D01*
X131071904Y-122015333D01*
X131167142Y-122062952D01*
X131214761Y-122110571D01*
X131262380Y-122205809D01*
X131262380Y-122443904D01*
X131214761Y-122539142D01*
X131167142Y-122586761D01*
G04 #@! TO.C,J9*
X222131428Y-144876380D02*
X222131428Y-143876380D01*
X222464761Y-144590666D01*
X222798095Y-143876380D01*
X222798095Y-144876380D01*
X223655238Y-144828761D02*
X223560000Y-144876380D01*
X223369523Y-144876380D01*
X223274285Y-144828761D01*
X223226666Y-144733523D01*
X223226666Y-144352571D01*
X223274285Y-144257333D01*
X223369523Y-144209714D01*
X223560000Y-144209714D01*
X223655238Y-144257333D01*
X223702857Y-144352571D01*
X223702857Y-144447809D01*
X223226666Y-144543047D01*
X224560000Y-144828761D02*
X224464761Y-144876380D01*
X224274285Y-144876380D01*
X224179047Y-144828761D01*
X224131428Y-144781142D01*
X224083809Y-144685904D01*
X224083809Y-144400190D01*
X224131428Y-144304952D01*
X224179047Y-144257333D01*
X224274285Y-144209714D01*
X224464761Y-144209714D01*
X224560000Y-144257333D01*
X224988571Y-144876380D02*
X224988571Y-143876380D01*
X225417142Y-144876380D02*
X225417142Y-144352571D01*
X225369523Y-144257333D01*
X225274285Y-144209714D01*
X225131428Y-144209714D01*
X225036190Y-144257333D01*
X224988571Y-144304952D01*
X226321904Y-144876380D02*
X226321904Y-144352571D01*
X226274285Y-144257333D01*
X226179047Y-144209714D01*
X225988571Y-144209714D01*
X225893333Y-144257333D01*
X226321904Y-144828761D02*
X226226666Y-144876380D01*
X225988571Y-144876380D01*
X225893333Y-144828761D01*
X225845714Y-144733523D01*
X225845714Y-144638285D01*
X225893333Y-144543047D01*
X225988571Y-144495428D01*
X226226666Y-144495428D01*
X226321904Y-144447809D01*
X226798095Y-144209714D02*
X226798095Y-144876380D01*
X226798095Y-144304952D02*
X226845714Y-144257333D01*
X226940952Y-144209714D01*
X227083809Y-144209714D01*
X227179047Y-144257333D01*
X227226666Y-144352571D01*
X227226666Y-144876380D01*
X227702857Y-144876380D02*
X227702857Y-144209714D01*
X227702857Y-143876380D02*
X227655238Y-143924000D01*
X227702857Y-143971619D01*
X227750476Y-143924000D01*
X227702857Y-143876380D01*
X227702857Y-143971619D01*
X228607619Y-144828761D02*
X228512380Y-144876380D01*
X228321904Y-144876380D01*
X228226666Y-144828761D01*
X228179047Y-144781142D01*
X228131428Y-144685904D01*
X228131428Y-144400190D01*
X228179047Y-144304952D01*
X228226666Y-144257333D01*
X228321904Y-144209714D01*
X228512380Y-144209714D01*
X228607619Y-144257333D01*
X229464761Y-144876380D02*
X229464761Y-144352571D01*
X229417142Y-144257333D01*
X229321904Y-144209714D01*
X229131428Y-144209714D01*
X229036190Y-144257333D01*
X229464761Y-144828761D02*
X229369523Y-144876380D01*
X229131428Y-144876380D01*
X229036190Y-144828761D01*
X228988571Y-144733523D01*
X228988571Y-144638285D01*
X229036190Y-144543047D01*
X229131428Y-144495428D01*
X229369523Y-144495428D01*
X229464761Y-144447809D01*
X230083809Y-144876380D02*
X229988571Y-144828761D01*
X229940952Y-144733523D01*
X229940952Y-143876380D01*
X226026666Y-140676380D02*
X226026666Y-141390666D01*
X225979047Y-141533523D01*
X225883809Y-141628761D01*
X225740952Y-141676380D01*
X225645714Y-141676380D01*
X226550476Y-141676380D02*
X226740952Y-141676380D01*
X226836190Y-141628761D01*
X226883809Y-141581142D01*
X226979047Y-141438285D01*
X227026666Y-141247809D01*
X227026666Y-140866857D01*
X226979047Y-140771619D01*
X226931428Y-140724000D01*
X226836190Y-140676380D01*
X226645714Y-140676380D01*
X226550476Y-140724000D01*
X226502857Y-140771619D01*
X226455238Y-140866857D01*
X226455238Y-141104952D01*
X226502857Y-141200190D01*
X226550476Y-141247809D01*
X226645714Y-141295428D01*
X226836190Y-141295428D01*
X226931428Y-141247809D01*
X226979047Y-141200190D01*
X227026666Y-141104952D01*
G04 #@! TO.C,J8*
X125611428Y-144876380D02*
X125611428Y-143876380D01*
X125944761Y-144590666D01*
X126278095Y-143876380D01*
X126278095Y-144876380D01*
X127135238Y-144828761D02*
X127040000Y-144876380D01*
X126849523Y-144876380D01*
X126754285Y-144828761D01*
X126706666Y-144733523D01*
X126706666Y-144352571D01*
X126754285Y-144257333D01*
X126849523Y-144209714D01*
X127040000Y-144209714D01*
X127135238Y-144257333D01*
X127182857Y-144352571D01*
X127182857Y-144447809D01*
X126706666Y-144543047D01*
X128040000Y-144828761D02*
X127944761Y-144876380D01*
X127754285Y-144876380D01*
X127659047Y-144828761D01*
X127611428Y-144781142D01*
X127563809Y-144685904D01*
X127563809Y-144400190D01*
X127611428Y-144304952D01*
X127659047Y-144257333D01*
X127754285Y-144209714D01*
X127944761Y-144209714D01*
X128040000Y-144257333D01*
X128468571Y-144876380D02*
X128468571Y-143876380D01*
X128897142Y-144876380D02*
X128897142Y-144352571D01*
X128849523Y-144257333D01*
X128754285Y-144209714D01*
X128611428Y-144209714D01*
X128516190Y-144257333D01*
X128468571Y-144304952D01*
X129801904Y-144876380D02*
X129801904Y-144352571D01*
X129754285Y-144257333D01*
X129659047Y-144209714D01*
X129468571Y-144209714D01*
X129373333Y-144257333D01*
X129801904Y-144828761D02*
X129706666Y-144876380D01*
X129468571Y-144876380D01*
X129373333Y-144828761D01*
X129325714Y-144733523D01*
X129325714Y-144638285D01*
X129373333Y-144543047D01*
X129468571Y-144495428D01*
X129706666Y-144495428D01*
X129801904Y-144447809D01*
X130278095Y-144209714D02*
X130278095Y-144876380D01*
X130278095Y-144304952D02*
X130325714Y-144257333D01*
X130420952Y-144209714D01*
X130563809Y-144209714D01*
X130659047Y-144257333D01*
X130706666Y-144352571D01*
X130706666Y-144876380D01*
X131182857Y-144876380D02*
X131182857Y-144209714D01*
X131182857Y-143876380D02*
X131135238Y-143924000D01*
X131182857Y-143971619D01*
X131230476Y-143924000D01*
X131182857Y-143876380D01*
X131182857Y-143971619D01*
X132087619Y-144828761D02*
X131992380Y-144876380D01*
X131801904Y-144876380D01*
X131706666Y-144828761D01*
X131659047Y-144781142D01*
X131611428Y-144685904D01*
X131611428Y-144400190D01*
X131659047Y-144304952D01*
X131706666Y-144257333D01*
X131801904Y-144209714D01*
X131992380Y-144209714D01*
X132087619Y-144257333D01*
X132944761Y-144876380D02*
X132944761Y-144352571D01*
X132897142Y-144257333D01*
X132801904Y-144209714D01*
X132611428Y-144209714D01*
X132516190Y-144257333D01*
X132944761Y-144828761D02*
X132849523Y-144876380D01*
X132611428Y-144876380D01*
X132516190Y-144828761D01*
X132468571Y-144733523D01*
X132468571Y-144638285D01*
X132516190Y-144543047D01*
X132611428Y-144495428D01*
X132849523Y-144495428D01*
X132944761Y-144447809D01*
X133563809Y-144876380D02*
X133468571Y-144828761D01*
X133420952Y-144733523D01*
X133420952Y-143876380D01*
X129506666Y-140676380D02*
X129506666Y-141390666D01*
X129459047Y-141533523D01*
X129363809Y-141628761D01*
X129220952Y-141676380D01*
X129125714Y-141676380D01*
X130125714Y-141104952D02*
X130030476Y-141057333D01*
X129982857Y-141009714D01*
X129935238Y-140914476D01*
X129935238Y-140866857D01*
X129982857Y-140771619D01*
X130030476Y-140724000D01*
X130125714Y-140676380D01*
X130316190Y-140676380D01*
X130411428Y-140724000D01*
X130459047Y-140771619D01*
X130506666Y-140866857D01*
X130506666Y-140914476D01*
X130459047Y-141009714D01*
X130411428Y-141057333D01*
X130316190Y-141104952D01*
X130125714Y-141104952D01*
X130030476Y-141152571D01*
X129982857Y-141200190D01*
X129935238Y-141295428D01*
X129935238Y-141485904D01*
X129982857Y-141581142D01*
X130030476Y-141628761D01*
X130125714Y-141676380D01*
X130316190Y-141676380D01*
X130411428Y-141628761D01*
X130459047Y-141581142D01*
X130506666Y-141485904D01*
X130506666Y-141295428D01*
X130459047Y-141200190D01*
X130411428Y-141152571D01*
X130316190Y-141104952D01*
G04 #@! TO.C,Q1*
X168378571Y-115772380D02*
X168378571Y-114772380D01*
X168711904Y-115486666D01*
X169045238Y-114772380D01*
X169045238Y-115772380D01*
X169854761Y-115248571D02*
X169521428Y-115248571D01*
X169521428Y-115772380D02*
X169521428Y-114772380D01*
X169997619Y-114772380D01*
X170378571Y-115772380D02*
X170378571Y-114772380D01*
X170759523Y-114772380D01*
X170854761Y-114820000D01*
X170902380Y-114867619D01*
X170950000Y-114962857D01*
X170950000Y-115105714D01*
X170902380Y-115200952D01*
X170854761Y-115248571D01*
X170759523Y-115296190D01*
X170378571Y-115296190D01*
X171664285Y-114772380D02*
X171664285Y-115486666D01*
X171616666Y-115629523D01*
X171521428Y-115724761D01*
X171378571Y-115772380D01*
X171283333Y-115772380D01*
X172664285Y-115772380D02*
X172092857Y-115772380D01*
X172378571Y-115772380D02*
X172378571Y-114772380D01*
X172283333Y-114915238D01*
X172188095Y-115010476D01*
X172092857Y-115058095D01*
X173283333Y-114772380D02*
X173378571Y-114772380D01*
X173473809Y-114820000D01*
X173521428Y-114867619D01*
X173569047Y-114962857D01*
X173616666Y-115153333D01*
X173616666Y-115391428D01*
X173569047Y-115581904D01*
X173521428Y-115677142D01*
X173473809Y-115724761D01*
X173378571Y-115772380D01*
X173283333Y-115772380D01*
X173188095Y-115724761D01*
X173140476Y-115677142D01*
X173092857Y-115581904D01*
X173045238Y-115391428D01*
X173045238Y-115153333D01*
X173092857Y-114962857D01*
X173140476Y-114867619D01*
X173188095Y-114820000D01*
X173283333Y-114772380D01*
X173997619Y-114867619D02*
X174045238Y-114820000D01*
X174140476Y-114772380D01*
X174378571Y-114772380D01*
X174473809Y-114820000D01*
X174521428Y-114867619D01*
X174569047Y-114962857D01*
X174569047Y-115058095D01*
X174521428Y-115200952D01*
X173950000Y-115772380D01*
X174569047Y-115772380D01*
X171354761Y-118657619D02*
X171259523Y-118610000D01*
X171164285Y-118514761D01*
X171021428Y-118371904D01*
X170926190Y-118324285D01*
X170830952Y-118324285D01*
X170878571Y-118562380D02*
X170783333Y-118514761D01*
X170688095Y-118419523D01*
X170640476Y-118229047D01*
X170640476Y-117895714D01*
X170688095Y-117705238D01*
X170783333Y-117610000D01*
X170878571Y-117562380D01*
X171069047Y-117562380D01*
X171164285Y-117610000D01*
X171259523Y-117705238D01*
X171307142Y-117895714D01*
X171307142Y-118229047D01*
X171259523Y-118419523D01*
X171164285Y-118514761D01*
X171069047Y-118562380D01*
X170878571Y-118562380D01*
X172259523Y-118562380D02*
X171688095Y-118562380D01*
X171973809Y-118562380D02*
X171973809Y-117562380D01*
X171878571Y-117705238D01*
X171783333Y-117800476D01*
X171688095Y-117848095D01*
G04 #@! TO.C,SW2*
X176419047Y-108274761D02*
X176561904Y-108322380D01*
X176800000Y-108322380D01*
X176895238Y-108274761D01*
X176942857Y-108227142D01*
X176990476Y-108131904D01*
X176990476Y-108036666D01*
X176942857Y-107941428D01*
X176895238Y-107893809D01*
X176800000Y-107846190D01*
X176609523Y-107798571D01*
X176514285Y-107750952D01*
X176466666Y-107703333D01*
X176419047Y-107608095D01*
X176419047Y-107512857D01*
X176466666Y-107417619D01*
X176514285Y-107370000D01*
X176609523Y-107322380D01*
X176847619Y-107322380D01*
X176990476Y-107370000D01*
X177323809Y-107322380D02*
X177561904Y-108322380D01*
X177752380Y-107608095D01*
X177942857Y-108322380D01*
X178180952Y-107322380D01*
X178323809Y-108417619D02*
X179085714Y-108417619D01*
X179323809Y-108322380D02*
X179323809Y-107322380D01*
X179561904Y-107322380D01*
X179704761Y-107370000D01*
X179800000Y-107465238D01*
X179847619Y-107560476D01*
X179895238Y-107750952D01*
X179895238Y-107893809D01*
X179847619Y-108084285D01*
X179800000Y-108179523D01*
X179704761Y-108274761D01*
X179561904Y-108322380D01*
X179323809Y-108322380D01*
X180323809Y-108322380D02*
X180323809Y-107322380D01*
X180704761Y-107322380D01*
X180800000Y-107370000D01*
X180847619Y-107417619D01*
X180895238Y-107512857D01*
X180895238Y-107655714D01*
X180847619Y-107750952D01*
X180800000Y-107798571D01*
X180704761Y-107846190D01*
X180323809Y-107846190D01*
X181323809Y-108322380D02*
X181323809Y-107322380D01*
X181561904Y-107322380D01*
X181704761Y-107370000D01*
X181800000Y-107465238D01*
X181847619Y-107560476D01*
X181895238Y-107750952D01*
X181895238Y-107893809D01*
X181847619Y-108084285D01*
X181800000Y-108179523D01*
X181704761Y-108274761D01*
X181561904Y-108322380D01*
X181323809Y-108322380D01*
X182180952Y-107322380D02*
X182752380Y-107322380D01*
X182466666Y-108322380D02*
X182466666Y-107322380D01*
X182847619Y-108417619D02*
X183609523Y-108417619D01*
X183752380Y-108322380D02*
X184276190Y-107655714D01*
X183752380Y-107655714D02*
X184276190Y-108322380D01*
X184609523Y-107417619D02*
X184657142Y-107370000D01*
X184752380Y-107322380D01*
X184990476Y-107322380D01*
X185085714Y-107370000D01*
X185133333Y-107417619D01*
X185180952Y-107512857D01*
X185180952Y-107608095D01*
X185133333Y-107750952D01*
X184561904Y-108322380D01*
X185180952Y-108322380D01*
X178466666Y-104924761D02*
X178609523Y-104972380D01*
X178847619Y-104972380D01*
X178942857Y-104924761D01*
X178990476Y-104877142D01*
X179038095Y-104781904D01*
X179038095Y-104686666D01*
X178990476Y-104591428D01*
X178942857Y-104543809D01*
X178847619Y-104496190D01*
X178657142Y-104448571D01*
X178561904Y-104400952D01*
X178514285Y-104353333D01*
X178466666Y-104258095D01*
X178466666Y-104162857D01*
X178514285Y-104067619D01*
X178561904Y-104020000D01*
X178657142Y-103972380D01*
X178895238Y-103972380D01*
X179038095Y-104020000D01*
X179371428Y-103972380D02*
X179609523Y-104972380D01*
X179800000Y-104258095D01*
X179990476Y-104972380D01*
X180228571Y-103972380D01*
X180561904Y-104067619D02*
X180609523Y-104020000D01*
X180704761Y-103972380D01*
X180942857Y-103972380D01*
X181038095Y-104020000D01*
X181085714Y-104067619D01*
X181133333Y-104162857D01*
X181133333Y-104258095D01*
X181085714Y-104400952D01*
X180514285Y-104972380D01*
X181133333Y-104972380D01*
G04 #@! TO.C,Q3*
X202668571Y-115772380D02*
X202668571Y-114772380D01*
X203001904Y-115486666D01*
X203335238Y-114772380D01*
X203335238Y-115772380D01*
X204144761Y-115248571D02*
X203811428Y-115248571D01*
X203811428Y-115772380D02*
X203811428Y-114772380D01*
X204287619Y-114772380D01*
X204668571Y-115772380D02*
X204668571Y-114772380D01*
X205049523Y-114772380D01*
X205144761Y-114820000D01*
X205192380Y-114867619D01*
X205240000Y-114962857D01*
X205240000Y-115105714D01*
X205192380Y-115200952D01*
X205144761Y-115248571D01*
X205049523Y-115296190D01*
X204668571Y-115296190D01*
X205954285Y-114772380D02*
X205954285Y-115486666D01*
X205906666Y-115629523D01*
X205811428Y-115724761D01*
X205668571Y-115772380D01*
X205573333Y-115772380D01*
X206954285Y-115772380D02*
X206382857Y-115772380D01*
X206668571Y-115772380D02*
X206668571Y-114772380D01*
X206573333Y-114915238D01*
X206478095Y-115010476D01*
X206382857Y-115058095D01*
X207573333Y-114772380D02*
X207668571Y-114772380D01*
X207763809Y-114820000D01*
X207811428Y-114867619D01*
X207859047Y-114962857D01*
X207906666Y-115153333D01*
X207906666Y-115391428D01*
X207859047Y-115581904D01*
X207811428Y-115677142D01*
X207763809Y-115724761D01*
X207668571Y-115772380D01*
X207573333Y-115772380D01*
X207478095Y-115724761D01*
X207430476Y-115677142D01*
X207382857Y-115581904D01*
X207335238Y-115391428D01*
X207335238Y-115153333D01*
X207382857Y-114962857D01*
X207430476Y-114867619D01*
X207478095Y-114820000D01*
X207573333Y-114772380D01*
X208287619Y-114867619D02*
X208335238Y-114820000D01*
X208430476Y-114772380D01*
X208668571Y-114772380D01*
X208763809Y-114820000D01*
X208811428Y-114867619D01*
X208859047Y-114962857D01*
X208859047Y-115058095D01*
X208811428Y-115200952D01*
X208240000Y-115772380D01*
X208859047Y-115772380D01*
X205644761Y-118657619D02*
X205549523Y-118610000D01*
X205454285Y-118514761D01*
X205311428Y-118371904D01*
X205216190Y-118324285D01*
X205120952Y-118324285D01*
X205168571Y-118562380D02*
X205073333Y-118514761D01*
X204978095Y-118419523D01*
X204930476Y-118229047D01*
X204930476Y-117895714D01*
X204978095Y-117705238D01*
X205073333Y-117610000D01*
X205168571Y-117562380D01*
X205359047Y-117562380D01*
X205454285Y-117610000D01*
X205549523Y-117705238D01*
X205597142Y-117895714D01*
X205597142Y-118229047D01*
X205549523Y-118419523D01*
X205454285Y-118514761D01*
X205359047Y-118562380D01*
X205168571Y-118562380D01*
X205930476Y-117562380D02*
X206549523Y-117562380D01*
X206216190Y-117943333D01*
X206359047Y-117943333D01*
X206454285Y-117990952D01*
X206501904Y-118038571D01*
X206549523Y-118133809D01*
X206549523Y-118371904D01*
X206501904Y-118467142D01*
X206454285Y-118514761D01*
X206359047Y-118562380D01*
X206073333Y-118562380D01*
X205978095Y-118514761D01*
X205930476Y-118467142D01*
G04 #@! TO.C,Q4*
X220448571Y-115772380D02*
X220448571Y-114772380D01*
X220781904Y-115486666D01*
X221115238Y-114772380D01*
X221115238Y-115772380D01*
X221924761Y-115248571D02*
X221591428Y-115248571D01*
X221591428Y-115772380D02*
X221591428Y-114772380D01*
X222067619Y-114772380D01*
X222448571Y-115772380D02*
X222448571Y-114772380D01*
X222829523Y-114772380D01*
X222924761Y-114820000D01*
X222972380Y-114867619D01*
X223020000Y-114962857D01*
X223020000Y-115105714D01*
X222972380Y-115200952D01*
X222924761Y-115248571D01*
X222829523Y-115296190D01*
X222448571Y-115296190D01*
X223734285Y-114772380D02*
X223734285Y-115486666D01*
X223686666Y-115629523D01*
X223591428Y-115724761D01*
X223448571Y-115772380D01*
X223353333Y-115772380D01*
X224734285Y-115772380D02*
X224162857Y-115772380D01*
X224448571Y-115772380D02*
X224448571Y-114772380D01*
X224353333Y-114915238D01*
X224258095Y-115010476D01*
X224162857Y-115058095D01*
X225353333Y-114772380D02*
X225448571Y-114772380D01*
X225543809Y-114820000D01*
X225591428Y-114867619D01*
X225639047Y-114962857D01*
X225686666Y-115153333D01*
X225686666Y-115391428D01*
X225639047Y-115581904D01*
X225591428Y-115677142D01*
X225543809Y-115724761D01*
X225448571Y-115772380D01*
X225353333Y-115772380D01*
X225258095Y-115724761D01*
X225210476Y-115677142D01*
X225162857Y-115581904D01*
X225115238Y-115391428D01*
X225115238Y-115153333D01*
X225162857Y-114962857D01*
X225210476Y-114867619D01*
X225258095Y-114820000D01*
X225353333Y-114772380D01*
X226067619Y-114867619D02*
X226115238Y-114820000D01*
X226210476Y-114772380D01*
X226448571Y-114772380D01*
X226543809Y-114820000D01*
X226591428Y-114867619D01*
X226639047Y-114962857D01*
X226639047Y-115058095D01*
X226591428Y-115200952D01*
X226020000Y-115772380D01*
X226639047Y-115772380D01*
X223424761Y-118657619D02*
X223329523Y-118610000D01*
X223234285Y-118514761D01*
X223091428Y-118371904D01*
X222996190Y-118324285D01*
X222900952Y-118324285D01*
X222948571Y-118562380D02*
X222853333Y-118514761D01*
X222758095Y-118419523D01*
X222710476Y-118229047D01*
X222710476Y-117895714D01*
X222758095Y-117705238D01*
X222853333Y-117610000D01*
X222948571Y-117562380D01*
X223139047Y-117562380D01*
X223234285Y-117610000D01*
X223329523Y-117705238D01*
X223377142Y-117895714D01*
X223377142Y-118229047D01*
X223329523Y-118419523D01*
X223234285Y-118514761D01*
X223139047Y-118562380D01*
X222948571Y-118562380D01*
X224234285Y-117895714D02*
X224234285Y-118562380D01*
X223996190Y-117514761D02*
X223758095Y-118229047D01*
X224377142Y-118229047D01*
G04 #@! TO.C,Q2*
X184888571Y-115772380D02*
X184888571Y-114772380D01*
X185221904Y-115486666D01*
X185555238Y-114772380D01*
X185555238Y-115772380D01*
X186364761Y-115248571D02*
X186031428Y-115248571D01*
X186031428Y-115772380D02*
X186031428Y-114772380D01*
X186507619Y-114772380D01*
X186888571Y-115772380D02*
X186888571Y-114772380D01*
X187269523Y-114772380D01*
X187364761Y-114820000D01*
X187412380Y-114867619D01*
X187460000Y-114962857D01*
X187460000Y-115105714D01*
X187412380Y-115200952D01*
X187364761Y-115248571D01*
X187269523Y-115296190D01*
X186888571Y-115296190D01*
X188174285Y-114772380D02*
X188174285Y-115486666D01*
X188126666Y-115629523D01*
X188031428Y-115724761D01*
X187888571Y-115772380D01*
X187793333Y-115772380D01*
X189174285Y-115772380D02*
X188602857Y-115772380D01*
X188888571Y-115772380D02*
X188888571Y-114772380D01*
X188793333Y-114915238D01*
X188698095Y-115010476D01*
X188602857Y-115058095D01*
X189793333Y-114772380D02*
X189888571Y-114772380D01*
X189983809Y-114820000D01*
X190031428Y-114867619D01*
X190079047Y-114962857D01*
X190126666Y-115153333D01*
X190126666Y-115391428D01*
X190079047Y-115581904D01*
X190031428Y-115677142D01*
X189983809Y-115724761D01*
X189888571Y-115772380D01*
X189793333Y-115772380D01*
X189698095Y-115724761D01*
X189650476Y-115677142D01*
X189602857Y-115581904D01*
X189555238Y-115391428D01*
X189555238Y-115153333D01*
X189602857Y-114962857D01*
X189650476Y-114867619D01*
X189698095Y-114820000D01*
X189793333Y-114772380D01*
X190507619Y-114867619D02*
X190555238Y-114820000D01*
X190650476Y-114772380D01*
X190888571Y-114772380D01*
X190983809Y-114820000D01*
X191031428Y-114867619D01*
X191079047Y-114962857D01*
X191079047Y-115058095D01*
X191031428Y-115200952D01*
X190460000Y-115772380D01*
X191079047Y-115772380D01*
X187864761Y-118657619D02*
X187769523Y-118610000D01*
X187674285Y-118514761D01*
X187531428Y-118371904D01*
X187436190Y-118324285D01*
X187340952Y-118324285D01*
X187388571Y-118562380D02*
X187293333Y-118514761D01*
X187198095Y-118419523D01*
X187150476Y-118229047D01*
X187150476Y-117895714D01*
X187198095Y-117705238D01*
X187293333Y-117610000D01*
X187388571Y-117562380D01*
X187579047Y-117562380D01*
X187674285Y-117610000D01*
X187769523Y-117705238D01*
X187817142Y-117895714D01*
X187817142Y-118229047D01*
X187769523Y-118419523D01*
X187674285Y-118514761D01*
X187579047Y-118562380D01*
X187388571Y-118562380D01*
X188198095Y-117657619D02*
X188245714Y-117610000D01*
X188340952Y-117562380D01*
X188579047Y-117562380D01*
X188674285Y-117610000D01*
X188721904Y-117657619D01*
X188769523Y-117752857D01*
X188769523Y-117848095D01*
X188721904Y-117990952D01*
X188150476Y-118562380D01*
X188769523Y-118562380D01*
G04 #@! TO.C,SW1*
X135930095Y-137818761D02*
X136072952Y-137866380D01*
X136311047Y-137866380D01*
X136406285Y-137818761D01*
X136453904Y-137771142D01*
X136501523Y-137675904D01*
X136501523Y-137580666D01*
X136453904Y-137485428D01*
X136406285Y-137437809D01*
X136311047Y-137390190D01*
X136120571Y-137342571D01*
X136025333Y-137294952D01*
X135977714Y-137247333D01*
X135930095Y-137152095D01*
X135930095Y-137056857D01*
X135977714Y-136961619D01*
X136025333Y-136914000D01*
X136120571Y-136866380D01*
X136358666Y-136866380D01*
X136501523Y-136914000D01*
X136834857Y-136866380D02*
X137072952Y-137866380D01*
X137263428Y-137152095D01*
X137453904Y-137866380D01*
X137692000Y-136866380D01*
X137834857Y-137961619D02*
X138596761Y-137961619D01*
X138692000Y-136866380D02*
X139263428Y-136866380D01*
X138977714Y-137866380D02*
X138977714Y-136866380D01*
X140025333Y-137199714D02*
X140025333Y-137866380D01*
X139596761Y-137199714D02*
X139596761Y-137723523D01*
X139644380Y-137818761D01*
X139739619Y-137866380D01*
X139882476Y-137866380D01*
X139977714Y-137818761D01*
X140025333Y-137771142D01*
X140501523Y-137199714D02*
X140501523Y-137866380D01*
X140501523Y-137294952D02*
X140549142Y-137247333D01*
X140644380Y-137199714D01*
X140787238Y-137199714D01*
X140882476Y-137247333D01*
X140930095Y-137342571D01*
X140930095Y-137866380D01*
X141787238Y-137818761D02*
X141692000Y-137866380D01*
X141501523Y-137866380D01*
X141406285Y-137818761D01*
X141358666Y-137723523D01*
X141358666Y-137342571D01*
X141406285Y-137247333D01*
X141501523Y-137199714D01*
X141692000Y-137199714D01*
X141787238Y-137247333D01*
X141834857Y-137342571D01*
X141834857Y-137437809D01*
X141358666Y-137533047D01*
X142263428Y-137866380D02*
X142263428Y-137199714D01*
X142263428Y-137390190D02*
X142311047Y-137294952D01*
X142358666Y-137247333D01*
X142453904Y-137199714D01*
X142549142Y-137199714D01*
X137318666Y-140738761D02*
X137461523Y-140786380D01*
X137699619Y-140786380D01*
X137794857Y-140738761D01*
X137842476Y-140691142D01*
X137890095Y-140595904D01*
X137890095Y-140500666D01*
X137842476Y-140405428D01*
X137794857Y-140357809D01*
X137699619Y-140310190D01*
X137509142Y-140262571D01*
X137413904Y-140214952D01*
X137366285Y-140167333D01*
X137318666Y-140072095D01*
X137318666Y-139976857D01*
X137366285Y-139881619D01*
X137413904Y-139834000D01*
X137509142Y-139786380D01*
X137747238Y-139786380D01*
X137890095Y-139834000D01*
X138223428Y-139786380D02*
X138461523Y-140786380D01*
X138652000Y-140072095D01*
X138842476Y-140786380D01*
X139080571Y-139786380D01*
X139985333Y-140786380D02*
X139413904Y-140786380D01*
X139699619Y-140786380D02*
X139699619Y-139786380D01*
X139604380Y-139929238D01*
X139509142Y-140024476D01*
X139413904Y-140072095D01*
G04 #@! TO.C,D2*
X148867761Y-128579285D02*
X148915380Y-128436428D01*
X148915380Y-128198333D01*
X148867761Y-128103095D01*
X148820142Y-128055476D01*
X148724904Y-128007857D01*
X148629666Y-128007857D01*
X148534428Y-128055476D01*
X148486809Y-128103095D01*
X148439190Y-128198333D01*
X148391571Y-128388809D01*
X148343952Y-128484047D01*
X148296333Y-128531666D01*
X148201095Y-128579285D01*
X148105857Y-128579285D01*
X148010619Y-128531666D01*
X147963000Y-128484047D01*
X147915380Y-128388809D01*
X147915380Y-128150714D01*
X147963000Y-128007857D01*
X148391571Y-127245952D02*
X148439190Y-127103095D01*
X148486809Y-127055476D01*
X148582047Y-127007857D01*
X148724904Y-127007857D01*
X148820142Y-127055476D01*
X148867761Y-127103095D01*
X148915380Y-127198333D01*
X148915380Y-127579285D01*
X147915380Y-127579285D01*
X147915380Y-127245952D01*
X147963000Y-127150714D01*
X148010619Y-127103095D01*
X148105857Y-127055476D01*
X148201095Y-127055476D01*
X148296333Y-127103095D01*
X148343952Y-127150714D01*
X148391571Y-127245952D01*
X148391571Y-127579285D01*
X148915380Y-126055476D02*
X148915380Y-126626904D01*
X148915380Y-126341190D02*
X147915380Y-126341190D01*
X148058238Y-126436428D01*
X148153476Y-126531666D01*
X148201095Y-126626904D01*
X148010619Y-125674523D02*
X147963000Y-125626904D01*
X147915380Y-125531666D01*
X147915380Y-125293571D01*
X147963000Y-125198333D01*
X148010619Y-125150714D01*
X148105857Y-125103095D01*
X148201095Y-125103095D01*
X148343952Y-125150714D01*
X148915380Y-125722142D01*
X148915380Y-125103095D01*
X147915380Y-124484047D02*
X147915380Y-124388809D01*
X147963000Y-124293571D01*
X148010619Y-124245952D01*
X148105857Y-124198333D01*
X148296333Y-124150714D01*
X148534428Y-124150714D01*
X148724904Y-124198333D01*
X148820142Y-124245952D01*
X148867761Y-124293571D01*
X148915380Y-124388809D01*
X148915380Y-124484047D01*
X148867761Y-124579285D01*
X148820142Y-124626904D01*
X148724904Y-124674523D01*
X148534428Y-124722142D01*
X148296333Y-124722142D01*
X148105857Y-124674523D01*
X148010619Y-124626904D01*
X147963000Y-124579285D01*
X147915380Y-124484047D01*
X145740380Y-126468095D02*
X144740380Y-126468095D01*
X144740380Y-126230000D01*
X144788000Y-126087142D01*
X144883238Y-125991904D01*
X144978476Y-125944285D01*
X145168952Y-125896666D01*
X145311809Y-125896666D01*
X145502285Y-125944285D01*
X145597523Y-125991904D01*
X145692761Y-126087142D01*
X145740380Y-126230000D01*
X145740380Y-126468095D01*
X144835619Y-125515714D02*
X144788000Y-125468095D01*
X144740380Y-125372857D01*
X144740380Y-125134761D01*
X144788000Y-125039523D01*
X144835619Y-124991904D01*
X144930857Y-124944285D01*
X145026095Y-124944285D01*
X145168952Y-124991904D01*
X145740380Y-125563333D01*
X145740380Y-124944285D01*
G04 #@! TO.C,C2*
X168092380Y-126305238D02*
X168092380Y-126876666D01*
X168092380Y-126590952D02*
X167092380Y-126590952D01*
X167235238Y-126686190D01*
X167330476Y-126781428D01*
X167378095Y-126876666D01*
X167425714Y-125448095D02*
X168092380Y-125448095D01*
X167425714Y-125876666D02*
X167949523Y-125876666D01*
X168044761Y-125829047D01*
X168092380Y-125733809D01*
X168092380Y-125590952D01*
X168044761Y-125495714D01*
X167997142Y-125448095D01*
X167568571Y-124638571D02*
X167568571Y-124971904D01*
X168092380Y-124971904D02*
X167092380Y-124971904D01*
X167092380Y-124495714D01*
X171283333Y-126067142D02*
X171235714Y-126114761D01*
X171092857Y-126162380D01*
X170997619Y-126162380D01*
X170854761Y-126114761D01*
X170759523Y-126019523D01*
X170711904Y-125924285D01*
X170664285Y-125733809D01*
X170664285Y-125590952D01*
X170711904Y-125400476D01*
X170759523Y-125305238D01*
X170854761Y-125210000D01*
X170997619Y-125162380D01*
X171092857Y-125162380D01*
X171235714Y-125210000D01*
X171283333Y-125257619D01*
X171664285Y-125257619D02*
X171711904Y-125210000D01*
X171807142Y-125162380D01*
X172045238Y-125162380D01*
X172140476Y-125210000D01*
X172188095Y-125257619D01*
X172235714Y-125352857D01*
X172235714Y-125448095D01*
X172188095Y-125590952D01*
X171616666Y-126162380D01*
X172235714Y-126162380D01*
G04 #@! TO.C,C3*
X191587380Y-126325238D02*
X191587380Y-126896666D01*
X191587380Y-126610952D02*
X190587380Y-126610952D01*
X190730238Y-126706190D01*
X190825476Y-126801428D01*
X190873095Y-126896666D01*
X190920714Y-125468095D02*
X191587380Y-125468095D01*
X190920714Y-125896666D02*
X191444523Y-125896666D01*
X191539761Y-125849047D01*
X191587380Y-125753809D01*
X191587380Y-125610952D01*
X191539761Y-125515714D01*
X191492142Y-125468095D01*
X191063571Y-124658571D02*
X191063571Y-124991904D01*
X191587380Y-124991904D02*
X190587380Y-124991904D01*
X190587380Y-124515714D01*
X187793333Y-126067142D02*
X187745714Y-126114761D01*
X187602857Y-126162380D01*
X187507619Y-126162380D01*
X187364761Y-126114761D01*
X187269523Y-126019523D01*
X187221904Y-125924285D01*
X187174285Y-125733809D01*
X187174285Y-125590952D01*
X187221904Y-125400476D01*
X187269523Y-125305238D01*
X187364761Y-125210000D01*
X187507619Y-125162380D01*
X187602857Y-125162380D01*
X187745714Y-125210000D01*
X187793333Y-125257619D01*
X188126666Y-125162380D02*
X188745714Y-125162380D01*
X188412380Y-125543333D01*
X188555238Y-125543333D01*
X188650476Y-125590952D01*
X188698095Y-125638571D01*
X188745714Y-125733809D01*
X188745714Y-125971904D01*
X188698095Y-126067142D01*
X188650476Y-126114761D01*
X188555238Y-126162380D01*
X188269523Y-126162380D01*
X188174285Y-126114761D01*
X188126666Y-126067142D01*
G04 #@! TO.C,C4*
X220162380Y-126305238D02*
X220162380Y-126876666D01*
X220162380Y-126590952D02*
X219162380Y-126590952D01*
X219305238Y-126686190D01*
X219400476Y-126781428D01*
X219448095Y-126876666D01*
X219495714Y-125448095D02*
X220162380Y-125448095D01*
X219495714Y-125876666D02*
X220019523Y-125876666D01*
X220114761Y-125829047D01*
X220162380Y-125733809D01*
X220162380Y-125590952D01*
X220114761Y-125495714D01*
X220067142Y-125448095D01*
X219638571Y-124638571D02*
X219638571Y-124971904D01*
X220162380Y-124971904D02*
X219162380Y-124971904D01*
X219162380Y-124495714D01*
X223353333Y-126067142D02*
X223305714Y-126114761D01*
X223162857Y-126162380D01*
X223067619Y-126162380D01*
X222924761Y-126114761D01*
X222829523Y-126019523D01*
X222781904Y-125924285D01*
X222734285Y-125733809D01*
X222734285Y-125590952D01*
X222781904Y-125400476D01*
X222829523Y-125305238D01*
X222924761Y-125210000D01*
X223067619Y-125162380D01*
X223162857Y-125162380D01*
X223305714Y-125210000D01*
X223353333Y-125257619D01*
X224210476Y-125495714D02*
X224210476Y-126162380D01*
X223972380Y-125114761D02*
X223734285Y-125829047D01*
X224353333Y-125829047D01*
G04 #@! TO.C,C5*
X202382380Y-126305238D02*
X202382380Y-126876666D01*
X202382380Y-126590952D02*
X201382380Y-126590952D01*
X201525238Y-126686190D01*
X201620476Y-126781428D01*
X201668095Y-126876666D01*
X201715714Y-125448095D02*
X202382380Y-125448095D01*
X201715714Y-125876666D02*
X202239523Y-125876666D01*
X202334761Y-125829047D01*
X202382380Y-125733809D01*
X202382380Y-125590952D01*
X202334761Y-125495714D01*
X202287142Y-125448095D01*
X201858571Y-124638571D02*
X201858571Y-124971904D01*
X202382380Y-124971904D02*
X201382380Y-124971904D01*
X201382380Y-124495714D01*
X205573333Y-126067142D02*
X205525714Y-126114761D01*
X205382857Y-126162380D01*
X205287619Y-126162380D01*
X205144761Y-126114761D01*
X205049523Y-126019523D01*
X205001904Y-125924285D01*
X204954285Y-125733809D01*
X204954285Y-125590952D01*
X205001904Y-125400476D01*
X205049523Y-125305238D01*
X205144761Y-125210000D01*
X205287619Y-125162380D01*
X205382857Y-125162380D01*
X205525714Y-125210000D01*
X205573333Y-125257619D01*
X206478095Y-125162380D02*
X206001904Y-125162380D01*
X205954285Y-125638571D01*
X206001904Y-125590952D01*
X206097142Y-125543333D01*
X206335238Y-125543333D01*
X206430476Y-125590952D01*
X206478095Y-125638571D01*
X206525714Y-125733809D01*
X206525714Y-125971904D01*
X206478095Y-126067142D01*
X206430476Y-126114761D01*
X206335238Y-126162380D01*
X206097142Y-126162380D01*
X206001904Y-126114761D01*
X205954285Y-126067142D01*
G04 #@! TO.C,J1*
X172680380Y-142025523D02*
X172680380Y-141835047D01*
X172728000Y-141739809D01*
X172823238Y-141644571D01*
X173013714Y-141596952D01*
X173347047Y-141596952D01*
X173537523Y-141644571D01*
X173632761Y-141739809D01*
X173680380Y-141835047D01*
X173680380Y-142025523D01*
X173632761Y-142120761D01*
X173537523Y-142216000D01*
X173347047Y-142263619D01*
X173013714Y-142263619D01*
X172823238Y-142216000D01*
X172728000Y-142120761D01*
X172680380Y-142025523D01*
X173013714Y-140739809D02*
X173680380Y-140739809D01*
X173013714Y-141168380D02*
X173537523Y-141168380D01*
X173632761Y-141120761D01*
X173680380Y-141025523D01*
X173680380Y-140882666D01*
X173632761Y-140787428D01*
X173585142Y-140739809D01*
X173013714Y-140406476D02*
X173013714Y-140025523D01*
X172680380Y-140263619D02*
X173537523Y-140263619D01*
X173632761Y-140216000D01*
X173680380Y-140120761D01*
X173680380Y-140025523D01*
X173680380Y-139168380D02*
X173680380Y-139739809D01*
X173680380Y-139454095D02*
X172680380Y-139454095D01*
X172823238Y-139549333D01*
X172918476Y-139644571D01*
X172966095Y-139739809D01*
X166544666Y-141438380D02*
X166544666Y-142152666D01*
X166497047Y-142295523D01*
X166401809Y-142390761D01*
X166258952Y-142438380D01*
X166163714Y-142438380D01*
X167544666Y-142438380D02*
X166973238Y-142438380D01*
X167258952Y-142438380D02*
X167258952Y-141438380D01*
X167163714Y-141581238D01*
X167068476Y-141676476D01*
X166973238Y-141724095D01*
G04 #@! TO.C,J2*
X174712380Y-142025523D02*
X174712380Y-141835047D01*
X174760000Y-141739809D01*
X174855238Y-141644571D01*
X175045714Y-141596952D01*
X175379047Y-141596952D01*
X175569523Y-141644571D01*
X175664761Y-141739809D01*
X175712380Y-141835047D01*
X175712380Y-142025523D01*
X175664761Y-142120761D01*
X175569523Y-142216000D01*
X175379047Y-142263619D01*
X175045714Y-142263619D01*
X174855238Y-142216000D01*
X174760000Y-142120761D01*
X174712380Y-142025523D01*
X175045714Y-140739809D02*
X175712380Y-140739809D01*
X175045714Y-141168380D02*
X175569523Y-141168380D01*
X175664761Y-141120761D01*
X175712380Y-141025523D01*
X175712380Y-140882666D01*
X175664761Y-140787428D01*
X175617142Y-140739809D01*
X175045714Y-140406476D02*
X175045714Y-140025523D01*
X174712380Y-140263619D02*
X175569523Y-140263619D01*
X175664761Y-140216000D01*
X175712380Y-140120761D01*
X175712380Y-140025523D01*
X174807619Y-139739809D02*
X174760000Y-139692190D01*
X174712380Y-139596952D01*
X174712380Y-139358857D01*
X174760000Y-139263619D01*
X174807619Y-139216000D01*
X174902857Y-139168380D01*
X174998095Y-139168380D01*
X175140952Y-139216000D01*
X175712380Y-139787428D01*
X175712380Y-139168380D01*
X181276666Y-138898380D02*
X181276666Y-139612666D01*
X181229047Y-139755523D01*
X181133809Y-139850761D01*
X180990952Y-139898380D01*
X180895714Y-139898380D01*
X181705238Y-138993619D02*
X181752857Y-138946000D01*
X181848095Y-138898380D01*
X182086190Y-138898380D01*
X182181428Y-138946000D01*
X182229047Y-138993619D01*
X182276666Y-139088857D01*
X182276666Y-139184095D01*
X182229047Y-139326952D01*
X181657619Y-139898380D01*
X182276666Y-139898380D01*
G04 #@! TO.C,J3*
X192492380Y-142025523D02*
X192492380Y-141835047D01*
X192540000Y-141739809D01*
X192635238Y-141644571D01*
X192825714Y-141596952D01*
X193159047Y-141596952D01*
X193349523Y-141644571D01*
X193444761Y-141739809D01*
X193492380Y-141835047D01*
X193492380Y-142025523D01*
X193444761Y-142120761D01*
X193349523Y-142216000D01*
X193159047Y-142263619D01*
X192825714Y-142263619D01*
X192635238Y-142216000D01*
X192540000Y-142120761D01*
X192492380Y-142025523D01*
X192825714Y-140739809D02*
X193492380Y-140739809D01*
X192825714Y-141168380D02*
X193349523Y-141168380D01*
X193444761Y-141120761D01*
X193492380Y-141025523D01*
X193492380Y-140882666D01*
X193444761Y-140787428D01*
X193397142Y-140739809D01*
X192825714Y-140406476D02*
X192825714Y-140025523D01*
X192492380Y-140263619D02*
X193349523Y-140263619D01*
X193444761Y-140216000D01*
X193492380Y-140120761D01*
X193492380Y-140025523D01*
X192492380Y-139787428D02*
X192492380Y-139168380D01*
X192873333Y-139501714D01*
X192873333Y-139358857D01*
X192920952Y-139263619D01*
X192968571Y-139216000D01*
X193063809Y-139168380D01*
X193301904Y-139168380D01*
X193397142Y-139216000D01*
X193444761Y-139263619D01*
X193492380Y-139358857D01*
X193492380Y-139644571D01*
X193444761Y-139739809D01*
X193397142Y-139787428D01*
X199056666Y-138898380D02*
X199056666Y-139612666D01*
X199009047Y-139755523D01*
X198913809Y-139850761D01*
X198770952Y-139898380D01*
X198675714Y-139898380D01*
X199437619Y-138898380D02*
X200056666Y-138898380D01*
X199723333Y-139279333D01*
X199866190Y-139279333D01*
X199961428Y-139326952D01*
X200009047Y-139374571D01*
X200056666Y-139469809D01*
X200056666Y-139707904D01*
X200009047Y-139803142D01*
X199961428Y-139850761D01*
X199866190Y-139898380D01*
X199580476Y-139898380D01*
X199485238Y-139850761D01*
X199437619Y-139803142D01*
G04 #@! TO.C,J4*
X210272380Y-142025523D02*
X210272380Y-141835047D01*
X210320000Y-141739809D01*
X210415238Y-141644571D01*
X210605714Y-141596952D01*
X210939047Y-141596952D01*
X211129523Y-141644571D01*
X211224761Y-141739809D01*
X211272380Y-141835047D01*
X211272380Y-142025523D01*
X211224761Y-142120761D01*
X211129523Y-142216000D01*
X210939047Y-142263619D01*
X210605714Y-142263619D01*
X210415238Y-142216000D01*
X210320000Y-142120761D01*
X210272380Y-142025523D01*
X210605714Y-140739809D02*
X211272380Y-140739809D01*
X210605714Y-141168380D02*
X211129523Y-141168380D01*
X211224761Y-141120761D01*
X211272380Y-141025523D01*
X211272380Y-140882666D01*
X211224761Y-140787428D01*
X211177142Y-140739809D01*
X210605714Y-140406476D02*
X210605714Y-140025523D01*
X210272380Y-140263619D02*
X211129523Y-140263619D01*
X211224761Y-140216000D01*
X211272380Y-140120761D01*
X211272380Y-140025523D01*
X210605714Y-139263619D02*
X211272380Y-139263619D01*
X210224761Y-139501714D02*
X210939047Y-139739809D01*
X210939047Y-139120761D01*
X216836666Y-138898380D02*
X216836666Y-139612666D01*
X216789047Y-139755523D01*
X216693809Y-139850761D01*
X216550952Y-139898380D01*
X216455714Y-139898380D01*
X217741428Y-139231714D02*
X217741428Y-139898380D01*
X217503333Y-138850761D02*
X217265238Y-139565047D01*
X217884285Y-139565047D01*
G04 #@! TO.C,J6*
X152066666Y-138898380D02*
X152066666Y-139612666D01*
X152019047Y-139755523D01*
X151923809Y-139850761D01*
X151780952Y-139898380D01*
X151685714Y-139898380D01*
X152971428Y-138898380D02*
X152780952Y-138898380D01*
X152685714Y-138946000D01*
X152638095Y-138993619D01*
X152542857Y-139136476D01*
X152495238Y-139326952D01*
X152495238Y-139707904D01*
X152542857Y-139803142D01*
X152590476Y-139850761D01*
X152685714Y-139898380D01*
X152876190Y-139898380D01*
X152971428Y-139850761D01*
X153019047Y-139803142D01*
X153066666Y-139707904D01*
X153066666Y-139469809D01*
X153019047Y-139374571D01*
X152971428Y-139326952D01*
X152876190Y-139279333D01*
X152685714Y-139279333D01*
X152590476Y-139326952D01*
X152542857Y-139374571D01*
X152495238Y-139469809D01*
G04 #@! TO.C,R1*
X134183380Y-123539142D02*
X134183380Y-124110571D01*
X134183380Y-123824857D02*
X133183380Y-123824857D01*
X133326238Y-123920095D01*
X133421476Y-124015333D01*
X133469095Y-124110571D01*
X133183380Y-122920095D02*
X133183380Y-122824857D01*
X133231000Y-122729619D01*
X133278619Y-122682000D01*
X133373857Y-122634380D01*
X133564333Y-122586761D01*
X133802428Y-122586761D01*
X133992904Y-122634380D01*
X134088142Y-122682000D01*
X134135761Y-122729619D01*
X134183380Y-122824857D01*
X134183380Y-122920095D01*
X134135761Y-123015333D01*
X134088142Y-123062952D01*
X133992904Y-123110571D01*
X133802428Y-123158190D01*
X133564333Y-123158190D01*
X133373857Y-123110571D01*
X133278619Y-123062952D01*
X133231000Y-123015333D01*
X133183380Y-122920095D01*
X134183380Y-122158190D02*
X133516714Y-122158190D01*
X133611952Y-122158190D02*
X133564333Y-122110571D01*
X133516714Y-122015333D01*
X133516714Y-121872476D01*
X133564333Y-121777238D01*
X133659571Y-121729619D01*
X134183380Y-121729619D01*
X133659571Y-121729619D02*
X133564333Y-121682000D01*
X133516714Y-121586761D01*
X133516714Y-121443904D01*
X133564333Y-121348666D01*
X133659571Y-121301047D01*
X134183380Y-121301047D01*
X136088380Y-129198666D02*
X135612190Y-129532000D01*
X136088380Y-129770095D02*
X135088380Y-129770095D01*
X135088380Y-129389142D01*
X135136000Y-129293904D01*
X135183619Y-129246285D01*
X135278857Y-129198666D01*
X135421714Y-129198666D01*
X135516952Y-129246285D01*
X135564571Y-129293904D01*
X135612190Y-129389142D01*
X135612190Y-129770095D01*
X136088380Y-128246285D02*
X136088380Y-128817714D01*
X136088380Y-128532000D02*
X135088380Y-128532000D01*
X135231238Y-128627238D01*
X135326476Y-128722476D01*
X135374095Y-128817714D01*
G04 #@! TO.C,R3*
X178133571Y-115582619D02*
X178181190Y-115535000D01*
X178276428Y-115487380D01*
X178514523Y-115487380D01*
X178609761Y-115535000D01*
X178657380Y-115582619D01*
X178705000Y-115677857D01*
X178705000Y-115773095D01*
X178657380Y-115915952D01*
X178085952Y-116487380D01*
X178705000Y-116487380D01*
X179133571Y-116392142D02*
X179181190Y-116439761D01*
X179133571Y-116487380D01*
X179085952Y-116439761D01*
X179133571Y-116392142D01*
X179133571Y-116487380D01*
X179562142Y-115582619D02*
X179609761Y-115535000D01*
X179705000Y-115487380D01*
X179943095Y-115487380D01*
X180038333Y-115535000D01*
X180085952Y-115582619D01*
X180133571Y-115677857D01*
X180133571Y-115773095D01*
X180085952Y-115915952D01*
X179514523Y-116487380D01*
X180133571Y-116487380D01*
X180562142Y-116487380D02*
X180562142Y-115487380D01*
X180895476Y-116201666D01*
X181228809Y-115487380D01*
X181228809Y-116487380D01*
X179538333Y-114117380D02*
X179205000Y-113641190D01*
X178966904Y-114117380D02*
X178966904Y-113117380D01*
X179347857Y-113117380D01*
X179443095Y-113165000D01*
X179490714Y-113212619D01*
X179538333Y-113307857D01*
X179538333Y-113450714D01*
X179490714Y-113545952D01*
X179443095Y-113593571D01*
X179347857Y-113641190D01*
X178966904Y-113641190D01*
X179871666Y-113117380D02*
X180490714Y-113117380D01*
X180157380Y-113498333D01*
X180300238Y-113498333D01*
X180395476Y-113545952D01*
X180443095Y-113593571D01*
X180490714Y-113688809D01*
X180490714Y-113926904D01*
X180443095Y-114022142D01*
X180395476Y-114069761D01*
X180300238Y-114117380D01*
X180014523Y-114117380D01*
X179919285Y-114069761D01*
X179871666Y-114022142D01*
G04 #@! TO.C,R4*
X161964761Y-124912380D02*
X161393333Y-124912380D01*
X161679047Y-124912380D02*
X161679047Y-123912380D01*
X161583809Y-124055238D01*
X161488571Y-124150476D01*
X161393333Y-124198095D01*
X162583809Y-123912380D02*
X162679047Y-123912380D01*
X162774285Y-123960000D01*
X162821904Y-124007619D01*
X162869523Y-124102857D01*
X162917142Y-124293333D01*
X162917142Y-124531428D01*
X162869523Y-124721904D01*
X162821904Y-124817142D01*
X162774285Y-124864761D01*
X162679047Y-124912380D01*
X162583809Y-124912380D01*
X162488571Y-124864761D01*
X162440952Y-124817142D01*
X162393333Y-124721904D01*
X162345714Y-124531428D01*
X162345714Y-124293333D01*
X162393333Y-124102857D01*
X162440952Y-124007619D01*
X162488571Y-123960000D01*
X162583809Y-123912380D01*
X163345714Y-124912380D02*
X163345714Y-123912380D01*
X163440952Y-124531428D02*
X163726666Y-124912380D01*
X163726666Y-124245714D02*
X163345714Y-124626666D01*
X162393333Y-122627381D02*
X162060000Y-122151191D01*
X161821904Y-122627381D02*
X161821904Y-121627381D01*
X162202857Y-121627381D01*
X162298095Y-121675001D01*
X162345714Y-121722620D01*
X162393333Y-121817858D01*
X162393333Y-121960715D01*
X162345714Y-122055953D01*
X162298095Y-122103572D01*
X162202857Y-122151191D01*
X161821904Y-122151191D01*
X163250476Y-121960715D02*
X163250476Y-122627381D01*
X163012380Y-121579762D02*
X162774285Y-122294048D01*
X163393333Y-122294048D01*
G04 #@! TO.C,R5*
X161488571Y-129992380D02*
X160917142Y-129992380D01*
X161202857Y-129992380D02*
X161202857Y-128992380D01*
X161107619Y-129135238D01*
X161012380Y-129230476D01*
X160917142Y-129278095D01*
X162107619Y-128992380D02*
X162202857Y-128992380D01*
X162298095Y-129040000D01*
X162345714Y-129087619D01*
X162393333Y-129182857D01*
X162440952Y-129373333D01*
X162440952Y-129611428D01*
X162393333Y-129801904D01*
X162345714Y-129897142D01*
X162298095Y-129944761D01*
X162202857Y-129992380D01*
X162107619Y-129992380D01*
X162012380Y-129944761D01*
X161964761Y-129897142D01*
X161917142Y-129801904D01*
X161869523Y-129611428D01*
X161869523Y-129373333D01*
X161917142Y-129182857D01*
X161964761Y-129087619D01*
X162012380Y-129040000D01*
X162107619Y-128992380D01*
X163060000Y-128992380D02*
X163155238Y-128992380D01*
X163250476Y-129040000D01*
X163298095Y-129087619D01*
X163345714Y-129182857D01*
X163393333Y-129373333D01*
X163393333Y-129611428D01*
X163345714Y-129801904D01*
X163298095Y-129897142D01*
X163250476Y-129944761D01*
X163155238Y-129992380D01*
X163060000Y-129992380D01*
X162964761Y-129944761D01*
X162917142Y-129897142D01*
X162869523Y-129801904D01*
X162821904Y-129611428D01*
X162821904Y-129373333D01*
X162869523Y-129182857D01*
X162917142Y-129087619D01*
X162964761Y-129040000D01*
X163060000Y-128992380D01*
X163821904Y-129992380D02*
X163821904Y-128992380D01*
X163917142Y-129611428D02*
X164202857Y-129992380D01*
X164202857Y-129325714D02*
X163821904Y-129706666D01*
X162393333Y-127452380D02*
X162060000Y-126976190D01*
X161821904Y-127452380D02*
X161821904Y-126452380D01*
X162202857Y-126452380D01*
X162298095Y-126500000D01*
X162345714Y-126547619D01*
X162393333Y-126642857D01*
X162393333Y-126785714D01*
X162345714Y-126880952D01*
X162298095Y-126928571D01*
X162202857Y-126976190D01*
X161821904Y-126976190D01*
X163298095Y-126452380D02*
X162821904Y-126452380D01*
X162774285Y-126928571D01*
X162821904Y-126880952D01*
X162917142Y-126833333D01*
X163155238Y-126833333D01*
X163250476Y-126880952D01*
X163298095Y-126928571D01*
X163345714Y-127023809D01*
X163345714Y-127261904D01*
X163298095Y-127357142D01*
X163250476Y-127404761D01*
X163155238Y-127452380D01*
X162917142Y-127452380D01*
X162821904Y-127404761D01*
X162774285Y-127357142D01*
G04 #@! TO.C,R6*
X179744761Y-120637380D02*
X179173333Y-120637380D01*
X179459047Y-120637380D02*
X179459047Y-119637380D01*
X179363809Y-119780238D01*
X179268571Y-119875476D01*
X179173333Y-119923095D01*
X180363809Y-119637380D02*
X180459047Y-119637380D01*
X180554285Y-119685000D01*
X180601904Y-119732619D01*
X180649523Y-119827857D01*
X180697142Y-120018333D01*
X180697142Y-120256428D01*
X180649523Y-120446904D01*
X180601904Y-120542142D01*
X180554285Y-120589761D01*
X180459047Y-120637380D01*
X180363809Y-120637380D01*
X180268571Y-120589761D01*
X180220952Y-120542142D01*
X180173333Y-120446904D01*
X180125714Y-120256428D01*
X180125714Y-120018333D01*
X180173333Y-119827857D01*
X180220952Y-119732619D01*
X180268571Y-119685000D01*
X180363809Y-119637380D01*
X181125714Y-120637380D02*
X181125714Y-119637380D01*
X181220952Y-120256428D02*
X181506666Y-120637380D01*
X181506666Y-119970714D02*
X181125714Y-120351666D01*
X180173333Y-123007380D02*
X179840000Y-122531190D01*
X179601904Y-123007380D02*
X179601904Y-122007380D01*
X179982857Y-122007380D01*
X180078095Y-122055000D01*
X180125714Y-122102619D01*
X180173333Y-122197857D01*
X180173333Y-122340714D01*
X180125714Y-122435952D01*
X180078095Y-122483571D01*
X179982857Y-122531190D01*
X179601904Y-122531190D01*
X181030476Y-122007380D02*
X180840000Y-122007380D01*
X180744761Y-122055000D01*
X180697142Y-122102619D01*
X180601904Y-122245476D01*
X180554285Y-122435952D01*
X180554285Y-122816904D01*
X180601904Y-122912142D01*
X180649523Y-122959761D01*
X180744761Y-123007380D01*
X180935238Y-123007380D01*
X181030476Y-122959761D01*
X181078095Y-122912142D01*
X181125714Y-122816904D01*
X181125714Y-122578809D01*
X181078095Y-122483571D01*
X181030476Y-122435952D01*
X180935238Y-122388333D01*
X180744761Y-122388333D01*
X180649523Y-122435952D01*
X180601904Y-122483571D01*
X180554285Y-122578809D01*
G04 #@! TO.C,R7*
X179268571Y-125082380D02*
X178697142Y-125082380D01*
X178982857Y-125082380D02*
X178982857Y-124082380D01*
X178887619Y-124225238D01*
X178792380Y-124320476D01*
X178697142Y-124368095D01*
X179887619Y-124082380D02*
X179982857Y-124082380D01*
X180078095Y-124130000D01*
X180125714Y-124177619D01*
X180173333Y-124272857D01*
X180220952Y-124463333D01*
X180220952Y-124701428D01*
X180173333Y-124891904D01*
X180125714Y-124987142D01*
X180078095Y-125034761D01*
X179982857Y-125082380D01*
X179887619Y-125082380D01*
X179792380Y-125034761D01*
X179744761Y-124987142D01*
X179697142Y-124891904D01*
X179649523Y-124701428D01*
X179649523Y-124463333D01*
X179697142Y-124272857D01*
X179744761Y-124177619D01*
X179792380Y-124130000D01*
X179887619Y-124082380D01*
X180840000Y-124082380D02*
X180935238Y-124082380D01*
X181030476Y-124130000D01*
X181078095Y-124177619D01*
X181125714Y-124272857D01*
X181173333Y-124463333D01*
X181173333Y-124701428D01*
X181125714Y-124891904D01*
X181078095Y-124987142D01*
X181030476Y-125034761D01*
X180935238Y-125082380D01*
X180840000Y-125082380D01*
X180744761Y-125034761D01*
X180697142Y-124987142D01*
X180649523Y-124891904D01*
X180601904Y-124701428D01*
X180601904Y-124463333D01*
X180649523Y-124272857D01*
X180697142Y-124177619D01*
X180744761Y-124130000D01*
X180840000Y-124082380D01*
X181601904Y-125082380D02*
X181601904Y-124082380D01*
X181697142Y-124701428D02*
X181982857Y-125082380D01*
X181982857Y-124415714D02*
X181601904Y-124796666D01*
X180173333Y-127452380D02*
X179840000Y-126976190D01*
X179601904Y-127452380D02*
X179601904Y-126452380D01*
X179982857Y-126452380D01*
X180078095Y-126500000D01*
X180125714Y-126547619D01*
X180173333Y-126642857D01*
X180173333Y-126785714D01*
X180125714Y-126880952D01*
X180078095Y-126928571D01*
X179982857Y-126976190D01*
X179601904Y-126976190D01*
X180506666Y-126452380D02*
X181173333Y-126452380D01*
X180744761Y-127452380D01*
G04 #@! TO.C,R8*
X215304761Y-120467380D02*
X214733333Y-120467380D01*
X215019047Y-120467380D02*
X215019047Y-119467380D01*
X214923809Y-119610238D01*
X214828571Y-119705476D01*
X214733333Y-119753095D01*
X215923809Y-119467380D02*
X216019047Y-119467380D01*
X216114285Y-119515000D01*
X216161904Y-119562619D01*
X216209523Y-119657857D01*
X216257142Y-119848333D01*
X216257142Y-120086428D01*
X216209523Y-120276904D01*
X216161904Y-120372142D01*
X216114285Y-120419761D01*
X216019047Y-120467380D01*
X215923809Y-120467380D01*
X215828571Y-120419761D01*
X215780952Y-120372142D01*
X215733333Y-120276904D01*
X215685714Y-120086428D01*
X215685714Y-119848333D01*
X215733333Y-119657857D01*
X215780952Y-119562619D01*
X215828571Y-119515000D01*
X215923809Y-119467380D01*
X216685714Y-120467380D02*
X216685714Y-119467380D01*
X216780952Y-120086428D02*
X217066666Y-120467380D01*
X217066666Y-119800714D02*
X216685714Y-120181666D01*
X215733333Y-122372380D02*
X215400000Y-121896190D01*
X215161904Y-122372380D02*
X215161904Y-121372380D01*
X215542857Y-121372380D01*
X215638095Y-121420000D01*
X215685714Y-121467619D01*
X215733333Y-121562857D01*
X215733333Y-121705714D01*
X215685714Y-121800952D01*
X215638095Y-121848571D01*
X215542857Y-121896190D01*
X215161904Y-121896190D01*
X216304761Y-121800952D02*
X216209523Y-121753333D01*
X216161904Y-121705714D01*
X216114285Y-121610476D01*
X216114285Y-121562857D01*
X216161904Y-121467619D01*
X216209523Y-121420000D01*
X216304761Y-121372380D01*
X216495238Y-121372380D01*
X216590476Y-121420000D01*
X216638095Y-121467619D01*
X216685714Y-121562857D01*
X216685714Y-121610476D01*
X216638095Y-121705714D01*
X216590476Y-121753333D01*
X216495238Y-121800952D01*
X216304761Y-121800952D01*
X216209523Y-121848571D01*
X216161904Y-121896190D01*
X216114285Y-121991428D01*
X216114285Y-122181904D01*
X216161904Y-122277142D01*
X216209523Y-122324761D01*
X216304761Y-122372380D01*
X216495238Y-122372380D01*
X216590476Y-122324761D01*
X216638095Y-122277142D01*
X216685714Y-122181904D01*
X216685714Y-121991428D01*
X216638095Y-121896190D01*
X216590476Y-121848571D01*
X216495238Y-121800952D01*
G04 #@! TO.C,R9*
X197524761Y-124912380D02*
X196953333Y-124912380D01*
X197239047Y-124912380D02*
X197239047Y-123912380D01*
X197143809Y-124055238D01*
X197048571Y-124150476D01*
X196953333Y-124198095D01*
X198143809Y-123912380D02*
X198239047Y-123912380D01*
X198334285Y-123960000D01*
X198381904Y-124007619D01*
X198429523Y-124102857D01*
X198477142Y-124293333D01*
X198477142Y-124531428D01*
X198429523Y-124721904D01*
X198381904Y-124817142D01*
X198334285Y-124864761D01*
X198239047Y-124912380D01*
X198143809Y-124912380D01*
X198048571Y-124864761D01*
X198000952Y-124817142D01*
X197953333Y-124721904D01*
X197905714Y-124531428D01*
X197905714Y-124293333D01*
X197953333Y-124102857D01*
X198000952Y-124007619D01*
X198048571Y-123960000D01*
X198143809Y-123912380D01*
X198905714Y-124912380D02*
X198905714Y-123912380D01*
X199000952Y-124531428D02*
X199286666Y-124912380D01*
X199286666Y-124245714D02*
X198905714Y-124626666D01*
X197953333Y-122372380D02*
X197620000Y-121896190D01*
X197381904Y-122372380D02*
X197381904Y-121372380D01*
X197762857Y-121372380D01*
X197858095Y-121420000D01*
X197905714Y-121467619D01*
X197953333Y-121562857D01*
X197953333Y-121705714D01*
X197905714Y-121800952D01*
X197858095Y-121848571D01*
X197762857Y-121896190D01*
X197381904Y-121896190D01*
X198429523Y-122372380D02*
X198620000Y-122372380D01*
X198715238Y-122324761D01*
X198762857Y-122277142D01*
X198858095Y-122134285D01*
X198905714Y-121943809D01*
X198905714Y-121562857D01*
X198858095Y-121467619D01*
X198810476Y-121420000D01*
X198715238Y-121372380D01*
X198524761Y-121372380D01*
X198429523Y-121420000D01*
X198381904Y-121467619D01*
X198334285Y-121562857D01*
X198334285Y-121800952D01*
X198381904Y-121896190D01*
X198429523Y-121943809D01*
X198524761Y-121991428D01*
X198715238Y-121991428D01*
X198810476Y-121943809D01*
X198858095Y-121896190D01*
X198905714Y-121800952D01*
G04 #@! TO.C,R10*
X214828571Y-129357380D02*
X214257142Y-129357380D01*
X214542857Y-129357380D02*
X214542857Y-128357380D01*
X214447619Y-128500238D01*
X214352380Y-128595476D01*
X214257142Y-128643095D01*
X215447619Y-128357380D02*
X215542857Y-128357380D01*
X215638095Y-128405000D01*
X215685714Y-128452619D01*
X215733333Y-128547857D01*
X215780952Y-128738333D01*
X215780952Y-128976428D01*
X215733333Y-129166904D01*
X215685714Y-129262142D01*
X215638095Y-129309761D01*
X215542857Y-129357380D01*
X215447619Y-129357380D01*
X215352380Y-129309761D01*
X215304761Y-129262142D01*
X215257142Y-129166904D01*
X215209523Y-128976428D01*
X215209523Y-128738333D01*
X215257142Y-128547857D01*
X215304761Y-128452619D01*
X215352380Y-128405000D01*
X215447619Y-128357380D01*
X216400000Y-128357380D02*
X216495238Y-128357380D01*
X216590476Y-128405000D01*
X216638095Y-128452619D01*
X216685714Y-128547857D01*
X216733333Y-128738333D01*
X216733333Y-128976428D01*
X216685714Y-129166904D01*
X216638095Y-129262142D01*
X216590476Y-129309761D01*
X216495238Y-129357380D01*
X216400000Y-129357380D01*
X216304761Y-129309761D01*
X216257142Y-129262142D01*
X216209523Y-129166904D01*
X216161904Y-128976428D01*
X216161904Y-128738333D01*
X216209523Y-128547857D01*
X216257142Y-128452619D01*
X216304761Y-128405000D01*
X216400000Y-128357380D01*
X217161904Y-129357380D02*
X217161904Y-128357380D01*
X217257142Y-128976428D02*
X217542857Y-129357380D01*
X217542857Y-128690714D02*
X217161904Y-129071666D01*
X215257142Y-127452380D02*
X214923809Y-126976190D01*
X214685714Y-127452380D02*
X214685714Y-126452380D01*
X215066666Y-126452380D01*
X215161904Y-126500000D01*
X215209523Y-126547619D01*
X215257142Y-126642857D01*
X215257142Y-126785714D01*
X215209523Y-126880952D01*
X215161904Y-126928571D01*
X215066666Y-126976190D01*
X214685714Y-126976190D01*
X216209523Y-127452380D02*
X215638095Y-127452380D01*
X215923809Y-127452380D02*
X215923809Y-126452380D01*
X215828571Y-126595238D01*
X215733333Y-126690476D01*
X215638095Y-126738095D01*
X216828571Y-126452380D02*
X216923809Y-126452380D01*
X217019047Y-126500000D01*
X217066666Y-126547619D01*
X217114285Y-126642857D01*
X217161904Y-126833333D01*
X217161904Y-127071428D01*
X217114285Y-127261904D01*
X217066666Y-127357142D01*
X217019047Y-127404761D01*
X216923809Y-127452380D01*
X216828571Y-127452380D01*
X216733333Y-127404761D01*
X216685714Y-127357142D01*
X216638095Y-127261904D01*
X216590476Y-127071428D01*
X216590476Y-126833333D01*
X216638095Y-126642857D01*
X216685714Y-126547619D01*
X216733333Y-126500000D01*
X216828571Y-126452380D01*
G04 #@! TO.C,R11*
X197048571Y-129992380D02*
X196477142Y-129992380D01*
X196762857Y-129992380D02*
X196762857Y-128992380D01*
X196667619Y-129135238D01*
X196572380Y-129230476D01*
X196477142Y-129278095D01*
X197667619Y-128992380D02*
X197762857Y-128992380D01*
X197858095Y-129040000D01*
X197905714Y-129087619D01*
X197953333Y-129182857D01*
X198000952Y-129373333D01*
X198000952Y-129611428D01*
X197953333Y-129801904D01*
X197905714Y-129897142D01*
X197858095Y-129944761D01*
X197762857Y-129992380D01*
X197667619Y-129992380D01*
X197572380Y-129944761D01*
X197524761Y-129897142D01*
X197477142Y-129801904D01*
X197429523Y-129611428D01*
X197429523Y-129373333D01*
X197477142Y-129182857D01*
X197524761Y-129087619D01*
X197572380Y-129040000D01*
X197667619Y-128992380D01*
X198620000Y-128992380D02*
X198715238Y-128992380D01*
X198810476Y-129040000D01*
X198858095Y-129087619D01*
X198905714Y-129182857D01*
X198953333Y-129373333D01*
X198953333Y-129611428D01*
X198905714Y-129801904D01*
X198858095Y-129897142D01*
X198810476Y-129944761D01*
X198715238Y-129992380D01*
X198620000Y-129992380D01*
X198524761Y-129944761D01*
X198477142Y-129897142D01*
X198429523Y-129801904D01*
X198381904Y-129611428D01*
X198381904Y-129373333D01*
X198429523Y-129182857D01*
X198477142Y-129087619D01*
X198524761Y-129040000D01*
X198620000Y-128992380D01*
X199381904Y-129992380D02*
X199381904Y-128992380D01*
X199477142Y-129611428D02*
X199762857Y-129992380D01*
X199762857Y-129325714D02*
X199381904Y-129706666D01*
X197477142Y-127452380D02*
X197143809Y-126976190D01*
X196905714Y-127452380D02*
X196905714Y-126452380D01*
X197286666Y-126452380D01*
X197381904Y-126500000D01*
X197429523Y-126547619D01*
X197477142Y-126642857D01*
X197477142Y-126785714D01*
X197429523Y-126880952D01*
X197381904Y-126928571D01*
X197286666Y-126976190D01*
X196905714Y-126976190D01*
X198429523Y-127452380D02*
X197858095Y-127452380D01*
X198143809Y-127452380D02*
X198143809Y-126452380D01*
X198048571Y-126595238D01*
X197953333Y-126690476D01*
X197858095Y-126738095D01*
X199381904Y-127452380D02*
X198810476Y-127452380D01*
X199096190Y-127452380D02*
X199096190Y-126452380D01*
X199000952Y-126595238D01*
X198905714Y-126690476D01*
X198810476Y-126738095D01*
G04 #@! TO.C,R12*
X132278571Y-112720380D02*
X131707142Y-112720380D01*
X131992857Y-112720380D02*
X131992857Y-111720380D01*
X131897619Y-111863238D01*
X131802380Y-111958476D01*
X131707142Y-112006095D01*
X132897619Y-111720380D02*
X132992857Y-111720380D01*
X133088095Y-111768000D01*
X133135714Y-111815619D01*
X133183333Y-111910857D01*
X133230952Y-112101333D01*
X133230952Y-112339428D01*
X133183333Y-112529904D01*
X133135714Y-112625142D01*
X133088095Y-112672761D01*
X132992857Y-112720380D01*
X132897619Y-112720380D01*
X132802380Y-112672761D01*
X132754761Y-112625142D01*
X132707142Y-112529904D01*
X132659523Y-112339428D01*
X132659523Y-112101333D01*
X132707142Y-111910857D01*
X132754761Y-111815619D01*
X132802380Y-111768000D01*
X132897619Y-111720380D01*
X133850000Y-111720380D02*
X133945238Y-111720380D01*
X134040476Y-111768000D01*
X134088095Y-111815619D01*
X134135714Y-111910857D01*
X134183333Y-112101333D01*
X134183333Y-112339428D01*
X134135714Y-112529904D01*
X134088095Y-112625142D01*
X134040476Y-112672761D01*
X133945238Y-112720380D01*
X133850000Y-112720380D01*
X133754761Y-112672761D01*
X133707142Y-112625142D01*
X133659523Y-112529904D01*
X133611904Y-112339428D01*
X133611904Y-112101333D01*
X133659523Y-111910857D01*
X133707142Y-111815619D01*
X133754761Y-111768000D01*
X133850000Y-111720380D01*
X134611904Y-112720380D02*
X134611904Y-111720380D01*
X134707142Y-112339428D02*
X134992857Y-112720380D01*
X134992857Y-112053714D02*
X134611904Y-112434666D01*
X139057142Y-112720380D02*
X138723809Y-112244190D01*
X138485714Y-112720380D02*
X138485714Y-111720380D01*
X138866666Y-111720380D01*
X138961904Y-111768000D01*
X139009523Y-111815619D01*
X139057142Y-111910857D01*
X139057142Y-112053714D01*
X139009523Y-112148952D01*
X138961904Y-112196571D01*
X138866666Y-112244190D01*
X138485714Y-112244190D01*
X140009523Y-112720380D02*
X139438095Y-112720380D01*
X139723809Y-112720380D02*
X139723809Y-111720380D01*
X139628571Y-111863238D01*
X139533333Y-111958476D01*
X139438095Y-112006095D01*
X140390476Y-111815619D02*
X140438095Y-111768000D01*
X140533333Y-111720380D01*
X140771428Y-111720380D01*
X140866666Y-111768000D01*
X140914285Y-111815619D01*
X140961904Y-111910857D01*
X140961904Y-112006095D01*
X140914285Y-112148952D01*
X140342857Y-112720380D01*
X140961904Y-112720380D01*
G04 #@! TO.C,R13*
X150498380Y-125983904D02*
X150498380Y-126174380D01*
X150546000Y-126269619D01*
X150593619Y-126317238D01*
X150736476Y-126412476D01*
X150926952Y-126460095D01*
X151307904Y-126460095D01*
X151403142Y-126412476D01*
X151450761Y-126364857D01*
X151498380Y-126269619D01*
X151498380Y-126079142D01*
X151450761Y-125983904D01*
X151403142Y-125936285D01*
X151307904Y-125888666D01*
X151069809Y-125888666D01*
X150974571Y-125936285D01*
X150926952Y-125983904D01*
X150879333Y-126079142D01*
X150879333Y-126269619D01*
X150926952Y-126364857D01*
X150974571Y-126412476D01*
X151069809Y-126460095D01*
X150926952Y-125317238D02*
X150879333Y-125412476D01*
X150831714Y-125460095D01*
X150736476Y-125507714D01*
X150688857Y-125507714D01*
X150593619Y-125460095D01*
X150546000Y-125412476D01*
X150498380Y-125317238D01*
X150498380Y-125126761D01*
X150546000Y-125031523D01*
X150593619Y-124983904D01*
X150688857Y-124936285D01*
X150736476Y-124936285D01*
X150831714Y-124983904D01*
X150879333Y-125031523D01*
X150926952Y-125126761D01*
X150926952Y-125317238D01*
X150974571Y-125412476D01*
X151022190Y-125460095D01*
X151117428Y-125507714D01*
X151307904Y-125507714D01*
X151403142Y-125460095D01*
X151450761Y-125412476D01*
X151498380Y-125317238D01*
X151498380Y-125126761D01*
X151450761Y-125031523D01*
X151403142Y-124983904D01*
X151307904Y-124936285D01*
X151117428Y-124936285D01*
X151022190Y-124983904D01*
X150974571Y-125031523D01*
X150926952Y-125126761D01*
X150498380Y-124317238D02*
X150498380Y-124222000D01*
X150546000Y-124126761D01*
X150593619Y-124079142D01*
X150688857Y-124031523D01*
X150879333Y-123983904D01*
X151117428Y-123983904D01*
X151307904Y-124031523D01*
X151403142Y-124079142D01*
X151450761Y-124126761D01*
X151498380Y-124222000D01*
X151498380Y-124317238D01*
X151450761Y-124412476D01*
X151403142Y-124460095D01*
X151307904Y-124507714D01*
X151117428Y-124555333D01*
X150879333Y-124555333D01*
X150688857Y-124507714D01*
X150593619Y-124460095D01*
X150546000Y-124412476D01*
X150498380Y-124317238D01*
X153868380Y-125864857D02*
X153392190Y-126198190D01*
X153868380Y-126436285D02*
X152868380Y-126436285D01*
X152868380Y-126055333D01*
X152916000Y-125960095D01*
X152963619Y-125912476D01*
X153058857Y-125864857D01*
X153201714Y-125864857D01*
X153296952Y-125912476D01*
X153344571Y-125960095D01*
X153392190Y-126055333D01*
X153392190Y-126436285D01*
X153868380Y-124912476D02*
X153868380Y-125483904D01*
X153868380Y-125198190D02*
X152868380Y-125198190D01*
X153011238Y-125293428D01*
X153106476Y-125388666D01*
X153154095Y-125483904D01*
X152868380Y-124579142D02*
X152868380Y-123960095D01*
X153249333Y-124293428D01*
X153249333Y-124150571D01*
X153296952Y-124055333D01*
X153344571Y-124007714D01*
X153439809Y-123960095D01*
X153677904Y-123960095D01*
X153773142Y-124007714D01*
X153820761Y-124055333D01*
X153868380Y-124150571D01*
X153868380Y-124436285D01*
X153820761Y-124531523D01*
X153773142Y-124579142D01*
G04 #@! TO.C,R2*
X160988571Y-114017619D02*
X161036190Y-113970000D01*
X161131428Y-113922380D01*
X161369523Y-113922380D01*
X161464761Y-113970000D01*
X161512380Y-114017619D01*
X161560000Y-114112857D01*
X161560000Y-114208095D01*
X161512380Y-114350952D01*
X160940952Y-114922380D01*
X161560000Y-114922380D01*
X161988571Y-114827142D02*
X162036190Y-114874761D01*
X161988571Y-114922380D01*
X161940952Y-114874761D01*
X161988571Y-114827142D01*
X161988571Y-114922380D01*
X162417142Y-114017619D02*
X162464761Y-113970000D01*
X162560000Y-113922380D01*
X162798095Y-113922380D01*
X162893333Y-113970000D01*
X162940952Y-114017619D01*
X162988571Y-114112857D01*
X162988571Y-114208095D01*
X162940952Y-114350952D01*
X162369523Y-114922380D01*
X162988571Y-114922380D01*
X163417142Y-114922380D02*
X163417142Y-113922380D01*
X163750476Y-114636666D01*
X164083809Y-113922380D01*
X164083809Y-114922380D01*
X162393333Y-117292380D02*
X162060000Y-116816190D01*
X161821904Y-117292380D02*
X161821904Y-116292380D01*
X162202857Y-116292380D01*
X162298095Y-116340000D01*
X162345714Y-116387619D01*
X162393333Y-116482857D01*
X162393333Y-116625714D01*
X162345714Y-116720952D01*
X162298095Y-116768571D01*
X162202857Y-116816190D01*
X161821904Y-116816190D01*
X162774285Y-116387619D02*
X162821904Y-116340000D01*
X162917142Y-116292380D01*
X163155238Y-116292380D01*
X163250476Y-116340000D01*
X163298095Y-116387619D01*
X163345714Y-116482857D01*
X163345714Y-116578095D01*
X163298095Y-116720952D01*
X162726666Y-117292380D01*
X163345714Y-117292380D01*
G04 #@! TO.C,J7*
X161226666Y-101417380D02*
X161226666Y-100417380D01*
X161607619Y-100417380D01*
X161702857Y-100465000D01*
X161750476Y-100512619D01*
X161798095Y-100607857D01*
X161798095Y-100750714D01*
X161750476Y-100845952D01*
X161702857Y-100893571D01*
X161607619Y-100941190D01*
X161226666Y-100941190D01*
X162131428Y-100417380D02*
X162369523Y-101417380D01*
X162560000Y-100703095D01*
X162750476Y-101417380D01*
X162988571Y-100417380D01*
X163940952Y-101417380D02*
X163607619Y-100941190D01*
X163369523Y-101417380D02*
X163369523Y-100417380D01*
X163750476Y-100417380D01*
X163845714Y-100465000D01*
X163893333Y-100512619D01*
X163940952Y-100607857D01*
X163940952Y-100750714D01*
X163893333Y-100845952D01*
X163845714Y-100893571D01*
X163750476Y-100941190D01*
X163369523Y-100941190D01*
X162226666Y-102957380D02*
X162226666Y-103671666D01*
X162179047Y-103814523D01*
X162083809Y-103909761D01*
X161940952Y-103957380D01*
X161845714Y-103957380D01*
X162607619Y-102957380D02*
X163274285Y-102957380D01*
X162845714Y-103957380D01*
G04 #@! TO.C,J8*
X125611428Y-107157380D02*
X125611428Y-106157380D01*
X125944761Y-106871666D01*
X126278095Y-106157380D01*
X126278095Y-107157380D01*
X127135238Y-107109761D02*
X127040000Y-107157380D01*
X126849523Y-107157380D01*
X126754285Y-107109761D01*
X126706666Y-107014523D01*
X126706666Y-106633571D01*
X126754285Y-106538333D01*
X126849523Y-106490714D01*
X127040000Y-106490714D01*
X127135238Y-106538333D01*
X127182857Y-106633571D01*
X127182857Y-106728809D01*
X126706666Y-106824047D01*
X128040000Y-107109761D02*
X127944761Y-107157380D01*
X127754285Y-107157380D01*
X127659047Y-107109761D01*
X127611428Y-107062142D01*
X127563809Y-106966904D01*
X127563809Y-106681190D01*
X127611428Y-106585952D01*
X127659047Y-106538333D01*
X127754285Y-106490714D01*
X127944761Y-106490714D01*
X128040000Y-106538333D01*
X128468571Y-107157380D02*
X128468571Y-106157380D01*
X128897142Y-107157380D02*
X128897142Y-106633571D01*
X128849523Y-106538333D01*
X128754285Y-106490714D01*
X128611428Y-106490714D01*
X128516190Y-106538333D01*
X128468571Y-106585952D01*
X129801904Y-107157380D02*
X129801904Y-106633571D01*
X129754285Y-106538333D01*
X129659047Y-106490714D01*
X129468571Y-106490714D01*
X129373333Y-106538333D01*
X129801904Y-107109761D02*
X129706666Y-107157380D01*
X129468571Y-107157380D01*
X129373333Y-107109761D01*
X129325714Y-107014523D01*
X129325714Y-106919285D01*
X129373333Y-106824047D01*
X129468571Y-106776428D01*
X129706666Y-106776428D01*
X129801904Y-106728809D01*
X130278095Y-106490714D02*
X130278095Y-107157380D01*
X130278095Y-106585952D02*
X130325714Y-106538333D01*
X130420952Y-106490714D01*
X130563809Y-106490714D01*
X130659047Y-106538333D01*
X130706666Y-106633571D01*
X130706666Y-107157380D01*
X131182857Y-107157380D02*
X131182857Y-106490714D01*
X131182857Y-106157380D02*
X131135238Y-106205000D01*
X131182857Y-106252619D01*
X131230476Y-106205000D01*
X131182857Y-106157380D01*
X131182857Y-106252619D01*
X132087619Y-107109761D02*
X131992380Y-107157380D01*
X131801904Y-107157380D01*
X131706666Y-107109761D01*
X131659047Y-107062142D01*
X131611428Y-106966904D01*
X131611428Y-106681190D01*
X131659047Y-106585952D01*
X131706666Y-106538333D01*
X131801904Y-106490714D01*
X131992380Y-106490714D01*
X132087619Y-106538333D01*
X132944761Y-107157380D02*
X132944761Y-106633571D01*
X132897142Y-106538333D01*
X132801904Y-106490714D01*
X132611428Y-106490714D01*
X132516190Y-106538333D01*
X132944761Y-107109761D02*
X132849523Y-107157380D01*
X132611428Y-107157380D01*
X132516190Y-107109761D01*
X132468571Y-107014523D01*
X132468571Y-106919285D01*
X132516190Y-106824047D01*
X132611428Y-106776428D01*
X132849523Y-106776428D01*
X132944761Y-106728809D01*
X133563809Y-107157380D02*
X133468571Y-107109761D01*
X133420952Y-107014523D01*
X133420952Y-106157380D01*
X129506666Y-102957380D02*
X129506666Y-103671666D01*
X129459047Y-103814523D01*
X129363809Y-103909761D01*
X129220952Y-103957380D01*
X129125714Y-103957380D01*
X130125714Y-103385952D02*
X130030476Y-103338333D01*
X129982857Y-103290714D01*
X129935238Y-103195476D01*
X129935238Y-103147857D01*
X129982857Y-103052619D01*
X130030476Y-103005000D01*
X130125714Y-102957380D01*
X130316190Y-102957380D01*
X130411428Y-103005000D01*
X130459047Y-103052619D01*
X130506666Y-103147857D01*
X130506666Y-103195476D01*
X130459047Y-103290714D01*
X130411428Y-103338333D01*
X130316190Y-103385952D01*
X130125714Y-103385952D01*
X130030476Y-103433571D01*
X129982857Y-103481190D01*
X129935238Y-103576428D01*
X129935238Y-103766904D01*
X129982857Y-103862142D01*
X130030476Y-103909761D01*
X130125714Y-103957380D01*
X130316190Y-103957380D01*
X130411428Y-103909761D01*
X130459047Y-103862142D01*
X130506666Y-103766904D01*
X130506666Y-103576428D01*
X130459047Y-103481190D01*
X130411428Y-103433571D01*
X130316190Y-103385952D01*
G04 #@! TO.C,J9*
X222131428Y-107157380D02*
X222131428Y-106157380D01*
X222464761Y-106871666D01*
X222798095Y-106157380D01*
X222798095Y-107157380D01*
X223655238Y-107109761D02*
X223560000Y-107157380D01*
X223369523Y-107157380D01*
X223274285Y-107109761D01*
X223226666Y-107014523D01*
X223226666Y-106633571D01*
X223274285Y-106538333D01*
X223369523Y-106490714D01*
X223560000Y-106490714D01*
X223655238Y-106538333D01*
X223702857Y-106633571D01*
X223702857Y-106728809D01*
X223226666Y-106824047D01*
X224560000Y-107109761D02*
X224464761Y-107157380D01*
X224274285Y-107157380D01*
X224179047Y-107109761D01*
X224131428Y-107062142D01*
X224083809Y-106966904D01*
X224083809Y-106681190D01*
X224131428Y-106585952D01*
X224179047Y-106538333D01*
X224274285Y-106490714D01*
X224464761Y-106490714D01*
X224560000Y-106538333D01*
X224988571Y-107157380D02*
X224988571Y-106157380D01*
X225417142Y-107157380D02*
X225417142Y-106633571D01*
X225369523Y-106538333D01*
X225274285Y-106490714D01*
X225131428Y-106490714D01*
X225036190Y-106538333D01*
X224988571Y-106585952D01*
X226321904Y-107157380D02*
X226321904Y-106633571D01*
X226274285Y-106538333D01*
X226179047Y-106490714D01*
X225988571Y-106490714D01*
X225893333Y-106538333D01*
X226321904Y-107109761D02*
X226226666Y-107157380D01*
X225988571Y-107157380D01*
X225893333Y-107109761D01*
X225845714Y-107014523D01*
X225845714Y-106919285D01*
X225893333Y-106824047D01*
X225988571Y-106776428D01*
X226226666Y-106776428D01*
X226321904Y-106728809D01*
X226798095Y-106490714D02*
X226798095Y-107157380D01*
X226798095Y-106585952D02*
X226845714Y-106538333D01*
X226940952Y-106490714D01*
X227083809Y-106490714D01*
X227179047Y-106538333D01*
X227226666Y-106633571D01*
X227226666Y-107157380D01*
X227702857Y-107157380D02*
X227702857Y-106490714D01*
X227702857Y-106157380D02*
X227655238Y-106205000D01*
X227702857Y-106252619D01*
X227750476Y-106205000D01*
X227702857Y-106157380D01*
X227702857Y-106252619D01*
X228607619Y-107109761D02*
X228512380Y-107157380D01*
X228321904Y-107157380D01*
X228226666Y-107109761D01*
X228179047Y-107062142D01*
X228131428Y-106966904D01*
X228131428Y-106681190D01*
X228179047Y-106585952D01*
X228226666Y-106538333D01*
X228321904Y-106490714D01*
X228512380Y-106490714D01*
X228607619Y-106538333D01*
X229464761Y-107157380D02*
X229464761Y-106633571D01*
X229417142Y-106538333D01*
X229321904Y-106490714D01*
X229131428Y-106490714D01*
X229036190Y-106538333D01*
X229464761Y-107109761D02*
X229369523Y-107157380D01*
X229131428Y-107157380D01*
X229036190Y-107109761D01*
X228988571Y-107014523D01*
X228988571Y-106919285D01*
X229036190Y-106824047D01*
X229131428Y-106776428D01*
X229369523Y-106776428D01*
X229464761Y-106728809D01*
X230083809Y-107157380D02*
X229988571Y-107109761D01*
X229940952Y-107014523D01*
X229940952Y-106157380D01*
X226026666Y-102957380D02*
X226026666Y-103671666D01*
X225979047Y-103814523D01*
X225883809Y-103909761D01*
X225740952Y-103957380D01*
X225645714Y-103957380D01*
X226550476Y-103957380D02*
X226740952Y-103957380D01*
X226836190Y-103909761D01*
X226883809Y-103862142D01*
X226979047Y-103719285D01*
X227026666Y-103528809D01*
X227026666Y-103147857D01*
X226979047Y-103052619D01*
X226931428Y-103005000D01*
X226836190Y-102957380D01*
X226645714Y-102957380D01*
X226550476Y-103005000D01*
X226502857Y-103052619D01*
X226455238Y-103147857D01*
X226455238Y-103385952D01*
X226502857Y-103481190D01*
X226550476Y-103528809D01*
X226645714Y-103576428D01*
X226836190Y-103576428D01*
X226931428Y-103528809D01*
X226979047Y-103481190D01*
X227026666Y-103385952D01*
G04 #@! TO.C,C6*
X161960952Y-105922380D02*
X161389523Y-105922380D01*
X161675238Y-105922380D02*
X161675238Y-104922380D01*
X161580000Y-105065238D01*
X161484761Y-105160476D01*
X161389523Y-105208095D01*
X162580000Y-104922380D02*
X162675238Y-104922380D01*
X162770476Y-104970000D01*
X162818095Y-105017619D01*
X162865714Y-105112857D01*
X162913333Y-105303333D01*
X162913333Y-105541428D01*
X162865714Y-105731904D01*
X162818095Y-105827142D01*
X162770476Y-105874761D01*
X162675238Y-105922380D01*
X162580000Y-105922380D01*
X162484761Y-105874761D01*
X162437142Y-105827142D01*
X162389523Y-105731904D01*
X162341904Y-105541428D01*
X162341904Y-105303333D01*
X162389523Y-105112857D01*
X162437142Y-105017619D01*
X162484761Y-104970000D01*
X162580000Y-104922380D01*
X163675238Y-105398571D02*
X163341904Y-105398571D01*
X163341904Y-105922380D02*
X163341904Y-104922380D01*
X163818095Y-104922380D01*
X162413333Y-109577142D02*
X162365714Y-109624761D01*
X162222857Y-109672380D01*
X162127619Y-109672380D01*
X161984761Y-109624761D01*
X161889523Y-109529523D01*
X161841904Y-109434285D01*
X161794285Y-109243809D01*
X161794285Y-109100952D01*
X161841904Y-108910476D01*
X161889523Y-108815238D01*
X161984761Y-108720000D01*
X162127619Y-108672380D01*
X162222857Y-108672380D01*
X162365714Y-108720000D01*
X162413333Y-108767619D01*
X163270476Y-108672380D02*
X163080000Y-108672380D01*
X162984761Y-108720000D01*
X162937142Y-108767619D01*
X162841904Y-108910476D01*
X162794285Y-109100952D01*
X162794285Y-109481904D01*
X162841904Y-109577142D01*
X162889523Y-109624761D01*
X162984761Y-109672380D01*
X163175238Y-109672380D01*
X163270476Y-109624761D01*
X163318095Y-109577142D01*
X163365714Y-109481904D01*
X163365714Y-109243809D01*
X163318095Y-109148571D01*
X163270476Y-109100952D01*
X163175238Y-109053333D01*
X162984761Y-109053333D01*
X162889523Y-109100952D01*
X162841904Y-109148571D01*
X162794285Y-109243809D01*
G04 #@! TO.C,R14*
X179101904Y-106397619D02*
X179149523Y-106350000D01*
X179244761Y-106302380D01*
X179482857Y-106302380D01*
X179578095Y-106350000D01*
X179625714Y-106397619D01*
X179673333Y-106492857D01*
X179673333Y-106588095D01*
X179625714Y-106730952D01*
X179054285Y-107302380D01*
X179673333Y-107302380D01*
X180054285Y-106397619D02*
X180101904Y-106350000D01*
X180197142Y-106302380D01*
X180435238Y-106302380D01*
X180530476Y-106350000D01*
X180578095Y-106397619D01*
X180625714Y-106492857D01*
X180625714Y-106588095D01*
X180578095Y-106730952D01*
X180006666Y-107302380D01*
X180625714Y-107302380D01*
X181244761Y-106302380D02*
X181340000Y-106302380D01*
X181435238Y-106350000D01*
X181482857Y-106397619D01*
X181530476Y-106492857D01*
X181578095Y-106683333D01*
X181578095Y-106921428D01*
X181530476Y-107111904D01*
X181482857Y-107207142D01*
X181435238Y-107254761D01*
X181340000Y-107302380D01*
X181244761Y-107302380D01*
X181149523Y-107254761D01*
X181101904Y-107207142D01*
X181054285Y-107111904D01*
X181006666Y-106921428D01*
X181006666Y-106683333D01*
X181054285Y-106492857D01*
X181101904Y-106397619D01*
X181149523Y-106350000D01*
X181244761Y-106302380D01*
X179697142Y-109672380D02*
X179363809Y-109196190D01*
X179125714Y-109672380D02*
X179125714Y-108672380D01*
X179506666Y-108672380D01*
X179601904Y-108720000D01*
X179649523Y-108767619D01*
X179697142Y-108862857D01*
X179697142Y-109005714D01*
X179649523Y-109100952D01*
X179601904Y-109148571D01*
X179506666Y-109196190D01*
X179125714Y-109196190D01*
X180649523Y-109672380D02*
X180078095Y-109672380D01*
X180363809Y-109672380D02*
X180363809Y-108672380D01*
X180268571Y-108815238D01*
X180173333Y-108910476D01*
X180078095Y-108958095D01*
X181506666Y-109005714D02*
X181506666Y-109672380D01*
X181268571Y-108624761D02*
X181030476Y-109339047D01*
X181649523Y-109339047D01*
G04 #@! TO.C,R15*
X214661904Y-107032619D02*
X214709523Y-106985000D01*
X214804761Y-106937380D01*
X215042857Y-106937380D01*
X215138095Y-106985000D01*
X215185714Y-107032619D01*
X215233333Y-107127857D01*
X215233333Y-107223095D01*
X215185714Y-107365952D01*
X214614285Y-107937380D01*
X215233333Y-107937380D01*
X215614285Y-107032619D02*
X215661904Y-106985000D01*
X215757142Y-106937380D01*
X215995238Y-106937380D01*
X216090476Y-106985000D01*
X216138095Y-107032619D01*
X216185714Y-107127857D01*
X216185714Y-107223095D01*
X216138095Y-107365952D01*
X215566666Y-107937380D01*
X216185714Y-107937380D01*
X216804761Y-106937380D02*
X216900000Y-106937380D01*
X216995238Y-106985000D01*
X217042857Y-107032619D01*
X217090476Y-107127857D01*
X217138095Y-107318333D01*
X217138095Y-107556428D01*
X217090476Y-107746904D01*
X217042857Y-107842142D01*
X216995238Y-107889761D01*
X216900000Y-107937380D01*
X216804761Y-107937380D01*
X216709523Y-107889761D01*
X216661904Y-107842142D01*
X216614285Y-107746904D01*
X216566666Y-107556428D01*
X216566666Y-107318333D01*
X216614285Y-107127857D01*
X216661904Y-107032619D01*
X216709523Y-106985000D01*
X216804761Y-106937380D01*
X215257142Y-110307380D02*
X214923809Y-109831190D01*
X214685714Y-110307380D02*
X214685714Y-109307380D01*
X215066666Y-109307380D01*
X215161904Y-109355000D01*
X215209523Y-109402619D01*
X215257142Y-109497857D01*
X215257142Y-109640714D01*
X215209523Y-109735952D01*
X215161904Y-109783571D01*
X215066666Y-109831190D01*
X214685714Y-109831190D01*
X216209523Y-110307380D02*
X215638095Y-110307380D01*
X215923809Y-110307380D02*
X215923809Y-109307380D01*
X215828571Y-109450238D01*
X215733333Y-109545476D01*
X215638095Y-109593095D01*
X217114285Y-109307380D02*
X216638095Y-109307380D01*
X216590476Y-109783571D01*
X216638095Y-109735952D01*
X216733333Y-109688333D01*
X216971428Y-109688333D01*
X217066666Y-109735952D01*
X217114285Y-109783571D01*
X217161904Y-109878809D01*
X217161904Y-110116904D01*
X217114285Y-110212142D01*
X217066666Y-110259761D01*
X216971428Y-110307380D01*
X216733333Y-110307380D01*
X216638095Y-110259761D01*
X216590476Y-110212142D01*
G04 #@! TO.C,R16*
X196881904Y-107032619D02*
X196929523Y-106985000D01*
X197024761Y-106937380D01*
X197262857Y-106937380D01*
X197358095Y-106985000D01*
X197405714Y-107032619D01*
X197453333Y-107127857D01*
X197453333Y-107223095D01*
X197405714Y-107365952D01*
X196834285Y-107937380D01*
X197453333Y-107937380D01*
X197834285Y-107032619D02*
X197881904Y-106985000D01*
X197977142Y-106937380D01*
X198215238Y-106937380D01*
X198310476Y-106985000D01*
X198358095Y-107032619D01*
X198405714Y-107127857D01*
X198405714Y-107223095D01*
X198358095Y-107365952D01*
X197786666Y-107937380D01*
X198405714Y-107937380D01*
X199024761Y-106937380D02*
X199120000Y-106937380D01*
X199215238Y-106985000D01*
X199262857Y-107032619D01*
X199310476Y-107127857D01*
X199358095Y-107318333D01*
X199358095Y-107556428D01*
X199310476Y-107746904D01*
X199262857Y-107842142D01*
X199215238Y-107889761D01*
X199120000Y-107937380D01*
X199024761Y-107937380D01*
X198929523Y-107889761D01*
X198881904Y-107842142D01*
X198834285Y-107746904D01*
X198786666Y-107556428D01*
X198786666Y-107318333D01*
X198834285Y-107127857D01*
X198881904Y-107032619D01*
X198929523Y-106985000D01*
X199024761Y-106937380D01*
X197477142Y-110307380D02*
X197143809Y-109831190D01*
X196905714Y-110307380D02*
X196905714Y-109307380D01*
X197286666Y-109307380D01*
X197381904Y-109355000D01*
X197429523Y-109402619D01*
X197477142Y-109497857D01*
X197477142Y-109640714D01*
X197429523Y-109735952D01*
X197381904Y-109783571D01*
X197286666Y-109831190D01*
X196905714Y-109831190D01*
X198429523Y-110307380D02*
X197858095Y-110307380D01*
X198143809Y-110307380D02*
X198143809Y-109307380D01*
X198048571Y-109450238D01*
X197953333Y-109545476D01*
X197858095Y-109593095D01*
X199286666Y-109307380D02*
X199096190Y-109307380D01*
X199000952Y-109355000D01*
X198953333Y-109402619D01*
X198858095Y-109545476D01*
X198810476Y-109735952D01*
X198810476Y-110116904D01*
X198858095Y-110212142D01*
X198905714Y-110259761D01*
X199000952Y-110307380D01*
X199191428Y-110307380D01*
X199286666Y-110259761D01*
X199334285Y-110212142D01*
X199381904Y-110116904D01*
X199381904Y-109878809D01*
X199334285Y-109783571D01*
X199286666Y-109735952D01*
X199191428Y-109688333D01*
X199000952Y-109688333D01*
X198905714Y-109735952D01*
X198858095Y-109783571D01*
X198810476Y-109878809D01*
G04 #@! TO.C,SW3*
X194199047Y-108274761D02*
X194341904Y-108322380D01*
X194580000Y-108322380D01*
X194675238Y-108274761D01*
X194722857Y-108227142D01*
X194770476Y-108131904D01*
X194770476Y-108036666D01*
X194722857Y-107941428D01*
X194675238Y-107893809D01*
X194580000Y-107846190D01*
X194389523Y-107798571D01*
X194294285Y-107750952D01*
X194246666Y-107703333D01*
X194199047Y-107608095D01*
X194199047Y-107512857D01*
X194246666Y-107417619D01*
X194294285Y-107370000D01*
X194389523Y-107322380D01*
X194627619Y-107322380D01*
X194770476Y-107370000D01*
X195103809Y-107322380D02*
X195341904Y-108322380D01*
X195532380Y-107608095D01*
X195722857Y-108322380D01*
X195960952Y-107322380D01*
X196103809Y-108417619D02*
X196865714Y-108417619D01*
X197103809Y-108322380D02*
X197103809Y-107322380D01*
X197341904Y-107322380D01*
X197484761Y-107370000D01*
X197580000Y-107465238D01*
X197627619Y-107560476D01*
X197675238Y-107750952D01*
X197675238Y-107893809D01*
X197627619Y-108084285D01*
X197580000Y-108179523D01*
X197484761Y-108274761D01*
X197341904Y-108322380D01*
X197103809Y-108322380D01*
X198103809Y-108322380D02*
X198103809Y-107322380D01*
X198484761Y-107322380D01*
X198580000Y-107370000D01*
X198627619Y-107417619D01*
X198675238Y-107512857D01*
X198675238Y-107655714D01*
X198627619Y-107750952D01*
X198580000Y-107798571D01*
X198484761Y-107846190D01*
X198103809Y-107846190D01*
X199103809Y-108322380D02*
X199103809Y-107322380D01*
X199341904Y-107322380D01*
X199484761Y-107370000D01*
X199580000Y-107465238D01*
X199627619Y-107560476D01*
X199675238Y-107750952D01*
X199675238Y-107893809D01*
X199627619Y-108084285D01*
X199580000Y-108179523D01*
X199484761Y-108274761D01*
X199341904Y-108322380D01*
X199103809Y-108322380D01*
X199960952Y-107322380D02*
X200532380Y-107322380D01*
X200246666Y-108322380D02*
X200246666Y-107322380D01*
X200627619Y-108417619D02*
X201389523Y-108417619D01*
X201532380Y-108322380D02*
X202056190Y-107655714D01*
X201532380Y-107655714D02*
X202056190Y-108322380D01*
X202389523Y-107417619D02*
X202437142Y-107370000D01*
X202532380Y-107322380D01*
X202770476Y-107322380D01*
X202865714Y-107370000D01*
X202913333Y-107417619D01*
X202960952Y-107512857D01*
X202960952Y-107608095D01*
X202913333Y-107750952D01*
X202341904Y-108322380D01*
X202960952Y-108322380D01*
X196246666Y-104924761D02*
X196389523Y-104972380D01*
X196627619Y-104972380D01*
X196722857Y-104924761D01*
X196770476Y-104877142D01*
X196818095Y-104781904D01*
X196818095Y-104686666D01*
X196770476Y-104591428D01*
X196722857Y-104543809D01*
X196627619Y-104496190D01*
X196437142Y-104448571D01*
X196341904Y-104400952D01*
X196294285Y-104353333D01*
X196246666Y-104258095D01*
X196246666Y-104162857D01*
X196294285Y-104067619D01*
X196341904Y-104020000D01*
X196437142Y-103972380D01*
X196675238Y-103972380D01*
X196818095Y-104020000D01*
X197151428Y-103972380D02*
X197389523Y-104972380D01*
X197580000Y-104258095D01*
X197770476Y-104972380D01*
X198008571Y-103972380D01*
X198294285Y-103972380D02*
X198913333Y-103972380D01*
X198580000Y-104353333D01*
X198722857Y-104353333D01*
X198818095Y-104400952D01*
X198865714Y-104448571D01*
X198913333Y-104543809D01*
X198913333Y-104781904D01*
X198865714Y-104877142D01*
X198818095Y-104924761D01*
X198722857Y-104972380D01*
X198437142Y-104972380D01*
X198341904Y-104924761D01*
X198294285Y-104877142D01*
G04 #@! TO.C,SW4*
X211979047Y-108274761D02*
X212121904Y-108322380D01*
X212360000Y-108322380D01*
X212455238Y-108274761D01*
X212502857Y-108227142D01*
X212550476Y-108131904D01*
X212550476Y-108036666D01*
X212502857Y-107941428D01*
X212455238Y-107893809D01*
X212360000Y-107846190D01*
X212169523Y-107798571D01*
X212074285Y-107750952D01*
X212026666Y-107703333D01*
X211979047Y-107608095D01*
X211979047Y-107512857D01*
X212026666Y-107417619D01*
X212074285Y-107370000D01*
X212169523Y-107322380D01*
X212407619Y-107322380D01*
X212550476Y-107370000D01*
X212883809Y-107322380D02*
X213121904Y-108322380D01*
X213312380Y-107608095D01*
X213502857Y-108322380D01*
X213740952Y-107322380D01*
X213883809Y-108417619D02*
X214645714Y-108417619D01*
X214883809Y-108322380D02*
X214883809Y-107322380D01*
X215121904Y-107322380D01*
X215264761Y-107370000D01*
X215360000Y-107465238D01*
X215407619Y-107560476D01*
X215455238Y-107750952D01*
X215455238Y-107893809D01*
X215407619Y-108084285D01*
X215360000Y-108179523D01*
X215264761Y-108274761D01*
X215121904Y-108322380D01*
X214883809Y-108322380D01*
X215883809Y-108322380D02*
X215883809Y-107322380D01*
X216264761Y-107322380D01*
X216360000Y-107370000D01*
X216407619Y-107417619D01*
X216455238Y-107512857D01*
X216455238Y-107655714D01*
X216407619Y-107750952D01*
X216360000Y-107798571D01*
X216264761Y-107846190D01*
X215883809Y-107846190D01*
X216883809Y-108322380D02*
X216883809Y-107322380D01*
X217121904Y-107322380D01*
X217264761Y-107370000D01*
X217360000Y-107465238D01*
X217407619Y-107560476D01*
X217455238Y-107750952D01*
X217455238Y-107893809D01*
X217407619Y-108084285D01*
X217360000Y-108179523D01*
X217264761Y-108274761D01*
X217121904Y-108322380D01*
X216883809Y-108322380D01*
X217740952Y-107322380D02*
X218312380Y-107322380D01*
X218026666Y-108322380D02*
X218026666Y-107322380D01*
X218407619Y-108417619D02*
X219169523Y-108417619D01*
X219312380Y-108322380D02*
X219836190Y-107655714D01*
X219312380Y-107655714D02*
X219836190Y-108322380D01*
X220169523Y-107417619D02*
X220217142Y-107370000D01*
X220312380Y-107322380D01*
X220550476Y-107322380D01*
X220645714Y-107370000D01*
X220693333Y-107417619D01*
X220740952Y-107512857D01*
X220740952Y-107608095D01*
X220693333Y-107750952D01*
X220121904Y-108322380D01*
X220740952Y-108322380D01*
X214026666Y-104924761D02*
X214169523Y-104972380D01*
X214407619Y-104972380D01*
X214502857Y-104924761D01*
X214550476Y-104877142D01*
X214598095Y-104781904D01*
X214598095Y-104686666D01*
X214550476Y-104591428D01*
X214502857Y-104543809D01*
X214407619Y-104496190D01*
X214217142Y-104448571D01*
X214121904Y-104400952D01*
X214074285Y-104353333D01*
X214026666Y-104258095D01*
X214026666Y-104162857D01*
X214074285Y-104067619D01*
X214121904Y-104020000D01*
X214217142Y-103972380D01*
X214455238Y-103972380D01*
X214598095Y-104020000D01*
X214931428Y-103972380D02*
X215169523Y-104972380D01*
X215360000Y-104258095D01*
X215550476Y-104972380D01*
X215788571Y-103972380D01*
X216598095Y-104305714D02*
X216598095Y-104972380D01*
X216360000Y-103924761D02*
X216121904Y-104639047D01*
X216740952Y-104639047D01*
G04 #@! TO.C,C1*
X141244095Y-116074380D02*
X141339333Y-116074380D01*
X141434571Y-116122000D01*
X141482190Y-116169619D01*
X141529809Y-116264857D01*
X141577428Y-116455333D01*
X141577428Y-116693428D01*
X141529809Y-116883904D01*
X141482190Y-116979142D01*
X141434571Y-117026761D01*
X141339333Y-117074380D01*
X141244095Y-117074380D01*
X141148857Y-117026761D01*
X141101238Y-116979142D01*
X141053619Y-116883904D01*
X141006000Y-116693428D01*
X141006000Y-116455333D01*
X141053619Y-116264857D01*
X141101238Y-116169619D01*
X141148857Y-116122000D01*
X141244095Y-116074380D01*
X142006000Y-116979142D02*
X142053619Y-117026761D01*
X142006000Y-117074380D01*
X141958380Y-117026761D01*
X142006000Y-116979142D01*
X142006000Y-117074380D01*
X143006000Y-117074380D02*
X142434571Y-117074380D01*
X142720285Y-117074380D02*
X142720285Y-116074380D01*
X142625047Y-116217238D01*
X142529809Y-116312476D01*
X142434571Y-116360095D01*
D13*
X141906000Y-119086285D02*
X141877428Y-119114857D01*
X141791714Y-119143428D01*
X141734571Y-119143428D01*
X141648857Y-119114857D01*
X141591714Y-119057714D01*
X141563142Y-119000571D01*
X141534571Y-118886285D01*
X141534571Y-118800571D01*
X141563142Y-118686285D01*
X141591714Y-118629142D01*
X141648857Y-118572000D01*
X141734571Y-118543428D01*
X141791714Y-118543428D01*
X141877428Y-118572000D01*
X141906000Y-118600571D01*
X142477428Y-119143428D02*
X142134571Y-119143428D01*
X142306000Y-119143428D02*
X142306000Y-118543428D01*
X142248857Y-118629142D01*
X142191714Y-118686285D01*
X142134571Y-118714857D01*
G04 #@! TO.C,K2*
D12*
X171672000Y-135953523D02*
X171624380Y-136048761D01*
X171624380Y-136191619D01*
X171672000Y-136334476D01*
X171767238Y-136429714D01*
X171862476Y-136477333D01*
X172052952Y-136524952D01*
X172195809Y-136524952D01*
X172386285Y-136477333D01*
X172481523Y-136429714D01*
X172576761Y-136334476D01*
X172624380Y-136191619D01*
X172624380Y-136096380D01*
X172576761Y-135953523D01*
X172529142Y-135905904D01*
X172195809Y-135905904D01*
X172195809Y-136096380D01*
X171624380Y-135048761D02*
X171624380Y-135239238D01*
X171672000Y-135334476D01*
X171719619Y-135382095D01*
X171862476Y-135477333D01*
X172052952Y-135524952D01*
X172433904Y-135524952D01*
X172529142Y-135477333D01*
X172576761Y-135429714D01*
X172624380Y-135334476D01*
X172624380Y-135144000D01*
X172576761Y-135048761D01*
X172529142Y-135001142D01*
X172433904Y-134953523D01*
X172195809Y-134953523D01*
X172100571Y-135001142D01*
X172052952Y-135048761D01*
X172005333Y-135144000D01*
X172005333Y-135334476D01*
X172052952Y-135429714D01*
X172100571Y-135477333D01*
X172195809Y-135524952D01*
X172624380Y-134524952D02*
X171624380Y-134524952D01*
X172624380Y-133953523D02*
X172052952Y-134382095D01*
X171624380Y-133953523D02*
X172195809Y-134524952D01*
X172243428Y-133524952D02*
X172243428Y-132763047D01*
X171719619Y-132334476D02*
X171672000Y-132286857D01*
X171624380Y-132191619D01*
X171624380Y-131953523D01*
X171672000Y-131858285D01*
X171719619Y-131810666D01*
X171814857Y-131763047D01*
X171910095Y-131763047D01*
X172052952Y-131810666D01*
X172624380Y-132382095D01*
X172624380Y-131763047D01*
X172624380Y-131334476D02*
X171624380Y-131334476D01*
X171624380Y-130953523D01*
X171672000Y-130858285D01*
X171719619Y-130810666D01*
X171814857Y-130763047D01*
X171957714Y-130763047D01*
X172052952Y-130810666D01*
X172100571Y-130858285D01*
X172148190Y-130953523D01*
X172148190Y-131334476D01*
X166324380Y-134332095D02*
X165324380Y-134332095D01*
X166324380Y-133760666D02*
X165752952Y-134189238D01*
X165324380Y-133760666D02*
X165895809Y-134332095D01*
X165419619Y-133379714D02*
X165372000Y-133332095D01*
X165324380Y-133236857D01*
X165324380Y-132998761D01*
X165372000Y-132903523D01*
X165419619Y-132855904D01*
X165514857Y-132808285D01*
X165610095Y-132808285D01*
X165752952Y-132855904D01*
X166324380Y-133427333D01*
X166324380Y-132808285D01*
G04 #@! TO.C,C7*
X185678380Y-105541047D02*
X185678380Y-106112476D01*
X185678380Y-105826761D02*
X184678380Y-105826761D01*
X184821238Y-105922000D01*
X184916476Y-106017238D01*
X184964095Y-106112476D01*
X184678380Y-104922000D02*
X184678380Y-104826761D01*
X184726000Y-104731523D01*
X184773619Y-104683904D01*
X184868857Y-104636285D01*
X185059333Y-104588666D01*
X185297428Y-104588666D01*
X185487904Y-104636285D01*
X185583142Y-104683904D01*
X185630761Y-104731523D01*
X185678380Y-104826761D01*
X185678380Y-104922000D01*
X185630761Y-105017238D01*
X185583142Y-105064857D01*
X185487904Y-105112476D01*
X185297428Y-105160095D01*
X185059333Y-105160095D01*
X184868857Y-105112476D01*
X184773619Y-105064857D01*
X184726000Y-105017238D01*
X184678380Y-104922000D01*
X185154571Y-103826761D02*
X185154571Y-104160095D01*
X185678380Y-104160095D02*
X184678380Y-104160095D01*
X184678380Y-103683904D01*
X189333142Y-105088666D02*
X189380761Y-105136285D01*
X189428380Y-105279142D01*
X189428380Y-105374380D01*
X189380761Y-105517238D01*
X189285523Y-105612476D01*
X189190285Y-105660095D01*
X188999809Y-105707714D01*
X188856952Y-105707714D01*
X188666476Y-105660095D01*
X188571238Y-105612476D01*
X188476000Y-105517238D01*
X188428380Y-105374380D01*
X188428380Y-105279142D01*
X188476000Y-105136285D01*
X188523619Y-105088666D01*
X188428380Y-104755333D02*
X188428380Y-104088666D01*
X189428380Y-104517238D01*
G04 #@! TO.C,C8*
X221492380Y-110073047D02*
X221492380Y-110644476D01*
X221492380Y-110358761D02*
X220492380Y-110358761D01*
X220635238Y-110454000D01*
X220730476Y-110549238D01*
X220778095Y-110644476D01*
X220492380Y-109454000D02*
X220492380Y-109358761D01*
X220540000Y-109263523D01*
X220587619Y-109215904D01*
X220682857Y-109168285D01*
X220873333Y-109120666D01*
X221111428Y-109120666D01*
X221301904Y-109168285D01*
X221397142Y-109215904D01*
X221444761Y-109263523D01*
X221492380Y-109358761D01*
X221492380Y-109454000D01*
X221444761Y-109549238D01*
X221397142Y-109596857D01*
X221301904Y-109644476D01*
X221111428Y-109692095D01*
X220873333Y-109692095D01*
X220682857Y-109644476D01*
X220587619Y-109596857D01*
X220540000Y-109549238D01*
X220492380Y-109454000D01*
X220968571Y-108358761D02*
X220968571Y-108692095D01*
X221492380Y-108692095D02*
X220492380Y-108692095D01*
X220492380Y-108215904D01*
X225147142Y-109620666D02*
X225194761Y-109668285D01*
X225242380Y-109811142D01*
X225242380Y-109906380D01*
X225194761Y-110049238D01*
X225099523Y-110144476D01*
X225004285Y-110192095D01*
X224813809Y-110239714D01*
X224670952Y-110239714D01*
X224480476Y-110192095D01*
X224385238Y-110144476D01*
X224290000Y-110049238D01*
X224242380Y-109906380D01*
X224242380Y-109811142D01*
X224290000Y-109668285D01*
X224337619Y-109620666D01*
X224670952Y-109049238D02*
X224623333Y-109144476D01*
X224575714Y-109192095D01*
X224480476Y-109239714D01*
X224432857Y-109239714D01*
X224337619Y-109192095D01*
X224290000Y-109144476D01*
X224242380Y-109049238D01*
X224242380Y-108858761D01*
X224290000Y-108763523D01*
X224337619Y-108715904D01*
X224432857Y-108668285D01*
X224480476Y-108668285D01*
X224575714Y-108715904D01*
X224623333Y-108763523D01*
X224670952Y-108858761D01*
X224670952Y-109049238D01*
X224718571Y-109144476D01*
X224766190Y-109192095D01*
X224861428Y-109239714D01*
X225051904Y-109239714D01*
X225147142Y-109192095D01*
X225194761Y-109144476D01*
X225242380Y-109049238D01*
X225242380Y-108858761D01*
X225194761Y-108763523D01*
X225147142Y-108715904D01*
X225051904Y-108668285D01*
X224861428Y-108668285D01*
X224766190Y-108715904D01*
X224718571Y-108763523D01*
X224670952Y-108858761D01*
G04 #@! TO.C,C9*
X203458380Y-105501047D02*
X203458380Y-106072476D01*
X203458380Y-105786761D02*
X202458380Y-105786761D01*
X202601238Y-105882000D01*
X202696476Y-105977238D01*
X202744095Y-106072476D01*
X202458380Y-104882000D02*
X202458380Y-104786761D01*
X202506000Y-104691523D01*
X202553619Y-104643904D01*
X202648857Y-104596285D01*
X202839333Y-104548666D01*
X203077428Y-104548666D01*
X203267904Y-104596285D01*
X203363142Y-104643904D01*
X203410761Y-104691523D01*
X203458380Y-104786761D01*
X203458380Y-104882000D01*
X203410761Y-104977238D01*
X203363142Y-105024857D01*
X203267904Y-105072476D01*
X203077428Y-105120095D01*
X202839333Y-105120095D01*
X202648857Y-105072476D01*
X202553619Y-105024857D01*
X202506000Y-104977238D01*
X202458380Y-104882000D01*
X202934571Y-103786761D02*
X202934571Y-104120095D01*
X203458380Y-104120095D02*
X202458380Y-104120095D01*
X202458380Y-103643904D01*
X207113142Y-105048666D02*
X207160761Y-105096285D01*
X207208380Y-105239142D01*
X207208380Y-105334380D01*
X207160761Y-105477238D01*
X207065523Y-105572476D01*
X206970285Y-105620095D01*
X206779809Y-105667714D01*
X206636952Y-105667714D01*
X206446476Y-105620095D01*
X206351238Y-105572476D01*
X206256000Y-105477238D01*
X206208380Y-105334380D01*
X206208380Y-105239142D01*
X206256000Y-105096285D01*
X206303619Y-105048666D01*
X207208380Y-104572476D02*
X207208380Y-104382000D01*
X207160761Y-104286761D01*
X207113142Y-104239142D01*
X206970285Y-104143904D01*
X206779809Y-104096285D01*
X206398857Y-104096285D01*
X206303619Y-104143904D01*
X206256000Y-104191523D01*
X206208380Y-104286761D01*
X206208380Y-104477238D01*
X206256000Y-104572476D01*
X206303619Y-104620095D01*
X206398857Y-104667714D01*
X206636952Y-104667714D01*
X206732190Y-104620095D01*
X206779809Y-104572476D01*
X206827428Y-104477238D01*
X206827428Y-104286761D01*
X206779809Y-104191523D01*
X206732190Y-104143904D01*
X206636952Y-104096285D01*
G04 #@! TO.C,K1*
X188784000Y-135382095D02*
X188736380Y-135477333D01*
X188736380Y-135620190D01*
X188784000Y-135763047D01*
X188879238Y-135858285D01*
X188974476Y-135905904D01*
X189164952Y-135953523D01*
X189307809Y-135953523D01*
X189498285Y-135905904D01*
X189593523Y-135858285D01*
X189688761Y-135763047D01*
X189736380Y-135620190D01*
X189736380Y-135524952D01*
X189688761Y-135382095D01*
X189641142Y-135334476D01*
X189307809Y-135334476D01*
X189307809Y-135524952D01*
X188736380Y-134429714D02*
X188736380Y-134905904D01*
X189212571Y-134953523D01*
X189164952Y-134905904D01*
X189117333Y-134810666D01*
X189117333Y-134572571D01*
X189164952Y-134477333D01*
X189212571Y-134429714D01*
X189307809Y-134382095D01*
X189545904Y-134382095D01*
X189641142Y-134429714D01*
X189688761Y-134477333D01*
X189736380Y-134572571D01*
X189736380Y-134810666D01*
X189688761Y-134905904D01*
X189641142Y-134953523D01*
X188736380Y-134096380D02*
X189736380Y-133763047D01*
X188736380Y-133429714D01*
X189355428Y-133096380D02*
X189355428Y-132334476D01*
X189736380Y-131334476D02*
X189736380Y-131905904D01*
X189736380Y-131620190D02*
X188736380Y-131620190D01*
X188879238Y-131715428D01*
X188974476Y-131810666D01*
X189022095Y-131905904D01*
X183586380Y-134342095D02*
X182586380Y-134342095D01*
X183586380Y-133770666D02*
X183014952Y-134199238D01*
X182586380Y-133770666D02*
X183157809Y-134342095D01*
X183586380Y-132818285D02*
X183586380Y-133389714D01*
X183586380Y-133104000D02*
X182586380Y-133104000D01*
X182729238Y-133199238D01*
X182824476Y-133294476D01*
X182872095Y-133389714D01*
G04 #@! TO.C,K3*
X206564000Y-135382095D02*
X206516380Y-135477333D01*
X206516380Y-135620190D01*
X206564000Y-135763047D01*
X206659238Y-135858285D01*
X206754476Y-135905904D01*
X206944952Y-135953523D01*
X207087809Y-135953523D01*
X207278285Y-135905904D01*
X207373523Y-135858285D01*
X207468761Y-135763047D01*
X207516380Y-135620190D01*
X207516380Y-135524952D01*
X207468761Y-135382095D01*
X207421142Y-135334476D01*
X207087809Y-135334476D01*
X207087809Y-135524952D01*
X206516380Y-134429714D02*
X206516380Y-134905904D01*
X206992571Y-134953523D01*
X206944952Y-134905904D01*
X206897333Y-134810666D01*
X206897333Y-134572571D01*
X206944952Y-134477333D01*
X206992571Y-134429714D01*
X207087809Y-134382095D01*
X207325904Y-134382095D01*
X207421142Y-134429714D01*
X207468761Y-134477333D01*
X207516380Y-134572571D01*
X207516380Y-134810666D01*
X207468761Y-134905904D01*
X207421142Y-134953523D01*
X206516380Y-134096380D02*
X207516380Y-133763047D01*
X206516380Y-133429714D01*
X207135428Y-133096380D02*
X207135428Y-132334476D01*
X207516380Y-131334476D02*
X207516380Y-131905904D01*
X207516380Y-131620190D02*
X206516380Y-131620190D01*
X206659238Y-131715428D01*
X206754476Y-131810666D01*
X206802095Y-131905904D01*
X201366380Y-134342095D02*
X200366380Y-134342095D01*
X201366380Y-133770666D02*
X200794952Y-134199238D01*
X200366380Y-133770666D02*
X200937809Y-134342095D01*
X200366380Y-133437333D02*
X200366380Y-132818285D01*
X200747333Y-133151619D01*
X200747333Y-133008761D01*
X200794952Y-132913523D01*
X200842571Y-132865904D01*
X200937809Y-132818285D01*
X201175904Y-132818285D01*
X201271142Y-132865904D01*
X201318761Y-132913523D01*
X201366380Y-133008761D01*
X201366380Y-133294476D01*
X201318761Y-133389714D01*
X201271142Y-133437333D01*
G04 #@! TO.C,K4*
X224344000Y-135382095D02*
X224296380Y-135477333D01*
X224296380Y-135620190D01*
X224344000Y-135763047D01*
X224439238Y-135858285D01*
X224534476Y-135905904D01*
X224724952Y-135953523D01*
X224867809Y-135953523D01*
X225058285Y-135905904D01*
X225153523Y-135858285D01*
X225248761Y-135763047D01*
X225296380Y-135620190D01*
X225296380Y-135524952D01*
X225248761Y-135382095D01*
X225201142Y-135334476D01*
X224867809Y-135334476D01*
X224867809Y-135524952D01*
X224296380Y-134429714D02*
X224296380Y-134905904D01*
X224772571Y-134953523D01*
X224724952Y-134905904D01*
X224677333Y-134810666D01*
X224677333Y-134572571D01*
X224724952Y-134477333D01*
X224772571Y-134429714D01*
X224867809Y-134382095D01*
X225105904Y-134382095D01*
X225201142Y-134429714D01*
X225248761Y-134477333D01*
X225296380Y-134572571D01*
X225296380Y-134810666D01*
X225248761Y-134905904D01*
X225201142Y-134953523D01*
X224296380Y-134096380D02*
X225296380Y-133763047D01*
X224296380Y-133429714D01*
X224915428Y-133096380D02*
X224915428Y-132334476D01*
X225296380Y-131334476D02*
X225296380Y-131905904D01*
X225296380Y-131620190D02*
X224296380Y-131620190D01*
X224439238Y-131715428D01*
X224534476Y-131810666D01*
X224582095Y-131905904D01*
X219146380Y-134342095D02*
X218146380Y-134342095D01*
X219146380Y-133770666D02*
X218574952Y-134199238D01*
X218146380Y-133770666D02*
X218717809Y-134342095D01*
X218479714Y-132913523D02*
X219146380Y-132913523D01*
X218098761Y-133151619D02*
X218813047Y-133389714D01*
X218813047Y-132770666D01*
G04 #@! TO.C,D1*
X155821142Y-126944380D02*
X155344952Y-126944380D01*
X155344952Y-125944380D01*
X156154476Y-126420571D02*
X156487809Y-126420571D01*
X156630666Y-126944380D02*
X156154476Y-126944380D01*
X156154476Y-125944380D01*
X156630666Y-125944380D01*
X157059238Y-126944380D02*
X157059238Y-125944380D01*
X157297333Y-125944380D01*
X157440190Y-125992000D01*
X157535428Y-126087238D01*
X157583047Y-126182476D01*
X157630666Y-126372952D01*
X157630666Y-126515809D01*
X157583047Y-126706285D01*
X157535428Y-126801523D01*
X157440190Y-126896761D01*
X157297333Y-126944380D01*
X157059238Y-126944380D01*
D10*
X157180428Y-131911285D02*
X157180428Y-131161285D01*
X157359000Y-131161285D01*
X157466142Y-131197000D01*
X157537571Y-131268428D01*
X157573285Y-131339857D01*
X157609000Y-131482714D01*
X157609000Y-131589857D01*
X157573285Y-131732714D01*
X157537571Y-131804142D01*
X157466142Y-131875571D01*
X157359000Y-131911285D01*
X157180428Y-131911285D01*
X158323285Y-131911285D02*
X157894714Y-131911285D01*
X158109000Y-131911285D02*
X158109000Y-131161285D01*
X158037571Y-131268428D01*
X157966142Y-131339857D01*
X157894714Y-131375571D01*
G04 #@! TD*
M02*
