M48
;DRILL file {KiCad (5.0.1-3-g963ef8bb5)} date Sunday, March 03, 2019 at 07:22:21 PM
;FORMAT={-:-/ absolute / inch / decimal}
FMAT,2
INCH,TZ
T1C0.0315
T2C0.0335
T3C0.0354
T4C0.0394
T5C0.0472
T6C0.0472
T7C0.0866
%
G90
G05
M72
T1
X6.65Y-4.65
X6.75Y-4.65
X6.85Y-4.65
X8.Y-4.65
X8.1Y-4.65
X8.2Y-4.65
X8.14Y-4.08
X8.14Y-4.1784
X5.5416Y-4.68
X5.64Y-4.68
X8.1Y-4.9
X8.1Y-4.9984
X5.1Y-4.42
X5.4Y-4.42
X6.95Y-4.3
X7.25Y-4.3
X6.925Y-4.475
X7.225Y-4.475
X7.65Y-5.
X7.95Y-5.
X7.65Y-4.325
X7.95Y-4.325
X7.44Y-4.0816
X7.44Y-4.18
X8.35Y-4.8
X8.65Y-4.8
X6.25Y-5.
X6.55Y-5.
X8.85Y-4.26
X8.85Y-4.3584
X5.34Y-4.68
X5.34Y-4.98
X8.35Y-5.
X8.65Y-5.
X6.95Y-5.
X7.25Y-5.
X7.3Y-4.65
X7.4Y-4.65
X7.5Y-4.65
X8.7Y-4.65
X8.8Y-4.65
X8.9Y-4.65
X8.8Y-4.9
X8.8Y-4.9984
X6.25Y-4.6
X6.55Y-4.6
X7.4Y-4.9
X7.4Y-4.9984
X6.75Y-4.9
X6.75Y-4.9984
X6.04Y-4.78
X6.04Y-5.08
X8.35Y-4.325
X8.65Y-4.325
X6.25Y-4.8
X6.55Y-4.8
X6.3516Y-4.3
X6.45Y-4.3
X7.65Y-4.8
X7.95Y-4.8
X6.95Y-4.825
X7.25Y-4.825
T2
X6.3808Y-5.16
X6.3808Y-5.36
X6.4989Y-5.16
X6.4989Y-5.36
X6.5934Y-5.16
X6.5934Y-5.36
X6.68Y-5.16
X6.68Y-5.36
T3
X5.38Y-5.46
X5.38Y-5.5899
X5.4784Y-5.46
X5.4784Y-5.5899
X5.5769Y-5.46
X5.5769Y-5.5899
X7.Y-4.05
X7.Y-4.1799
X7.0984Y-4.05
X7.0984Y-4.1799
X7.1969Y-4.05
X7.1969Y-4.1799
X7.7Y-4.05
X7.7Y-4.1799
X7.7984Y-4.05
X7.7984Y-4.1799
X7.8969Y-4.05
X7.8969Y-4.1799
X8.4Y-4.05
X8.4Y-4.1799
X8.4984Y-4.05
X8.4984Y-4.1799
X8.5969Y-4.05
X8.5969Y-4.1799
T4
X7.66Y-5.16
X7.66Y-5.36
X7.76Y-5.16
X7.76Y-5.36
X8.06Y-5.16
X8.06Y-5.36
X6.16Y-5.18
X6.26Y-5.18
X8.36Y-5.16
X8.36Y-5.36
X8.46Y-5.16
X8.46Y-5.36
X8.76Y-5.16
X8.76Y-5.36
X6.96Y-5.16
X6.96Y-5.36
X7.06Y-5.16
X7.06Y-5.36
X7.36Y-5.16
X7.36Y-5.36
T5
X6.42Y-5.54
X6.57Y-5.54
X6.72Y-5.54
X6.325Y-4.075
X6.475Y-4.075
X5.1Y-4.68
X5.1Y-4.83
X5.1Y-4.98
X7.7Y-5.54
X7.85Y-5.54
X8.Y-5.54
X5.85Y-5.54
X6.Y-5.54
X6.15Y-5.54
X7.Y-5.54
X7.15Y-5.54
X7.3Y-5.54
X8.4Y-5.54
X8.55Y-5.54
X8.7Y-5.54
T6
X5.82Y-4.8
X5.82Y-5.2
T7
X8.9Y-4.075
X5.1Y-5.56
X5.1Y-4.075
X8.9Y-5.56
T0
M30
